G75*
%MOIN*%
%OFA0B0*%
%FSLAX25Y25*%
%IPPOS*%
%LPD*%
%AMOC8*
5,1,8,0,0,1.08239X$1,22.5*
%
%ADD10C,0.00200*%
%ADD11C,0.00600*%
%ADD12C,0.00300*%
%ADD13R,0.09000X0.02500*%
%ADD14C,0.00500*%
%ADD15R,0.02953X0.11811*%
%ADD16C,0.00400*%
D10*
X0055998Y0009524D02*
X0056365Y0009157D01*
X0056732Y0009157D01*
X0057099Y0009524D01*
X0057099Y0010258D01*
X0057466Y0010625D01*
X0057833Y0010625D01*
X0058200Y0010258D01*
X0058200Y0009524D01*
X0057833Y0009157D01*
X0055998Y0009524D02*
X0055998Y0010258D01*
X0056365Y0010625D01*
X0055998Y0011367D02*
X0055998Y0012101D01*
X0055998Y0011734D02*
X0058200Y0011734D01*
X0058200Y0011367D02*
X0058200Y0012101D01*
X0057833Y0012840D02*
X0056365Y0012840D01*
X0055998Y0013207D01*
X0055998Y0013941D01*
X0056365Y0014308D01*
X0057099Y0014308D02*
X0057099Y0013574D01*
X0057833Y0012840D02*
X0058200Y0013207D01*
X0058200Y0013941D01*
X0057833Y0014308D01*
X0057099Y0014308D01*
X0055998Y0019330D02*
X0058200Y0020798D01*
X0055998Y0020798D01*
X0056365Y0021540D02*
X0057833Y0021540D01*
X0058200Y0021907D01*
X0058200Y0022641D01*
X0057833Y0023008D01*
X0056365Y0023008D02*
X0055998Y0022641D01*
X0055998Y0021907D01*
X0056365Y0021540D01*
X0055998Y0019330D02*
X0058200Y0019330D01*
X0057833Y0027120D02*
X0056365Y0027120D01*
X0055998Y0027487D01*
X0055998Y0028221D01*
X0056365Y0028588D01*
X0057099Y0028588D02*
X0057099Y0027854D01*
X0057099Y0028588D02*
X0057833Y0028588D01*
X0058200Y0028221D01*
X0058200Y0027487D01*
X0057833Y0027120D01*
X0058200Y0029330D02*
X0055998Y0029330D01*
X0058200Y0030798D01*
X0055998Y0030798D01*
X0055998Y0031540D02*
X0055998Y0032641D01*
X0056365Y0033008D01*
X0057833Y0033008D01*
X0058200Y0032641D01*
X0058200Y0031540D01*
X0055998Y0031540D01*
D11*
X0054700Y0029700D02*
X0052200Y0027200D01*
X0054700Y0024700D01*
X0054700Y0019700D01*
X0052200Y0017200D01*
X0054700Y0014700D01*
X0054700Y0009700D01*
X0052200Y0007200D01*
X0047200Y0007200D01*
X0044700Y0009700D01*
X0044700Y0014700D01*
X0047200Y0017200D01*
X0044700Y0019700D01*
X0044700Y0024700D01*
X0047200Y0027200D01*
X0044700Y0029700D01*
X0044700Y0034700D01*
X0047200Y0037200D01*
X0052200Y0037200D01*
X0054700Y0034700D01*
X0054700Y0029700D01*
X0060102Y0020291D02*
X0060472Y0020291D01*
X0060102Y0020291D02*
X0060102Y0014109D01*
X0060472Y0014109D01*
X0063645Y0014109D02*
X0064015Y0014109D01*
X0067385Y0014109D02*
X0067755Y0014109D01*
X0070928Y0014109D02*
X0071298Y0014109D01*
X0071298Y0020291D01*
X0070928Y0020291D01*
X0067755Y0020291D02*
X0063645Y0020291D01*
X0088200Y0012200D02*
X0091200Y0012200D01*
X0089700Y0013700D02*
X0089700Y0010700D01*
X0115200Y0014700D02*
X0115200Y0019700D01*
X0117700Y0022200D01*
X0115200Y0024700D01*
X0115200Y0029700D01*
X0117700Y0032200D01*
X0115200Y0034700D01*
X0115200Y0039700D01*
X0117700Y0042200D01*
X0132700Y0042200D01*
X0135200Y0039700D01*
X0135200Y0034700D01*
X0132700Y0032200D01*
X0135200Y0029700D01*
X0135200Y0024700D01*
X0132700Y0022200D01*
X0135200Y0019700D01*
X0135200Y0014700D01*
X0132700Y0012200D01*
X0117700Y0012200D01*
X0115200Y0014700D01*
X0094700Y0022700D02*
X0094700Y0023700D01*
X0090200Y0023700D01*
X0090200Y0026200D01*
X0099200Y0026200D01*
X0099200Y0023700D01*
X0094700Y0023700D01*
X0074700Y0027200D02*
X0074706Y0027691D01*
X0074724Y0028181D01*
X0074754Y0028671D01*
X0074796Y0029160D01*
X0074850Y0029648D01*
X0074916Y0030135D01*
X0074994Y0030619D01*
X0075084Y0031102D01*
X0075186Y0031582D01*
X0075299Y0032060D01*
X0075424Y0032534D01*
X0075561Y0033006D01*
X0075709Y0033474D01*
X0075869Y0033938D01*
X0076040Y0034398D01*
X0076222Y0034854D01*
X0076416Y0035305D01*
X0076620Y0035751D01*
X0076836Y0036192D01*
X0077062Y0036628D01*
X0077298Y0037058D01*
X0077545Y0037482D01*
X0077803Y0037900D01*
X0078071Y0038311D01*
X0078348Y0038716D01*
X0078636Y0039114D01*
X0078933Y0039505D01*
X0079240Y0039888D01*
X0079556Y0040263D01*
X0079881Y0040631D01*
X0080215Y0040991D01*
X0080558Y0041342D01*
X0080909Y0041685D01*
X0081269Y0042019D01*
X0081637Y0042344D01*
X0082012Y0042660D01*
X0082395Y0042967D01*
X0082786Y0043264D01*
X0083184Y0043552D01*
X0083589Y0043829D01*
X0084000Y0044097D01*
X0084418Y0044355D01*
X0084842Y0044602D01*
X0085272Y0044838D01*
X0085708Y0045064D01*
X0086149Y0045280D01*
X0086595Y0045484D01*
X0087046Y0045678D01*
X0087502Y0045860D01*
X0087962Y0046031D01*
X0088426Y0046191D01*
X0088894Y0046339D01*
X0089366Y0046476D01*
X0089840Y0046601D01*
X0090318Y0046714D01*
X0090798Y0046816D01*
X0091281Y0046906D01*
X0091765Y0046984D01*
X0092252Y0047050D01*
X0092740Y0047104D01*
X0093229Y0047146D01*
X0093719Y0047176D01*
X0094209Y0047194D01*
X0094700Y0047200D01*
X0095191Y0047194D01*
X0095681Y0047176D01*
X0096171Y0047146D01*
X0096660Y0047104D01*
X0097148Y0047050D01*
X0097635Y0046984D01*
X0098119Y0046906D01*
X0098602Y0046816D01*
X0099082Y0046714D01*
X0099560Y0046601D01*
X0100034Y0046476D01*
X0100506Y0046339D01*
X0100974Y0046191D01*
X0101438Y0046031D01*
X0101898Y0045860D01*
X0102354Y0045678D01*
X0102805Y0045484D01*
X0103251Y0045280D01*
X0103692Y0045064D01*
X0104128Y0044838D01*
X0104558Y0044602D01*
X0104982Y0044355D01*
X0105400Y0044097D01*
X0105811Y0043829D01*
X0106216Y0043552D01*
X0106614Y0043264D01*
X0107005Y0042967D01*
X0107388Y0042660D01*
X0107763Y0042344D01*
X0108131Y0042019D01*
X0108491Y0041685D01*
X0108842Y0041342D01*
X0109185Y0040991D01*
X0109519Y0040631D01*
X0109844Y0040263D01*
X0110160Y0039888D01*
X0110467Y0039505D01*
X0110764Y0039114D01*
X0111052Y0038716D01*
X0111329Y0038311D01*
X0111597Y0037900D01*
X0111855Y0037482D01*
X0112102Y0037058D01*
X0112338Y0036628D01*
X0112564Y0036192D01*
X0112780Y0035751D01*
X0112984Y0035305D01*
X0113178Y0034854D01*
X0113360Y0034398D01*
X0113531Y0033938D01*
X0113691Y0033474D01*
X0113839Y0033006D01*
X0113976Y0032534D01*
X0114101Y0032060D01*
X0114214Y0031582D01*
X0114316Y0031102D01*
X0114406Y0030619D01*
X0114484Y0030135D01*
X0114550Y0029648D01*
X0114604Y0029160D01*
X0114646Y0028671D01*
X0114676Y0028181D01*
X0114694Y0027691D01*
X0114700Y0027200D01*
X0114694Y0026709D01*
X0114676Y0026219D01*
X0114646Y0025729D01*
X0114604Y0025240D01*
X0114550Y0024752D01*
X0114484Y0024265D01*
X0114406Y0023781D01*
X0114316Y0023298D01*
X0114214Y0022818D01*
X0114101Y0022340D01*
X0113976Y0021866D01*
X0113839Y0021394D01*
X0113691Y0020926D01*
X0113531Y0020462D01*
X0113360Y0020002D01*
X0113178Y0019546D01*
X0112984Y0019095D01*
X0112780Y0018649D01*
X0112564Y0018208D01*
X0112338Y0017772D01*
X0112102Y0017342D01*
X0111855Y0016918D01*
X0111597Y0016500D01*
X0111329Y0016089D01*
X0111052Y0015684D01*
X0110764Y0015286D01*
X0110467Y0014895D01*
X0110160Y0014512D01*
X0109844Y0014137D01*
X0109519Y0013769D01*
X0109185Y0013409D01*
X0108842Y0013058D01*
X0108491Y0012715D01*
X0108131Y0012381D01*
X0107763Y0012056D01*
X0107388Y0011740D01*
X0107005Y0011433D01*
X0106614Y0011136D01*
X0106216Y0010848D01*
X0105811Y0010571D01*
X0105400Y0010303D01*
X0104982Y0010045D01*
X0104558Y0009798D01*
X0104128Y0009562D01*
X0103692Y0009336D01*
X0103251Y0009120D01*
X0102805Y0008916D01*
X0102354Y0008722D01*
X0101898Y0008540D01*
X0101438Y0008369D01*
X0100974Y0008209D01*
X0100506Y0008061D01*
X0100034Y0007924D01*
X0099560Y0007799D01*
X0099082Y0007686D01*
X0098602Y0007584D01*
X0098119Y0007494D01*
X0097635Y0007416D01*
X0097148Y0007350D01*
X0096660Y0007296D01*
X0096171Y0007254D01*
X0095681Y0007224D01*
X0095191Y0007206D01*
X0094700Y0007200D01*
X0094209Y0007206D01*
X0093719Y0007224D01*
X0093229Y0007254D01*
X0092740Y0007296D01*
X0092252Y0007350D01*
X0091765Y0007416D01*
X0091281Y0007494D01*
X0090798Y0007584D01*
X0090318Y0007686D01*
X0089840Y0007799D01*
X0089366Y0007924D01*
X0088894Y0008061D01*
X0088426Y0008209D01*
X0087962Y0008369D01*
X0087502Y0008540D01*
X0087046Y0008722D01*
X0086595Y0008916D01*
X0086149Y0009120D01*
X0085708Y0009336D01*
X0085272Y0009562D01*
X0084842Y0009798D01*
X0084418Y0010045D01*
X0084000Y0010303D01*
X0083589Y0010571D01*
X0083184Y0010848D01*
X0082786Y0011136D01*
X0082395Y0011433D01*
X0082012Y0011740D01*
X0081637Y0012056D01*
X0081269Y0012381D01*
X0080909Y0012715D01*
X0080558Y0013058D01*
X0080215Y0013409D01*
X0079881Y0013769D01*
X0079556Y0014137D01*
X0079240Y0014512D01*
X0078933Y0014895D01*
X0078636Y0015286D01*
X0078348Y0015684D01*
X0078071Y0016089D01*
X0077803Y0016500D01*
X0077545Y0016918D01*
X0077298Y0017342D01*
X0077062Y0017772D01*
X0076836Y0018208D01*
X0076620Y0018649D01*
X0076416Y0019095D01*
X0076222Y0019546D01*
X0076040Y0020002D01*
X0075869Y0020462D01*
X0075709Y0020926D01*
X0075561Y0021394D01*
X0075424Y0021866D01*
X0075299Y0022340D01*
X0075186Y0022818D01*
X0075084Y0023298D01*
X0074994Y0023781D01*
X0074916Y0024265D01*
X0074850Y0024752D01*
X0074796Y0025240D01*
X0074754Y0025729D01*
X0074724Y0026219D01*
X0074706Y0026709D01*
X0074700Y0027200D01*
X0094700Y0029700D02*
X0094700Y0031700D01*
X0048582Y0042690D02*
X0044312Y0042690D01*
X0046447Y0040555D02*
X0046447Y0044825D01*
D12*
X0045317Y0048550D02*
X0045317Y0051452D01*
X0044350Y0051452D02*
X0046285Y0051452D01*
X0047297Y0050001D02*
X0047780Y0050485D01*
X0048748Y0050485D01*
X0049231Y0050001D01*
X0049231Y0049517D01*
X0047297Y0049517D01*
X0047297Y0049034D02*
X0047297Y0050001D01*
X0047297Y0049034D02*
X0047780Y0048550D01*
X0048748Y0048550D01*
X0050243Y0049034D02*
X0050727Y0049517D01*
X0052178Y0049517D01*
X0052178Y0050001D02*
X0052178Y0048550D01*
X0050727Y0048550D01*
X0050243Y0049034D01*
X0051694Y0050485D02*
X0052178Y0050001D01*
X0051694Y0050485D02*
X0050727Y0050485D01*
X0053190Y0050485D02*
X0053673Y0050485D01*
X0054157Y0050001D01*
X0054641Y0050485D01*
X0055125Y0050001D01*
X0055125Y0048550D01*
X0054157Y0048550D02*
X0054157Y0050001D01*
X0053190Y0050485D02*
X0053190Y0048550D01*
X0059083Y0049034D02*
X0059566Y0048550D01*
X0060534Y0048550D01*
X0061018Y0049034D01*
X0061018Y0049517D01*
X0060534Y0050001D01*
X0060050Y0050001D01*
X0060534Y0050001D02*
X0061018Y0050485D01*
X0061018Y0050969D01*
X0060534Y0051452D01*
X0059566Y0051452D01*
X0059083Y0050969D01*
X0062029Y0050969D02*
X0062513Y0051452D01*
X0063480Y0051452D01*
X0063964Y0050969D01*
X0062029Y0049034D01*
X0062513Y0048550D01*
X0063480Y0048550D01*
X0063964Y0049034D01*
X0063964Y0050969D01*
X0062029Y0050969D02*
X0062029Y0049034D01*
X0064976Y0049034D02*
X0065459Y0048550D01*
X0066427Y0048550D01*
X0066911Y0049034D01*
X0066911Y0049517D01*
X0066427Y0050001D01*
X0064976Y0050001D01*
X0064976Y0049034D01*
X0064976Y0050001D02*
X0065943Y0050969D01*
X0066911Y0051452D01*
X0067922Y0050485D02*
X0068890Y0051452D01*
X0068890Y0048550D01*
X0069857Y0048550D02*
X0067922Y0048550D01*
X0074350Y0048550D02*
X0074350Y0051452D01*
X0076285Y0051452D02*
X0076285Y0048550D01*
X0077297Y0049034D02*
X0077780Y0048550D01*
X0079231Y0048550D01*
X0079231Y0050485D01*
X0080243Y0050001D02*
X0080727Y0050485D01*
X0082178Y0050485D01*
X0081694Y0049517D02*
X0080727Y0049517D01*
X0080243Y0050001D01*
X0081694Y0049517D02*
X0082178Y0049034D01*
X0081694Y0048550D01*
X0080243Y0048550D01*
X0083190Y0048550D02*
X0083190Y0051452D01*
X0084641Y0050485D02*
X0083190Y0049517D01*
X0084641Y0048550D01*
X0085645Y0048550D02*
X0086612Y0048550D01*
X0086129Y0048550D02*
X0086129Y0050485D01*
X0085645Y0050485D01*
X0087609Y0050001D02*
X0088093Y0050485D01*
X0089061Y0050485D01*
X0089544Y0050001D01*
X0089544Y0049517D01*
X0087609Y0049517D01*
X0087609Y0049034D02*
X0087609Y0050001D01*
X0087609Y0049034D02*
X0088093Y0048550D01*
X0089061Y0048550D01*
X0093502Y0048550D02*
X0093502Y0051452D01*
X0094954Y0051452D01*
X0095437Y0050969D01*
X0095437Y0050001D01*
X0094954Y0049517D01*
X0093502Y0049517D01*
X0094470Y0049517D02*
X0095437Y0048550D01*
X0096449Y0049034D02*
X0096933Y0048550D01*
X0097900Y0048550D01*
X0098384Y0049034D01*
X0098384Y0050001D01*
X0097900Y0050485D01*
X0096933Y0050485D01*
X0096449Y0050001D01*
X0096449Y0049034D01*
X0099395Y0048550D02*
X0100847Y0048550D01*
X0101330Y0049034D01*
X0101330Y0050001D01*
X0100847Y0050485D01*
X0099395Y0050485D01*
X0099395Y0051452D02*
X0099395Y0048550D01*
X0102342Y0049034D02*
X0102342Y0050001D01*
X0102826Y0050485D01*
X0103793Y0050485D01*
X0104277Y0050001D01*
X0104277Y0049034D01*
X0103793Y0048550D01*
X0102826Y0048550D01*
X0102342Y0049034D01*
X0105288Y0050485D02*
X0106256Y0050485D01*
X0105772Y0050969D02*
X0105772Y0049034D01*
X0106256Y0048550D01*
X0107253Y0048550D02*
X0108220Y0048550D01*
X0107737Y0048550D02*
X0107737Y0050485D01*
X0107253Y0050485D01*
X0107737Y0051452D02*
X0107737Y0051936D01*
X0109217Y0050001D02*
X0109701Y0050485D01*
X0111152Y0050485D01*
X0112164Y0050001D02*
X0112647Y0050485D01*
X0114099Y0050485D01*
X0113615Y0049517D02*
X0112647Y0049517D01*
X0112164Y0050001D01*
X0113615Y0049517D02*
X0114099Y0049034D01*
X0113615Y0048550D01*
X0112164Y0048550D01*
X0111152Y0048550D02*
X0109701Y0048550D01*
X0109217Y0049034D01*
X0109217Y0050001D01*
X0120350Y0046436D02*
X0120350Y0043967D01*
X0120967Y0043350D01*
X0122202Y0043350D01*
X0122819Y0043967D01*
X0122819Y0045202D01*
X0121584Y0045202D01*
X0120350Y0046436D02*
X0120967Y0047053D01*
X0122202Y0047053D01*
X0122819Y0046436D01*
X0124033Y0047053D02*
X0126502Y0043350D01*
X0126502Y0047053D01*
X0127716Y0047053D02*
X0129568Y0047053D01*
X0130185Y0046436D01*
X0130185Y0043967D01*
X0129568Y0043350D01*
X0127716Y0043350D01*
X0127716Y0047053D01*
X0124033Y0047053D02*
X0124033Y0043350D01*
X0086129Y0051452D02*
X0086129Y0051936D01*
X0077297Y0050485D02*
X0077297Y0049034D01*
X0076285Y0050001D02*
X0074350Y0050001D01*
X0062600Y0043781D02*
X0062600Y0041847D01*
X0062600Y0040835D02*
X0061633Y0039867D01*
X0061633Y0040351D02*
X0061633Y0038900D01*
X0062600Y0038900D02*
X0059698Y0038900D01*
X0059698Y0040351D01*
X0060181Y0040835D01*
X0061149Y0040835D01*
X0061633Y0040351D01*
X0060665Y0041847D02*
X0059698Y0042814D01*
X0062600Y0042814D01*
X0125283Y0010803D02*
X0125283Y0008952D01*
X0126518Y0009569D01*
X0127135Y0009569D01*
X0127752Y0008952D01*
X0127752Y0007717D01*
X0127135Y0007100D01*
X0125900Y0007100D01*
X0125283Y0007717D01*
X0122834Y0007717D02*
X0122834Y0010186D01*
X0125283Y0010803D02*
X0127752Y0010803D01*
X0128966Y0010803D02*
X0128966Y0008334D01*
X0130201Y0007100D01*
X0131435Y0008334D01*
X0131435Y0010803D01*
X0124069Y0008952D02*
X0121600Y0008952D01*
X0068581Y0004850D02*
X0066647Y0004850D01*
X0067614Y0004850D02*
X0067614Y0007752D01*
X0066647Y0006785D01*
X0065635Y0007752D02*
X0065635Y0005334D01*
X0065151Y0004850D01*
X0064184Y0004850D01*
X0063700Y0005334D01*
X0063700Y0007752D01*
D13*
X0094700Y0029450D03*
D14*
X0043401Y0005015D02*
X0005999Y0005015D01*
X0005999Y0048322D01*
X0043401Y0048322D01*
X0043401Y0005015D01*
X0032574Y0005015D02*
X0024700Y0005015D01*
X0106950Y0007501D02*
X0107701Y0006750D01*
X0109202Y0006750D01*
X0109953Y0007501D01*
X0111554Y0006750D02*
X0114556Y0006750D01*
X0113055Y0006750D02*
X0113055Y0011254D01*
X0111554Y0009753D01*
X0109953Y0010503D02*
X0109202Y0011254D01*
X0107701Y0011254D01*
X0106950Y0010503D01*
X0106950Y0007501D01*
D15*
X0007476Y0014857D03*
X0007476Y0038480D03*
D16*
X0029900Y0044702D02*
X0032969Y0044702D01*
X0031435Y0046237D02*
X0031435Y0043167D01*
X0029900Y0022202D02*
X0032969Y0022202D01*
M02*
