G75*
%MOIN*%
%OFA0B0*%
%FSLAX25Y25*%
%IPPOS*%
%LPD*%
%AMOC8*
5,1,8,0,0,1.08239X$1,22.5*
%
%ADD10R,0.05052X0.04934*%
%ADD11R,0.05918X0.07099*%
%ADD12R,0.04934X0.05052*%
%ADD13R,0.03950X0.03950*%
%ADD14OC8,0.06800*%
%ADD15C,0.13300*%
%ADD16R,0.07400X0.07400*%
%ADD17C,0.07400*%
%ADD18R,0.06706X0.03950*%
%ADD19R,0.08674X0.06509*%
%ADD20R,0.06980X0.02650*%
%ADD21R,0.08477X0.08477*%
%ADD22R,0.02175X0.03159*%
%ADD23R,0.05131X0.04737*%
%ADD24R,0.04737X0.05131*%
%ADD25C,0.06000*%
%ADD26OC8,0.10850*%
%ADD27R,0.08080X0.02175*%
%ADD28R,0.02175X0.08080*%
%ADD29R,0.06322X0.02385*%
%ADD30R,0.04343X0.05524*%
%ADD31R,0.02385X0.06519*%
%ADD32R,0.06700X0.08700*%
%ADD33R,0.15800X0.08700*%
%ADD34R,0.01781X0.06309*%
%ADD35R,0.09100X0.22800*%
%ADD36R,0.06902X0.05918*%
%ADD37R,0.02100X0.05100*%
%ADD38R,0.12000X0.12000*%
%ADD39R,0.02175X0.03356*%
%ADD40C,0.04762*%
%ADD41R,0.04762X0.04762*%
D10*
X0142605Y0251855D03*
X0142605Y0258745D03*
X0173105Y0288355D03*
X0173105Y0295245D03*
X0225005Y0350255D03*
X0225005Y0357145D03*
X0260105Y0362355D03*
X0260105Y0369245D03*
X0267105Y0369245D03*
X0267105Y0362355D03*
X0283105Y0313545D03*
X0283105Y0306655D03*
X0290105Y0306655D03*
X0290105Y0313545D03*
X0297105Y0313545D03*
X0297105Y0306655D03*
X0283105Y0252245D03*
X0283105Y0245355D03*
D11*
X0252042Y0252800D03*
X0244168Y0252800D03*
X0244168Y0261800D03*
X0237042Y0261800D03*
X0229168Y0261800D03*
X0229168Y0270800D03*
X0237042Y0270800D03*
X0244168Y0270800D03*
X0252042Y0270800D03*
X0252042Y0261800D03*
D12*
X0255760Y0278000D03*
X0262650Y0278000D03*
X0243550Y0235800D03*
X0236660Y0235800D03*
X0236660Y0225800D03*
X0243550Y0225800D03*
X0243550Y0215800D03*
X0236660Y0215800D03*
X0236660Y0205800D03*
X0243550Y0205800D03*
X0243550Y0195800D03*
X0236660Y0195800D03*
X0236660Y0185800D03*
X0243550Y0185800D03*
X0243550Y0175800D03*
X0236660Y0175800D03*
X0236660Y0165800D03*
X0243550Y0165800D03*
X0224550Y0162800D03*
X0217660Y0162800D03*
X0217660Y0195800D03*
X0224550Y0195800D03*
X0176550Y0223800D03*
X0169660Y0223800D03*
X0151550Y0282800D03*
X0144660Y0282800D03*
X0195660Y0282200D03*
X0195660Y0288300D03*
X0202550Y0288300D03*
X0202550Y0282200D03*
X0214960Y0314100D03*
X0221850Y0314100D03*
X0269660Y0323800D03*
X0276550Y0323800D03*
X0256550Y0383800D03*
X0249660Y0383800D03*
D13*
X0264152Y0348800D03*
X0270058Y0348800D03*
X0270058Y0342800D03*
X0264152Y0342800D03*
X0264152Y0336800D03*
X0270058Y0336800D03*
X0193105Y0324753D03*
X0193105Y0318847D03*
X0183105Y0318847D03*
X0183105Y0324753D03*
X0173105Y0324753D03*
X0173105Y0318847D03*
X0163105Y0318847D03*
X0163105Y0324753D03*
D14*
X0164605Y0109600D03*
X0164605Y0099600D03*
X0174605Y0099600D03*
X0174605Y0109600D03*
X0184605Y0109600D03*
X0184605Y0099600D03*
X0194605Y0099600D03*
X0194605Y0109600D03*
X0204605Y0109600D03*
X0204605Y0099600D03*
X0214605Y0099600D03*
X0214605Y0109600D03*
X0224605Y0109600D03*
X0224605Y0099600D03*
X0234605Y0099600D03*
X0234605Y0109600D03*
X0244605Y0109600D03*
X0244605Y0099600D03*
X0254605Y0099600D03*
X0254605Y0109600D03*
X0264605Y0109600D03*
X0264605Y0099600D03*
X0274605Y0099600D03*
X0274605Y0109600D03*
X0154605Y0109600D03*
X0154605Y0099600D03*
X0144605Y0099600D03*
X0144605Y0109600D03*
X0134605Y0109600D03*
X0134605Y0099600D03*
X0124605Y0099600D03*
X0124605Y0109600D03*
X0114605Y0109600D03*
X0114605Y0099600D03*
D15*
X0096905Y0377300D03*
X0292305Y0377300D03*
D16*
X0288105Y0225800D03*
X0288105Y0215800D03*
X0288105Y0205800D03*
X0288105Y0195800D03*
X0288105Y0185800D03*
X0288105Y0175800D03*
X0288105Y0165800D03*
X0288105Y0145800D03*
X0278105Y0145800D03*
X0258105Y0145800D03*
X0248105Y0145800D03*
X0238105Y0145800D03*
X0228105Y0145800D03*
X0208105Y0145800D03*
X0198105Y0145800D03*
X0188105Y0145800D03*
X0178105Y0145800D03*
X0168105Y0145800D03*
X0158105Y0145800D03*
X0148105Y0145800D03*
X0138105Y0145800D03*
X0128105Y0145800D03*
X0118105Y0145800D03*
X0103105Y0145800D03*
X0103105Y0165800D03*
X0103105Y0175800D03*
X0103105Y0185800D03*
X0103105Y0195800D03*
X0103105Y0205800D03*
X0103105Y0215800D03*
X0103105Y0225800D03*
X0103105Y0235800D03*
X0103105Y0245800D03*
X0103105Y0255800D03*
X0103105Y0265800D03*
X0103105Y0275800D03*
D17*
X0103105Y0125800D03*
X0103105Y0135800D03*
X0118105Y0135800D03*
X0128105Y0135800D03*
X0138105Y0135800D03*
X0138105Y0125800D03*
X0128105Y0125800D03*
X0118105Y0125800D03*
X0148105Y0125800D03*
X0158105Y0125800D03*
X0168105Y0125800D03*
X0178105Y0125800D03*
X0188105Y0125800D03*
X0198105Y0125800D03*
X0208105Y0125800D03*
X0208105Y0135800D03*
X0198105Y0135800D03*
X0188105Y0135800D03*
X0178105Y0135800D03*
X0168105Y0135800D03*
X0158105Y0135800D03*
X0148105Y0135800D03*
X0123105Y0165800D03*
X0123105Y0175800D03*
X0123105Y0185800D03*
X0123105Y0195800D03*
X0123105Y0205800D03*
X0123105Y0215800D03*
X0123105Y0225800D03*
X0123105Y0235800D03*
X0123105Y0245800D03*
X0123105Y0255800D03*
X0123105Y0265800D03*
X0123105Y0275800D03*
X0113105Y0275800D03*
X0113105Y0265800D03*
X0113105Y0255800D03*
X0113105Y0245800D03*
X0113105Y0235800D03*
X0113105Y0225800D03*
X0113105Y0215800D03*
X0113105Y0205800D03*
X0113105Y0195800D03*
X0113105Y0185800D03*
X0113105Y0175800D03*
X0113105Y0165800D03*
X0228105Y0135800D03*
X0228105Y0125800D03*
X0238105Y0125800D03*
X0248105Y0125800D03*
X0258105Y0125800D03*
X0258105Y0135800D03*
X0248105Y0135800D03*
X0238105Y0135800D03*
X0268105Y0165800D03*
X0278105Y0165800D03*
X0278105Y0175800D03*
X0278105Y0185800D03*
X0278105Y0195800D03*
X0278105Y0205800D03*
X0278105Y0215800D03*
X0278105Y0225800D03*
X0268105Y0225800D03*
X0268105Y0215800D03*
X0268105Y0205800D03*
X0268105Y0195800D03*
X0268105Y0185800D03*
X0268105Y0175800D03*
X0278105Y0135800D03*
X0288105Y0135800D03*
X0288105Y0125800D03*
X0278105Y0125800D03*
D18*
X0104010Y0311849D03*
X0104010Y0316180D03*
X0104010Y0320510D03*
X0104010Y0324841D03*
X0104010Y0329172D03*
X0104010Y0333502D03*
X0104010Y0337833D03*
X0104010Y0342164D03*
D19*
X0093774Y0351534D03*
X0126451Y0351534D03*
X0126451Y0297400D03*
X0093774Y0297400D03*
D20*
X0287208Y0329501D03*
X0287208Y0332650D03*
X0287208Y0335800D03*
X0287208Y0338950D03*
X0287208Y0342099D03*
D21*
X0287208Y0350170D03*
X0298625Y0350170D03*
X0298625Y0321430D03*
X0287208Y0321430D03*
D22*
X0276105Y0283064D03*
X0274136Y0278536D03*
X0271073Y0278536D03*
X0267136Y0278536D03*
X0269105Y0283064D03*
X0278073Y0278536D03*
X0251105Y0364536D03*
X0249136Y0369064D03*
X0253073Y0369064D03*
D23*
X0241105Y0357146D03*
X0241105Y0350454D03*
X0233105Y0350454D03*
X0233105Y0357146D03*
X0269759Y0330800D03*
X0276451Y0330800D03*
X0274105Y0298146D03*
X0274105Y0291454D03*
X0266105Y0291454D03*
X0266105Y0298146D03*
X0286105Y0268146D03*
X0286105Y0261454D03*
X0193105Y0330454D03*
X0193105Y0337146D03*
X0183105Y0337146D03*
X0183105Y0330454D03*
X0173105Y0330454D03*
X0173105Y0337146D03*
X0163105Y0337146D03*
X0163105Y0330454D03*
X0191105Y0303646D03*
X0191105Y0296954D03*
D24*
X0151451Y0299800D03*
X0144759Y0299800D03*
X0144759Y0290800D03*
X0151451Y0290800D03*
X0151451Y0308800D03*
X0144759Y0308800D03*
X0144759Y0317800D03*
X0151451Y0317800D03*
X0151451Y0326800D03*
X0144759Y0326800D03*
X0144759Y0335800D03*
X0151451Y0335800D03*
X0146451Y0357300D03*
X0139759Y0357300D03*
X0139759Y0365300D03*
X0146451Y0365300D03*
X0146451Y0373300D03*
X0139759Y0373300D03*
X0139759Y0381300D03*
X0146451Y0381300D03*
X0249759Y0375800D03*
X0256451Y0375800D03*
X0258451Y0348800D03*
X0251759Y0348800D03*
X0251759Y0340800D03*
X0258451Y0340800D03*
X0258451Y0332800D03*
X0251759Y0332800D03*
X0259759Y0267800D03*
X0266451Y0267800D03*
X0272759Y0267800D03*
X0279451Y0267800D03*
X0266451Y0257800D03*
X0259759Y0257800D03*
X0256451Y0245800D03*
X0249759Y0245800D03*
X0249759Y0235800D03*
X0256451Y0235800D03*
X0256451Y0225800D03*
X0249759Y0225800D03*
X0249759Y0215800D03*
X0256451Y0215800D03*
X0256451Y0205800D03*
X0249759Y0205800D03*
X0249759Y0195800D03*
X0256451Y0195800D03*
X0256451Y0185800D03*
X0249759Y0185800D03*
X0249759Y0175800D03*
X0256451Y0175800D03*
X0256451Y0165800D03*
X0249759Y0165800D03*
X0292759Y0257800D03*
X0299451Y0257800D03*
X0299451Y0267800D03*
X0292759Y0267800D03*
D25*
X0193105Y0348200D02*
X0193105Y0353400D01*
X0183105Y0353400D02*
X0183105Y0348200D01*
X0173105Y0348200D02*
X0173105Y0353400D01*
X0163105Y0353400D02*
X0163105Y0348200D01*
X0163105Y0378200D02*
X0163105Y0383400D01*
X0173105Y0383400D02*
X0173105Y0378200D01*
X0183105Y0378200D02*
X0183105Y0383400D01*
X0193105Y0383400D02*
X0193105Y0378200D01*
D26*
X0260193Y0310800D03*
X0274015Y0310717D03*
D27*
X0195497Y0271597D03*
X0195497Y0268448D03*
X0195497Y0265298D03*
X0195497Y0262148D03*
X0195497Y0258999D03*
X0195497Y0255849D03*
X0195497Y0252700D03*
X0195497Y0249550D03*
X0195497Y0246400D03*
X0195497Y0243251D03*
X0195497Y0240101D03*
X0150615Y0240101D03*
X0150615Y0243251D03*
X0150615Y0246400D03*
X0150615Y0249550D03*
X0150615Y0252700D03*
X0150615Y0255849D03*
X0150615Y0258999D03*
X0150615Y0262148D03*
X0150615Y0265298D03*
X0150615Y0268448D03*
X0150615Y0271597D03*
D28*
X0157308Y0278290D03*
X0160457Y0278290D03*
X0163607Y0278290D03*
X0166757Y0278290D03*
X0169906Y0278290D03*
X0173056Y0278290D03*
X0176205Y0278290D03*
X0179355Y0278290D03*
X0182505Y0278290D03*
X0185654Y0278290D03*
X0188804Y0278290D03*
X0188804Y0233408D03*
X0185654Y0233408D03*
X0182505Y0233408D03*
X0179355Y0233408D03*
X0176205Y0233408D03*
X0173056Y0233408D03*
X0169906Y0233408D03*
X0166757Y0233408D03*
X0163607Y0233408D03*
X0160457Y0233408D03*
X0157308Y0233408D03*
D29*
X0198589Y0295961D03*
X0198589Y0298520D03*
X0198589Y0301080D03*
X0198589Y0303639D03*
X0221621Y0303639D03*
X0221621Y0301080D03*
X0221621Y0298520D03*
X0221621Y0295961D03*
D30*
X0269365Y0246076D03*
X0273105Y0255524D03*
X0276845Y0246076D03*
D31*
X0284168Y0275383D03*
X0286727Y0275383D03*
X0289286Y0275383D03*
X0291845Y0275383D03*
X0291845Y0298217D03*
X0289286Y0298217D03*
X0286727Y0298217D03*
X0284168Y0298217D03*
D32*
X0247205Y0283400D03*
X0238205Y0283400D03*
X0229205Y0283400D03*
D33*
X0238105Y0308200D03*
D34*
X0229042Y0222461D03*
X0227073Y0222461D03*
X0225105Y0222461D03*
X0223136Y0222461D03*
X0221168Y0222461D03*
X0221168Y0205139D03*
X0223136Y0205139D03*
X0225105Y0205139D03*
X0227073Y0205139D03*
X0229042Y0205139D03*
X0229042Y0188461D03*
X0227073Y0188461D03*
X0225105Y0188461D03*
X0223136Y0188461D03*
X0221168Y0188461D03*
X0221168Y0171139D03*
X0223136Y0171139D03*
X0225105Y0171139D03*
X0227073Y0171139D03*
X0229042Y0171139D03*
D35*
X0213105Y0234100D03*
X0213105Y0271500D03*
D36*
X0210160Y0364639D03*
X0210160Y0382355D03*
X0241459Y0382355D03*
X0241459Y0364639D03*
D37*
X0233355Y0343350D03*
X0230855Y0343350D03*
X0228355Y0343350D03*
X0225855Y0343350D03*
X0223355Y0343350D03*
X0220855Y0343350D03*
X0218355Y0343350D03*
X0215855Y0343350D03*
X0213355Y0343350D03*
X0210855Y0343350D03*
X0210855Y0322250D03*
X0213355Y0322250D03*
X0215855Y0322250D03*
X0218355Y0322250D03*
X0220855Y0322250D03*
X0223355Y0322250D03*
X0225855Y0322250D03*
X0228355Y0322250D03*
X0230855Y0322250D03*
X0233355Y0322250D03*
D38*
G36*
X0130590Y0375800D02*
X0122105Y0367315D01*
X0113620Y0375800D01*
X0122105Y0384285D01*
X0130590Y0375800D01*
G37*
G36*
X0302590Y0097800D02*
X0294105Y0089315D01*
X0285620Y0097800D01*
X0294105Y0106285D01*
X0302590Y0097800D01*
G37*
D39*
X0204664Y0311454D03*
X0199546Y0311454D03*
X0199546Y0318146D03*
X0202105Y0318146D03*
X0204664Y0318146D03*
D40*
X0201105Y0327800D03*
X0208105Y0328800D03*
X0213105Y0334800D03*
X0222105Y0337800D03*
X0224605Y0328600D03*
X0219605Y0351300D03*
X0199105Y0342200D03*
X0199105Y0335900D03*
X0193105Y0313800D03*
X0204805Y0306800D03*
X0205805Y0299500D03*
X0212105Y0291300D03*
X0223005Y0282300D03*
X0221805Y0307800D03*
X0216305Y0307800D03*
X0195805Y0276600D03*
X0187605Y0270800D03*
X0181105Y0270800D03*
X0180105Y0263800D03*
X0172605Y0270800D03*
X0164005Y0257400D03*
X0158205Y0257500D03*
X0158105Y0265800D03*
X0149105Y0276800D03*
X0137105Y0270800D03*
X0137105Y0260800D03*
X0137105Y0250800D03*
X0171105Y0240800D03*
X0187105Y0240800D03*
X0187105Y0250800D03*
X0188905Y0291800D03*
X0172105Y0306800D03*
X0175605Y0313800D03*
X0183105Y0313800D03*
X0168105Y0313800D03*
X0138105Y0313200D03*
X0138105Y0298100D03*
X0119105Y0297800D03*
X0107105Y0297800D03*
X0093105Y0290800D03*
X0090505Y0283900D03*
X0090505Y0276500D03*
X0113105Y0324759D03*
X0113305Y0333500D03*
X0118605Y0351600D03*
X0120105Y0362400D03*
X0126705Y0362500D03*
X0138105Y0350800D03*
X0138105Y0331300D03*
X0227105Y0231800D03*
X0236605Y0230800D03*
X0226605Y0216800D03*
X0227105Y0210800D03*
X0219905Y0216800D03*
X0235605Y0210800D03*
X0230105Y0197300D03*
X0235605Y0190800D03*
X0227105Y0182800D03*
X0227105Y0176800D03*
X0219905Y0182800D03*
X0215105Y0188800D03*
X0229605Y0162800D03*
X0235605Y0170800D03*
X0289105Y0240800D03*
X0295857Y0246967D03*
X0278105Y0274200D03*
X0270105Y0274200D03*
X0263205Y0272800D03*
X0260605Y0291800D03*
X0279705Y0291700D03*
X0290605Y0287883D03*
X0300851Y0287800D03*
X0295857Y0299134D03*
X0264699Y0330619D03*
X0257805Y0355500D03*
X0251705Y0355500D03*
X0273605Y0355800D03*
X0237105Y0250800D03*
X0244105Y0246800D03*
D41*
X0281105Y0341800D03*
X0262105Y0374800D03*
X0225105Y0381800D03*
X0138105Y0282800D03*
M02*
