G75*
%MOIN*%
%OFA0B0*%
%FSLAX25Y25*%
%IPPOS*%
%LPD*%
%AMOC8*
5,1,8,0,0,1.08239X$1,22.5*
%
%ADD10C,0.00000*%
%ADD11R,0.07098X0.06299*%
%ADD12R,0.06600X0.06600*%
%ADD13C,0.10000*%
%ADD14OC8,0.10000*%
%ADD15C,0.11811*%
%ADD16C,0.08600*%
%ADD17R,0.02165X0.04724*%
%ADD18C,0.01600*%
%ADD19C,0.03569*%
%ADD20C,0.02400*%
D10*
X0002200Y0002200D02*
X0002200Y0052161D01*
X0136901Y0052161D01*
X0136901Y0002200D01*
X0002200Y0002200D01*
D11*
X0068200Y0033602D03*
X0068200Y0044798D03*
D12*
X0049700Y0032200D03*
X0049700Y0022200D03*
X0049700Y0012200D03*
D13*
X0094700Y0017200D03*
D14*
X0094700Y0037200D03*
D15*
X0024700Y0038480D03*
X0024700Y0014857D03*
D16*
X0121600Y0017200D02*
X0130200Y0017200D01*
X0130200Y0027200D02*
X0121600Y0027200D01*
X0121600Y0037200D02*
X0130200Y0037200D01*
D17*
X0069440Y0022318D03*
X0061960Y0022318D03*
X0061960Y0012082D03*
X0065700Y0012082D03*
X0069440Y0012082D03*
D18*
X0069822Y0011700D01*
X0073700Y0011700D01*
X0065700Y0012082D02*
X0061960Y0012082D01*
X0061960Y0012200D01*
X0049700Y0012200D01*
X0069440Y0022318D02*
X0069440Y0032960D01*
X0068200Y0033602D01*
X0068200Y0043200D02*
X0074200Y0049200D01*
X0110200Y0049200D01*
X0115200Y0044200D01*
X0115200Y0032200D01*
X0120200Y0027200D01*
X0130200Y0027200D01*
X0068200Y0043200D02*
X0068200Y0044798D01*
D19*
X0073700Y0011700D03*
D20*
X0077684Y0011794D02*
X0089924Y0011794D01*
X0089943Y0011775D02*
X0090691Y0011201D01*
X0091509Y0010729D01*
X0092381Y0010367D01*
X0093292Y0010123D01*
X0094228Y0010000D01*
X0094700Y0010000D01*
X0095172Y0010000D01*
X0096108Y0010123D01*
X0097019Y0010367D01*
X0097891Y0010729D01*
X0098709Y0011201D01*
X0099457Y0011775D01*
X0100125Y0012443D01*
X0100699Y0013191D01*
X0101171Y0014009D01*
X0101533Y0014881D01*
X0101777Y0015792D01*
X0101900Y0016728D01*
X0101900Y0017200D01*
X0101900Y0017672D01*
X0101777Y0018608D01*
X0101533Y0019519D01*
X0101171Y0020391D01*
X0100699Y0021209D01*
X0100125Y0021957D01*
X0099457Y0022625D01*
X0098709Y0023199D01*
X0097891Y0023671D01*
X0097019Y0024033D01*
X0096108Y0024277D01*
X0095172Y0024400D01*
X0094700Y0024400D01*
X0094700Y0017200D01*
X0094700Y0017200D01*
X0101900Y0017200D01*
X0094700Y0017200D01*
X0094700Y0017200D01*
X0094700Y0017200D01*
X0087500Y0017200D01*
X0087500Y0017672D01*
X0087623Y0018608D01*
X0087867Y0019519D01*
X0088229Y0020391D01*
X0088701Y0021209D01*
X0089275Y0021957D01*
X0089943Y0022625D01*
X0090691Y0023199D01*
X0091509Y0023671D01*
X0092381Y0024033D01*
X0093292Y0024277D01*
X0094228Y0024400D01*
X0094700Y0024400D01*
X0094700Y0017200D01*
X0094700Y0010000D01*
X0094700Y0017200D01*
X0094700Y0017200D01*
X0087500Y0017200D01*
X0087500Y0016728D01*
X0087623Y0015792D01*
X0087867Y0014881D01*
X0088229Y0014009D01*
X0088701Y0013191D01*
X0089275Y0012443D01*
X0089943Y0011775D01*
X0094700Y0011794D02*
X0094700Y0011794D01*
X0099476Y0011794D02*
X0117968Y0011794D01*
X0117981Y0011784D02*
X0118719Y0011358D01*
X0119506Y0011032D01*
X0120329Y0010811D01*
X0121174Y0010700D01*
X0130200Y0010700D01*
X0130626Y0010700D01*
X0131471Y0010811D01*
X0132294Y0011032D01*
X0133081Y0011358D01*
X0133819Y0011784D01*
X0134201Y0012077D01*
X0134201Y0004900D01*
X0004900Y0004900D01*
X0004900Y0049461D01*
X0063052Y0049461D01*
X0062451Y0048859D01*
X0062451Y0040738D01*
X0063740Y0039449D01*
X0072660Y0039449D01*
X0073949Y0040738D01*
X0073949Y0044707D01*
X0075443Y0046200D01*
X0108957Y0046200D01*
X0112200Y0042957D01*
X0112200Y0031603D01*
X0112657Y0030501D01*
X0115100Y0028057D01*
X0115100Y0025907D01*
X0116090Y0023518D01*
X0117421Y0022186D01*
X0117305Y0022097D01*
X0116703Y0021495D01*
X0116184Y0020819D01*
X0115758Y0020081D01*
X0115432Y0019294D01*
X0115211Y0018471D01*
X0115100Y0017626D01*
X0115100Y0017200D01*
X0130200Y0017200D01*
X0130200Y0010700D01*
X0130200Y0017200D01*
X0130200Y0017200D01*
X0130200Y0017200D01*
X0115100Y0017200D01*
X0115100Y0016774D01*
X0115211Y0015929D01*
X0115432Y0015106D01*
X0115758Y0014319D01*
X0116184Y0013581D01*
X0116703Y0012905D01*
X0117305Y0012303D01*
X0117981Y0011784D01*
X0117200Y0012200D02*
X0125000Y0017450D01*
X0125000Y0008700D01*
X0130200Y0011794D02*
X0130200Y0011794D01*
X0133832Y0011794D02*
X0134201Y0011794D01*
X0134201Y0009396D02*
X0077030Y0009396D01*
X0077078Y0009443D02*
X0077684Y0010907D01*
X0077684Y0012493D01*
X0077078Y0013957D01*
X0075957Y0015078D01*
X0074493Y0015684D01*
X0072907Y0015684D01*
X0072544Y0015534D01*
X0071434Y0016644D01*
X0059966Y0016644D01*
X0058677Y0015355D01*
X0058677Y0015200D01*
X0055200Y0015200D01*
X0055200Y0016411D01*
X0054411Y0017200D01*
X0055200Y0017989D01*
X0055200Y0026411D01*
X0054411Y0027200D01*
X0055200Y0027989D01*
X0055200Y0036411D01*
X0053911Y0037700D01*
X0045489Y0037700D01*
X0044200Y0036411D01*
X0044200Y0027989D01*
X0044989Y0027200D01*
X0044200Y0026411D01*
X0044200Y0017989D01*
X0044989Y0017200D01*
X0044200Y0016411D01*
X0044200Y0007989D01*
X0045489Y0006700D01*
X0053911Y0006700D01*
X0055200Y0007989D01*
X0055200Y0009200D01*
X0058677Y0009200D01*
X0058677Y0008808D01*
X0059966Y0007520D01*
X0071434Y0007520D01*
X0072004Y0008090D01*
X0072907Y0007716D01*
X0074493Y0007716D01*
X0075957Y0008322D01*
X0077078Y0009443D01*
X0076842Y0014193D02*
X0088152Y0014193D01*
X0087518Y0016591D02*
X0071487Y0016591D01*
X0071434Y0017756D02*
X0072723Y0019045D01*
X0072723Y0025592D01*
X0072440Y0025874D01*
X0072440Y0028252D01*
X0072660Y0028252D01*
X0073949Y0029541D01*
X0073949Y0037662D01*
X0072660Y0038951D01*
X0063740Y0038951D01*
X0062451Y0037662D01*
X0062451Y0029541D01*
X0063740Y0028252D01*
X0066440Y0028252D01*
X0066440Y0025874D01*
X0066157Y0025592D01*
X0066157Y0019045D01*
X0067446Y0017756D01*
X0071434Y0017756D01*
X0072668Y0018990D02*
X0087726Y0018990D01*
X0088838Y0021388D02*
X0072723Y0021388D01*
X0072723Y0023787D02*
X0091787Y0023787D01*
X0094700Y0023787D02*
X0094700Y0023787D01*
X0097613Y0023787D02*
X0115978Y0023787D01*
X0116621Y0021388D02*
X0100562Y0021388D01*
X0101674Y0018990D02*
X0115350Y0018990D01*
X0115124Y0016591D02*
X0101882Y0016591D01*
X0101247Y0014193D02*
X0115831Y0014193D01*
X0130200Y0014193D02*
X0130200Y0014193D01*
X0130200Y0016591D02*
X0130200Y0016591D01*
X0134201Y0006997D02*
X0054208Y0006997D01*
X0045192Y0006997D02*
X0026904Y0006997D01*
X0026312Y0006752D02*
X0029291Y0007986D01*
X0031572Y0010266D01*
X0032805Y0013245D01*
X0032805Y0016470D01*
X0031572Y0019449D01*
X0029291Y0021729D01*
X0026312Y0022963D01*
X0023088Y0022963D01*
X0020109Y0021729D01*
X0017828Y0019449D01*
X0016594Y0016470D01*
X0016594Y0013245D01*
X0017828Y0010266D01*
X0020109Y0007986D01*
X0023088Y0006752D01*
X0026312Y0006752D01*
X0022496Y0006997D02*
X0004900Y0006997D01*
X0004900Y0009396D02*
X0018699Y0009396D01*
X0017196Y0011794D02*
X0004900Y0011794D01*
X0004900Y0014193D02*
X0016594Y0014193D01*
X0016645Y0016591D02*
X0004900Y0016591D01*
X0004900Y0018990D02*
X0017638Y0018990D01*
X0019768Y0021388D02*
X0004900Y0021388D01*
X0004900Y0023787D02*
X0044200Y0023787D01*
X0044200Y0021388D02*
X0029632Y0021388D01*
X0031762Y0018990D02*
X0044200Y0018990D01*
X0044380Y0016591D02*
X0032755Y0016591D01*
X0032805Y0014193D02*
X0044200Y0014193D01*
X0044200Y0011794D02*
X0032204Y0011794D01*
X0030701Y0009396D02*
X0044200Y0009396D01*
X0055020Y0016591D02*
X0059913Y0016591D01*
X0060028Y0017906D02*
X0060588Y0017756D01*
X0061960Y0017756D01*
X0063332Y0017756D01*
X0063892Y0017906D01*
X0064393Y0018195D01*
X0064803Y0018605D01*
X0065093Y0019107D01*
X0065243Y0019666D01*
X0065242Y0022318D01*
X0061960Y0022318D01*
X0061960Y0022318D01*
X0061960Y0017756D01*
X0061960Y0022318D01*
X0061960Y0022318D01*
X0065243Y0022318D01*
X0065243Y0024970D01*
X0065093Y0025529D01*
X0064803Y0026031D01*
X0064393Y0026441D01*
X0063892Y0026730D01*
X0063332Y0026880D01*
X0061960Y0026880D01*
X0061960Y0022318D01*
X0061960Y0022318D01*
X0058677Y0022318D01*
X0058677Y0019666D01*
X0058827Y0019107D01*
X0059117Y0018605D01*
X0059526Y0018195D01*
X0060028Y0017906D01*
X0058895Y0018990D02*
X0055200Y0018990D01*
X0055200Y0021388D02*
X0058677Y0021388D01*
X0058677Y0022318D02*
X0061960Y0022318D01*
X0061960Y0022318D01*
X0061960Y0026880D01*
X0060588Y0026880D01*
X0060028Y0026730D01*
X0059526Y0026441D01*
X0059117Y0026031D01*
X0058827Y0025529D01*
X0058677Y0024970D01*
X0058677Y0022318D01*
X0058677Y0023787D02*
X0055200Y0023787D01*
X0055200Y0026185D02*
X0059271Y0026185D01*
X0061960Y0026185D02*
X0061960Y0026185D01*
X0064649Y0026185D02*
X0066440Y0026185D01*
X0063408Y0028584D02*
X0055200Y0028584D01*
X0055200Y0030982D02*
X0062451Y0030982D01*
X0062451Y0033381D02*
X0055200Y0033381D01*
X0055200Y0035779D02*
X0062451Y0035779D01*
X0062966Y0038178D02*
X0032805Y0038178D01*
X0032805Y0038302D02*
X0024878Y0038302D01*
X0024878Y0038657D01*
X0032805Y0038657D01*
X0032805Y0039011D01*
X0032667Y0040064D01*
X0032392Y0041091D01*
X0031985Y0042072D01*
X0031454Y0042992D01*
X0030807Y0043835D01*
X0030056Y0044587D01*
X0029213Y0045233D01*
X0028293Y0045765D01*
X0027311Y0046171D01*
X0026285Y0046446D01*
X0025231Y0046585D01*
X0024878Y0046585D01*
X0024878Y0038658D01*
X0024522Y0038658D01*
X0024522Y0046585D01*
X0024169Y0046585D01*
X0023115Y0046446D01*
X0022089Y0046171D01*
X0021107Y0045765D01*
X0020187Y0045233D01*
X0019344Y0044587D01*
X0018593Y0043835D01*
X0017946Y0042992D01*
X0017415Y0042072D01*
X0017008Y0041091D01*
X0016733Y0040064D01*
X0016594Y0039011D01*
X0016594Y0038657D01*
X0024522Y0038657D01*
X0024522Y0038302D01*
X0016594Y0038302D01*
X0016594Y0037948D01*
X0016733Y0036895D01*
X0017008Y0035868D01*
X0017415Y0034887D01*
X0017946Y0033967D01*
X0018593Y0033124D01*
X0019344Y0032372D01*
X0020187Y0031726D01*
X0021107Y0031194D01*
X0022089Y0030788D01*
X0023115Y0030513D01*
X0024169Y0030374D01*
X0024522Y0030374D01*
X0024522Y0038301D01*
X0024878Y0038301D01*
X0024878Y0030374D01*
X0025231Y0030374D01*
X0026285Y0030513D01*
X0027311Y0030788D01*
X0028293Y0031194D01*
X0029213Y0031726D01*
X0030056Y0032372D01*
X0030807Y0033124D01*
X0031454Y0033967D01*
X0031985Y0034887D01*
X0032392Y0035868D01*
X0032667Y0036895D01*
X0032805Y0037948D01*
X0032805Y0038302D01*
X0032530Y0040576D02*
X0062612Y0040576D01*
X0062451Y0042975D02*
X0031464Y0042975D01*
X0028971Y0045373D02*
X0062451Y0045373D01*
X0062451Y0047772D02*
X0004900Y0047772D01*
X0004900Y0045373D02*
X0020429Y0045373D01*
X0024522Y0045373D02*
X0024878Y0045373D01*
X0024878Y0042975D02*
X0024522Y0042975D01*
X0024522Y0040576D02*
X0024878Y0040576D01*
X0024878Y0038178D02*
X0024522Y0038178D01*
X0024522Y0035779D02*
X0024878Y0035779D01*
X0024878Y0033381D02*
X0024522Y0033381D01*
X0018396Y0033381D02*
X0004900Y0033381D01*
X0004900Y0035779D02*
X0017045Y0035779D01*
X0016594Y0038178D02*
X0004900Y0038178D01*
X0004900Y0040576D02*
X0016870Y0040576D01*
X0017936Y0042975D02*
X0004900Y0042975D01*
X0031004Y0033381D02*
X0044200Y0033381D01*
X0044200Y0035779D02*
X0032355Y0035779D01*
X0027780Y0030982D02*
X0044200Y0030982D01*
X0044200Y0028584D02*
X0004900Y0028584D01*
X0004900Y0030982D02*
X0021620Y0030982D01*
X0024522Y0030982D02*
X0024878Y0030982D01*
X0044200Y0026185D02*
X0004900Y0026185D01*
X0061960Y0023787D02*
X0061960Y0023787D01*
X0065243Y0023787D02*
X0066157Y0023787D01*
X0066157Y0021388D02*
X0065243Y0021388D01*
X0061960Y0021388D02*
X0061960Y0021388D01*
X0061960Y0018990D02*
X0061960Y0018990D01*
X0065025Y0018990D02*
X0066213Y0018990D01*
X0072440Y0026185D02*
X0115100Y0026185D01*
X0114574Y0028584D02*
X0072992Y0028584D01*
X0073949Y0030982D02*
X0090736Y0030982D01*
X0091718Y0030000D02*
X0097682Y0030000D01*
X0101900Y0034218D01*
X0101900Y0040182D01*
X0097682Y0044400D01*
X0091718Y0044400D01*
X0087500Y0040182D01*
X0087500Y0034218D01*
X0091718Y0030000D01*
X0098664Y0030982D02*
X0112457Y0030982D01*
X0112200Y0033381D02*
X0101063Y0033381D01*
X0101900Y0035779D02*
X0112200Y0035779D01*
X0112200Y0038178D02*
X0101900Y0038178D01*
X0101506Y0040576D02*
X0112200Y0040576D01*
X0112183Y0042975D02*
X0099108Y0042975D01*
X0090292Y0042975D02*
X0073949Y0042975D01*
X0073788Y0040576D02*
X0087894Y0040576D01*
X0087500Y0038178D02*
X0073434Y0038178D01*
X0073949Y0035779D02*
X0087500Y0035779D01*
X0088337Y0033381D02*
X0073949Y0033381D01*
X0074616Y0045373D02*
X0109784Y0045373D01*
X0094700Y0021388D02*
X0094700Y0021388D01*
X0094700Y0018990D02*
X0094700Y0018990D01*
X0094700Y0016591D02*
X0094700Y0016591D01*
X0094700Y0014193D02*
X0094700Y0014193D01*
M02*
