%
M48
M72
T01C0.02362
T02C0.02756
T03C0.03150
T04C0.03200
T05C0.03937
T06C0.04000
T07C0.12500
%
T01
X123360Y137920
X122360Y171920
X124360Y180020
X123760Y187920
X127360Y201920
X127360Y223920
X127360Y231920
X62360Y271920
X57360Y266920
X52360Y261920
X222360Y216920
X257360Y216920
X307360Y196920
X297360Y109920
X327360Y109920
X352360Y101920
X319360Y63920
X343160Y48770
X289360Y47170
T02
X292360Y176420
X302360Y176420
X312360Y176420
X322360Y176420
X332360Y176420
X342360Y176420
X282360Y176420
X272360Y176420
X262360Y176420
X252360Y176420
X242360Y176420
X232360Y176420
X222360Y176420
X212360Y176420
X202360Y176420
X192360Y176420
X182360Y176420
X172360Y176420
X162360Y176420
X152360Y176420
X152360Y236420
X162360Y236420
X172360Y236420
X182360Y236420
X192360Y236420
X202360Y236420
X212360Y236420
X222360Y236420
X232360Y236420
X242360Y236420
X252360Y236420
X262360Y236420
X272360Y236420
X282360Y236420
X292360Y236420
X302360Y236420
X312360Y236420
X322360Y236420
X332360Y236420
X342360Y236420
T03
X351189Y163415
X368906Y163415
X368906Y137825
X351189Y137825
X283360Y31920
T04
X263360Y31920
X243360Y31920
X223360Y31920
X203360Y31920
X183360Y31920
X163360Y31920
X143360Y31920
X123360Y31920
X123360Y61920
X132860Y61920
X143360Y61920
X153360Y62420
X163360Y61920
X172860Y61920
X183360Y61920
X192960Y61920
X203360Y61920
X213260Y61920
X223360Y61920
X233360Y61920
X243360Y61920
X253360Y61920
X263360Y61920
X273360Y61920
X263360Y71920
X243060Y71920
X223060Y71920
X223060Y91920
X233360Y91920
X243060Y91920
X253360Y91920
X263360Y91920
X273360Y91920
X272360Y116920
X262360Y116920
X262360Y126920
X262360Y136920
X281060Y137220
X292360Y131920
X302360Y131920
X312360Y131920
X322360Y131920
X332060Y132320
X332360Y116920
X322360Y116920
X312360Y116920
X302360Y116920
X292360Y116920
X282360Y116920
X242360Y126920
X242360Y136920
X232860Y137220
X222860Y137220
X212860Y137220
X202860Y137220
X192860Y137220
X182860Y137220
X172860Y137220
X162860Y137220
X162360Y147920
X162360Y157920
X182360Y157920
X182360Y147920
X192360Y147920
X192360Y157920
X212360Y157920
X212360Y147920
X237360Y156920
X256360Y156920
X281060Y157220
X292360Y161920
X302360Y161920
X312360Y161920
X322360Y161920
X332060Y162320
X342360Y116920
X232860Y107220
X222860Y107220
X212860Y107220
X202860Y107220
X192860Y107220
X182860Y107220
X172860Y107220
X162860Y107220
X149360Y111920
X141860Y116920
X149360Y121920
X142360Y132920
X142360Y141920
X122360Y154920
X122360Y164920
X112660Y174620
X122360Y196920
X122360Y206920
X142660Y174620
X112360Y141920
X112360Y132920
X122360Y121920
X122360Y111920
X123360Y91920
X132860Y91920
X143760Y92320
X153360Y92420
X163160Y91920
X172860Y91920
X183360Y91920
X192960Y91920
X202910Y91920
X213260Y91920
X202910Y71920
X183360Y71920
X163160Y71920
X143760Y72320
X123360Y71920
X61560Y79120
X41560Y79120
X62360Y121920
X62360Y131920
X70560Y150020
X70660Y169020
X62560Y187320
X62560Y197320
X40660Y169020
X40560Y150020
X41560Y239520
X61560Y239520
X177360Y261420
X177360Y281420
T05
X361060Y219420
X361060Y209420
X361060Y199420
X361060Y189420
T06
X53360Y31920
X63360Y31920
X73360Y31920
X83360Y31920
X93360Y31920
X103360Y31920
X103360Y41920
X93360Y41920
X83360Y41920
X73360Y41920
X63360Y41920
X53360Y41920
X53360Y51920
X63360Y51920
X73360Y51920
X83360Y51920
X93360Y51920
X103360Y51920
X94860Y79420
X84860Y79420
X84860Y89420
X94860Y89420
X94860Y99420
X84860Y99420
X84860Y109420
X94860Y109420
X94860Y119420
X84860Y119420
X84860Y129420
X94860Y129420
X94860Y139420
X84860Y139420
X84860Y149420
X94860Y149420
X94860Y159420
X84860Y159420
X84860Y169420
X94860Y169420
X94860Y179420
X84860Y179420
X84860Y189420
X94860Y189420
X94860Y199420
X84860Y199420
X84860Y209420
X94860Y209420
X94860Y219420
X84860Y219420
X84860Y229420
X94860Y229420
X94860Y239420
X84860Y239420
X83360Y261920
X73360Y261920
X73360Y271920
X83360Y271920
X93360Y271920
X103360Y271920
X103360Y261920
X93360Y261920
X113360Y261920
X123360Y261920
X133360Y261920
X143360Y261920
X153360Y261920
X163360Y261920
X163360Y271920
X153360Y271920
X143360Y271920
X133360Y271920
X123360Y271920
X113360Y271920
X113360Y281920
X103360Y281920
X93360Y281920
X83360Y281920
X73360Y281920
X123360Y281920
X133360Y281920
X143360Y281920
X153360Y281920
X163360Y281920
X187660Y281720
X187660Y271720
X187660Y261720
X212360Y261920
X222360Y261920
X232360Y261920
X242360Y261920
X252360Y261920
X262360Y261920
X272360Y261920
X282360Y261920
X292360Y261920
X302360Y261920
X312360Y261920
X322360Y261920
X322360Y271920
X312360Y271920
X302360Y271920
X292360Y271920
X282360Y271920
X272360Y271920
X262360Y271920
X252360Y271920
X242360Y271920
X232360Y271920
X222360Y271920
X212360Y271920
X212360Y281920
X222360Y281920
X232360Y281920
X242360Y281920
X252360Y281920
X262360Y281920
X272360Y281920
X282360Y281920
X292360Y281920
X302360Y281920
X312360Y281920
X322360Y281920
X273360Y51920
X273360Y41920
X273360Y31920
X253360Y31920
X253360Y41920
X253360Y51920
X233360Y51920
X233360Y41920
X233360Y31920
X213360Y31920
X213360Y41920
X213360Y51920
X193360Y51920
X193360Y41920
X193360Y31920
X173360Y31920
X173360Y41920
X173360Y51920
X153360Y51920
X153360Y41920
X153360Y31920
X133360Y31920
X133360Y41920
X133360Y51920
T07
X362560Y59720
X362560Y259120
M30
