G75*
%MOIN*%
%OFA0B0*%
%FSLAX25Y25*%
%IPPOS*%
%LPD*%
%AMOC8*
5,1,8,0,0,1.08239X$1,22.5*
%
%ADD10C,0.00200*%
%ADD11C,0.00600*%
%ADD12C,0.00300*%
%ADD13R,0.09000X0.02500*%
%ADD14C,0.00500*%
%ADD15R,0.02953X0.11811*%
%ADD16C,0.00400*%
D10*
X0055998Y0009524D02*
X0056365Y0009157D01*
X0056732Y0009157D01*
X0057099Y0009524D01*
X0057099Y0010258D01*
X0057466Y0010625D01*
X0057833Y0010625D01*
X0058200Y0010258D01*
X0058200Y0009524D01*
X0057833Y0009157D01*
X0055998Y0009524D02*
X0055998Y0010258D01*
X0056365Y0010625D01*
X0055998Y0011367D02*
X0055998Y0012101D01*
X0055998Y0011734D02*
X0058200Y0011734D01*
X0058200Y0011367D02*
X0058200Y0012101D01*
X0057833Y0012840D02*
X0056365Y0012840D01*
X0055998Y0013207D01*
X0055998Y0013941D01*
X0056365Y0014308D01*
X0057099Y0014308D02*
X0057099Y0013574D01*
X0057833Y0012840D02*
X0058200Y0013207D01*
X0058200Y0013941D01*
X0057833Y0014308D01*
X0057099Y0014308D01*
X0055998Y0019330D02*
X0058200Y0020798D01*
X0055998Y0020798D01*
X0056365Y0021540D02*
X0057833Y0021540D01*
X0058200Y0021907D01*
X0058200Y0022641D01*
X0057833Y0023008D01*
X0056365Y0023008D02*
X0055998Y0022641D01*
X0055998Y0021907D01*
X0056365Y0021540D01*
X0055998Y0019330D02*
X0058200Y0019330D01*
X0057833Y0027120D02*
X0056365Y0027120D01*
X0055998Y0027487D01*
X0055998Y0028221D01*
X0056365Y0028588D01*
X0057099Y0028588D02*
X0057099Y0027854D01*
X0057099Y0028588D02*
X0057833Y0028588D01*
X0058200Y0028221D01*
X0058200Y0027487D01*
X0057833Y0027120D01*
X0058200Y0029330D02*
X0055998Y0029330D01*
X0058200Y0030798D01*
X0055998Y0030798D01*
X0055998Y0031540D02*
X0055998Y0032641D01*
X0056365Y0033008D01*
X0057833Y0033008D01*
X0058200Y0032641D01*
X0058200Y0031540D01*
X0055998Y0031540D01*
D11*
X0054700Y0029700D02*
X0052200Y0027200D01*
X0054700Y0024700D01*
X0054700Y0019700D01*
X0052200Y0017200D01*
X0054700Y0014700D01*
X0054700Y0009700D01*
X0052200Y0007200D01*
X0047200Y0007200D01*
X0044700Y0009700D01*
X0044700Y0014700D01*
X0047200Y0017200D01*
X0044700Y0019700D01*
X0044700Y0024700D01*
X0047200Y0027200D01*
X0044700Y0029700D01*
X0044700Y0034700D01*
X0047200Y0037200D01*
X0052200Y0037200D01*
X0054700Y0034700D01*
X0054700Y0029700D01*
X0060102Y0020291D02*
X0060472Y0020291D01*
X0060102Y0020291D02*
X0060102Y0014109D01*
X0060472Y0014109D01*
X0063645Y0014109D02*
X0064015Y0014109D01*
X0067385Y0014109D02*
X0067755Y0014109D01*
X0070928Y0014109D02*
X0071298Y0014109D01*
X0071298Y0020291D01*
X0070928Y0020291D01*
X0067755Y0020291D02*
X0063645Y0020291D01*
X0088200Y0012200D02*
X0091200Y0012200D01*
X0089700Y0013700D02*
X0089700Y0010700D01*
X0115200Y0014700D02*
X0115200Y0019700D01*
X0117700Y0022200D01*
X0115200Y0024700D01*
X0115200Y0029700D01*
X0117700Y0032200D01*
X0115200Y0034700D01*
X0115200Y0039700D01*
X0117700Y0042200D01*
X0132700Y0042200D01*
X0135200Y0039700D01*
X0135200Y0034700D01*
X0132700Y0032200D01*
X0135200Y0029700D01*
X0135200Y0024700D01*
X0132700Y0022200D01*
X0135200Y0019700D01*
X0135200Y0014700D01*
X0132700Y0012200D01*
X0117700Y0012200D01*
X0115200Y0014700D01*
X0094700Y0022700D02*
X0094700Y0023700D01*
X0090200Y0023700D01*
X0090200Y0026200D01*
X0099200Y0026200D01*
X0099200Y0023700D01*
X0094700Y0023700D01*
X0074700Y0027200D02*
X0074706Y0027691D01*
X0074724Y0028181D01*
X0074754Y0028671D01*
X0074796Y0029160D01*
X0074850Y0029648D01*
X0074916Y0030135D01*
X0074994Y0030619D01*
X0075084Y0031102D01*
X0075186Y0031582D01*
X0075299Y0032060D01*
X0075424Y0032534D01*
X0075561Y0033006D01*
X0075709Y0033474D01*
X0075869Y0033938D01*
X0076040Y0034398D01*
X0076222Y0034854D01*
X0076416Y0035305D01*
X0076620Y0035751D01*
X0076836Y0036192D01*
X0077062Y0036628D01*
X0077298Y0037058D01*
X0077545Y0037482D01*
X0077803Y0037900D01*
X0078071Y0038311D01*
X0078348Y0038716D01*
X0078636Y0039114D01*
X0078933Y0039505D01*
X0079240Y0039888D01*
X0079556Y0040263D01*
X0079881Y0040631D01*
X0080215Y0040991D01*
X0080558Y0041342D01*
X0080909Y0041685D01*
X0081269Y0042019D01*
X0081637Y0042344D01*
X0082012Y0042660D01*
X0082395Y0042967D01*
X0082786Y0043264D01*
X0083184Y0043552D01*
X0083589Y0043829D01*
X0084000Y0044097D01*
X0084418Y0044355D01*
X0084842Y0044602D01*
X0085272Y0044838D01*
X0085708Y0045064D01*
X0086149Y0045280D01*
X0086595Y0045484D01*
X0087046Y0045678D01*
X0087502Y0045860D01*
X0087962Y0046031D01*
X0088426Y0046191D01*
X0088894Y0046339D01*
X0089366Y0046476D01*
X0089840Y0046601D01*
X0090318Y0046714D01*
X0090798Y0046816D01*
X0091281Y0046906D01*
X0091765Y0046984D01*
X0092252Y0047050D01*
X0092740Y0047104D01*
X0093229Y0047146D01*
X0093719Y0047176D01*
X0094209Y0047194D01*
X0094700Y0047200D01*
X0095191Y0047194D01*
X0095681Y0047176D01*
X0096171Y0047146D01*
X0096660Y0047104D01*
X0097148Y0047050D01*
X0097635Y0046984D01*
X0098119Y0046906D01*
X0098602Y0046816D01*
X0099082Y0046714D01*
X0099560Y0046601D01*
X0100034Y0046476D01*
X0100506Y0046339D01*
X0100974Y0046191D01*
X0101438Y0046031D01*
X0101898Y0045860D01*
X0102354Y0045678D01*
X0102805Y0045484D01*
X0103251Y0045280D01*
X0103692Y0045064D01*
X0104128Y0044838D01*
X0104558Y0044602D01*
X0104982Y0044355D01*
X0105400Y0044097D01*
X0105811Y0043829D01*
X0106216Y0043552D01*
X0106614Y0043264D01*
X0107005Y0042967D01*
X0107388Y0042660D01*
X0107763Y0042344D01*
X0108131Y0042019D01*
X0108491Y0041685D01*
X0108842Y0041342D01*
X0109185Y0040991D01*
X0109519Y0040631D01*
X0109844Y0040263D01*
X0110160Y0039888D01*
X0110467Y0039505D01*
X0110764Y0039114D01*
X0111052Y0038716D01*
X0111329Y0038311D01*
X0111597Y0037900D01*
X0111855Y0037482D01*
X0112102Y0037058D01*
X0112338Y0036628D01*
X0112564Y0036192D01*
X0112780Y0035751D01*
X0112984Y0035305D01*
X0113178Y0034854D01*
X0113360Y0034398D01*
X0113531Y0033938D01*
X0113691Y0033474D01*
X0113839Y0033006D01*
X0113976Y0032534D01*
X0114101Y0032060D01*
X0114214Y0031582D01*
X0114316Y0031102D01*
X0114406Y0030619D01*
X0114484Y0030135D01*
X0114550Y0029648D01*
X0114604Y0029160D01*
X0114646Y0028671D01*
X0114676Y0028181D01*
X0114694Y0027691D01*
X0114700Y0027200D01*
X0114694Y0026709D01*
X0114676Y0026219D01*
X0114646Y0025729D01*
X0114604Y0025240D01*
X0114550Y0024752D01*
X0114484Y0024265D01*
X0114406Y0023781D01*
X0114316Y0023298D01*
X0114214Y0022818D01*
X0114101Y0022340D01*
X0113976Y0021866D01*
X0113839Y0021394D01*
X0113691Y0020926D01*
X0113531Y0020462D01*
X0113360Y0020002D01*
X0113178Y0019546D01*
X0112984Y0019095D01*
X0112780Y0018649D01*
X0112564Y0018208D01*
X0112338Y0017772D01*
X0112102Y0017342D01*
X0111855Y0016918D01*
X0111597Y0016500D01*
X0111329Y0016089D01*
X0111052Y0015684D01*
X0110764Y0015286D01*
X0110467Y0014895D01*
X0110160Y0014512D01*
X0109844Y0014137D01*
X0109519Y0013769D01*
X0109185Y0013409D01*
X0108842Y0013058D01*
X0108491Y0012715D01*
X0108131Y0012381D01*
X0107763Y0012056D01*
X0107388Y0011740D01*
X0107005Y0011433D01*
X0106614Y0011136D01*
X0106216Y0010848D01*
X0105811Y0010571D01*
X0105400Y0010303D01*
X0104982Y0010045D01*
X0104558Y0009798D01*
X0104128Y0009562D01*
X0103692Y0009336D01*
X0103251Y0009120D01*
X0102805Y0008916D01*
X0102354Y0008722D01*
X0101898Y0008540D01*
X0101438Y0008369D01*
X0100974Y0008209D01*
X0100506Y0008061D01*
X0100034Y0007924D01*
X0099560Y0007799D01*
X0099082Y0007686D01*
X0098602Y0007584D01*
X0098119Y0007494D01*
X0097635Y0007416D01*
X0097148Y0007350D01*
X0096660Y0007296D01*
X0096171Y0007254D01*
X0095681Y0007224D01*
X0095191Y0007206D01*
X0094700Y0007200D01*
X0094209Y0007206D01*
X0093719Y0007224D01*
X0093229Y0007254D01*
X0092740Y0007296D01*
X0092252Y0007350D01*
X0091765Y0007416D01*
X0091281Y0007494D01*
X0090798Y0007584D01*
X0090318Y0007686D01*
X0089840Y0007799D01*
X0089366Y0007924D01*
X0088894Y0008061D01*
X0088426Y0008209D01*
X0087962Y0008369D01*
X0087502Y0008540D01*
X0087046Y0008722D01*
X0086595Y0008916D01*
X0086149Y0009120D01*
X0085708Y0009336D01*
X0085272Y0009562D01*
X0084842Y0009798D01*
X0084418Y0010045D01*
X0084000Y0010303D01*
X0083589Y0010571D01*
X0083184Y0010848D01*
X0082786Y0011136D01*
X0082395Y0011433D01*
X0082012Y0011740D01*
X0081637Y0012056D01*
X0081269Y0012381D01*
X0080909Y0012715D01*
X0080558Y0013058D01*
X0080215Y0013409D01*
X0079881Y0013769D01*
X0079556Y0014137D01*
X0079240Y0014512D01*
X0078933Y0014895D01*
X0078636Y0015286D01*
X0078348Y0015684D01*
X0078071Y0016089D01*
X0077803Y0016500D01*
X0077545Y0016918D01*
X0077298Y0017342D01*
X0077062Y0017772D01*
X0076836Y0018208D01*
X0076620Y0018649D01*
X0076416Y0019095D01*
X0076222Y0019546D01*
X0076040Y0020002D01*
X0075869Y0020462D01*
X0075709Y0020926D01*
X0075561Y0021394D01*
X0075424Y0021866D01*
X0075299Y0022340D01*
X0075186Y0022818D01*
X0075084Y0023298D01*
X0074994Y0023781D01*
X0074916Y0024265D01*
X0074850Y0024752D01*
X0074796Y0025240D01*
X0074754Y0025729D01*
X0074724Y0026219D01*
X0074706Y0026709D01*
X0074700Y0027200D01*
X0094700Y0029700D02*
X0094700Y0031700D01*
X0048582Y0042690D02*
X0044312Y0042690D01*
X0046447Y0040555D02*
X0046447Y0044825D01*
D12*
X0046780Y0047350D02*
X0046297Y0047834D01*
X0046297Y0048801D01*
X0046780Y0049285D01*
X0047748Y0049285D01*
X0048231Y0048801D01*
X0048231Y0048317D01*
X0046297Y0048317D01*
X0046780Y0047350D02*
X0047748Y0047350D01*
X0049243Y0047834D02*
X0049727Y0048317D01*
X0051178Y0048317D01*
X0051178Y0048801D02*
X0051178Y0047350D01*
X0049727Y0047350D01*
X0049243Y0047834D01*
X0050694Y0049285D02*
X0051178Y0048801D01*
X0050694Y0049285D02*
X0049727Y0049285D01*
X0052190Y0049285D02*
X0052673Y0049285D01*
X0053157Y0048801D01*
X0053641Y0049285D01*
X0054125Y0048801D01*
X0054125Y0047350D01*
X0053157Y0047350D02*
X0053157Y0048801D01*
X0052190Y0049285D02*
X0052190Y0047350D01*
X0058083Y0047834D02*
X0058566Y0047350D01*
X0059534Y0047350D01*
X0060018Y0047834D01*
X0060018Y0048317D01*
X0059534Y0048801D01*
X0059050Y0048801D01*
X0059534Y0048801D02*
X0060018Y0049285D01*
X0060018Y0049769D01*
X0059534Y0050252D01*
X0058566Y0050252D01*
X0058083Y0049769D01*
X0061029Y0049769D02*
X0061513Y0050252D01*
X0062480Y0050252D01*
X0062964Y0049769D01*
X0061029Y0047834D01*
X0061513Y0047350D01*
X0062480Y0047350D01*
X0062964Y0047834D01*
X0062964Y0049769D01*
X0063976Y0048801D02*
X0064943Y0049769D01*
X0065911Y0050252D01*
X0066922Y0049285D02*
X0067890Y0050252D01*
X0067890Y0047350D01*
X0068857Y0047350D02*
X0066922Y0047350D01*
X0065911Y0047834D02*
X0065911Y0048317D01*
X0065427Y0048801D01*
X0063976Y0048801D01*
X0063976Y0047834D01*
X0064459Y0047350D01*
X0065427Y0047350D01*
X0065911Y0047834D01*
X0061029Y0047834D02*
X0061029Y0049769D01*
X0072350Y0050252D02*
X0072350Y0047350D01*
X0072350Y0048801D02*
X0074285Y0048801D01*
X0075297Y0049285D02*
X0075297Y0047834D01*
X0075780Y0047350D01*
X0077231Y0047350D01*
X0077231Y0049285D01*
X0078243Y0048801D02*
X0078727Y0049285D01*
X0080178Y0049285D01*
X0078727Y0048317D02*
X0078243Y0048801D01*
X0078727Y0048317D02*
X0079694Y0048317D01*
X0080178Y0047834D01*
X0079694Y0047350D01*
X0078243Y0047350D01*
X0081190Y0047350D02*
X0081190Y0050252D01*
X0082641Y0049285D02*
X0081190Y0048317D01*
X0082641Y0047350D01*
X0083645Y0047350D02*
X0084612Y0047350D01*
X0084129Y0047350D02*
X0084129Y0049285D01*
X0083645Y0049285D01*
X0085609Y0048801D02*
X0086093Y0049285D01*
X0087061Y0049285D01*
X0087544Y0048801D01*
X0087544Y0048317D01*
X0085609Y0048317D01*
X0085609Y0047834D02*
X0085609Y0048801D01*
X0085609Y0047834D02*
X0086093Y0047350D01*
X0087061Y0047350D01*
X0091502Y0047350D02*
X0091502Y0050252D01*
X0092954Y0050252D01*
X0093437Y0049769D01*
X0093437Y0048801D01*
X0092954Y0048317D01*
X0091502Y0048317D01*
X0092470Y0048317D02*
X0093437Y0047350D01*
X0094449Y0047834D02*
X0094933Y0047350D01*
X0095900Y0047350D01*
X0096384Y0047834D01*
X0096384Y0048801D01*
X0095900Y0049285D01*
X0094933Y0049285D01*
X0094449Y0048801D01*
X0094449Y0047834D01*
X0097395Y0047350D02*
X0098847Y0047350D01*
X0099330Y0047834D01*
X0099330Y0048801D01*
X0098847Y0049285D01*
X0097395Y0049285D01*
X0097395Y0050252D02*
X0097395Y0047350D01*
X0100342Y0047834D02*
X0100342Y0048801D01*
X0100826Y0049285D01*
X0101793Y0049285D01*
X0102277Y0048801D01*
X0102277Y0047834D01*
X0101793Y0047350D01*
X0100826Y0047350D01*
X0100342Y0047834D01*
X0103288Y0049285D02*
X0104256Y0049285D01*
X0103772Y0049769D02*
X0103772Y0047834D01*
X0104256Y0047350D01*
X0105253Y0047350D02*
X0106220Y0047350D01*
X0105737Y0047350D02*
X0105737Y0049285D01*
X0105253Y0049285D01*
X0107217Y0048801D02*
X0107217Y0047834D01*
X0107701Y0047350D01*
X0109152Y0047350D01*
X0110164Y0047350D02*
X0111615Y0047350D01*
X0112099Y0047834D01*
X0111615Y0048317D01*
X0110647Y0048317D01*
X0110164Y0048801D01*
X0110647Y0049285D01*
X0112099Y0049285D01*
X0109152Y0049285D02*
X0107701Y0049285D01*
X0107217Y0048801D01*
X0105737Y0050252D02*
X0105737Y0050736D01*
X0120350Y0046436D02*
X0120350Y0043967D01*
X0120967Y0043350D01*
X0122202Y0043350D01*
X0122819Y0043967D01*
X0122819Y0045202D01*
X0121584Y0045202D01*
X0120350Y0046436D02*
X0120967Y0047053D01*
X0122202Y0047053D01*
X0122819Y0046436D01*
X0124033Y0047053D02*
X0126502Y0043350D01*
X0126502Y0047053D01*
X0127716Y0047053D02*
X0129568Y0047053D01*
X0130185Y0046436D01*
X0130185Y0043967D01*
X0129568Y0043350D01*
X0127716Y0043350D01*
X0127716Y0047053D01*
X0124033Y0047053D02*
X0124033Y0043350D01*
X0084129Y0050252D02*
X0084129Y0050736D01*
X0074285Y0050252D02*
X0074285Y0047350D01*
X0062600Y0043781D02*
X0062600Y0041847D01*
X0062600Y0040835D02*
X0061633Y0039867D01*
X0061633Y0040351D02*
X0061633Y0038900D01*
X0062600Y0038900D02*
X0059698Y0038900D01*
X0059698Y0040351D01*
X0060181Y0040835D01*
X0061149Y0040835D01*
X0061633Y0040351D01*
X0060665Y0041847D02*
X0059698Y0042814D01*
X0062600Y0042814D01*
X0044317Y0047350D02*
X0044317Y0050252D01*
X0043350Y0050252D02*
X0045285Y0050252D01*
X0125283Y0010803D02*
X0125283Y0008952D01*
X0126518Y0009569D01*
X0127135Y0009569D01*
X0127752Y0008952D01*
X0127752Y0007717D01*
X0127135Y0007100D01*
X0125900Y0007100D01*
X0125283Y0007717D01*
X0122834Y0007717D02*
X0122834Y0010186D01*
X0125283Y0010803D02*
X0127752Y0010803D01*
X0128966Y0010803D02*
X0128966Y0008334D01*
X0130201Y0007100D01*
X0131435Y0008334D01*
X0131435Y0010803D01*
X0124069Y0008952D02*
X0121600Y0008952D01*
X0068581Y0004850D02*
X0066647Y0004850D01*
X0067614Y0004850D02*
X0067614Y0007752D01*
X0066647Y0006785D01*
X0065635Y0007752D02*
X0065635Y0005334D01*
X0065151Y0004850D01*
X0064184Y0004850D01*
X0063700Y0005334D01*
X0063700Y0007752D01*
D13*
X0094700Y0029450D03*
D14*
X0043401Y0005015D02*
X0005999Y0005015D01*
X0005999Y0048322D01*
X0043401Y0048322D01*
X0043401Y0005015D01*
X0032574Y0005015D02*
X0024700Y0005015D01*
X0106950Y0007501D02*
X0107701Y0006750D01*
X0109202Y0006750D01*
X0109953Y0007501D01*
X0111554Y0006750D02*
X0114556Y0006750D01*
X0113055Y0006750D02*
X0113055Y0011254D01*
X0111554Y0009753D01*
X0109953Y0010503D02*
X0109202Y0011254D01*
X0107701Y0011254D01*
X0106950Y0010503D01*
X0106950Y0007501D01*
D15*
X0007476Y0014857D03*
X0007476Y0038480D03*
D16*
X0029900Y0044702D02*
X0032969Y0044702D01*
X0031435Y0046237D02*
X0031435Y0043167D01*
X0029900Y0022202D02*
X0032969Y0022202D01*
M02*
