G75*
%MOIN*%
%OFA0B0*%
%FSLAX25Y25*%
%IPPOS*%
%LPD*%
%AMOC8*
5,1,8,0,0,1.08239X$1,22.5*
%
%ADD10C,0.00300*%
%ADD11R,0.06600X0.06600*%
%ADD12C,0.10000*%
%ADD13OC8,0.10000*%
%ADD14C,0.11811*%
%ADD15C,0.08600*%
%ADD16C,0.02400*%
%ADD17C,0.03569*%
D10*
X0007350Y0007350D02*
X0010252Y0007350D01*
X0010252Y0009285D01*
X0010252Y0010297D02*
X0010252Y0011748D01*
X0009769Y0012231D01*
X0008801Y0012231D01*
X0008317Y0011748D01*
X0008317Y0010297D01*
X0007350Y0010297D02*
X0010252Y0010297D01*
X0008317Y0011264D02*
X0007350Y0012231D01*
X0007834Y0013243D02*
X0007350Y0013727D01*
X0007350Y0014694D01*
X0007834Y0015178D01*
X0007834Y0016190D02*
X0007350Y0016673D01*
X0007350Y0017641D01*
X0007834Y0018125D01*
X0008317Y0018125D01*
X0008801Y0017641D01*
X0008801Y0017157D01*
X0008801Y0017641D02*
X0009285Y0018125D01*
X0009769Y0018125D01*
X0010252Y0017641D01*
X0010252Y0016673D01*
X0009769Y0016190D01*
X0009769Y0015178D02*
X0010252Y0014694D01*
X0010252Y0013727D01*
X0009769Y0013243D01*
X0007834Y0013243D01*
X0008801Y0008317D02*
X0008801Y0007350D01*
X0007834Y0019136D02*
X0009769Y0021071D01*
X0007834Y0021071D01*
X0007350Y0020587D01*
X0007350Y0019620D01*
X0007834Y0019136D01*
X0009769Y0019136D01*
X0010252Y0019620D01*
X0010252Y0020587D01*
X0009769Y0021071D01*
X0008801Y0022083D02*
X0007834Y0022083D01*
X0007350Y0022566D01*
X0007350Y0023534D01*
X0007834Y0024018D01*
X0008317Y0024018D01*
X0008801Y0023534D01*
X0008801Y0022083D01*
X0009769Y0023050D01*
X0010252Y0024018D01*
X0009285Y0025029D02*
X0010252Y0025997D01*
X0007350Y0025997D01*
X0007350Y0026964D02*
X0007350Y0025029D01*
X0008801Y0027976D02*
X0008801Y0029911D01*
X0009769Y0030922D02*
X0010252Y0031406D01*
X0010252Y0032373D01*
X0009769Y0032857D01*
X0009285Y0032857D01*
X0007350Y0030922D01*
X0007350Y0032857D01*
X0007834Y0033869D02*
X0009769Y0035804D01*
X0007834Y0035804D01*
X0007350Y0035320D01*
X0007350Y0034352D01*
X0007834Y0033869D01*
X0009769Y0033869D01*
X0010252Y0034352D01*
X0010252Y0035320D01*
X0009769Y0035804D01*
X0009285Y0036815D02*
X0010252Y0037783D01*
X0007350Y0037783D01*
X0007350Y0038750D02*
X0007350Y0036815D01*
X0007834Y0039762D02*
X0007350Y0040245D01*
X0007350Y0041213D01*
X0007834Y0041697D01*
X0008801Y0041697D01*
X0009285Y0041213D01*
X0009285Y0040729D01*
X0008801Y0039762D01*
X0010252Y0039762D01*
X0010252Y0041697D01*
X0008801Y0042708D02*
X0008801Y0044643D01*
X0007350Y0045655D02*
X0010252Y0045655D01*
X0007350Y0047590D01*
X0010252Y0047590D01*
X0010252Y0048601D02*
X0007350Y0048601D01*
X0008317Y0048601D02*
X0008317Y0050052D01*
X0008801Y0050536D01*
X0009769Y0050536D01*
X0010252Y0050052D01*
X0010252Y0048601D01*
X0009285Y0051548D02*
X0010252Y0052515D01*
X0007350Y0052515D01*
X0007350Y0051548D02*
X0007350Y0053483D01*
D11*
X0049700Y0032200D03*
X0049700Y0022200D03*
X0049700Y0012200D03*
D12*
X0094700Y0017200D03*
D13*
X0094700Y0037200D03*
D14*
X0024700Y0038480D03*
X0024700Y0014857D03*
D15*
X0121600Y0017200D02*
X0130200Y0017200D01*
X0130200Y0027200D02*
X0121600Y0027200D01*
X0121600Y0037200D02*
X0130200Y0037200D01*
D16*
X0014200Y0049461D02*
X0014200Y0004900D01*
X0134201Y0004900D01*
X0134201Y0012008D01*
X0133882Y0011690D01*
X0131493Y0010700D01*
X0120307Y0010700D01*
X0117918Y0011690D01*
X0116090Y0013518D01*
X0115100Y0015907D01*
X0115100Y0018493D01*
X0116090Y0020882D01*
X0117408Y0022200D01*
X0116090Y0023518D01*
X0115100Y0025907D01*
X0115100Y0028493D01*
X0116090Y0030882D01*
X0117421Y0032213D01*
X0117305Y0032303D01*
X0116703Y0032905D01*
X0116184Y0033581D01*
X0115758Y0034319D01*
X0115432Y0035106D01*
X0115211Y0035929D01*
X0115100Y0036774D01*
X0115100Y0037200D01*
X0130200Y0037200D01*
X0130200Y0037200D01*
X0130200Y0043700D01*
X0130626Y0043700D01*
X0131471Y0043589D01*
X0132294Y0043368D01*
X0133081Y0043042D01*
X0133819Y0042616D01*
X0134201Y0042323D01*
X0134201Y0049461D01*
X0014200Y0049461D01*
X0014200Y0047772D02*
X0134201Y0047772D01*
X0134201Y0045373D02*
X0029238Y0045373D01*
X0029291Y0045351D02*
X0026312Y0046585D01*
X0023088Y0046585D01*
X0020109Y0045351D01*
X0017828Y0043071D01*
X0016594Y0040092D01*
X0016594Y0036867D01*
X0017828Y0033888D01*
X0020109Y0031608D01*
X0023088Y0030374D01*
X0026312Y0030374D01*
X0029291Y0031608D01*
X0031572Y0033888D01*
X0032805Y0036867D01*
X0032805Y0040092D01*
X0031572Y0043071D01*
X0029291Y0045351D01*
X0031611Y0042975D02*
X0090292Y0042975D01*
X0091718Y0044400D02*
X0087500Y0040182D01*
X0087500Y0037200D01*
X0094700Y0037200D01*
X0094700Y0037200D01*
X0094700Y0044400D01*
X0097682Y0044400D01*
X0101900Y0040182D01*
X0101900Y0037200D01*
X0094700Y0037200D01*
X0094700Y0037200D01*
X0094700Y0037200D01*
X0094700Y0044400D01*
X0091718Y0044400D01*
X0094700Y0042975D02*
X0094700Y0042975D01*
X0094700Y0040576D02*
X0094700Y0040576D01*
X0094700Y0038178D02*
X0094700Y0038178D01*
X0094700Y0037200D02*
X0087500Y0037200D01*
X0087500Y0034218D01*
X0091718Y0030000D01*
X0094700Y0030000D01*
X0097682Y0030000D01*
X0101900Y0034218D01*
X0101900Y0037200D01*
X0094700Y0037200D01*
X0094700Y0030000D01*
X0094700Y0037200D01*
X0094700Y0037200D01*
X0094700Y0035779D02*
X0094700Y0035779D01*
X0094700Y0033381D02*
X0094700Y0033381D01*
X0088337Y0033381D02*
X0055200Y0033381D01*
X0055200Y0032200D02*
X0055200Y0035790D01*
X0055050Y0036349D01*
X0054760Y0036851D01*
X0054351Y0037260D01*
X0053849Y0037550D01*
X0053290Y0037700D01*
X0049700Y0037700D01*
X0049700Y0032200D01*
X0055200Y0032200D01*
X0049700Y0032200D01*
X0049700Y0032200D01*
X0049700Y0032200D01*
X0049700Y0032200D01*
X0044200Y0032200D01*
X0044200Y0035790D01*
X0044350Y0036349D01*
X0044640Y0036851D01*
X0045049Y0037260D01*
X0045551Y0037550D01*
X0046110Y0037700D01*
X0049700Y0037700D01*
X0049700Y0032200D01*
X0044200Y0032200D01*
X0044200Y0028610D01*
X0044350Y0028051D01*
X0044640Y0027549D01*
X0044989Y0027200D01*
X0044200Y0026411D01*
X0044200Y0017989D01*
X0044989Y0017200D01*
X0044200Y0016411D01*
X0044200Y0007989D01*
X0045489Y0006700D01*
X0053911Y0006700D01*
X0055200Y0007989D01*
X0055200Y0016411D01*
X0054411Y0017200D01*
X0055200Y0017989D01*
X0055200Y0026411D01*
X0054411Y0027200D01*
X0054760Y0027549D01*
X0055050Y0028051D01*
X0055200Y0028610D01*
X0055200Y0032200D01*
X0055200Y0030982D02*
X0090736Y0030982D01*
X0094700Y0030982D02*
X0094700Y0030982D01*
X0098664Y0030982D02*
X0116190Y0030982D01*
X0115138Y0028584D02*
X0055193Y0028584D01*
X0055200Y0026185D02*
X0115100Y0026185D01*
X0115978Y0023787D02*
X0097613Y0023787D01*
X0098778Y0023304D02*
X0096132Y0024400D01*
X0093268Y0024400D01*
X0090622Y0023304D01*
X0088596Y0021278D01*
X0087500Y0018632D01*
X0087500Y0015768D01*
X0088596Y0013122D01*
X0090622Y0011096D01*
X0093268Y0010000D01*
X0096132Y0010000D01*
X0098778Y0011096D01*
X0100804Y0013122D01*
X0101900Y0015768D01*
X0101900Y0018632D01*
X0100804Y0021278D01*
X0098778Y0023304D01*
X0100694Y0021388D02*
X0116596Y0021388D01*
X0115306Y0018990D02*
X0101752Y0018990D01*
X0101900Y0016591D02*
X0115100Y0016591D01*
X0115810Y0014193D02*
X0101247Y0014193D01*
X0099476Y0011794D02*
X0117814Y0011794D01*
X0133986Y0011794D02*
X0134201Y0011794D01*
X0134201Y0009396D02*
X0055200Y0009396D01*
X0055200Y0011794D02*
X0089924Y0011794D01*
X0088152Y0014193D02*
X0055200Y0014193D01*
X0055020Y0016591D02*
X0087500Y0016591D01*
X0087648Y0018990D02*
X0055200Y0018990D01*
X0055200Y0021388D02*
X0088706Y0021388D01*
X0091787Y0023787D02*
X0055200Y0023787D01*
X0044200Y0023787D02*
X0014200Y0023787D01*
X0014200Y0021388D02*
X0019896Y0021388D01*
X0020187Y0021611D02*
X0019344Y0020965D01*
X0018593Y0020213D01*
X0017946Y0019370D01*
X0017415Y0018450D01*
X0017008Y0017469D01*
X0016733Y0016442D01*
X0016594Y0015389D01*
X0016594Y0015035D01*
X0024522Y0015035D01*
X0024522Y0014680D01*
X0016594Y0014680D01*
X0016594Y0014326D01*
X0016733Y0013273D01*
X0017008Y0012246D01*
X0017415Y0011265D01*
X0017946Y0010345D01*
X0018593Y0009502D01*
X0019344Y0008750D01*
X0020187Y0008104D01*
X0021107Y0007572D01*
X0022089Y0007166D01*
X0023115Y0006891D01*
X0024169Y0006752D01*
X0024522Y0006752D01*
X0024522Y0014679D01*
X0024878Y0014679D01*
X0024878Y0006752D01*
X0025231Y0006752D01*
X0026285Y0006891D01*
X0027311Y0007166D01*
X0028293Y0007572D01*
X0029213Y0008104D01*
X0030056Y0008750D01*
X0030807Y0009502D01*
X0031454Y0010345D01*
X0031985Y0011265D01*
X0032392Y0012246D01*
X0032667Y0013273D01*
X0032805Y0014326D01*
X0032805Y0014680D01*
X0024878Y0014680D01*
X0024878Y0015035D01*
X0032805Y0015035D01*
X0032805Y0015389D01*
X0032667Y0016442D01*
X0032392Y0017469D01*
X0031985Y0018450D01*
X0031454Y0019370D01*
X0030807Y0020213D01*
X0030056Y0020965D01*
X0029213Y0021611D01*
X0028293Y0022143D01*
X0027311Y0022549D01*
X0026285Y0022824D01*
X0025231Y0022963D01*
X0024878Y0022963D01*
X0024878Y0015036D01*
X0024522Y0015036D01*
X0024522Y0022963D01*
X0024169Y0022963D01*
X0023115Y0022824D01*
X0022089Y0022549D01*
X0021107Y0022143D01*
X0020187Y0021611D01*
X0024522Y0021388D02*
X0024878Y0021388D01*
X0029504Y0021388D02*
X0044200Y0021388D01*
X0044200Y0018990D02*
X0031674Y0018990D01*
X0032627Y0016591D02*
X0044380Y0016591D01*
X0044200Y0014193D02*
X0032788Y0014193D01*
X0032204Y0011794D02*
X0044200Y0011794D01*
X0044200Y0009396D02*
X0030701Y0009396D01*
X0026682Y0006997D02*
X0045192Y0006997D01*
X0054208Y0006997D02*
X0134201Y0006997D01*
X0116338Y0033381D02*
X0101063Y0033381D01*
X0101900Y0035779D02*
X0115251Y0035779D01*
X0115100Y0037200D02*
X0130200Y0037200D01*
X0130200Y0043700D01*
X0121174Y0043700D01*
X0120329Y0043589D01*
X0119506Y0043368D01*
X0118719Y0043042D01*
X0117981Y0042616D01*
X0117305Y0042097D01*
X0116703Y0041495D01*
X0116184Y0040819D01*
X0115758Y0040081D01*
X0115432Y0039294D01*
X0115211Y0038471D01*
X0115100Y0037626D01*
X0115100Y0037200D01*
X0115173Y0038178D02*
X0101900Y0038178D01*
X0101506Y0040576D02*
X0116044Y0040576D01*
X0117200Y0042200D02*
X0125000Y0037150D01*
X0125000Y0045700D01*
X0130200Y0042975D02*
X0130200Y0042975D01*
X0133198Y0042975D02*
X0134201Y0042975D01*
X0130200Y0040576D02*
X0130200Y0040576D01*
X0130200Y0038178D02*
X0130200Y0038178D01*
X0130200Y0037200D02*
X0130200Y0037200D01*
X0118602Y0042975D02*
X0099108Y0042975D01*
X0087894Y0040576D02*
X0032605Y0040576D01*
X0032805Y0038178D02*
X0087500Y0038178D01*
X0087500Y0035779D02*
X0055200Y0035779D01*
X0049700Y0035779D02*
X0049700Y0035779D01*
X0049700Y0033381D02*
X0049700Y0033381D01*
X0044200Y0033381D02*
X0031064Y0033381D01*
X0032355Y0035779D02*
X0044200Y0035779D01*
X0044200Y0030982D02*
X0027780Y0030982D01*
X0021620Y0030982D02*
X0014200Y0030982D01*
X0014200Y0028584D02*
X0044207Y0028584D01*
X0044200Y0026185D02*
X0014200Y0026185D01*
X0014200Y0033381D02*
X0018336Y0033381D01*
X0017045Y0035779D02*
X0014200Y0035779D01*
X0014200Y0038178D02*
X0016594Y0038178D01*
X0016795Y0040576D02*
X0014200Y0040576D01*
X0014200Y0042975D02*
X0017789Y0042975D01*
X0020162Y0045373D02*
X0014200Y0045373D01*
X0014200Y0018990D02*
X0017726Y0018990D01*
X0016773Y0016591D02*
X0014200Y0016591D01*
X0014200Y0014193D02*
X0016612Y0014193D01*
X0017196Y0011794D02*
X0014200Y0011794D01*
X0014200Y0009396D02*
X0018699Y0009396D01*
X0024522Y0009396D02*
X0024878Y0009396D01*
X0024878Y0011794D02*
X0024522Y0011794D01*
X0024522Y0014193D02*
X0024878Y0014193D01*
X0024878Y0016591D02*
X0024522Y0016591D01*
X0024522Y0018990D02*
X0024878Y0018990D01*
X0024878Y0006997D02*
X0024522Y0006997D01*
X0022718Y0006997D02*
X0014200Y0006997D01*
D17*
X0073700Y0011700D03*
M02*
