G75*
%MOIN*%
%OFA0B0*%
%FSLAX25Y25*%
%IPPOS*%
%LPD*%
%AMOC8*
5,1,8,0,0,1.08239X$1,22.5*
%
%ADD10OC8,0.06800*%
%ADD11C,0.13300*%
%ADD12R,0.07400X0.07400*%
%ADD13C,0.07400*%
%ADD14R,0.08477X0.08477*%
%ADD15C,0.06000*%
%ADD16OC8,0.10850*%
%ADD17C,0.04762*%
%ADD18R,0.04762X0.04762*%
D10*
X0038772Y0015200D03*
X0048772Y0015200D03*
X0058772Y0015200D03*
X0068772Y0015200D03*
X0068772Y0025200D03*
X0058772Y0025200D03*
X0048772Y0025200D03*
X0038772Y0025200D03*
X0078772Y0025200D03*
X0088772Y0025200D03*
X0098772Y0025200D03*
X0108772Y0025200D03*
X0118772Y0025200D03*
X0128772Y0025200D03*
X0138772Y0025200D03*
X0148772Y0025200D03*
X0158772Y0025200D03*
X0168772Y0025200D03*
X0178772Y0025200D03*
X0188772Y0025200D03*
X0198772Y0025200D03*
X0198772Y0015200D03*
X0188772Y0015200D03*
X0178772Y0015200D03*
X0168772Y0015200D03*
X0158772Y0015200D03*
X0148772Y0015200D03*
X0138772Y0015200D03*
X0128772Y0015200D03*
X0118772Y0015200D03*
X0108772Y0015200D03*
X0098772Y0015200D03*
X0088772Y0015200D03*
X0078772Y0015200D03*
D11*
X0021072Y0292900D03*
X0216472Y0292900D03*
D12*
X0212272Y0141400D03*
X0212272Y0131400D03*
X0212272Y0121400D03*
X0212272Y0111400D03*
X0212272Y0101400D03*
X0212272Y0091400D03*
X0212272Y0081400D03*
X0212272Y0061400D03*
X0202272Y0061400D03*
X0182272Y0061400D03*
X0172272Y0061400D03*
X0162272Y0061400D03*
X0152272Y0061400D03*
X0132272Y0061400D03*
X0122272Y0061400D03*
X0112272Y0061400D03*
X0102272Y0061400D03*
X0092272Y0061400D03*
X0082272Y0061400D03*
X0072272Y0061400D03*
X0062272Y0061400D03*
X0052272Y0061400D03*
X0042272Y0061400D03*
X0027272Y0061400D03*
X0027272Y0081400D03*
X0027272Y0091400D03*
X0027272Y0101400D03*
X0027272Y0111400D03*
X0027272Y0121400D03*
X0027272Y0131400D03*
X0027272Y0141400D03*
X0027272Y0151400D03*
X0027272Y0161400D03*
X0027272Y0171400D03*
X0027272Y0181400D03*
X0027272Y0191400D03*
D13*
X0027272Y0041400D03*
X0027272Y0051400D03*
X0042272Y0051400D03*
X0042272Y0041400D03*
X0052272Y0041400D03*
X0052272Y0051400D03*
X0062272Y0051400D03*
X0062272Y0041400D03*
X0072272Y0041400D03*
X0072272Y0051400D03*
X0082272Y0051400D03*
X0082272Y0041400D03*
X0092272Y0041400D03*
X0092272Y0051400D03*
X0102272Y0051400D03*
X0102272Y0041400D03*
X0112272Y0041400D03*
X0112272Y0051400D03*
X0122272Y0051400D03*
X0122272Y0041400D03*
X0132272Y0041400D03*
X0132272Y0051400D03*
X0152272Y0051400D03*
X0152272Y0041400D03*
X0162272Y0041400D03*
X0162272Y0051400D03*
X0172272Y0051400D03*
X0172272Y0041400D03*
X0182272Y0041400D03*
X0182272Y0051400D03*
X0202272Y0051400D03*
X0202272Y0041400D03*
X0212272Y0041400D03*
X0212272Y0051400D03*
X0202272Y0081400D03*
X0202272Y0091400D03*
X0202272Y0101400D03*
X0202272Y0111400D03*
X0202272Y0121400D03*
X0202272Y0131400D03*
X0202272Y0141400D03*
X0192272Y0141400D03*
X0192272Y0131400D03*
X0192272Y0121400D03*
X0192272Y0111400D03*
X0192272Y0101400D03*
X0192272Y0091400D03*
X0192272Y0081400D03*
X0047272Y0081400D03*
X0047272Y0091400D03*
X0047272Y0101400D03*
X0047272Y0111400D03*
X0047272Y0121400D03*
X0047272Y0131400D03*
X0047272Y0141400D03*
X0047272Y0151400D03*
X0047272Y0161400D03*
X0047272Y0171400D03*
X0047272Y0181400D03*
X0047272Y0191400D03*
X0037272Y0191400D03*
X0037272Y0181400D03*
X0037272Y0171400D03*
X0037272Y0161400D03*
X0037272Y0151400D03*
X0037272Y0141400D03*
X0037272Y0131400D03*
X0037272Y0121400D03*
X0037272Y0111400D03*
X0037272Y0101400D03*
X0037272Y0091400D03*
X0037272Y0081400D03*
D14*
X0211374Y0237030D03*
X0222792Y0237030D03*
X0222792Y0265770D03*
X0211374Y0265770D03*
D15*
X0117272Y0263800D02*
X0117272Y0269000D01*
X0107272Y0269000D02*
X0107272Y0263800D01*
X0097272Y0263800D02*
X0097272Y0269000D01*
X0087272Y0269000D02*
X0087272Y0263800D01*
X0087272Y0293800D02*
X0087272Y0299000D01*
X0097272Y0299000D02*
X0097272Y0293800D01*
X0107272Y0293800D02*
X0107272Y0299000D01*
X0117272Y0299000D02*
X0117272Y0293800D01*
D16*
X0184360Y0226400D03*
X0198182Y0226317D03*
D17*
X0203872Y0207300D03*
X0214772Y0203483D03*
X0220023Y0214734D03*
X0225018Y0203400D03*
X0202272Y0189800D03*
X0194272Y0189800D03*
X0187372Y0188400D03*
X0184772Y0207400D03*
X0188866Y0246219D03*
X0181972Y0271100D03*
X0175872Y0271100D03*
X0197772Y0271400D03*
X0148772Y0244200D03*
X0146272Y0253400D03*
X0137272Y0250400D03*
X0132272Y0244400D03*
X0125272Y0243400D03*
X0123272Y0251500D03*
X0123272Y0257800D03*
X0143772Y0266900D03*
X0117272Y0229400D03*
X0107272Y0229400D03*
X0099772Y0229400D03*
X0096272Y0222400D03*
X0092272Y0229400D03*
X0113072Y0207400D03*
X0119972Y0192200D03*
X0111772Y0186400D03*
X0105272Y0186400D03*
X0104272Y0179400D03*
X0096772Y0186400D03*
X0088172Y0173000D03*
X0082372Y0173100D03*
X0082272Y0181400D03*
X0073272Y0192400D03*
X0061272Y0186400D03*
X0061272Y0176400D03*
X0061272Y0166400D03*
X0095272Y0156400D03*
X0111272Y0156400D03*
X0111272Y0166400D03*
X0144072Y0132400D03*
X0150772Y0132400D03*
X0151272Y0126400D03*
X0159772Y0126400D03*
X0154272Y0112900D03*
X0159772Y0106400D03*
X0151272Y0098400D03*
X0151272Y0092400D03*
X0144072Y0098400D03*
X0139272Y0104400D03*
X0159772Y0086400D03*
X0153772Y0078400D03*
X0160772Y0146400D03*
X0151272Y0147400D03*
X0161272Y0166400D03*
X0168272Y0162400D03*
X0147172Y0197900D03*
X0136272Y0206900D03*
X0129972Y0215100D03*
X0128972Y0222400D03*
X0140472Y0223400D03*
X0145972Y0223400D03*
X0213272Y0156400D03*
X0220023Y0162567D03*
X0062272Y0213700D03*
X0062272Y0228800D03*
X0062272Y0246900D03*
X0062272Y0266400D03*
X0050872Y0278100D03*
X0044272Y0278000D03*
X0042772Y0267200D03*
X0037472Y0249100D03*
X0037272Y0240359D03*
X0043272Y0213400D03*
X0031272Y0213400D03*
X0017272Y0206400D03*
X0014672Y0199500D03*
X0014672Y0192100D03*
D18*
X0062272Y0198400D03*
X0149272Y0297400D03*
X0186272Y0290400D03*
X0205272Y0257400D03*
M02*
