G75*
%MOIN*%
%OFA0B0*%
%FSLAX25Y25*%
%IPPOS*%
%LPD*%
%AMOC8*
5,1,8,0,0,1.08239X$1,22.5*
%
%ADD10R,0.04252X0.04134*%
%ADD11R,0.05118X0.06299*%
%ADD12R,0.04134X0.04252*%
%ADD13R,0.03150X0.03150*%
%ADD14R,0.05906X0.03150*%
%ADD15R,0.07874X0.05709*%
%ADD16R,0.06299X0.01969*%
%ADD17R,0.01575X0.02559*%
%ADD18R,0.04331X0.03937*%
%ADD19R,0.03937X0.04331*%
%ADD20R,0.07480X0.01575*%
%ADD21R,0.01575X0.07480*%
%ADD22R,0.05709X0.01772*%
%ADD23R,0.03543X0.04724*%
%ADD24R,0.01772X0.05906*%
%ADD25R,0.05900X0.07900*%
%ADD26R,0.15000X0.07900*%
%ADD27R,0.01181X0.05709*%
%ADD28R,0.08300X0.22000*%
%ADD29R,0.06102X0.05118*%
%ADD30R,0.01500X0.04500*%
%ADD31R,0.01575X0.02756*%
D10*
X0066772Y0167455D03*
X0066772Y0174345D03*
X0097272Y0203955D03*
X0097272Y0210845D03*
X0149172Y0265855D03*
X0149172Y0272745D03*
X0184272Y0277955D03*
X0184272Y0284845D03*
X0191272Y0284845D03*
X0191272Y0277955D03*
X0207272Y0229145D03*
X0207272Y0222255D03*
X0214272Y0222255D03*
X0214272Y0229145D03*
X0221272Y0229145D03*
X0221272Y0222255D03*
X0207272Y0167845D03*
X0207272Y0160955D03*
D11*
X0176209Y0168400D03*
X0176209Y0177400D03*
X0168335Y0177400D03*
X0168335Y0168400D03*
X0161209Y0177400D03*
X0153335Y0177400D03*
X0153335Y0186400D03*
X0161209Y0186400D03*
X0168335Y0186400D03*
X0176209Y0186400D03*
D12*
X0093827Y0139400D03*
X0100717Y0139400D03*
X0141827Y0111400D03*
X0148717Y0111400D03*
X0160827Y0111400D03*
X0167717Y0111400D03*
X0167717Y0101400D03*
X0160827Y0101400D03*
X0160827Y0091400D03*
X0167717Y0091400D03*
X0167717Y0081400D03*
X0160827Y0081400D03*
X0148717Y0078400D03*
X0141827Y0078400D03*
X0160827Y0121400D03*
X0167717Y0121400D03*
X0167717Y0131400D03*
X0160827Y0131400D03*
X0160827Y0141400D03*
X0167717Y0141400D03*
X0167717Y0151400D03*
X0160827Y0151400D03*
X0179927Y0193600D03*
X0186817Y0193600D03*
X0193827Y0239400D03*
X0200717Y0239400D03*
X0180717Y0299400D03*
X0173827Y0299400D03*
X0146017Y0229700D03*
X0139127Y0229700D03*
X0126717Y0203900D03*
X0126717Y0197800D03*
X0119827Y0197800D03*
X0119827Y0203900D03*
X0075717Y0198400D03*
X0068827Y0198400D03*
D13*
X0087272Y0234447D03*
X0087272Y0240353D03*
X0097272Y0240353D03*
X0097272Y0234447D03*
X0107272Y0234447D03*
X0107272Y0240353D03*
X0117272Y0240353D03*
X0117272Y0234447D03*
X0188319Y0252400D03*
X0188319Y0258400D03*
X0188319Y0264400D03*
X0194224Y0264400D03*
X0194224Y0258400D03*
X0194224Y0252400D03*
D14*
X0028177Y0253433D03*
X0028177Y0257764D03*
X0028177Y0249102D03*
X0028177Y0244772D03*
X0028177Y0240441D03*
X0028177Y0236110D03*
X0028177Y0231780D03*
X0028177Y0227449D03*
D15*
X0017941Y0213000D03*
X0050618Y0213000D03*
X0050618Y0267134D03*
X0017941Y0267134D03*
D16*
X0211374Y0257699D03*
X0211374Y0254550D03*
X0211374Y0251400D03*
X0211374Y0248250D03*
X0211374Y0245101D03*
D17*
X0177240Y0284664D03*
X0173303Y0284664D03*
X0175272Y0280136D03*
X0193272Y0198664D03*
X0195240Y0194136D03*
X0198303Y0194136D03*
X0200272Y0198664D03*
X0202240Y0194136D03*
X0191303Y0194136D03*
D18*
X0190272Y0207054D03*
X0190272Y0213746D03*
X0198272Y0213746D03*
X0198272Y0207054D03*
X0210272Y0183746D03*
X0210272Y0177054D03*
X0200618Y0246400D03*
X0193925Y0246400D03*
X0165272Y0266054D03*
X0165272Y0272746D03*
X0157272Y0272746D03*
X0157272Y0266054D03*
X0117272Y0252746D03*
X0117272Y0246054D03*
X0107272Y0246054D03*
X0107272Y0252746D03*
X0097272Y0252746D03*
X0097272Y0246054D03*
X0087272Y0246054D03*
X0087272Y0252746D03*
X0115272Y0219246D03*
X0115272Y0212554D03*
D19*
X0075618Y0215400D03*
X0068925Y0215400D03*
X0068925Y0206400D03*
X0075618Y0206400D03*
X0075618Y0224400D03*
X0068925Y0224400D03*
X0068925Y0233400D03*
X0075618Y0233400D03*
X0075618Y0242400D03*
X0068925Y0242400D03*
X0068925Y0251400D03*
X0075618Y0251400D03*
X0070618Y0272900D03*
X0063925Y0272900D03*
X0063925Y0280900D03*
X0070618Y0280900D03*
X0070618Y0288900D03*
X0063925Y0288900D03*
X0063925Y0296900D03*
X0070618Y0296900D03*
X0173925Y0291400D03*
X0180618Y0291400D03*
X0182618Y0264400D03*
X0182618Y0256400D03*
X0175925Y0256400D03*
X0175925Y0264400D03*
X0175925Y0248400D03*
X0182618Y0248400D03*
X0183925Y0183400D03*
X0190618Y0183400D03*
X0196925Y0183400D03*
X0203618Y0183400D03*
X0190618Y0173400D03*
X0183925Y0173400D03*
X0180618Y0161400D03*
X0173925Y0161400D03*
X0173925Y0151400D03*
X0180618Y0151400D03*
X0180618Y0141400D03*
X0173925Y0141400D03*
X0173925Y0131400D03*
X0180618Y0131400D03*
X0180618Y0121400D03*
X0173925Y0121400D03*
X0173925Y0111400D03*
X0180618Y0111400D03*
X0180618Y0101400D03*
X0173925Y0101400D03*
X0173925Y0091400D03*
X0180618Y0091400D03*
X0180618Y0081400D03*
X0173925Y0081400D03*
X0216925Y0173400D03*
X0223618Y0173400D03*
X0223618Y0183400D03*
X0216925Y0183400D03*
D20*
X0119663Y0184048D03*
X0119663Y0187197D03*
X0119663Y0180898D03*
X0119663Y0177748D03*
X0119663Y0174599D03*
X0119663Y0171449D03*
X0119663Y0168300D03*
X0119663Y0165150D03*
X0119663Y0162000D03*
X0119663Y0158851D03*
X0119663Y0155701D03*
X0074781Y0155701D03*
X0074781Y0158851D03*
X0074781Y0162000D03*
X0074781Y0165150D03*
X0074781Y0168300D03*
X0074781Y0171449D03*
X0074781Y0174599D03*
X0074781Y0177748D03*
X0074781Y0180898D03*
X0074781Y0184048D03*
X0074781Y0187197D03*
D21*
X0081474Y0193890D03*
X0084624Y0193890D03*
X0087774Y0193890D03*
X0090923Y0193890D03*
X0094073Y0193890D03*
X0097222Y0193890D03*
X0100372Y0193890D03*
X0103522Y0193890D03*
X0106671Y0193890D03*
X0109821Y0193890D03*
X0112970Y0193890D03*
X0112970Y0149008D03*
X0109821Y0149008D03*
X0106671Y0149008D03*
X0103522Y0149008D03*
X0100372Y0149008D03*
X0097222Y0149008D03*
X0094073Y0149008D03*
X0090923Y0149008D03*
X0087774Y0149008D03*
X0084624Y0149008D03*
X0081474Y0149008D03*
D22*
X0122756Y0211561D03*
X0122756Y0214120D03*
X0122756Y0216680D03*
X0122756Y0219239D03*
X0145787Y0219239D03*
X0145787Y0216680D03*
X0145787Y0214120D03*
X0145787Y0211561D03*
D23*
X0193531Y0161676D03*
X0201012Y0161676D03*
X0197272Y0171124D03*
D24*
X0208335Y0190983D03*
X0210894Y0190983D03*
X0213453Y0190983D03*
X0216012Y0190983D03*
X0216012Y0213817D03*
X0213453Y0213817D03*
X0210894Y0213817D03*
X0208335Y0213817D03*
D25*
X0171372Y0199000D03*
X0162372Y0199000D03*
X0153372Y0199000D03*
D26*
X0162272Y0223800D03*
D27*
X0153209Y0138061D03*
X0151240Y0138061D03*
X0149272Y0138061D03*
X0147303Y0138061D03*
X0145335Y0138061D03*
X0145335Y0120739D03*
X0147303Y0120739D03*
X0149272Y0120739D03*
X0151240Y0120739D03*
X0153209Y0120739D03*
X0153209Y0104061D03*
X0151240Y0104061D03*
X0149272Y0104061D03*
X0147303Y0104061D03*
X0145335Y0104061D03*
X0145335Y0086739D03*
X0147303Y0086739D03*
X0149272Y0086739D03*
X0151240Y0086739D03*
X0153209Y0086739D03*
D28*
X0137272Y0149700D03*
X0137272Y0187100D03*
D29*
X0134327Y0280239D03*
X0134327Y0297955D03*
X0165626Y0297955D03*
X0165626Y0280239D03*
D30*
X0157522Y0258950D03*
X0155022Y0258950D03*
X0152522Y0258950D03*
X0150022Y0258950D03*
X0147522Y0258950D03*
X0145022Y0258950D03*
X0142522Y0258950D03*
X0140022Y0258950D03*
X0137522Y0258950D03*
X0135022Y0258950D03*
X0135022Y0237850D03*
X0137522Y0237850D03*
X0140022Y0237850D03*
X0142522Y0237850D03*
X0145022Y0237850D03*
X0147522Y0237850D03*
X0150022Y0237850D03*
X0152522Y0237850D03*
X0155022Y0237850D03*
X0157522Y0237850D03*
D31*
X0128831Y0233746D03*
X0126272Y0233746D03*
X0123713Y0233746D03*
X0123713Y0227054D03*
X0128831Y0227054D03*
M02*
