G75*
%MOIN*%
%OFA0B0*%
%FSLAX25Y25*%
%IPPOS*%
%LPD*%
%AMOC8*
5,1,8,0,0,1.08239X$1,22.5*
%
%ADD10C,0.00600*%
%ADD11C,0.01000*%
%ADD12C,0.00700*%
%ADD13C,0.00800*%
%ADD14C,0.00500*%
%ADD15R,0.03499X0.00083*%
%ADD16R,0.05414X0.00083*%
%ADD17R,0.07247X0.00083*%
%ADD18R,0.08830X0.00083*%
%ADD19R,0.09996X0.00083*%
%ADD20R,0.11162X0.00083*%
%ADD21R,0.12078X0.00083*%
%ADD22R,0.12995X0.00083*%
%ADD23R,0.13828X0.00083*%
%ADD24R,0.14661X0.00083*%
%ADD25R,0.15411X0.00083*%
%ADD26R,0.16077X0.00083*%
%ADD27R,0.16743X0.00083*%
%ADD28R,0.17410X0.00083*%
%ADD29R,0.18076X0.00083*%
%ADD30R,0.18659X0.00083*%
%ADD31R,0.19076X0.00083*%
%ADD32R,0.19659X0.00083*%
%ADD33R,0.20159X0.00083*%
%ADD34R,0.20658X0.00083*%
%ADD35R,0.21158X0.00083*%
%ADD36R,0.21575X0.00083*%
%ADD37R,0.22074X0.00083*%
%ADD38R,0.22574X0.00083*%
%ADD39R,0.22908X0.00083*%
%ADD40R,0.23157X0.00083*%
%ADD41R,0.23407X0.00083*%
%ADD42R,0.23741X0.00083*%
%ADD43R,0.23990X0.00083*%
%ADD44R,0.24240X0.00083*%
%ADD45R,0.24407X0.00083*%
%ADD46R,0.24657X0.00083*%
%ADD47R,0.24823X0.00083*%
%ADD48R,0.25073X0.00083*%
%ADD49R,0.25240X0.00083*%
%ADD50R,0.25406X0.00083*%
%ADD51R,0.25656X0.00083*%
%ADD52R,0.25823X0.00083*%
%ADD53R,0.25990X0.00083*%
%ADD54R,0.26156X0.00083*%
%ADD55R,0.26323X0.00083*%
%ADD56R,0.26406X0.00083*%
%ADD57R,0.26573X0.00083*%
%ADD58R,0.26739X0.00083*%
%ADD59R,0.26906X0.00083*%
%ADD60R,0.26989X0.00083*%
%ADD61R,0.27156X0.00083*%
%ADD62R,0.27322X0.00083*%
%ADD63R,0.27489X0.00083*%
%ADD64R,0.27656X0.00083*%
%ADD65R,0.27739X0.00083*%
%ADD66R,0.27822X0.00083*%
%ADD67R,0.27989X0.00083*%
%ADD68R,0.28072X0.00083*%
%ADD69R,0.28155X0.00083*%
%ADD70R,0.28239X0.00083*%
%ADD71R,0.28322X0.00083*%
%ADD72R,0.28405X0.00083*%
%ADD73R,0.28489X0.00083*%
%ADD74R,0.28572X0.00083*%
%ADD75R,0.28655X0.00083*%
%ADD76R,0.28739X0.00083*%
%ADD77R,0.28905X0.00083*%
%ADD78R,0.28988X0.00083*%
%ADD79R,0.29072X0.00083*%
%ADD80R,0.29155X0.00083*%
%ADD81R,0.29238X0.00083*%
%ADD82R,0.29322X0.00083*%
%ADD83R,0.29405X0.00083*%
%ADD84R,0.29488X0.00083*%
%ADD85R,0.29571X0.00083*%
%ADD86R,0.29655X0.00083*%
%ADD87R,0.05498X0.00083*%
%ADD88R,0.02083X0.00083*%
%ADD89R,0.01916X0.00083*%
%ADD90R,0.01666X0.00083*%
%ADD91R,0.06581X0.00083*%
%ADD92R,0.01749X0.00083*%
%ADD93R,0.01499X0.00083*%
%ADD94R,0.06497X0.00083*%
%ADD95R,0.01583X0.00083*%
%ADD96R,0.01416X0.00083*%
%ADD97R,0.06414X0.00083*%
%ADD98R,0.05331X0.00083*%
%ADD99R,0.01583X0.00083*%
%ADD100R,0.01499X0.00083*%
%ADD101R,0.01333X0.00083*%
%ADD102R,0.06331X0.00083*%
%ADD103R,0.07997X0.00083*%
%ADD104R,0.02749X0.00083*%
%ADD105R,0.00583X0.00083*%
%ADD106R,0.06247X0.00083*%
%ADD107R,0.06164X0.00083*%
%ADD108R,0.06081X0.00083*%
%ADD109R,0.05998X0.00083*%
%ADD110R,0.05914X0.00083*%
%ADD111R,0.07913X0.00083*%
%ADD112R,0.05831X0.00083*%
%ADD113R,0.07830X0.00083*%
%ADD114R,0.05831X0.00083*%
%ADD115R,0.02832X0.00083*%
%ADD116R,0.00666X0.00083*%
%ADD117R,0.06081X0.00083*%
%ADD118R,0.02916X0.00083*%
%ADD119R,0.00750X0.00083*%
%ADD120R,0.06997X0.00083*%
%ADD121R,0.06914X0.00083*%
%ADD122R,0.06831X0.00083*%
%ADD123R,0.06747X0.00083*%
%ADD124R,0.06664X0.00083*%
%ADD125R,0.07664X0.00083*%
%ADD126R,0.06581X0.00083*%
%ADD127R,0.07747X0.00083*%
%ADD128R,0.07664X0.00083*%
%ADD129R,0.07580X0.00083*%
%ADD130R,0.05748X0.00083*%
%ADD131R,0.07497X0.00083*%
%ADD132R,0.05664X0.00083*%
%ADD133R,0.05581X0.00083*%
%ADD134R,0.07414X0.00083*%
%ADD135R,0.07330X0.00083*%
%ADD136R,0.04831X0.00083*%
%ADD137R,0.04082X0.00083*%
%ADD138R,0.04665X0.00083*%
%ADD139R,0.03915X0.00083*%
%ADD140R,0.04581X0.00083*%
%ADD141R,0.03748X0.00083*%
%ADD142R,0.05248X0.00083*%
%ADD143R,0.04498X0.00083*%
%ADD144R,0.05165X0.00083*%
%ADD145R,0.05081X0.00083*%
%ADD146R,0.03832X0.00083*%
%ADD147R,0.03998X0.00083*%
%ADD148R,0.04998X0.00083*%
%ADD149R,0.12162X0.00083*%
%ADD150R,0.04998X0.00083*%
%ADD151R,0.25823X0.00083*%
%ADD152R,0.25573X0.00083*%
%ADD153R,0.25490X0.00083*%
%ADD154R,0.25240X0.00083*%
%ADD155R,0.25157X0.00083*%
%ADD156R,0.00167X0.00083*%
%ADD157R,0.00500X0.00083*%
%ADD158R,0.24990X0.00083*%
%ADD159R,0.01000X0.00083*%
%ADD160R,0.24740X0.00083*%
%ADD161R,0.01249X0.00083*%
%ADD162R,0.24573X0.00083*%
%ADD163R,0.24490X0.00083*%
%ADD164R,0.24324X0.00083*%
%ADD165R,0.02332X0.00083*%
%ADD166R,0.24157X0.00083*%
%ADD167R,0.02582X0.00083*%
%ADD168R,0.24074X0.00083*%
%ADD169R,0.02832X0.00083*%
%ADD170R,0.23990X0.00083*%
%ADD171R,0.03165X0.00083*%
%ADD172R,0.23824X0.00083*%
%ADD173R,0.23574X0.00083*%
%ADD174R,0.23491X0.00083*%
%ADD175R,0.04248X0.00083*%
%ADD176R,0.23241X0.00083*%
%ADD177R,0.23157X0.00083*%
%ADD178R,0.22991X0.00083*%
%ADD179R,0.22824X0.00083*%
%ADD180R,0.22741X0.00083*%
%ADD181R,0.22491X0.00083*%
%ADD182R,0.22324X0.00083*%
%ADD183R,0.22241X0.00083*%
%ADD184R,0.07164X0.00083*%
%ADD185R,0.21991X0.00083*%
%ADD186R,0.21741X0.00083*%
%ADD187R,0.08080X0.00083*%
%ADD188R,0.00083X0.00083*%
%ADD189R,0.21658X0.00083*%
%ADD190R,0.08330X0.00083*%
%ADD191R,0.00416X0.00083*%
%ADD192R,0.21491X0.00083*%
%ADD193R,0.08580X0.00083*%
%ADD194R,0.21408X0.00083*%
%ADD195R,0.08913X0.00083*%
%ADD196R,0.01000X0.00083*%
%ADD197R,0.21242X0.00083*%
%ADD198R,0.09163X0.00083*%
%ADD199R,0.21075X0.00083*%
%ADD200R,0.09246X0.00083*%
%ADD201R,0.20908X0.00083*%
%ADD202R,0.09330X0.00083*%
%ADD203R,0.20742X0.00083*%
%ADD204R,0.09413X0.00083*%
%ADD205R,0.02249X0.00083*%
%ADD206R,0.20575X0.00083*%
%ADD207R,0.09580X0.00083*%
%ADD208R,0.02499X0.00083*%
%ADD209R,0.20408X0.00083*%
%ADD210R,0.09663X0.00083*%
%ADD211R,0.20242X0.00083*%
%ADD212R,0.09746X0.00083*%
%ADD213R,0.03082X0.00083*%
%ADD214R,0.20075X0.00083*%
%ADD215R,0.09829X0.00083*%
%ADD216R,0.03332X0.00083*%
%ADD217R,0.19909X0.00083*%
%ADD218R,0.09913X0.00083*%
%ADD219R,0.19742X0.00083*%
%ADD220R,0.10079X0.00083*%
%ADD221R,0.19575X0.00083*%
%ADD222R,0.10246X0.00083*%
%ADD223R,0.04248X0.00083*%
%ADD224R,0.19492X0.00083*%
%ADD225R,0.10329X0.00083*%
%ADD226R,0.19326X0.00083*%
%ADD227R,0.10413X0.00083*%
%ADD228R,0.19159X0.00083*%
%ADD229R,0.04748X0.00083*%
%ADD230R,0.05248X0.00083*%
%ADD231R,0.18992X0.00083*%
%ADD232R,0.04415X0.00083*%
%ADD233R,0.18909X0.00083*%
%ADD234R,0.04498X0.00083*%
%ADD235R,0.18742X0.00083*%
%ADD236R,0.04332X0.00083*%
%ADD237R,0.04165X0.00083*%
%ADD238R,0.18493X0.00083*%
%ADD239R,0.18409X0.00083*%
%ADD240R,0.03915X0.00083*%
%ADD241R,0.03665X0.00083*%
%ADD242R,0.18243X0.00083*%
%ADD243R,0.03582X0.00083*%
%ADD244R,0.03415X0.00083*%
%ADD245R,0.17909X0.00083*%
%ADD246R,0.17826X0.00083*%
%ADD247R,0.17743X0.00083*%
%ADD248R,0.03249X0.00083*%
%ADD249R,0.08413X0.00083*%
%ADD250R,0.17576X0.00083*%
%ADD251R,0.17493X0.00083*%
%ADD252R,0.08663X0.00083*%
%ADD253R,0.02999X0.00083*%
%ADD254R,0.08746X0.00083*%
%ADD255R,0.17243X0.00083*%
%ADD256R,0.17160X0.00083*%
%ADD257R,0.08996X0.00083*%
%ADD258R,0.09080X0.00083*%
%ADD259R,0.16993X0.00083*%
%ADD260R,0.16910X0.00083*%
%ADD261R,0.16660X0.00083*%
%ADD262R,0.09496X0.00083*%
%ADD263R,0.16493X0.00083*%
%ADD264R,0.09579X0.00083*%
%ADD265R,0.16410X0.00083*%
%ADD266R,0.02666X0.00083*%
%ADD267R,0.16244X0.00083*%
%ADD268R,0.09829X0.00083*%
%ADD269R,0.16160X0.00083*%
%ADD270R,0.15994X0.00083*%
%ADD271R,0.15910X0.00083*%
%ADD272R,0.02582X0.00083*%
%ADD273R,0.15744X0.00083*%
%ADD274R,0.15577X0.00083*%
%ADD275R,0.15494X0.00083*%
%ADD276R,0.15327X0.00083*%
%ADD277R,0.03665X0.00083*%
%ADD278R,0.15244X0.00083*%
%ADD279R,0.15077X0.00083*%
%ADD280R,0.14911X0.00083*%
%ADD281R,0.02416X0.00083*%
%ADD282R,0.14827X0.00083*%
%ADD283R,0.14578X0.00083*%
%ADD284R,0.14494X0.00083*%
%ADD285R,0.03165X0.00083*%
%ADD286R,0.14411X0.00083*%
%ADD287R,0.14244X0.00083*%
%ADD288R,0.14161X0.00083*%
%ADD289R,0.13994X0.00083*%
%ADD290R,0.13661X0.00083*%
%ADD291R,0.13578X0.00083*%
%ADD292R,0.13411X0.00083*%
%ADD293R,0.13328X0.00083*%
%ADD294R,0.13161X0.00083*%
%ADD295R,0.13078X0.00083*%
%ADD296R,0.12828X0.00083*%
%ADD297R,0.12662X0.00083*%
%ADD298R,0.12578X0.00083*%
%ADD299R,0.12412X0.00083*%
%ADD300R,0.12328X0.00083*%
%ADD301R,0.12245X0.00083*%
%ADD302R,0.11912X0.00083*%
%ADD303R,0.11829X0.00083*%
%ADD304R,0.03082X0.00083*%
%ADD305R,0.11662X0.00083*%
%ADD306R,0.11495X0.00083*%
%ADD307R,0.11329X0.00083*%
%ADD308R,0.11245X0.00083*%
%ADD309R,0.11162X0.00083*%
%ADD310R,0.10996X0.00083*%
%ADD311R,0.10829X0.00083*%
%ADD312R,0.10662X0.00083*%
%ADD313R,0.10579X0.00083*%
%ADD314R,0.08747X0.00083*%
%ADD315R,0.08163X0.00083*%
%ADD316R,0.08497X0.00083*%
%ADD317R,0.03415X0.00083*%
%ADD318R,0.08247X0.00083*%
%ADD319R,0.06331X0.00083*%
%ADD320R,0.04915X0.00083*%
%ADD321R,0.07080X0.00083*%
%ADD322R,0.00250X0.00083*%
%ADD323R,0.02332X0.00083*%
%ADD324R,0.01083X0.00083*%
%ADD325R,0.10079X0.00083*%
%ADD326R,0.00833X0.00083*%
%ADD327R,0.02082X0.00083*%
%ADD328R,0.04165X0.00083*%
%ADD329R,0.04748X0.00083*%
%ADD330R,0.05748X0.00083*%
%ADD331R,0.08163X0.00083*%
%ADD332R,0.01166X0.00083*%
%ADD333R,0.00916X0.00083*%
%ADD334R,0.08247X0.00083*%
%ADD335R,0.08497X0.00083*%
%ADD336R,0.09246X0.00083*%
%ADD337R,0.08996X0.00083*%
%ADD338R,0.10163X0.00083*%
%ADD339R,0.10496X0.00083*%
%ADD340R,0.10579X0.00083*%
%ADD341R,0.02915X0.00083*%
%ADD342R,0.10912X0.00083*%
%ADD343R,0.10329X0.00083*%
%ADD344R,0.04415X0.00083*%
%ADD345R,0.01999X0.00083*%
%ADD346R,0.02166X0.00083*%
%ADD347R,0.01250X0.00083*%
%ADD348R,0.00750X0.00083*%
%ADD349R,0.00167X0.00083*%
%ADD350R,0.00984X0.00984*%
%ADD351C,0.00000*%
%ADD352R,0.04000X0.01500*%
%ADD353C,0.01600*%
%ADD354C,0.02559*%
%ADD355C,0.02000*%
D10*
X0099697Y0098134D02*
X0100431Y0097400D01*
X0101899Y0097400D01*
X0102633Y0098134D01*
X0102633Y0098868D01*
X0101899Y0099602D01*
X0101165Y0099602D01*
X0101899Y0099602D02*
X0102633Y0100336D01*
X0102633Y0101070D01*
X0101899Y0101804D01*
X0100431Y0101804D01*
X0099697Y0101070D01*
X0104301Y0099602D02*
X0107237Y0099602D01*
X0106503Y0101804D02*
X0104301Y0099602D01*
X0106503Y0097400D02*
X0106503Y0101804D01*
X0109605Y0097100D02*
X0112105Y0094600D01*
X0117105Y0094600D01*
X0119605Y0097100D01*
X0122105Y0094600D01*
X0127105Y0094600D01*
X0129605Y0097100D01*
X0132105Y0094600D01*
X0137105Y0094600D01*
X0139605Y0097100D01*
X0142105Y0094600D01*
X0147105Y0094600D01*
X0149605Y0097100D01*
X0152105Y0094600D01*
X0157105Y0094600D01*
X0159605Y0097100D01*
X0162105Y0094600D01*
X0167105Y0094600D01*
X0169605Y0097100D01*
X0172105Y0094600D01*
X0177105Y0094600D01*
X0179605Y0097100D01*
X0182105Y0094600D01*
X0187105Y0094600D01*
X0189605Y0097100D01*
X0192105Y0094600D01*
X0197105Y0094600D01*
X0199605Y0097100D01*
X0202105Y0094600D01*
X0207105Y0094600D01*
X0209605Y0097100D01*
X0212105Y0094600D01*
X0217105Y0094600D01*
X0219605Y0097100D01*
X0222105Y0094600D01*
X0227105Y0094600D01*
X0229605Y0097100D01*
X0232105Y0094600D01*
X0237105Y0094600D01*
X0239605Y0097100D01*
X0242105Y0094600D01*
X0247105Y0094600D01*
X0249605Y0097100D01*
X0252105Y0094600D01*
X0257105Y0094600D01*
X0259605Y0097100D01*
X0262105Y0094600D01*
X0267105Y0094600D01*
X0269605Y0097100D01*
X0272105Y0094600D01*
X0277105Y0094600D01*
X0279605Y0097100D01*
X0279605Y0112100D01*
X0277105Y0114600D01*
X0272105Y0114600D01*
X0269605Y0112100D01*
X0267105Y0114600D01*
X0262105Y0114600D01*
X0259605Y0112100D01*
X0257105Y0114600D01*
X0252105Y0114600D01*
X0249605Y0112100D01*
X0247105Y0114600D01*
X0242105Y0114600D01*
X0239605Y0112100D01*
X0237105Y0114600D01*
X0232105Y0114600D01*
X0229605Y0112100D01*
X0227105Y0114600D01*
X0222105Y0114600D01*
X0219605Y0112100D01*
X0217105Y0114600D01*
X0212105Y0114600D01*
X0209605Y0112100D01*
X0207105Y0114600D01*
X0202105Y0114600D01*
X0199605Y0112100D01*
X0197105Y0114600D01*
X0192105Y0114600D01*
X0189605Y0112100D01*
X0187105Y0114600D01*
X0182105Y0114600D01*
X0179605Y0112100D01*
X0177105Y0114600D01*
X0172105Y0114600D01*
X0169605Y0112100D01*
X0167105Y0114600D01*
X0162105Y0114600D01*
X0159605Y0112100D01*
X0157105Y0114600D01*
X0152105Y0114600D01*
X0149605Y0112100D01*
X0147105Y0114600D01*
X0142105Y0114600D01*
X0139605Y0112100D01*
X0137105Y0114600D01*
X0132105Y0114600D01*
X0129605Y0112100D01*
X0127105Y0114600D01*
X0122105Y0114600D01*
X0119605Y0112100D01*
X0117105Y0114600D01*
X0112105Y0114600D01*
X0109605Y0112100D01*
X0109605Y0097100D01*
X0106503Y0107400D02*
X0105035Y0107400D01*
X0104301Y0108134D01*
X0102633Y0108134D02*
X0101899Y0107400D01*
X0100431Y0107400D01*
X0099697Y0108134D01*
X0101165Y0109602D02*
X0101899Y0109602D01*
X0102633Y0108868D01*
X0102633Y0108134D01*
X0101899Y0109602D02*
X0102633Y0110336D01*
X0102633Y0111070D01*
X0101899Y0111804D01*
X0100431Y0111804D01*
X0099697Y0111070D01*
X0099935Y0115100D02*
X0096999Y0115100D01*
X0096999Y0119504D01*
X0100605Y0120800D02*
X0098105Y0123300D01*
X0098105Y0128300D01*
X0100605Y0130800D01*
X0098105Y0133300D01*
X0098105Y0138300D01*
X0100605Y0140800D01*
X0098105Y0143300D01*
X0098105Y0148300D01*
X0100605Y0150800D01*
X0105605Y0150800D01*
X0108105Y0148300D01*
X0108105Y0143300D01*
X0105605Y0140800D01*
X0108105Y0138300D01*
X0108105Y0133300D01*
X0105605Y0130800D01*
X0108105Y0128300D01*
X0108105Y0123300D01*
X0105605Y0120800D01*
X0100605Y0120800D01*
X0102337Y0119504D02*
X0101603Y0118770D01*
X0101603Y0115834D01*
X0102337Y0115100D01*
X0103805Y0115100D01*
X0104539Y0115834D01*
X0106207Y0115100D02*
X0106207Y0119504D01*
X0108409Y0119504D01*
X0109143Y0118770D01*
X0109143Y0115834D01*
X0108409Y0115100D01*
X0106207Y0115100D01*
X0106503Y0111804D02*
X0105035Y0111804D01*
X0104301Y0111070D01*
X0105769Y0109602D02*
X0106503Y0109602D01*
X0107237Y0108868D01*
X0107237Y0108134D01*
X0106503Y0107400D01*
X0106503Y0109602D02*
X0107237Y0110336D01*
X0107237Y0111070D01*
X0106503Y0111804D01*
X0104539Y0118770D02*
X0103805Y0119504D01*
X0102337Y0119504D01*
X0091441Y0124234D02*
X0090707Y0123500D01*
X0089239Y0123500D01*
X0088505Y0124234D01*
X0089239Y0125702D02*
X0090707Y0125702D01*
X0091441Y0124968D01*
X0091441Y0124234D01*
X0089239Y0125702D02*
X0088505Y0126436D01*
X0088505Y0127170D01*
X0089239Y0127904D01*
X0090707Y0127904D01*
X0091441Y0127170D01*
X0092377Y0133600D02*
X0093845Y0135068D01*
X0093845Y0138004D01*
X0090909Y0138004D02*
X0090909Y0135068D01*
X0092377Y0133600D01*
X0089241Y0134334D02*
X0089241Y0135802D01*
X0088507Y0136536D01*
X0087773Y0136536D01*
X0086305Y0135802D01*
X0086305Y0138004D01*
X0089241Y0138004D01*
X0089241Y0134334D02*
X0088507Y0133600D01*
X0087039Y0133600D01*
X0086305Y0134334D01*
X0100605Y0160800D02*
X0098105Y0163300D01*
X0098105Y0168300D01*
X0100605Y0170800D01*
X0105605Y0170800D01*
X0108105Y0168300D01*
X0110605Y0170800D01*
X0115605Y0170800D01*
X0118105Y0168300D01*
X0120605Y0170800D01*
X0125605Y0170800D01*
X0128105Y0168300D01*
X0128105Y0163300D01*
X0125605Y0160800D01*
X0120605Y0160800D01*
X0118105Y0163300D01*
X0115605Y0160800D01*
X0110605Y0160800D01*
X0108105Y0163300D01*
X0105605Y0160800D01*
X0100605Y0160800D01*
X0100605Y0170800D02*
X0098105Y0173300D01*
X0098105Y0178300D01*
X0100605Y0180800D01*
X0105605Y0180800D01*
X0108105Y0178300D01*
X0110605Y0180800D01*
X0115605Y0180800D01*
X0118105Y0178300D01*
X0120605Y0180800D01*
X0125605Y0180800D01*
X0128105Y0178300D01*
X0128105Y0173300D01*
X0125605Y0170800D01*
X0120605Y0170800D01*
X0118105Y0173300D01*
X0115605Y0170800D01*
X0110605Y0170800D01*
X0108105Y0173300D01*
X0105605Y0170800D01*
X0100605Y0170800D01*
X0095809Y0173962D02*
X0095075Y0173228D01*
X0092139Y0173228D01*
X0091405Y0173962D01*
X0091405Y0175429D01*
X0092139Y0176163D01*
X0095075Y0176163D01*
X0095809Y0175429D01*
X0095809Y0173962D01*
X0095809Y0177765D02*
X0095809Y0179233D01*
X0095809Y0178499D02*
X0091405Y0178499D01*
X0091405Y0179233D02*
X0091405Y0177765D01*
X0093607Y0180901D02*
X0092873Y0181635D01*
X0092873Y0183837D01*
X0091405Y0183837D02*
X0095809Y0183837D01*
X0095809Y0181635D01*
X0095075Y0180901D01*
X0093607Y0180901D01*
X0093607Y0185505D02*
X0092139Y0185505D01*
X0091405Y0186239D01*
X0091405Y0187707D01*
X0092139Y0188441D01*
X0095075Y0188441D01*
X0095809Y0187707D01*
X0095809Y0186239D01*
X0095075Y0185505D01*
X0093607Y0185505D02*
X0093607Y0186973D01*
X0098105Y0188300D02*
X0098105Y0183300D01*
X0100605Y0180800D01*
X0105605Y0180800D01*
X0108105Y0183300D01*
X0110605Y0180800D01*
X0115605Y0180800D01*
X0118105Y0183300D01*
X0120605Y0180800D01*
X0125605Y0180800D01*
X0128105Y0183300D01*
X0128105Y0188300D01*
X0125605Y0190800D01*
X0120605Y0190800D01*
X0118105Y0188300D01*
X0115605Y0190800D01*
X0110605Y0190800D01*
X0108105Y0188300D01*
X0105605Y0190800D01*
X0100605Y0190800D01*
X0098105Y0188300D01*
X0100605Y0190800D02*
X0098105Y0193300D01*
X0098105Y0198300D01*
X0100605Y0200800D01*
X0105605Y0200800D01*
X0108105Y0198300D01*
X0110605Y0200800D01*
X0115605Y0200800D01*
X0118105Y0198300D01*
X0120605Y0200800D01*
X0125605Y0200800D01*
X0128105Y0198300D01*
X0128105Y0193300D01*
X0125605Y0190800D01*
X0120605Y0190800D01*
X0118105Y0193300D01*
X0115605Y0190800D01*
X0110605Y0190800D01*
X0108105Y0193300D01*
X0105605Y0190800D01*
X0100605Y0190800D01*
X0100605Y0200800D02*
X0098105Y0203300D01*
X0098105Y0208300D01*
X0100605Y0210800D01*
X0105605Y0210800D01*
X0108105Y0208300D01*
X0110605Y0210800D01*
X0115605Y0210800D01*
X0118105Y0208300D01*
X0120605Y0210800D01*
X0125605Y0210800D01*
X0128105Y0208300D01*
X0128105Y0203300D01*
X0125605Y0200800D01*
X0120605Y0200800D01*
X0118105Y0203300D01*
X0115605Y0200800D01*
X0110605Y0200800D01*
X0108105Y0203300D01*
X0105605Y0200800D01*
X0100605Y0200800D01*
X0095809Y0206263D02*
X0095809Y0207731D01*
X0095075Y0208465D01*
X0092139Y0208465D01*
X0091405Y0207731D01*
X0091405Y0206263D01*
X0092139Y0205530D01*
X0095075Y0205530D02*
X0095809Y0206263D01*
X0095075Y0210133D02*
X0095809Y0210867D01*
X0095809Y0212335D01*
X0095075Y0213069D01*
X0095809Y0214671D02*
X0095809Y0216139D01*
X0095809Y0215405D02*
X0091405Y0215405D01*
X0091405Y0216139D02*
X0091405Y0214671D01*
X0091405Y0213069D02*
X0094341Y0210133D01*
X0095075Y0210133D01*
X0091405Y0210133D02*
X0091405Y0213069D01*
X0098105Y0213300D02*
X0098105Y0218300D01*
X0100605Y0220800D01*
X0098105Y0223300D01*
X0098105Y0228300D01*
X0100605Y0230800D01*
X0098105Y0233300D01*
X0098105Y0238300D01*
X0100605Y0240800D01*
X0098105Y0243300D01*
X0098105Y0248300D01*
X0100605Y0250800D01*
X0098105Y0253300D01*
X0098105Y0258300D01*
X0100605Y0260800D01*
X0105605Y0260800D01*
X0108105Y0258300D01*
X0110605Y0260800D01*
X0115605Y0260800D01*
X0118105Y0258300D01*
X0120605Y0260800D01*
X0125605Y0260800D01*
X0128105Y0258300D01*
X0128105Y0253300D01*
X0125605Y0250800D01*
X0120605Y0250800D01*
X0118105Y0253300D01*
X0115605Y0250800D01*
X0110605Y0250800D01*
X0108105Y0253300D01*
X0105605Y0250800D01*
X0100605Y0250800D01*
X0105605Y0250800D01*
X0108105Y0248300D01*
X0110605Y0250800D01*
X0115605Y0250800D01*
X0118105Y0248300D01*
X0120605Y0250800D01*
X0125605Y0250800D01*
X0128105Y0248300D01*
X0128105Y0243300D01*
X0125605Y0240800D01*
X0120605Y0240800D01*
X0118105Y0243300D01*
X0115605Y0240800D01*
X0110605Y0240800D01*
X0108105Y0243300D01*
X0105605Y0240800D01*
X0100605Y0240800D01*
X0105605Y0240800D01*
X0108105Y0238300D01*
X0110605Y0240800D01*
X0115605Y0240800D01*
X0118105Y0238300D01*
X0120605Y0240800D01*
X0125605Y0240800D01*
X0128105Y0238300D01*
X0128105Y0233300D01*
X0125605Y0230800D01*
X0120605Y0230800D01*
X0118105Y0233300D01*
X0115605Y0230800D01*
X0110605Y0230800D01*
X0108105Y0233300D01*
X0105605Y0230800D01*
X0100605Y0230800D01*
X0105605Y0230800D01*
X0108105Y0228300D01*
X0110605Y0230800D01*
X0115605Y0230800D01*
X0118105Y0228300D01*
X0120605Y0230800D01*
X0125605Y0230800D01*
X0128105Y0228300D01*
X0128105Y0223300D01*
X0125605Y0220800D01*
X0120605Y0220800D01*
X0118105Y0223300D01*
X0115605Y0220800D01*
X0110605Y0220800D01*
X0108105Y0223300D01*
X0105605Y0220800D01*
X0100605Y0220800D01*
X0105605Y0220800D01*
X0108105Y0218300D01*
X0110605Y0220800D01*
X0115605Y0220800D01*
X0118105Y0218300D01*
X0120605Y0220800D01*
X0125605Y0220800D01*
X0128105Y0218300D01*
X0128105Y0213300D01*
X0125605Y0210800D01*
X0120605Y0210800D01*
X0118105Y0213300D01*
X0115605Y0210800D01*
X0110605Y0210800D01*
X0108105Y0213300D01*
X0105605Y0210800D01*
X0100605Y0210800D01*
X0098105Y0213300D01*
X0095809Y0222460D02*
X0095809Y0225396D01*
X0095809Y0223928D02*
X0091405Y0223928D01*
X0091405Y0227064D02*
X0092873Y0228532D01*
X0092873Y0227798D02*
X0092873Y0230000D01*
X0091405Y0230000D02*
X0095809Y0230000D01*
X0095809Y0227798D01*
X0095075Y0227064D01*
X0093607Y0227064D01*
X0092873Y0227798D01*
X0093607Y0231668D02*
X0093607Y0234604D01*
X0094341Y0234604D02*
X0095809Y0233136D01*
X0094341Y0231668D01*
X0091405Y0231668D01*
X0091405Y0234604D02*
X0094341Y0234604D01*
X0095809Y0236272D02*
X0092139Y0236272D01*
X0091405Y0237006D01*
X0091405Y0238474D01*
X0092139Y0239208D01*
X0095809Y0239208D01*
X0095809Y0255601D02*
X0095809Y0257069D01*
X0095809Y0256335D02*
X0091405Y0256335D01*
X0091405Y0257069D02*
X0091405Y0255601D01*
X0093607Y0258737D02*
X0092873Y0259471D01*
X0092873Y0261673D01*
X0091405Y0261673D02*
X0095809Y0261673D01*
X0095809Y0259471D01*
X0095075Y0258737D01*
X0093607Y0258737D01*
X0092873Y0263341D02*
X0092139Y0263341D01*
X0091405Y0264075D01*
X0091405Y0265543D01*
X0092139Y0266277D01*
X0093607Y0265543D02*
X0093607Y0264075D01*
X0092873Y0263341D01*
X0095075Y0263341D02*
X0095809Y0264075D01*
X0095809Y0265543D01*
X0095075Y0266277D01*
X0094341Y0266277D01*
X0093607Y0265543D01*
X0098105Y0263300D02*
X0100605Y0260800D01*
X0105605Y0260800D01*
X0108105Y0263300D01*
X0110605Y0260800D01*
X0115605Y0260800D01*
X0118105Y0263300D01*
X0120605Y0260800D01*
X0125605Y0260800D01*
X0128105Y0263300D01*
X0128105Y0268300D01*
X0125605Y0270800D01*
X0120605Y0270800D01*
X0118105Y0273300D01*
X0115605Y0270800D01*
X0110605Y0270800D01*
X0108105Y0273300D01*
X0105605Y0270800D01*
X0100605Y0270800D01*
X0098105Y0273300D01*
X0098105Y0278300D01*
X0100605Y0280800D01*
X0105605Y0280800D01*
X0108105Y0278300D01*
X0110605Y0280800D01*
X0115605Y0280800D01*
X0118105Y0278300D01*
X0120605Y0280800D01*
X0125605Y0280800D01*
X0128105Y0278300D01*
X0128105Y0273300D01*
X0125605Y0270800D01*
X0120605Y0270800D01*
X0118105Y0268300D01*
X0115605Y0270800D01*
X0110605Y0270800D01*
X0108105Y0268300D01*
X0105605Y0270800D01*
X0100605Y0270800D01*
X0098105Y0268300D01*
X0098105Y0263300D01*
X0113173Y0283600D02*
X0114641Y0285068D01*
X0114641Y0288004D01*
X0113643Y0288900D02*
X0112909Y0288900D01*
X0112909Y0289634D01*
X0113643Y0289634D01*
X0113643Y0288900D01*
X0115211Y0289634D02*
X0115945Y0288900D01*
X0117413Y0288900D01*
X0118147Y0289634D01*
X0118147Y0290368D01*
X0117413Y0291102D01*
X0116679Y0291102D01*
X0117413Y0291102D02*
X0118147Y0291836D01*
X0118147Y0292570D01*
X0117413Y0293304D01*
X0115945Y0293304D01*
X0115211Y0292570D01*
X0111241Y0292570D02*
X0110507Y0293304D01*
X0109039Y0293304D01*
X0108305Y0292570D01*
X0109773Y0291102D02*
X0110507Y0291102D01*
X0111241Y0290368D01*
X0111241Y0289634D01*
X0110507Y0288900D01*
X0109039Y0288900D01*
X0108305Y0289634D01*
X0110507Y0291102D02*
X0111241Y0291836D01*
X0111241Y0292570D01*
X0111705Y0288004D02*
X0111705Y0285068D01*
X0113173Y0283600D01*
X0121505Y0284234D02*
X0122239Y0283500D01*
X0123707Y0283500D01*
X0124441Y0284234D01*
X0124441Y0284968D01*
X0123707Y0285702D01*
X0122239Y0285702D01*
X0121505Y0286436D01*
X0121505Y0287170D01*
X0122239Y0287904D01*
X0123707Y0287904D01*
X0124441Y0287170D01*
X0129405Y0277503D02*
X0130539Y0276369D01*
X0131674Y0277503D01*
X0131674Y0274100D01*
X0133088Y0274667D02*
X0133655Y0274100D01*
X0134790Y0274100D01*
X0135357Y0274667D01*
X0135357Y0276936D01*
X0134790Y0277503D01*
X0133655Y0277503D01*
X0133088Y0276936D01*
X0133088Y0274667D01*
X0136771Y0274667D02*
X0137338Y0274100D01*
X0138473Y0274100D01*
X0139040Y0274667D01*
X0139040Y0275234D01*
X0138473Y0275801D01*
X0137338Y0275801D01*
X0136771Y0276369D01*
X0136771Y0276936D01*
X0137338Y0277503D01*
X0138473Y0277503D01*
X0139040Y0276936D01*
X0140454Y0277503D02*
X0141589Y0277503D01*
X0141022Y0277503D02*
X0141022Y0274100D01*
X0141589Y0274100D02*
X0140454Y0274100D01*
X0129405Y0274100D02*
X0129405Y0277503D01*
X0140822Y0294526D02*
X0140822Y0354369D01*
X0083735Y0354369D01*
X0083735Y0294526D01*
X0140822Y0294526D01*
X0155305Y0294634D02*
X0157006Y0294634D01*
X0157574Y0295201D01*
X0157574Y0296336D01*
X0157006Y0296903D01*
X0155305Y0296903D01*
X0155305Y0293500D01*
X0155305Y0292103D02*
X0157006Y0292103D01*
X0157574Y0291536D01*
X0157574Y0290401D01*
X0157006Y0289834D01*
X0155305Y0289834D01*
X0155305Y0288700D02*
X0155305Y0292103D01*
X0156439Y0289834D02*
X0157574Y0288700D01*
X0158988Y0288700D02*
X0161257Y0288700D01*
X0160122Y0288700D02*
X0160122Y0292103D01*
X0158988Y0290969D01*
X0158988Y0293500D02*
X0161257Y0293500D01*
X0160122Y0293500D02*
X0160122Y0296903D01*
X0158988Y0295769D01*
X0158988Y0298300D02*
X0161257Y0298300D01*
X0160122Y0298300D02*
X0160122Y0301703D01*
X0158988Y0300569D01*
X0157574Y0301136D02*
X0157574Y0300001D01*
X0157006Y0299434D01*
X0155305Y0299434D01*
X0155305Y0298300D02*
X0155305Y0301703D01*
X0157006Y0301703D01*
X0157574Y0301136D01*
X0157574Y0303100D02*
X0156439Y0304234D01*
X0157006Y0304234D02*
X0155305Y0304234D01*
X0155305Y0303100D02*
X0155305Y0306503D01*
X0157006Y0306503D01*
X0157574Y0305936D01*
X0157574Y0304801D01*
X0157006Y0304234D01*
X0158988Y0303100D02*
X0161257Y0303100D01*
X0160122Y0303100D02*
X0160122Y0306503D01*
X0158988Y0305369D01*
X0158988Y0307900D02*
X0161257Y0307900D01*
X0160122Y0307900D02*
X0160122Y0311303D01*
X0158988Y0310169D01*
X0157574Y0310736D02*
X0157574Y0309601D01*
X0157006Y0309034D01*
X0155305Y0309034D01*
X0155305Y0307900D02*
X0155305Y0311303D01*
X0157006Y0311303D01*
X0157574Y0310736D01*
X0157574Y0312700D02*
X0156439Y0313834D01*
X0157006Y0313834D02*
X0155305Y0313834D01*
X0155305Y0312700D02*
X0155305Y0316103D01*
X0157006Y0316103D01*
X0157574Y0315536D01*
X0157574Y0314401D01*
X0157006Y0313834D01*
X0158988Y0312700D02*
X0161257Y0312700D01*
X0160122Y0312700D02*
X0160122Y0316103D01*
X0158988Y0314969D01*
X0162671Y0314969D02*
X0163806Y0316103D01*
X0163806Y0312700D01*
X0164940Y0312700D02*
X0162671Y0312700D01*
X0163238Y0311303D02*
X0162671Y0310736D01*
X0163238Y0311303D02*
X0164373Y0311303D01*
X0164940Y0310736D01*
X0164940Y0310169D01*
X0162671Y0307900D01*
X0164940Y0307900D01*
X0164373Y0306503D02*
X0164940Y0305936D01*
X0164940Y0305369D01*
X0164373Y0304801D01*
X0164940Y0304234D01*
X0164940Y0303667D01*
X0164373Y0303100D01*
X0163238Y0303100D01*
X0162671Y0303667D01*
X0163806Y0304801D02*
X0164373Y0304801D01*
X0164373Y0306503D02*
X0163238Y0306503D01*
X0162671Y0305936D01*
X0164373Y0301703D02*
X0162671Y0300001D01*
X0164940Y0300001D01*
X0164373Y0298300D02*
X0164373Y0301703D01*
X0164940Y0296903D02*
X0162671Y0296903D01*
X0162671Y0295201D01*
X0163806Y0295769D01*
X0164373Y0295769D01*
X0164940Y0295201D01*
X0164940Y0294067D01*
X0164373Y0293500D01*
X0163238Y0293500D01*
X0162671Y0294067D01*
X0163806Y0291536D02*
X0162671Y0290401D01*
X0164373Y0290401D01*
X0164940Y0289834D01*
X0164940Y0289267D01*
X0164373Y0288700D01*
X0163238Y0288700D01*
X0162671Y0289267D01*
X0162671Y0290401D01*
X0163806Y0291536D02*
X0164940Y0292103D01*
X0164373Y0287303D02*
X0163238Y0287303D01*
X0162671Y0286736D01*
X0162671Y0284467D01*
X0164940Y0286736D01*
X0164940Y0284467D01*
X0164373Y0283900D01*
X0163238Y0283900D01*
X0162671Y0284467D01*
X0161257Y0283900D02*
X0158988Y0283900D01*
X0160122Y0283900D02*
X0160122Y0287303D01*
X0158988Y0286169D01*
X0157574Y0286736D02*
X0157006Y0287303D01*
X0155872Y0287303D01*
X0155305Y0286736D01*
X0155305Y0284467D01*
X0155872Y0283900D01*
X0157006Y0283900D01*
X0157574Y0284467D01*
X0164373Y0287303D02*
X0164940Y0286736D01*
X0157574Y0293500D02*
X0156439Y0294634D01*
X0157574Y0298300D02*
X0156439Y0299434D01*
X0157574Y0307900D02*
X0156439Y0309034D01*
X0156902Y0320100D02*
X0156902Y0321801D01*
X0157469Y0322369D01*
X0159738Y0322369D01*
X0160305Y0321801D01*
X0160305Y0320100D01*
X0156902Y0320100D01*
X0158036Y0323783D02*
X0156902Y0324917D01*
X0160305Y0324917D01*
X0160305Y0323783D02*
X0160305Y0326052D01*
X0160205Y0328600D02*
X0156802Y0328600D01*
X0156802Y0330301D01*
X0157369Y0330869D01*
X0158504Y0330869D01*
X0159071Y0330301D01*
X0159071Y0328600D01*
X0159071Y0329734D02*
X0160205Y0330869D01*
X0160205Y0332283D02*
X0160205Y0334552D01*
X0160205Y0333417D02*
X0156802Y0333417D01*
X0157936Y0332283D01*
X0156802Y0335966D02*
X0156802Y0338235D01*
X0157369Y0338235D01*
X0159638Y0335966D01*
X0160205Y0335966D01*
X0161705Y0340100D02*
X0164641Y0340100D01*
X0163173Y0340100D02*
X0163173Y0344504D01*
X0161705Y0343036D01*
X0166802Y0337668D02*
X0167369Y0338235D01*
X0167936Y0338235D01*
X0168504Y0337668D01*
X0168504Y0336533D01*
X0167936Y0335966D01*
X0167369Y0335966D01*
X0166802Y0336533D01*
X0166802Y0337668D01*
X0168504Y0337668D02*
X0169071Y0338235D01*
X0169638Y0338235D01*
X0170205Y0337668D01*
X0170205Y0336533D01*
X0169638Y0335966D01*
X0169071Y0335966D01*
X0168504Y0336533D01*
X0170205Y0334552D02*
X0170205Y0332283D01*
X0170205Y0333417D02*
X0166802Y0333417D01*
X0167936Y0332283D01*
X0167369Y0330869D02*
X0168504Y0330869D01*
X0169071Y0330301D01*
X0169071Y0328600D01*
X0170205Y0328600D02*
X0166802Y0328600D01*
X0166802Y0330301D01*
X0167369Y0330869D01*
X0169071Y0329734D02*
X0170205Y0330869D01*
X0170305Y0326052D02*
X0170305Y0323783D01*
X0168036Y0326052D01*
X0167469Y0326052D01*
X0166902Y0325485D01*
X0166902Y0324350D01*
X0167469Y0323783D01*
X0167469Y0322369D02*
X0166902Y0321801D01*
X0166902Y0320100D01*
X0170305Y0320100D01*
X0170305Y0321801D01*
X0169738Y0322369D01*
X0167469Y0322369D01*
X0176902Y0321801D02*
X0176902Y0320100D01*
X0180305Y0320100D01*
X0180305Y0321801D01*
X0179738Y0322369D01*
X0177469Y0322369D01*
X0176902Y0321801D01*
X0177469Y0323783D02*
X0176902Y0324350D01*
X0176902Y0325485D01*
X0177469Y0326052D01*
X0178036Y0326052D01*
X0178604Y0325485D01*
X0179171Y0326052D01*
X0179738Y0326052D01*
X0180305Y0325485D01*
X0180305Y0324350D01*
X0179738Y0323783D01*
X0178604Y0324917D02*
X0178604Y0325485D01*
X0179071Y0328600D02*
X0179071Y0330301D01*
X0178504Y0330869D01*
X0177369Y0330869D01*
X0176802Y0330301D01*
X0176802Y0328600D01*
X0180205Y0328600D01*
X0179071Y0329734D02*
X0180205Y0330869D01*
X0180205Y0332283D02*
X0180205Y0334552D01*
X0180205Y0333417D02*
X0176802Y0333417D01*
X0177936Y0332283D01*
X0177936Y0335966D02*
X0178504Y0336533D01*
X0178504Y0338235D01*
X0179638Y0338235D02*
X0177369Y0338235D01*
X0176802Y0337668D01*
X0176802Y0336533D01*
X0177369Y0335966D01*
X0177936Y0335966D01*
X0179638Y0335966D02*
X0180205Y0336533D01*
X0180205Y0337668D01*
X0179638Y0338235D01*
X0181705Y0340834D02*
X0182439Y0340100D01*
X0183907Y0340100D01*
X0184641Y0340834D01*
X0184641Y0341568D01*
X0183907Y0342302D01*
X0183173Y0342302D01*
X0183907Y0342302D02*
X0184641Y0343036D01*
X0184641Y0343770D01*
X0183907Y0344504D01*
X0182439Y0344504D01*
X0181705Y0343770D01*
X0174641Y0343770D02*
X0173907Y0344504D01*
X0172439Y0344504D01*
X0171705Y0343770D01*
X0174641Y0343770D02*
X0174641Y0343036D01*
X0171705Y0340100D01*
X0174641Y0340100D01*
X0186802Y0337668D02*
X0187369Y0338235D01*
X0189638Y0335966D01*
X0190205Y0336533D01*
X0190205Y0337668D01*
X0189638Y0338235D01*
X0187369Y0338235D01*
X0186802Y0337668D02*
X0186802Y0336533D01*
X0187369Y0335966D01*
X0189638Y0335966D01*
X0190205Y0334552D02*
X0190205Y0332283D01*
X0187936Y0334552D01*
X0187369Y0334552D01*
X0186802Y0333985D01*
X0186802Y0332850D01*
X0187369Y0332283D01*
X0187369Y0330869D02*
X0188504Y0330869D01*
X0189071Y0330301D01*
X0189071Y0328600D01*
X0190205Y0328600D02*
X0186802Y0328600D01*
X0186802Y0330301D01*
X0187369Y0330869D01*
X0189071Y0329734D02*
X0190205Y0330869D01*
X0188604Y0326052D02*
X0188604Y0323783D01*
X0186902Y0325485D01*
X0190305Y0325485D01*
X0189738Y0322369D02*
X0187469Y0322369D01*
X0186902Y0321801D01*
X0186902Y0320100D01*
X0190305Y0320100D01*
X0190305Y0321801D01*
X0189738Y0322369D01*
X0197039Y0321667D02*
X0197606Y0321100D01*
X0198740Y0321100D01*
X0199307Y0321667D01*
X0199307Y0324503D01*
X0200722Y0323936D02*
X0201289Y0324503D01*
X0202423Y0324503D01*
X0202990Y0323936D01*
X0202990Y0323369D01*
X0200722Y0321100D01*
X0202990Y0321100D01*
X0197039Y0321667D02*
X0197039Y0324503D01*
X0207539Y0309705D02*
X0207539Y0306870D01*
X0208106Y0306302D01*
X0209240Y0306302D01*
X0209807Y0306870D01*
X0209807Y0309705D01*
X0211222Y0309138D02*
X0211789Y0309705D01*
X0212923Y0309705D01*
X0213490Y0309138D01*
X0213490Y0308571D01*
X0212923Y0308004D01*
X0213490Y0307437D01*
X0213490Y0306870D01*
X0212923Y0306302D01*
X0211789Y0306302D01*
X0211222Y0306870D01*
X0212356Y0308004D02*
X0212923Y0308004D01*
X0226402Y0309485D02*
X0228104Y0307783D01*
X0228104Y0310052D01*
X0229805Y0309485D02*
X0226402Y0309485D01*
X0226402Y0306369D02*
X0229238Y0306369D01*
X0229805Y0305801D01*
X0229805Y0304667D01*
X0229238Y0304100D01*
X0226402Y0304100D01*
X0225806Y0302615D02*
X0250404Y0302615D01*
X0250404Y0288993D01*
X0225806Y0288993D01*
X0225806Y0302615D01*
X0223923Y0292562D02*
X0222789Y0292562D01*
X0222222Y0291995D01*
X0223923Y0292562D02*
X0224490Y0291995D01*
X0224490Y0291428D01*
X0222222Y0289159D01*
X0224490Y0289159D01*
X0220807Y0289159D02*
X0218539Y0289159D01*
X0219673Y0289159D02*
X0219673Y0292562D01*
X0218539Y0291428D01*
X0217124Y0291995D02*
X0216557Y0292562D01*
X0215423Y0292562D01*
X0214855Y0291995D01*
X0214855Y0289726D01*
X0215423Y0289159D01*
X0216557Y0289159D01*
X0217124Y0289726D01*
X0215923Y0287562D02*
X0214789Y0287562D01*
X0214222Y0286995D01*
X0215356Y0285861D02*
X0215923Y0285861D01*
X0216490Y0285293D01*
X0216490Y0284726D01*
X0215923Y0284159D01*
X0214789Y0284159D01*
X0214222Y0284726D01*
X0212807Y0284159D02*
X0210539Y0284159D01*
X0211673Y0284159D02*
X0211673Y0287562D01*
X0210539Y0286428D01*
X0209124Y0286995D02*
X0208557Y0287562D01*
X0207423Y0287562D01*
X0206855Y0286995D01*
X0206855Y0284726D01*
X0207423Y0284159D01*
X0208557Y0284159D01*
X0209124Y0284726D01*
X0215923Y0285861D02*
X0216490Y0286428D01*
X0216490Y0286995D01*
X0215923Y0287562D01*
X0225906Y0314341D02*
X0227040Y0314341D01*
X0227607Y0314908D01*
X0229022Y0314908D02*
X0229589Y0314341D01*
X0230723Y0314341D01*
X0231290Y0314908D01*
X0231290Y0315475D01*
X0230723Y0316042D01*
X0229022Y0316042D01*
X0229022Y0314908D01*
X0229022Y0316042D02*
X0230156Y0317177D01*
X0231290Y0317744D01*
X0227607Y0317177D02*
X0227040Y0317744D01*
X0225906Y0317744D01*
X0225339Y0317177D01*
X0225339Y0314908D01*
X0225906Y0314341D01*
X0241405Y0324600D02*
X0241405Y0328003D01*
X0243106Y0328003D01*
X0243674Y0327436D01*
X0243674Y0326301D01*
X0243106Y0325734D01*
X0241405Y0325734D01*
X0242539Y0325734D02*
X0243674Y0324600D01*
X0245088Y0324600D02*
X0247357Y0324600D01*
X0246222Y0324600D02*
X0246222Y0328003D01*
X0245088Y0326869D01*
X0245655Y0329100D02*
X0246790Y0329100D01*
X0247357Y0329667D01*
X0247357Y0331936D01*
X0246790Y0332503D01*
X0245655Y0332503D01*
X0245088Y0331936D01*
X0245088Y0331369D01*
X0245655Y0330801D01*
X0247357Y0330801D01*
X0245655Y0329100D02*
X0245088Y0329667D01*
X0243674Y0329100D02*
X0242539Y0330234D01*
X0243106Y0330234D02*
X0241405Y0330234D01*
X0241405Y0329100D02*
X0241405Y0332503D01*
X0243106Y0332503D01*
X0243674Y0331936D01*
X0243674Y0330801D01*
X0243106Y0330234D01*
X0243674Y0333600D02*
X0242539Y0334734D01*
X0243106Y0334734D02*
X0241405Y0334734D01*
X0241405Y0333600D02*
X0241405Y0337003D01*
X0243106Y0337003D01*
X0243674Y0336436D01*
X0243674Y0335301D01*
X0243106Y0334734D01*
X0245088Y0334734D02*
X0245655Y0335301D01*
X0246790Y0335301D01*
X0247357Y0334734D01*
X0247357Y0334167D01*
X0246790Y0333600D01*
X0245655Y0333600D01*
X0245088Y0334167D01*
X0245088Y0334734D01*
X0245655Y0335301D02*
X0245088Y0335869D01*
X0245088Y0336436D01*
X0245655Y0337003D01*
X0246790Y0337003D01*
X0247357Y0336436D01*
X0247357Y0335869D01*
X0246790Y0335301D01*
X0247171Y0341600D02*
X0247171Y0343301D01*
X0246604Y0343869D01*
X0245469Y0343869D01*
X0244902Y0343301D01*
X0244902Y0341600D01*
X0248305Y0341600D01*
X0247171Y0342734D02*
X0248305Y0343869D01*
X0248305Y0345283D02*
X0247738Y0345283D01*
X0245469Y0347552D01*
X0244902Y0347552D01*
X0244902Y0345283D01*
X0243805Y0345850D02*
X0243805Y0346985D01*
X0243238Y0347552D01*
X0242671Y0347552D01*
X0242104Y0346985D01*
X0242104Y0345283D01*
X0243238Y0345283D01*
X0243805Y0345850D01*
X0242104Y0345283D02*
X0240969Y0346417D01*
X0240402Y0347552D01*
X0239405Y0347085D02*
X0236002Y0347085D01*
X0237704Y0345383D01*
X0237704Y0347652D01*
X0238838Y0343969D02*
X0239405Y0343401D01*
X0239405Y0342267D01*
X0238838Y0341700D01*
X0236569Y0341700D01*
X0236002Y0342267D01*
X0236002Y0343401D01*
X0236569Y0343969D01*
X0240402Y0343301D02*
X0240969Y0343869D01*
X0242104Y0343869D01*
X0242671Y0343301D01*
X0242671Y0341600D01*
X0243805Y0341600D02*
X0240402Y0341600D01*
X0240402Y0343301D01*
X0242671Y0342734D02*
X0243805Y0343869D01*
X0249338Y0328003D02*
X0250473Y0328003D01*
X0251040Y0327436D01*
X0248771Y0325167D01*
X0249338Y0324600D01*
X0250473Y0324600D01*
X0251040Y0325167D01*
X0251040Y0327436D01*
X0249338Y0328003D02*
X0248771Y0327436D01*
X0248771Y0325167D01*
X0256329Y0320170D02*
X0258031Y0320170D01*
X0258598Y0319603D01*
X0258598Y0318468D01*
X0258031Y0317901D01*
X0256329Y0317901D01*
X0256329Y0316767D02*
X0256329Y0320170D01*
X0257464Y0317901D02*
X0258598Y0316767D01*
X0260012Y0316767D02*
X0260012Y0320170D01*
X0261714Y0320170D01*
X0262281Y0319603D01*
X0262281Y0318468D01*
X0261714Y0317901D01*
X0260012Y0317901D01*
X0261147Y0317901D02*
X0262281Y0316767D01*
X0264405Y0316635D02*
X0265539Y0317202D01*
X0266106Y0317202D01*
X0266673Y0316635D01*
X0266673Y0315501D01*
X0266106Y0314934D01*
X0264972Y0314934D01*
X0264405Y0315501D01*
X0264405Y0316635D02*
X0264405Y0318337D01*
X0266673Y0318337D01*
X0268088Y0317202D02*
X0269222Y0314934D01*
X0270356Y0317202D01*
X0272145Y0317334D02*
X0272712Y0316767D01*
X0273846Y0316767D01*
X0274413Y0317334D01*
X0274413Y0320170D01*
X0275828Y0319603D02*
X0275828Y0319035D01*
X0276395Y0318468D01*
X0277529Y0318468D01*
X0278096Y0317901D01*
X0278096Y0317334D01*
X0277529Y0316767D01*
X0276395Y0316767D01*
X0275828Y0317334D01*
X0275828Y0319603D02*
X0276395Y0320170D01*
X0277529Y0320170D01*
X0278096Y0319603D01*
X0279511Y0320170D02*
X0281212Y0320170D01*
X0281780Y0319603D01*
X0281780Y0319035D01*
X0281212Y0318468D01*
X0279511Y0318468D01*
X0279511Y0316767D02*
X0281212Y0316767D01*
X0281780Y0317334D01*
X0281780Y0317901D01*
X0281212Y0318468D01*
X0279511Y0316767D02*
X0279511Y0320170D01*
X0279402Y0327234D02*
X0282805Y0327234D01*
X0282805Y0329502D01*
X0282805Y0330917D02*
X0282805Y0333185D01*
X0282805Y0332051D02*
X0279402Y0332051D01*
X0280536Y0330917D01*
X0276088Y0335100D02*
X0276088Y0335667D01*
X0278357Y0337936D01*
X0278357Y0338503D01*
X0276088Y0338503D01*
X0274674Y0337936D02*
X0274106Y0338503D01*
X0272405Y0338503D01*
X0272405Y0335100D01*
X0274106Y0335100D01*
X0274674Y0335667D01*
X0274674Y0337936D01*
X0274106Y0341100D02*
X0272405Y0341100D01*
X0272405Y0344503D01*
X0274106Y0344503D01*
X0274674Y0343936D01*
X0274674Y0341667D01*
X0274106Y0341100D01*
X0276088Y0341667D02*
X0276655Y0341100D01*
X0277790Y0341100D01*
X0278357Y0341667D01*
X0278357Y0342234D01*
X0277790Y0342801D01*
X0276088Y0342801D01*
X0276088Y0341667D01*
X0276088Y0342801D02*
X0277222Y0343936D01*
X0278357Y0344503D01*
X0277790Y0347100D02*
X0276655Y0347100D01*
X0276088Y0347667D01*
X0276088Y0348801D02*
X0277222Y0349369D01*
X0277790Y0349369D01*
X0278357Y0348801D01*
X0278357Y0347667D01*
X0277790Y0347100D01*
X0276088Y0348801D02*
X0276088Y0350503D01*
X0278357Y0350503D01*
X0274674Y0349936D02*
X0274674Y0347667D01*
X0274106Y0347100D01*
X0272405Y0347100D01*
X0272405Y0350503D01*
X0274106Y0350503D01*
X0274674Y0349936D01*
X0270364Y0353450D02*
X0270364Y0354585D01*
X0269797Y0355152D01*
X0269797Y0356566D02*
X0270364Y0357134D01*
X0270364Y0358268D01*
X0269797Y0358835D01*
X0269230Y0358835D01*
X0268663Y0358268D01*
X0268663Y0357701D01*
X0268663Y0358268D02*
X0268095Y0358835D01*
X0267528Y0358835D01*
X0266961Y0358268D01*
X0266961Y0357134D01*
X0267528Y0356566D01*
X0267528Y0355152D02*
X0266961Y0354585D01*
X0266961Y0353450D01*
X0267528Y0352883D01*
X0269797Y0352883D01*
X0270364Y0353450D01*
X0265364Y0353450D02*
X0265364Y0354585D01*
X0264797Y0355152D01*
X0265364Y0356566D02*
X0263095Y0358835D01*
X0262528Y0358835D01*
X0261961Y0358268D01*
X0261961Y0357134D01*
X0262528Y0356566D01*
X0262528Y0355152D02*
X0261961Y0354585D01*
X0261961Y0353450D01*
X0262528Y0352883D01*
X0264797Y0352883D01*
X0265364Y0353450D01*
X0265364Y0356566D02*
X0265364Y0358835D01*
X0265290Y0378600D02*
X0264155Y0378600D01*
X0263588Y0379167D01*
X0263588Y0380301D02*
X0264722Y0380869D01*
X0265290Y0380869D01*
X0265857Y0380301D01*
X0265857Y0379167D01*
X0265290Y0378600D01*
X0263588Y0380301D02*
X0263588Y0382003D01*
X0265857Y0382003D01*
X0265857Y0383100D02*
X0263588Y0383100D01*
X0264722Y0383100D02*
X0264722Y0386503D01*
X0263588Y0385369D01*
X0262174Y0385936D02*
X0261606Y0386503D01*
X0260472Y0386503D01*
X0259905Y0385936D01*
X0259905Y0383667D01*
X0260472Y0383100D01*
X0261606Y0383100D01*
X0262174Y0383667D01*
X0261606Y0382003D02*
X0262174Y0381436D01*
X0262174Y0380301D01*
X0261606Y0379734D01*
X0259905Y0379734D01*
X0259905Y0378600D02*
X0259905Y0382003D01*
X0261606Y0382003D01*
X0261039Y0379734D02*
X0262174Y0378600D01*
X0246356Y0372503D02*
X0246356Y0369100D01*
X0245222Y0369100D02*
X0247490Y0369100D01*
X0245222Y0371369D02*
X0246356Y0372503D01*
X0243807Y0371936D02*
X0243807Y0369667D01*
X0243240Y0369100D01*
X0242106Y0369100D01*
X0241539Y0369667D01*
X0241539Y0371936D01*
X0242106Y0372503D01*
X0243240Y0372503D01*
X0243807Y0371936D01*
X0242673Y0370234D02*
X0243807Y0369100D01*
X0220906Y0359503D02*
X0218638Y0359503D01*
X0219772Y0359503D02*
X0219772Y0356100D01*
X0217223Y0356100D02*
X0214954Y0356100D01*
X0214954Y0359503D01*
X0217223Y0359503D01*
X0216089Y0357801D02*
X0214954Y0357801D01*
X0213540Y0357234D02*
X0213540Y0356667D01*
X0212973Y0356100D01*
X0211838Y0356100D01*
X0211271Y0356667D01*
X0211838Y0357801D02*
X0212973Y0357801D01*
X0213540Y0357234D01*
X0213540Y0358936D02*
X0212973Y0359503D01*
X0211838Y0359503D01*
X0211271Y0358936D01*
X0211271Y0358369D01*
X0211838Y0357801D01*
X0209857Y0356100D02*
X0207588Y0356100D01*
X0207588Y0359503D01*
X0209857Y0359503D01*
X0208722Y0357801D02*
X0207588Y0357801D01*
X0206174Y0357801D02*
X0205606Y0357234D01*
X0203905Y0357234D01*
X0203905Y0356100D02*
X0203905Y0359503D01*
X0205606Y0359503D01*
X0206174Y0358936D01*
X0206174Y0357801D01*
X0205039Y0357234D02*
X0206174Y0356100D01*
X0201105Y0359300D02*
X0201105Y0346300D01*
X0155105Y0346300D01*
X0155105Y0359300D01*
X0155105Y0372300D01*
X0157105Y0372300D01*
X0157105Y0359300D01*
X0155105Y0359300D01*
X0160105Y0358300D02*
X0160105Y0373300D01*
X0166105Y0373300D01*
X0166105Y0358300D01*
X0160105Y0358300D01*
X0153473Y0349503D02*
X0152338Y0349503D01*
X0151771Y0348936D01*
X0150357Y0349503D02*
X0150357Y0346100D01*
X0149222Y0347234D01*
X0148088Y0346100D01*
X0148088Y0349503D01*
X0146674Y0348936D02*
X0146106Y0349503D01*
X0144972Y0349503D01*
X0144405Y0348936D01*
X0144405Y0348369D01*
X0144972Y0347801D01*
X0146106Y0347801D01*
X0146674Y0347234D01*
X0146674Y0346667D01*
X0146106Y0346100D01*
X0144972Y0346100D01*
X0144405Y0346667D01*
X0135790Y0355600D02*
X0135790Y0359003D01*
X0134088Y0357301D01*
X0136357Y0357301D01*
X0132674Y0357301D02*
X0132106Y0356734D01*
X0130405Y0356734D01*
X0130405Y0355600D02*
X0130405Y0359003D01*
X0132106Y0359003D01*
X0132674Y0358436D01*
X0132674Y0357301D01*
X0131539Y0356734D02*
X0132674Y0355600D01*
X0132674Y0363600D02*
X0131539Y0364734D01*
X0132106Y0364734D02*
X0130405Y0364734D01*
X0130405Y0363600D02*
X0130405Y0367003D01*
X0132106Y0367003D01*
X0132674Y0366436D01*
X0132674Y0365301D01*
X0132106Y0364734D01*
X0134088Y0364167D02*
X0134655Y0363600D01*
X0135790Y0363600D01*
X0136357Y0364167D01*
X0136357Y0364734D01*
X0135790Y0365301D01*
X0135222Y0365301D01*
X0135790Y0365301D02*
X0136357Y0365869D01*
X0136357Y0366436D01*
X0135790Y0367003D01*
X0134655Y0367003D01*
X0134088Y0366436D01*
X0134088Y0371600D02*
X0136357Y0371600D01*
X0135222Y0371600D02*
X0135222Y0375003D01*
X0134088Y0373869D01*
X0132674Y0374436D02*
X0132674Y0373301D01*
X0132106Y0372734D01*
X0130405Y0372734D01*
X0130405Y0371600D02*
X0130405Y0375003D01*
X0132106Y0375003D01*
X0132674Y0374436D01*
X0131539Y0372734D02*
X0132674Y0371600D01*
X0132674Y0379600D02*
X0131539Y0380734D01*
X0132106Y0380734D02*
X0130405Y0380734D01*
X0130405Y0379600D02*
X0130405Y0383003D01*
X0132106Y0383003D01*
X0132674Y0382436D01*
X0132674Y0381301D01*
X0132106Y0380734D01*
X0134088Y0379600D02*
X0136357Y0381869D01*
X0136357Y0382436D01*
X0135790Y0383003D01*
X0134655Y0383003D01*
X0134088Y0382436D01*
X0134088Y0379600D02*
X0136357Y0379600D01*
X0155105Y0385300D02*
X0155105Y0372300D01*
X0155105Y0385300D02*
X0201105Y0385300D01*
X0201105Y0372300D01*
X0201105Y0359300D01*
X0199105Y0359300D01*
X0199105Y0372300D01*
X0201105Y0372300D01*
X0203379Y0372419D02*
X0203946Y0371852D01*
X0205081Y0371852D01*
X0205648Y0372419D01*
X0205648Y0372986D01*
X0205081Y0373553D01*
X0203946Y0373553D01*
X0203379Y0374121D01*
X0203379Y0374688D01*
X0203946Y0375255D01*
X0205081Y0375255D01*
X0205648Y0374688D01*
X0207062Y0375255D02*
X0207062Y0371852D01*
X0208197Y0372986D01*
X0209331Y0371852D01*
X0209331Y0375255D01*
X0210745Y0374121D02*
X0211880Y0375255D01*
X0211880Y0371852D01*
X0213014Y0371852D02*
X0210745Y0371852D01*
X0196105Y0373300D02*
X0196105Y0358300D01*
X0190105Y0358300D01*
X0190105Y0373300D01*
X0196105Y0373300D01*
X0186105Y0373300D02*
X0180105Y0373300D01*
X0180105Y0358300D01*
X0186105Y0358300D01*
X0186105Y0373300D01*
X0176105Y0373300D02*
X0170105Y0373300D01*
X0170105Y0358300D01*
X0176105Y0358300D01*
X0176105Y0373300D01*
X0153473Y0349503D02*
X0154040Y0348936D01*
X0154040Y0348369D01*
X0151771Y0346100D01*
X0154040Y0346100D01*
X0183402Y0305101D02*
X0186805Y0305101D01*
X0186805Y0306235D02*
X0186805Y0303966D01*
X0186805Y0302552D02*
X0186805Y0300283D01*
X0184536Y0302552D01*
X0183969Y0302552D01*
X0183402Y0301985D01*
X0183402Y0300850D01*
X0183969Y0300283D01*
X0183969Y0298869D02*
X0185104Y0298869D01*
X0185671Y0298301D01*
X0185671Y0296600D01*
X0186805Y0296600D02*
X0183402Y0296600D01*
X0183402Y0298301D01*
X0183969Y0298869D01*
X0185671Y0297734D02*
X0186805Y0298869D01*
X0184536Y0303966D02*
X0183402Y0305101D01*
X0180246Y0299585D02*
X0180246Y0297317D01*
X0180246Y0298451D02*
X0176843Y0298451D01*
X0177977Y0297317D01*
X0180246Y0295902D02*
X0180246Y0293634D01*
X0180246Y0294768D02*
X0176843Y0294768D01*
X0177977Y0293634D01*
X0177410Y0292219D02*
X0176843Y0291652D01*
X0176843Y0290518D01*
X0177410Y0289950D01*
X0179679Y0289950D01*
X0180246Y0290518D01*
X0180246Y0291652D01*
X0179679Y0292219D01*
X0144179Y0249085D02*
X0144746Y0248518D01*
X0144746Y0247384D01*
X0144179Y0246817D01*
X0141910Y0249085D01*
X0144179Y0249085D01*
X0144179Y0246817D02*
X0141910Y0246817D01*
X0141343Y0247384D01*
X0141343Y0248518D01*
X0141910Y0249085D01*
X0138945Y0247270D02*
X0138211Y0248004D01*
X0136743Y0248004D01*
X0136009Y0247270D01*
X0136009Y0246536D01*
X0136743Y0245802D01*
X0138211Y0245802D01*
X0138945Y0245068D01*
X0138945Y0244334D01*
X0138211Y0243600D01*
X0136743Y0243600D01*
X0136009Y0244334D01*
X0134341Y0244334D02*
X0133607Y0243600D01*
X0132139Y0243600D01*
X0131405Y0244334D01*
X0131405Y0247270D01*
X0132139Y0248004D01*
X0133607Y0248004D01*
X0134341Y0247270D01*
X0141343Y0244835D02*
X0141343Y0243701D01*
X0141910Y0243134D01*
X0141910Y0241719D02*
X0141343Y0241152D01*
X0141343Y0240018D01*
X0141910Y0239450D01*
X0144179Y0239450D01*
X0144746Y0240018D01*
X0144746Y0241152D01*
X0144179Y0241719D01*
X0144746Y0243134D02*
X0142477Y0245402D01*
X0141910Y0245402D01*
X0141343Y0244835D01*
X0144746Y0245402D02*
X0144746Y0243134D01*
X0138945Y0238004D02*
X0136009Y0233600D01*
X0134341Y0233600D02*
X0132873Y0235068D01*
X0133607Y0235068D02*
X0131405Y0235068D01*
X0131405Y0233600D02*
X0131405Y0238004D01*
X0133607Y0238004D01*
X0134341Y0237270D01*
X0134341Y0235802D01*
X0133607Y0235068D01*
X0136009Y0238004D02*
X0138945Y0233600D01*
X0138945Y0228004D02*
X0136009Y0223600D01*
X0138945Y0223600D02*
X0136009Y0228004D01*
X0134341Y0228004D02*
X0131405Y0228004D01*
X0132873Y0228004D02*
X0132873Y0223600D01*
X0133607Y0218004D02*
X0132139Y0218004D01*
X0131405Y0217270D01*
X0131405Y0216536D01*
X0132139Y0215802D01*
X0133607Y0215802D01*
X0134341Y0215068D01*
X0134341Y0214334D01*
X0133607Y0213600D01*
X0132139Y0213600D01*
X0131405Y0214334D01*
X0134341Y0217270D02*
X0133607Y0218004D01*
X0136009Y0217270D02*
X0136009Y0214334D01*
X0136743Y0213600D01*
X0138211Y0213600D01*
X0138945Y0214334D01*
X0140613Y0213600D02*
X0143549Y0213600D01*
X0140613Y0213600D02*
X0140613Y0218004D01*
X0138945Y0217270D02*
X0138211Y0218004D01*
X0136743Y0218004D01*
X0136009Y0217270D01*
X0136009Y0208004D02*
X0138211Y0208004D01*
X0138945Y0207270D01*
X0138945Y0204334D01*
X0138211Y0203600D01*
X0136009Y0203600D01*
X0136009Y0208004D01*
X0134341Y0207270D02*
X0133607Y0208004D01*
X0132139Y0208004D01*
X0131405Y0207270D01*
X0131405Y0206536D01*
X0132139Y0205802D01*
X0133607Y0205802D01*
X0134341Y0205068D01*
X0134341Y0204334D01*
X0133607Y0203600D01*
X0132139Y0203600D01*
X0131405Y0204334D01*
X0132139Y0198004D02*
X0133607Y0198004D01*
X0134341Y0197270D01*
X0131405Y0194334D01*
X0132139Y0193600D01*
X0133607Y0193600D01*
X0134341Y0194334D01*
X0134341Y0197270D01*
X0132139Y0198004D02*
X0131405Y0197270D01*
X0131405Y0194334D01*
X0132873Y0188004D02*
X0131405Y0186536D01*
X0132873Y0188004D02*
X0132873Y0183600D01*
X0131405Y0183600D02*
X0134341Y0183600D01*
X0133607Y0178004D02*
X0132139Y0178004D01*
X0131405Y0177270D01*
X0133607Y0178004D02*
X0134341Y0177270D01*
X0134341Y0176536D01*
X0131405Y0173600D01*
X0134341Y0173600D01*
X0133607Y0168004D02*
X0134341Y0167270D01*
X0134341Y0166536D01*
X0133607Y0165802D01*
X0134341Y0165068D01*
X0134341Y0164334D01*
X0133607Y0163600D01*
X0132139Y0163600D01*
X0131405Y0164334D01*
X0132873Y0165802D02*
X0133607Y0165802D01*
X0133607Y0168004D02*
X0132139Y0168004D01*
X0131405Y0167270D01*
X0128907Y0156504D02*
X0127439Y0156504D01*
X0126705Y0155770D01*
X0126705Y0155036D01*
X0127439Y0154302D01*
X0128907Y0154302D01*
X0129641Y0153568D01*
X0129641Y0152834D01*
X0128907Y0152100D01*
X0127439Y0152100D01*
X0126705Y0152834D01*
X0126705Y0153568D01*
X0127439Y0154302D01*
X0128907Y0154302D02*
X0129641Y0155036D01*
X0129641Y0155770D01*
X0128907Y0156504D01*
X0130605Y0150800D02*
X0125605Y0150800D01*
X0123105Y0148300D01*
X0120605Y0150800D01*
X0115605Y0150800D01*
X0113105Y0148300D01*
X0113105Y0143300D01*
X0115605Y0140800D01*
X0113105Y0138300D01*
X0113105Y0133300D01*
X0115605Y0130800D01*
X0113105Y0128300D01*
X0113105Y0123300D01*
X0115605Y0120800D01*
X0120605Y0120800D01*
X0123105Y0123300D01*
X0123105Y0128300D01*
X0120605Y0130800D01*
X0123105Y0133300D01*
X0123105Y0138300D01*
X0120605Y0140800D01*
X0123105Y0143300D01*
X0123105Y0148300D01*
X0123105Y0143300D01*
X0125605Y0140800D01*
X0123105Y0138300D01*
X0123105Y0133300D01*
X0125605Y0130800D01*
X0123105Y0128300D01*
X0123105Y0123300D01*
X0125605Y0120800D01*
X0130605Y0120800D01*
X0133105Y0123300D01*
X0133105Y0128300D01*
X0130605Y0130800D01*
X0133105Y0133300D01*
X0133105Y0138300D01*
X0130605Y0140800D01*
X0133105Y0143300D01*
X0133105Y0148300D01*
X0130605Y0150800D01*
X0133105Y0148300D02*
X0135605Y0150800D01*
X0140605Y0150800D01*
X0143105Y0148300D01*
X0143105Y0143300D01*
X0140605Y0140800D01*
X0143105Y0138300D01*
X0143105Y0133300D01*
X0140605Y0130800D01*
X0143105Y0128300D01*
X0143105Y0123300D01*
X0140605Y0120800D01*
X0135605Y0120800D01*
X0133105Y0123300D01*
X0133105Y0128300D01*
X0135605Y0130800D01*
X0133105Y0133300D01*
X0133105Y0138300D01*
X0135605Y0140800D01*
X0133105Y0143300D01*
X0133105Y0148300D01*
X0136705Y0152100D02*
X0136705Y0152834D01*
X0139641Y0155770D01*
X0139641Y0156504D01*
X0136705Y0156504D01*
X0143105Y0148300D02*
X0145605Y0150800D01*
X0150605Y0150800D01*
X0153105Y0148300D01*
X0153105Y0143300D01*
X0150605Y0140800D01*
X0153105Y0138300D01*
X0153105Y0133300D01*
X0150605Y0130800D01*
X0153105Y0128300D01*
X0153105Y0123300D01*
X0150605Y0120800D01*
X0145605Y0120800D01*
X0143105Y0123300D01*
X0143105Y0128300D01*
X0145605Y0130800D01*
X0143105Y0133300D01*
X0143105Y0138300D01*
X0145605Y0140800D01*
X0143105Y0143300D01*
X0143105Y0148300D01*
X0147439Y0152100D02*
X0148907Y0152100D01*
X0149641Y0152834D01*
X0149641Y0153568D01*
X0148907Y0154302D01*
X0146705Y0154302D01*
X0146705Y0152834D01*
X0147439Y0152100D01*
X0146705Y0154302D02*
X0148173Y0155770D01*
X0149641Y0156504D01*
X0149593Y0159100D02*
X0149593Y0163504D01*
X0151795Y0163504D01*
X0152529Y0162770D01*
X0152529Y0161302D01*
X0151795Y0160568D01*
X0149593Y0160568D01*
X0151061Y0160568D02*
X0152529Y0159100D01*
X0154197Y0159100D02*
X0154197Y0163504D01*
X0156399Y0163504D01*
X0157133Y0162770D01*
X0157133Y0161302D01*
X0156399Y0160568D01*
X0154197Y0160568D01*
X0155665Y0160568D02*
X0157133Y0159100D01*
X0156705Y0156504D02*
X0156705Y0154302D01*
X0158173Y0155036D01*
X0158907Y0155036D01*
X0159641Y0154302D01*
X0159641Y0152834D01*
X0158907Y0152100D01*
X0157439Y0152100D01*
X0156705Y0152834D01*
X0155605Y0150800D02*
X0153105Y0148300D01*
X0153105Y0143300D01*
X0155605Y0140800D01*
X0153105Y0138300D01*
X0153105Y0133300D01*
X0155605Y0130800D01*
X0153105Y0128300D01*
X0153105Y0123300D01*
X0155605Y0120800D01*
X0160605Y0120800D01*
X0163105Y0123300D01*
X0163105Y0128300D01*
X0160605Y0130800D01*
X0163105Y0133300D01*
X0163105Y0138300D01*
X0160605Y0140800D01*
X0163105Y0143300D01*
X0163105Y0148300D01*
X0160605Y0150800D01*
X0155605Y0150800D01*
X0156705Y0156504D02*
X0159641Y0156504D01*
X0163405Y0159100D02*
X0163405Y0163504D01*
X0165607Y0163504D01*
X0166341Y0162770D01*
X0166341Y0161302D01*
X0165607Y0160568D01*
X0163405Y0160568D01*
X0168009Y0159100D02*
X0169477Y0160568D01*
X0170945Y0159100D01*
X0170945Y0163504D01*
X0172613Y0163504D02*
X0174081Y0162036D01*
X0175549Y0163504D01*
X0175549Y0159100D01*
X0172613Y0159100D02*
X0172613Y0163504D01*
X0168009Y0163504D02*
X0168009Y0159100D01*
X0168907Y0156504D02*
X0166705Y0154302D01*
X0169641Y0154302D01*
X0168907Y0152100D02*
X0168907Y0156504D01*
X0170605Y0150800D02*
X0165605Y0150800D01*
X0163105Y0148300D01*
X0163105Y0143300D01*
X0165605Y0140800D01*
X0163105Y0138300D01*
X0163105Y0133300D01*
X0165605Y0130800D01*
X0163105Y0128300D01*
X0163105Y0123300D01*
X0165605Y0120800D01*
X0170605Y0120800D01*
X0173105Y0123300D01*
X0173105Y0128300D01*
X0170605Y0130800D01*
X0173105Y0133300D01*
X0173105Y0138300D01*
X0170605Y0140800D01*
X0173105Y0143300D01*
X0173105Y0148300D01*
X0170605Y0150800D01*
X0173105Y0148300D02*
X0175605Y0150800D01*
X0180605Y0150800D01*
X0183105Y0148300D01*
X0183105Y0143300D01*
X0180605Y0140800D01*
X0183105Y0138300D01*
X0183105Y0133300D01*
X0180605Y0130800D01*
X0183105Y0128300D01*
X0183105Y0123300D01*
X0180605Y0120800D01*
X0175605Y0120800D01*
X0173105Y0123300D01*
X0173105Y0128300D01*
X0175605Y0130800D01*
X0173105Y0133300D01*
X0173105Y0138300D01*
X0175605Y0140800D01*
X0173105Y0143300D01*
X0173105Y0148300D01*
X0177439Y0152100D02*
X0176705Y0152834D01*
X0177439Y0152100D02*
X0178907Y0152100D01*
X0179641Y0152834D01*
X0179641Y0153568D01*
X0178907Y0154302D01*
X0178173Y0154302D01*
X0178907Y0154302D02*
X0179641Y0155036D01*
X0179641Y0155770D01*
X0178907Y0156504D01*
X0177439Y0156504D01*
X0176705Y0155770D01*
X0183105Y0148300D02*
X0185605Y0150800D01*
X0190605Y0150800D01*
X0193105Y0148300D01*
X0193105Y0143300D01*
X0190605Y0140800D01*
X0193105Y0138300D01*
X0193105Y0133300D01*
X0190605Y0130800D01*
X0193105Y0128300D01*
X0193105Y0123300D01*
X0190605Y0120800D01*
X0185605Y0120800D01*
X0183105Y0123300D01*
X0183105Y0128300D01*
X0185605Y0130800D01*
X0183105Y0133300D01*
X0183105Y0138300D01*
X0185605Y0140800D01*
X0183105Y0143300D01*
X0183105Y0148300D01*
X0186705Y0152100D02*
X0189641Y0155036D01*
X0189641Y0155770D01*
X0188907Y0156504D01*
X0187439Y0156504D01*
X0186705Y0155770D01*
X0186705Y0152100D02*
X0189641Y0152100D01*
X0193105Y0148300D02*
X0193105Y0143300D01*
X0195605Y0140800D01*
X0193105Y0138300D01*
X0193105Y0133300D01*
X0195605Y0130800D01*
X0193105Y0128300D01*
X0193105Y0123300D01*
X0195605Y0120800D01*
X0200605Y0120800D01*
X0203105Y0123300D01*
X0203105Y0128300D01*
X0200605Y0130800D01*
X0203105Y0133300D01*
X0203105Y0138300D01*
X0200605Y0140800D01*
X0203105Y0143300D01*
X0203105Y0148300D01*
X0200605Y0150800D01*
X0195605Y0150800D01*
X0193105Y0148300D01*
X0196705Y0152100D02*
X0199641Y0152100D01*
X0198173Y0152100D02*
X0198173Y0156504D01*
X0196705Y0155036D01*
X0203105Y0148300D02*
X0205605Y0150800D01*
X0210605Y0150800D01*
X0213105Y0148300D01*
X0213105Y0143300D01*
X0210605Y0140800D01*
X0213105Y0138300D01*
X0213105Y0133300D01*
X0210605Y0130800D01*
X0213105Y0128300D01*
X0213105Y0123300D01*
X0210605Y0120800D01*
X0205605Y0120800D01*
X0203105Y0123300D01*
X0203105Y0128300D01*
X0205605Y0130800D01*
X0203105Y0133300D01*
X0203105Y0138300D01*
X0205605Y0140800D01*
X0203105Y0143300D01*
X0203105Y0148300D01*
X0207439Y0152100D02*
X0206705Y0152834D01*
X0209641Y0155770D01*
X0209641Y0152834D01*
X0208907Y0152100D01*
X0207439Y0152100D01*
X0206705Y0152834D02*
X0206705Y0155770D01*
X0207439Y0156504D01*
X0208907Y0156504D01*
X0209641Y0155770D01*
X0209823Y0167159D02*
X0210957Y0167159D01*
X0211524Y0167726D01*
X0212939Y0167726D02*
X0213506Y0167159D01*
X0214640Y0167159D01*
X0215207Y0167726D01*
X0215207Y0168293D01*
X0214640Y0168861D01*
X0214073Y0168861D01*
X0214640Y0168861D02*
X0215207Y0169428D01*
X0215207Y0169995D01*
X0214640Y0170562D01*
X0213506Y0170562D01*
X0212939Y0169995D01*
X0211524Y0169995D02*
X0210957Y0170562D01*
X0209823Y0170562D01*
X0209255Y0169995D01*
X0209255Y0167726D01*
X0209823Y0167159D01*
X0216622Y0167159D02*
X0218890Y0169428D01*
X0218890Y0169995D01*
X0218323Y0170562D01*
X0217189Y0170562D01*
X0216622Y0169995D01*
X0216622Y0167159D02*
X0218890Y0167159D01*
X0216423Y0176100D02*
X0215289Y0176100D01*
X0214722Y0176667D01*
X0215289Y0177801D02*
X0216990Y0177801D01*
X0216990Y0176667D02*
X0216990Y0178936D01*
X0216423Y0179503D01*
X0215289Y0179503D01*
X0214722Y0178936D01*
X0214722Y0178369D01*
X0215289Y0177801D01*
X0216423Y0176100D02*
X0216990Y0176667D01*
X0213307Y0176667D02*
X0213307Y0179503D01*
X0211039Y0179503D02*
X0211039Y0176667D01*
X0211606Y0176100D01*
X0212740Y0176100D01*
X0213307Y0176667D01*
X0227439Y0156504D02*
X0228907Y0156504D01*
X0229641Y0155770D01*
X0229641Y0155036D01*
X0228907Y0154302D01*
X0229641Y0153568D01*
X0229641Y0152834D01*
X0228907Y0152100D01*
X0227439Y0152100D01*
X0226705Y0152834D01*
X0228173Y0154302D02*
X0228907Y0154302D01*
X0226705Y0155770D02*
X0227439Y0156504D01*
X0225605Y0150800D02*
X0223105Y0148300D01*
X0223105Y0143300D01*
X0225605Y0140800D01*
X0223105Y0138300D01*
X0223105Y0133300D01*
X0225605Y0130800D01*
X0223105Y0128300D01*
X0223105Y0123300D01*
X0225605Y0120800D01*
X0230605Y0120800D01*
X0233105Y0123300D01*
X0233105Y0128300D01*
X0230605Y0130800D01*
X0233105Y0133300D01*
X0233105Y0138300D01*
X0230605Y0140800D01*
X0233105Y0143300D01*
X0233105Y0148300D01*
X0230605Y0150800D01*
X0225605Y0150800D01*
X0233105Y0148300D02*
X0233105Y0143300D01*
X0235605Y0140800D01*
X0233105Y0138300D01*
X0233105Y0133300D01*
X0235605Y0130800D01*
X0233105Y0128300D01*
X0233105Y0123300D01*
X0235605Y0120800D01*
X0240605Y0120800D01*
X0243105Y0123300D01*
X0243105Y0128300D01*
X0240605Y0130800D01*
X0243105Y0133300D01*
X0243105Y0138300D01*
X0240605Y0140800D01*
X0243105Y0143300D01*
X0243105Y0148300D01*
X0240605Y0150800D01*
X0235605Y0150800D01*
X0233105Y0148300D01*
X0236705Y0152100D02*
X0239641Y0155036D01*
X0239641Y0155770D01*
X0238907Y0156504D01*
X0237439Y0156504D01*
X0236705Y0155770D01*
X0236705Y0152100D02*
X0239641Y0152100D01*
X0243105Y0148300D02*
X0245605Y0150800D01*
X0250605Y0150800D01*
X0253105Y0148300D01*
X0253105Y0143300D01*
X0250605Y0140800D01*
X0253105Y0138300D01*
X0253105Y0133300D01*
X0250605Y0130800D01*
X0253105Y0128300D01*
X0253105Y0123300D01*
X0250605Y0120800D01*
X0245605Y0120800D01*
X0243105Y0123300D01*
X0243105Y0128300D01*
X0245605Y0130800D01*
X0243105Y0133300D01*
X0243105Y0138300D01*
X0245605Y0140800D01*
X0243105Y0143300D01*
X0243105Y0148300D01*
X0246705Y0152100D02*
X0249641Y0152100D01*
X0248173Y0152100D02*
X0248173Y0156504D01*
X0246705Y0155036D01*
X0246338Y0159159D02*
X0245771Y0159726D01*
X0248040Y0161995D01*
X0248040Y0159726D01*
X0247473Y0159159D01*
X0246338Y0159159D01*
X0245771Y0159726D02*
X0245771Y0161995D01*
X0246338Y0162562D01*
X0247473Y0162562D01*
X0248040Y0161995D01*
X0251356Y0162503D02*
X0253057Y0162503D01*
X0253624Y0161936D01*
X0253624Y0160801D01*
X0253057Y0160234D01*
X0251356Y0160234D01*
X0252490Y0160234D02*
X0253624Y0159100D01*
X0255039Y0159667D02*
X0255606Y0159100D01*
X0256740Y0159100D01*
X0257307Y0159667D01*
X0257307Y0160234D01*
X0256740Y0160801D01*
X0256173Y0160801D01*
X0256740Y0160801D02*
X0257307Y0161369D01*
X0257307Y0161936D01*
X0256740Y0162503D01*
X0255606Y0162503D01*
X0255039Y0161936D01*
X0258722Y0161936D02*
X0259289Y0162503D01*
X0260423Y0162503D01*
X0260990Y0161936D01*
X0260990Y0161369D01*
X0260423Y0160801D01*
X0259289Y0160801D01*
X0258722Y0161369D01*
X0258722Y0161936D01*
X0259289Y0160801D02*
X0258722Y0160234D01*
X0258722Y0159667D01*
X0259289Y0159100D01*
X0260423Y0159100D01*
X0260990Y0159667D01*
X0260990Y0160234D01*
X0260423Y0160801D01*
X0263105Y0163300D02*
X0263105Y0168300D01*
X0265605Y0170800D01*
X0270605Y0170800D01*
X0273105Y0168300D01*
X0275605Y0170800D01*
X0280605Y0170800D01*
X0283105Y0168300D01*
X0285605Y0170800D01*
X0290605Y0170800D01*
X0293105Y0168300D01*
X0293105Y0163300D01*
X0290605Y0160800D01*
X0285605Y0160800D01*
X0283105Y0163300D01*
X0280605Y0160800D01*
X0275605Y0160800D01*
X0273105Y0163300D01*
X0270605Y0160800D01*
X0265605Y0160800D01*
X0263105Y0163300D01*
X0258722Y0169200D02*
X0258722Y0169767D01*
X0260990Y0172036D01*
X0260990Y0172603D01*
X0258722Y0172603D01*
X0257307Y0172036D02*
X0257307Y0171469D01*
X0256740Y0170901D01*
X0257307Y0170334D01*
X0257307Y0169767D01*
X0256740Y0169200D01*
X0255606Y0169200D01*
X0255039Y0169767D01*
X0253624Y0169200D02*
X0252490Y0170334D01*
X0253057Y0170334D02*
X0251356Y0170334D01*
X0251356Y0169200D02*
X0251356Y0172603D01*
X0253057Y0172603D01*
X0253624Y0172036D01*
X0253624Y0170901D01*
X0253057Y0170334D01*
X0255039Y0172036D02*
X0255606Y0172603D01*
X0256740Y0172603D01*
X0257307Y0172036D01*
X0256740Y0170901D02*
X0256173Y0170901D01*
X0263105Y0173300D02*
X0263105Y0178300D01*
X0265605Y0180800D01*
X0270605Y0180800D01*
X0273105Y0178300D01*
X0275605Y0180800D01*
X0280605Y0180800D01*
X0283105Y0178300D01*
X0285605Y0180800D01*
X0290605Y0180800D01*
X0293105Y0178300D01*
X0293105Y0173300D01*
X0290605Y0170800D01*
X0285605Y0170800D01*
X0283105Y0173300D01*
X0280605Y0170800D01*
X0275605Y0170800D01*
X0273105Y0173300D01*
X0270605Y0170800D01*
X0265605Y0170800D01*
X0263105Y0173300D01*
X0260423Y0179200D02*
X0260990Y0179767D01*
X0260990Y0180334D01*
X0260423Y0180901D01*
X0258722Y0180901D01*
X0258722Y0179767D01*
X0259289Y0179200D01*
X0260423Y0179200D01*
X0258722Y0180901D02*
X0259856Y0182036D01*
X0260990Y0182603D01*
X0263105Y0183300D02*
X0263105Y0188300D01*
X0265605Y0190800D01*
X0270605Y0190800D01*
X0273105Y0188300D01*
X0275605Y0190800D01*
X0280605Y0190800D01*
X0283105Y0188300D01*
X0285605Y0190800D01*
X0290605Y0190800D01*
X0293105Y0188300D01*
X0293105Y0183300D01*
X0290605Y0180800D01*
X0285605Y0180800D01*
X0283105Y0183300D01*
X0280605Y0180800D01*
X0275605Y0180800D01*
X0273105Y0183300D01*
X0270605Y0180800D01*
X0265605Y0180800D01*
X0263105Y0183300D01*
X0260423Y0189200D02*
X0259289Y0189200D01*
X0258722Y0189767D01*
X0258722Y0190901D02*
X0259856Y0191469D01*
X0260423Y0191469D01*
X0260990Y0190901D01*
X0260990Y0189767D01*
X0260423Y0189200D01*
X0258722Y0190901D02*
X0258722Y0192603D01*
X0260990Y0192603D01*
X0263105Y0193300D02*
X0263105Y0198300D01*
X0265605Y0200800D01*
X0270605Y0200800D01*
X0273105Y0198300D01*
X0275605Y0200800D01*
X0280605Y0200800D01*
X0283105Y0198300D01*
X0285605Y0200800D01*
X0290605Y0200800D01*
X0293105Y0198300D01*
X0293105Y0193300D01*
X0290605Y0190800D01*
X0285605Y0190800D01*
X0283105Y0193300D01*
X0280605Y0190800D01*
X0275605Y0190800D01*
X0273105Y0193300D01*
X0270605Y0190800D01*
X0265605Y0190800D01*
X0263105Y0193300D01*
X0257307Y0192036D02*
X0257307Y0191469D01*
X0256740Y0190901D01*
X0257307Y0190334D01*
X0257307Y0189767D01*
X0256740Y0189200D01*
X0255606Y0189200D01*
X0255039Y0189767D01*
X0253624Y0189200D02*
X0252490Y0190334D01*
X0253057Y0190334D02*
X0251356Y0190334D01*
X0251356Y0189200D02*
X0251356Y0192603D01*
X0253057Y0192603D01*
X0253624Y0192036D01*
X0253624Y0190901D01*
X0253057Y0190334D01*
X0255039Y0192036D02*
X0255606Y0192603D01*
X0256740Y0192603D01*
X0257307Y0192036D01*
X0256740Y0190901D02*
X0256173Y0190901D01*
X0248040Y0192036D02*
X0245771Y0189767D01*
X0245771Y0189200D01*
X0244357Y0189200D02*
X0242088Y0189200D01*
X0244357Y0191469D01*
X0244357Y0192036D01*
X0243790Y0192603D01*
X0242655Y0192603D01*
X0242088Y0192036D01*
X0240674Y0192036D02*
X0240106Y0192603D01*
X0238972Y0192603D01*
X0238405Y0192036D01*
X0238405Y0189767D01*
X0238972Y0189200D01*
X0240106Y0189200D01*
X0240674Y0189767D01*
X0240106Y0182603D02*
X0238972Y0182603D01*
X0238405Y0182036D01*
X0238405Y0179767D01*
X0238972Y0179200D01*
X0240106Y0179200D01*
X0240674Y0179767D01*
X0242088Y0179200D02*
X0244357Y0181469D01*
X0244357Y0182036D01*
X0243790Y0182603D01*
X0242655Y0182603D01*
X0242088Y0182036D01*
X0240674Y0182036D02*
X0240106Y0182603D01*
X0242088Y0179200D02*
X0244357Y0179200D01*
X0245771Y0179767D02*
X0245771Y0180334D01*
X0246338Y0180901D01*
X0247473Y0180901D01*
X0248040Y0180334D01*
X0248040Y0179767D01*
X0247473Y0179200D01*
X0246338Y0179200D01*
X0245771Y0179767D01*
X0246338Y0180901D02*
X0245771Y0181469D01*
X0245771Y0182036D01*
X0246338Y0182603D01*
X0247473Y0182603D01*
X0248040Y0182036D01*
X0248040Y0181469D01*
X0247473Y0180901D01*
X0251356Y0180334D02*
X0253057Y0180334D01*
X0253624Y0180901D01*
X0253624Y0182036D01*
X0253057Y0182603D01*
X0251356Y0182603D01*
X0251356Y0179200D01*
X0252490Y0180334D02*
X0253624Y0179200D01*
X0255039Y0179767D02*
X0255606Y0179200D01*
X0256740Y0179200D01*
X0257307Y0179767D01*
X0257307Y0180334D01*
X0256740Y0180901D01*
X0256173Y0180901D01*
X0256740Y0180901D02*
X0257307Y0181469D01*
X0257307Y0182036D01*
X0256740Y0182603D01*
X0255606Y0182603D01*
X0255039Y0182036D01*
X0247473Y0172603D02*
X0248040Y0172036D01*
X0248040Y0169767D01*
X0247473Y0169200D01*
X0246338Y0169200D01*
X0245771Y0169767D01*
X0246338Y0170901D02*
X0248040Y0170901D01*
X0246338Y0170901D02*
X0245771Y0171469D01*
X0245771Y0172036D01*
X0246338Y0172603D01*
X0247473Y0172603D01*
X0244357Y0172036D02*
X0243790Y0172603D01*
X0242655Y0172603D01*
X0242088Y0172036D01*
X0240674Y0172036D02*
X0240106Y0172603D01*
X0238972Y0172603D01*
X0238405Y0172036D01*
X0238405Y0169767D01*
X0238972Y0169200D01*
X0240106Y0169200D01*
X0240674Y0169767D01*
X0242088Y0169200D02*
X0244357Y0171469D01*
X0244357Y0172036D01*
X0244357Y0169200D02*
X0242088Y0169200D01*
X0242655Y0162562D02*
X0243790Y0162562D01*
X0244357Y0161995D01*
X0244357Y0161428D01*
X0243790Y0160861D01*
X0244357Y0160293D01*
X0244357Y0159726D01*
X0243790Y0159159D01*
X0242655Y0159159D01*
X0242088Y0159726D01*
X0240674Y0159726D02*
X0240106Y0159159D01*
X0238972Y0159159D01*
X0238405Y0159726D01*
X0238405Y0161995D01*
X0238972Y0162562D01*
X0240106Y0162562D01*
X0240674Y0161995D01*
X0242088Y0161995D02*
X0242655Y0162562D01*
X0243222Y0160861D02*
X0243790Y0160861D01*
X0251356Y0162503D02*
X0251356Y0159100D01*
X0256705Y0155770D02*
X0257439Y0156504D01*
X0258907Y0156504D01*
X0259641Y0155770D01*
X0256705Y0152834D01*
X0257439Y0152100D01*
X0258907Y0152100D01*
X0259641Y0152834D01*
X0259641Y0155770D01*
X0256705Y0155770D02*
X0256705Y0152834D01*
X0255605Y0150800D02*
X0253105Y0148300D01*
X0253105Y0143300D01*
X0255605Y0140800D01*
X0253105Y0138300D01*
X0253105Y0133300D01*
X0255605Y0130800D01*
X0253105Y0128300D01*
X0253105Y0123300D01*
X0255605Y0120800D01*
X0260605Y0120800D01*
X0263105Y0123300D01*
X0263105Y0128300D01*
X0260605Y0130800D01*
X0263105Y0133300D01*
X0263105Y0138300D01*
X0260605Y0140800D01*
X0263105Y0143300D01*
X0263105Y0148300D01*
X0260605Y0150800D01*
X0255605Y0150800D01*
X0273105Y0148300D02*
X0273105Y0143300D01*
X0275605Y0140800D01*
X0273105Y0138300D01*
X0273105Y0133300D01*
X0275605Y0130800D01*
X0273105Y0128300D01*
X0273105Y0123300D01*
X0275605Y0120800D01*
X0280605Y0120800D01*
X0283105Y0123300D01*
X0283105Y0128300D01*
X0280605Y0130800D01*
X0283105Y0133300D01*
X0283105Y0138300D01*
X0280605Y0140800D01*
X0283105Y0143300D01*
X0283105Y0148300D01*
X0280605Y0150800D01*
X0275605Y0150800D01*
X0273105Y0148300D01*
X0276705Y0152100D02*
X0279641Y0152100D01*
X0278173Y0152100D02*
X0278173Y0156504D01*
X0276705Y0155036D01*
X0283105Y0148300D02*
X0285605Y0150800D01*
X0290605Y0150800D01*
X0293105Y0148300D01*
X0293105Y0143300D01*
X0290605Y0140800D01*
X0293105Y0138300D01*
X0293105Y0133300D01*
X0290605Y0130800D01*
X0293105Y0128300D01*
X0293105Y0123300D01*
X0290605Y0120800D01*
X0285605Y0120800D01*
X0283105Y0123300D01*
X0283105Y0128300D01*
X0285605Y0130800D01*
X0283105Y0133300D01*
X0283105Y0138300D01*
X0285605Y0140800D01*
X0283105Y0143300D01*
X0283105Y0148300D01*
X0287439Y0152100D02*
X0286705Y0152834D01*
X0289641Y0155770D01*
X0289641Y0152834D01*
X0288907Y0152100D01*
X0287439Y0152100D01*
X0286705Y0152834D02*
X0286705Y0155770D01*
X0287439Y0156504D01*
X0288907Y0156504D01*
X0289641Y0155770D01*
X0295401Y0164298D02*
X0295401Y0167234D01*
X0296135Y0167234D01*
X0299071Y0164298D01*
X0299805Y0164298D01*
X0299071Y0174298D02*
X0299805Y0175032D01*
X0299805Y0176500D01*
X0299071Y0177234D01*
X0298337Y0177234D01*
X0297603Y0176500D01*
X0297603Y0174298D01*
X0299071Y0174298D01*
X0297603Y0174298D02*
X0296135Y0175766D01*
X0295401Y0177234D01*
X0295401Y0184298D02*
X0297603Y0184298D01*
X0296869Y0185766D01*
X0296869Y0186500D01*
X0297603Y0187234D01*
X0299071Y0187234D01*
X0299805Y0186500D01*
X0299805Y0185032D01*
X0299071Y0184298D01*
X0295401Y0184298D02*
X0295401Y0187234D01*
X0297603Y0194298D02*
X0295401Y0196500D01*
X0299805Y0196500D01*
X0297603Y0197234D02*
X0297603Y0194298D01*
X0290605Y0200800D02*
X0293105Y0203300D01*
X0293105Y0208300D01*
X0290605Y0210800D01*
X0285605Y0210800D01*
X0283105Y0208300D01*
X0280605Y0210800D01*
X0275605Y0210800D01*
X0273105Y0208300D01*
X0270605Y0210800D01*
X0265605Y0210800D01*
X0263105Y0208300D01*
X0263105Y0203300D01*
X0265605Y0200800D01*
X0270605Y0200800D01*
X0273105Y0203300D01*
X0275605Y0200800D01*
X0280605Y0200800D01*
X0283105Y0203300D01*
X0285605Y0200800D01*
X0290605Y0200800D01*
X0295401Y0205032D02*
X0295401Y0206500D01*
X0296135Y0207234D01*
X0296869Y0207234D01*
X0297603Y0206500D01*
X0298337Y0207234D01*
X0299071Y0207234D01*
X0299805Y0206500D01*
X0299805Y0205032D01*
X0299071Y0204298D01*
X0297603Y0205766D02*
X0297603Y0206500D01*
X0296135Y0204298D02*
X0295401Y0205032D01*
X0290605Y0210800D02*
X0293105Y0213300D01*
X0293105Y0218300D01*
X0290605Y0220800D01*
X0285605Y0220800D01*
X0283105Y0218300D01*
X0280605Y0220800D01*
X0275605Y0220800D01*
X0273105Y0218300D01*
X0270605Y0220800D01*
X0265605Y0220800D01*
X0263105Y0218300D01*
X0263105Y0213300D01*
X0265605Y0210800D01*
X0270605Y0210800D01*
X0273105Y0213300D01*
X0275605Y0210800D01*
X0280605Y0210800D01*
X0283105Y0213300D01*
X0285605Y0210800D01*
X0290605Y0210800D01*
X0295401Y0215032D02*
X0296135Y0214298D01*
X0295401Y0215032D02*
X0295401Y0216500D01*
X0296135Y0217234D01*
X0296869Y0217234D01*
X0299805Y0214298D01*
X0299805Y0217234D01*
X0299805Y0224298D02*
X0299805Y0227234D01*
X0299805Y0225766D02*
X0295401Y0225766D01*
X0296869Y0224298D01*
X0293105Y0223300D02*
X0293105Y0228300D01*
X0290605Y0230800D01*
X0285605Y0230800D01*
X0283105Y0228300D01*
X0280605Y0230800D01*
X0275605Y0230800D01*
X0273105Y0228300D01*
X0270605Y0230800D01*
X0265605Y0230800D01*
X0263105Y0228300D01*
X0263105Y0223300D01*
X0265605Y0220800D01*
X0270605Y0220800D01*
X0273105Y0223300D01*
X0275605Y0220800D01*
X0280605Y0220800D01*
X0283105Y0223300D01*
X0285605Y0220800D01*
X0290605Y0220800D01*
X0293105Y0223300D01*
X0298869Y0229100D02*
X0297401Y0230568D01*
X0298869Y0232036D01*
X0301805Y0232036D01*
X0301805Y0233704D02*
X0297401Y0233704D01*
X0297401Y0235906D01*
X0298135Y0236640D01*
X0301071Y0236640D01*
X0301805Y0235906D01*
X0301805Y0233704D01*
X0299603Y0232036D02*
X0299603Y0229100D01*
X0298869Y0229100D02*
X0301805Y0229100D01*
X0301071Y0238308D02*
X0298135Y0238308D01*
X0297401Y0239042D01*
X0297401Y0240510D01*
X0298135Y0241244D01*
X0301071Y0241244D02*
X0301805Y0240510D01*
X0301805Y0239042D01*
X0301071Y0238308D01*
X0301473Y0251200D02*
X0302040Y0251767D01*
X0302040Y0254036D01*
X0301473Y0254603D01*
X0300338Y0254603D01*
X0299771Y0254036D01*
X0299771Y0253469D01*
X0300338Y0252901D01*
X0302040Y0252901D01*
X0301473Y0251200D02*
X0300338Y0251200D01*
X0299771Y0251767D01*
X0298357Y0251200D02*
X0296088Y0251200D01*
X0298357Y0253469D01*
X0298357Y0254036D01*
X0297790Y0254603D01*
X0296655Y0254603D01*
X0296088Y0254036D01*
X0294674Y0254036D02*
X0294674Y0252901D01*
X0294106Y0252334D01*
X0292405Y0252334D01*
X0292405Y0251200D02*
X0292405Y0254603D01*
X0294106Y0254603D01*
X0294674Y0254036D01*
X0293539Y0252334D02*
X0294674Y0251200D01*
X0289746Y0251317D02*
X0289746Y0253585D01*
X0289746Y0252451D02*
X0286343Y0252451D01*
X0287477Y0251317D01*
X0287477Y0249902D02*
X0286910Y0249902D01*
X0286343Y0249335D01*
X0286343Y0248201D01*
X0286910Y0247634D01*
X0286910Y0246219D02*
X0286343Y0245652D01*
X0286343Y0244518D01*
X0286910Y0243950D01*
X0289179Y0243950D01*
X0289746Y0244518D01*
X0289746Y0245652D01*
X0289179Y0246219D01*
X0289746Y0247634D02*
X0287477Y0249902D01*
X0289746Y0249902D02*
X0289746Y0247634D01*
X0288973Y0255100D02*
X0289540Y0255667D01*
X0289540Y0256234D01*
X0288973Y0256801D01*
X0287271Y0256801D01*
X0287271Y0255667D01*
X0287838Y0255100D01*
X0288973Y0255100D01*
X0287271Y0256801D02*
X0288406Y0257936D01*
X0289540Y0258503D01*
X0292405Y0261200D02*
X0292405Y0264603D01*
X0294106Y0264603D01*
X0294674Y0264036D01*
X0294674Y0262901D01*
X0294106Y0262334D01*
X0292405Y0262334D01*
X0293539Y0262334D02*
X0294674Y0261200D01*
X0296088Y0261200D02*
X0298357Y0263469D01*
X0298357Y0264036D01*
X0297790Y0264603D01*
X0296655Y0264603D01*
X0296088Y0264036D01*
X0296088Y0261200D02*
X0298357Y0261200D01*
X0299771Y0261200D02*
X0299771Y0261767D01*
X0302040Y0264036D01*
X0302040Y0264603D01*
X0299771Y0264603D01*
X0299994Y0273824D02*
X0299427Y0274392D01*
X0299994Y0273824D02*
X0301128Y0273824D01*
X0301695Y0274392D01*
X0301695Y0275526D01*
X0301128Y0276093D01*
X0300561Y0276093D01*
X0299427Y0275526D01*
X0299427Y0277227D01*
X0301695Y0277227D01*
X0298012Y0277227D02*
X0298012Y0274392D01*
X0297445Y0273824D01*
X0296311Y0273824D01*
X0295744Y0274392D01*
X0295744Y0277227D01*
X0280207Y0285667D02*
X0279640Y0285100D01*
X0278506Y0285100D01*
X0277939Y0285667D01*
X0276524Y0285667D02*
X0275957Y0285100D01*
X0274823Y0285100D01*
X0274255Y0285667D01*
X0274255Y0287936D01*
X0274823Y0288503D01*
X0275957Y0288503D01*
X0276524Y0287936D01*
X0276524Y0285667D01*
X0276524Y0285100D02*
X0275390Y0286234D01*
X0277939Y0287936D02*
X0278506Y0288503D01*
X0279640Y0288503D01*
X0280207Y0287936D01*
X0280207Y0287369D01*
X0279640Y0286801D01*
X0280207Y0286234D01*
X0280207Y0285667D01*
X0279640Y0286801D02*
X0279073Y0286801D01*
X0272207Y0287369D02*
X0272207Y0287936D01*
X0271640Y0288503D01*
X0270506Y0288503D01*
X0269939Y0287936D01*
X0268524Y0287936D02*
X0268524Y0285667D01*
X0267957Y0285100D01*
X0266823Y0285100D01*
X0266255Y0285667D01*
X0266255Y0287936D01*
X0266823Y0288503D01*
X0267957Y0288503D01*
X0268524Y0287936D01*
X0267390Y0286234D02*
X0268524Y0285100D01*
X0269939Y0285100D02*
X0272207Y0287369D01*
X0272207Y0285100D02*
X0269939Y0285100D01*
X0264490Y0283061D02*
X0262222Y0283061D01*
X0263923Y0284762D01*
X0263923Y0281359D01*
X0260807Y0281359D02*
X0258539Y0281359D01*
X0259673Y0281359D02*
X0259673Y0284762D01*
X0258539Y0283628D01*
X0257124Y0284195D02*
X0256557Y0284762D01*
X0255423Y0284762D01*
X0254855Y0284195D01*
X0254855Y0281926D01*
X0255423Y0281359D01*
X0256557Y0281359D01*
X0257124Y0281926D01*
X0257402Y0294600D02*
X0257402Y0296301D01*
X0257969Y0296869D01*
X0259104Y0296869D01*
X0259671Y0296301D01*
X0259671Y0294600D01*
X0260805Y0294600D02*
X0257402Y0294600D01*
X0255805Y0294600D02*
X0252402Y0294600D01*
X0252402Y0296301D01*
X0252969Y0296869D01*
X0254104Y0296869D01*
X0254671Y0296301D01*
X0254671Y0294600D01*
X0254671Y0295734D02*
X0255805Y0296869D01*
X0255805Y0298283D02*
X0253536Y0300552D01*
X0252969Y0300552D01*
X0252402Y0299985D01*
X0252402Y0298850D01*
X0252969Y0298283D01*
X0255805Y0298283D02*
X0255805Y0300552D01*
X0255805Y0301966D02*
X0253536Y0304235D01*
X0252969Y0304235D01*
X0252402Y0303668D01*
X0252402Y0302533D01*
X0252969Y0301966D01*
X0255805Y0301966D02*
X0255805Y0304235D01*
X0257402Y0303668D02*
X0257969Y0304235D01*
X0258536Y0304235D01*
X0259104Y0303668D01*
X0259671Y0304235D01*
X0260238Y0304235D01*
X0260805Y0303668D01*
X0260805Y0302533D01*
X0260238Y0301966D01*
X0260805Y0300552D02*
X0260805Y0298283D01*
X0258536Y0300552D01*
X0257969Y0300552D01*
X0257402Y0299985D01*
X0257402Y0298850D01*
X0257969Y0298283D01*
X0259671Y0295734D02*
X0260805Y0296869D01*
X0257969Y0301966D02*
X0257402Y0302533D01*
X0257402Y0303668D01*
X0259104Y0303668D02*
X0259104Y0303101D01*
X0272145Y0317334D02*
X0272145Y0320170D01*
X0266207Y0322226D02*
X0265640Y0321659D01*
X0264506Y0321659D01*
X0263939Y0322226D01*
X0263939Y0323361D02*
X0265073Y0323928D01*
X0265640Y0323928D01*
X0266207Y0323361D01*
X0266207Y0322226D01*
X0263939Y0323361D02*
X0263939Y0325062D01*
X0266207Y0325062D01*
X0262524Y0324495D02*
X0261957Y0325062D01*
X0260823Y0325062D01*
X0260255Y0324495D01*
X0260255Y0322226D01*
X0260823Y0321659D01*
X0261957Y0321659D01*
X0262524Y0322226D01*
X0277961Y0304535D02*
X0278528Y0304535D01*
X0280797Y0302266D01*
X0281364Y0302266D01*
X0280797Y0300852D02*
X0281364Y0300285D01*
X0281364Y0299150D01*
X0280797Y0298583D01*
X0278528Y0298583D01*
X0277961Y0299150D01*
X0277961Y0300285D01*
X0278528Y0300852D01*
X0277961Y0302266D02*
X0277961Y0304535D01*
X0300461Y0307150D02*
X0301028Y0306583D01*
X0303297Y0306583D01*
X0303864Y0307150D01*
X0303864Y0308285D01*
X0303297Y0308852D01*
X0303297Y0310266D02*
X0303864Y0310834D01*
X0303864Y0311968D01*
X0303297Y0312535D01*
X0301028Y0312535D01*
X0300461Y0311968D01*
X0300461Y0310834D01*
X0301028Y0310266D01*
X0301595Y0310266D01*
X0302163Y0310834D01*
X0302163Y0312535D01*
X0301028Y0308852D02*
X0300461Y0308285D01*
X0300461Y0307150D01*
X0280540Y0264503D02*
X0278271Y0264503D01*
X0278271Y0262801D01*
X0279406Y0263369D01*
X0279973Y0263369D01*
X0280540Y0262801D01*
X0280540Y0261667D01*
X0279973Y0261100D01*
X0278838Y0261100D01*
X0278271Y0261667D01*
X0276857Y0261100D02*
X0274588Y0261100D01*
X0276857Y0263369D01*
X0276857Y0263936D01*
X0276290Y0264503D01*
X0275155Y0264503D01*
X0274588Y0263936D01*
X0273174Y0263936D02*
X0273174Y0262801D01*
X0272606Y0262234D01*
X0270905Y0262234D01*
X0270905Y0261100D02*
X0270905Y0264503D01*
X0272606Y0264503D01*
X0273174Y0263936D01*
X0272039Y0262234D02*
X0273174Y0261100D01*
X0267040Y0262801D02*
X0264771Y0262801D01*
X0266473Y0264503D01*
X0266473Y0261100D01*
X0263357Y0261100D02*
X0261088Y0261100D01*
X0263357Y0263369D01*
X0263357Y0263936D01*
X0262790Y0264503D01*
X0261655Y0264503D01*
X0261088Y0263936D01*
X0259674Y0263936D02*
X0259674Y0262801D01*
X0259106Y0262234D01*
X0257405Y0262234D01*
X0257405Y0261100D02*
X0257405Y0264503D01*
X0259106Y0264503D01*
X0259674Y0263936D01*
X0258539Y0262234D02*
X0259674Y0261100D01*
X0260655Y0254503D02*
X0260088Y0253936D01*
X0260655Y0254503D02*
X0261790Y0254503D01*
X0262357Y0253936D01*
X0262357Y0253369D01*
X0260088Y0251100D01*
X0262357Y0251100D01*
X0263771Y0251667D02*
X0263771Y0252234D01*
X0264338Y0252801D01*
X0265473Y0252801D01*
X0266040Y0252234D01*
X0266040Y0251667D01*
X0265473Y0251100D01*
X0264338Y0251100D01*
X0263771Y0251667D01*
X0264338Y0252801D02*
X0263771Y0253369D01*
X0263771Y0253936D01*
X0264338Y0254503D01*
X0265473Y0254503D01*
X0266040Y0253936D01*
X0266040Y0253369D01*
X0265473Y0252801D01*
X0265857Y0248003D02*
X0263588Y0248003D01*
X0262174Y0248003D02*
X0262174Y0245167D01*
X0261606Y0244600D01*
X0260472Y0244600D01*
X0259905Y0245167D01*
X0259905Y0248003D01*
X0258674Y0251100D02*
X0257539Y0252234D01*
X0258106Y0252234D02*
X0256405Y0252234D01*
X0256405Y0251100D02*
X0256405Y0254503D01*
X0258106Y0254503D01*
X0258674Y0253936D01*
X0258674Y0252801D01*
X0258106Y0252234D01*
X0265857Y0248003D02*
X0265857Y0247436D01*
X0263588Y0245167D01*
X0263588Y0244600D01*
X0260790Y0241936D02*
X0258522Y0239667D01*
X0259089Y0239100D01*
X0260223Y0239100D01*
X0260790Y0239667D01*
X0260790Y0241936D01*
X0260223Y0242503D01*
X0259089Y0242503D01*
X0258522Y0241936D01*
X0258522Y0239667D01*
X0257107Y0239667D02*
X0256540Y0239100D01*
X0255406Y0239100D01*
X0254839Y0239667D01*
X0253424Y0239100D02*
X0252290Y0240234D01*
X0252857Y0240234D02*
X0251156Y0240234D01*
X0251156Y0239100D02*
X0251156Y0242503D01*
X0252857Y0242503D01*
X0253424Y0241936D01*
X0253424Y0240801D01*
X0252857Y0240234D01*
X0254839Y0241936D02*
X0255406Y0242503D01*
X0256540Y0242503D01*
X0257107Y0241936D01*
X0257107Y0241369D01*
X0256540Y0240801D01*
X0257107Y0240234D01*
X0257107Y0239667D01*
X0256540Y0240801D02*
X0255973Y0240801D01*
X0255606Y0232503D02*
X0256740Y0232503D01*
X0257307Y0231936D01*
X0257307Y0231369D01*
X0256740Y0230801D01*
X0257307Y0230234D01*
X0257307Y0229667D01*
X0256740Y0229100D01*
X0255606Y0229100D01*
X0255039Y0229667D01*
X0253624Y0229100D02*
X0252490Y0230234D01*
X0253057Y0230234D02*
X0251356Y0230234D01*
X0251356Y0229100D02*
X0251356Y0232503D01*
X0253057Y0232503D01*
X0253624Y0231936D01*
X0253624Y0230801D01*
X0253057Y0230234D01*
X0255039Y0231936D02*
X0255606Y0232503D01*
X0256173Y0230801D02*
X0256740Y0230801D01*
X0258722Y0231369D02*
X0259856Y0232503D01*
X0259856Y0229100D01*
X0258722Y0229100D02*
X0260990Y0229100D01*
X0260423Y0222603D02*
X0259289Y0222603D01*
X0258722Y0222036D01*
X0257307Y0222036D02*
X0257307Y0221469D01*
X0256740Y0220901D01*
X0257307Y0220334D01*
X0257307Y0219767D01*
X0256740Y0219200D01*
X0255606Y0219200D01*
X0255039Y0219767D01*
X0253624Y0219200D02*
X0252490Y0220334D01*
X0253057Y0220334D02*
X0251356Y0220334D01*
X0251356Y0219200D02*
X0251356Y0222603D01*
X0253057Y0222603D01*
X0253624Y0222036D01*
X0253624Y0220901D01*
X0253057Y0220334D01*
X0255039Y0222036D02*
X0255606Y0222603D01*
X0256740Y0222603D01*
X0257307Y0222036D01*
X0256740Y0220901D02*
X0256173Y0220901D01*
X0258722Y0219200D02*
X0260990Y0221469D01*
X0260990Y0222036D01*
X0260423Y0222603D01*
X0260990Y0219200D02*
X0258722Y0219200D01*
X0259289Y0212603D02*
X0260423Y0212603D01*
X0260990Y0212036D01*
X0260990Y0211469D01*
X0260423Y0210901D01*
X0260990Y0210334D01*
X0260990Y0209767D01*
X0260423Y0209200D01*
X0259289Y0209200D01*
X0258722Y0209767D01*
X0257307Y0209767D02*
X0257307Y0210334D01*
X0256740Y0210901D01*
X0256173Y0210901D01*
X0256740Y0210901D02*
X0257307Y0211469D01*
X0257307Y0212036D01*
X0256740Y0212603D01*
X0255606Y0212603D01*
X0255039Y0212036D01*
X0253624Y0212036D02*
X0253624Y0210901D01*
X0253057Y0210334D01*
X0251356Y0210334D01*
X0252490Y0210334D02*
X0253624Y0209200D01*
X0255039Y0209767D02*
X0255606Y0209200D01*
X0256740Y0209200D01*
X0257307Y0209767D01*
X0258722Y0212036D02*
X0259289Y0212603D01*
X0259856Y0210901D02*
X0260423Y0210901D01*
X0253624Y0212036D02*
X0253057Y0212603D01*
X0251356Y0212603D01*
X0251356Y0209200D01*
X0248040Y0209726D02*
X0248040Y0210861D01*
X0247473Y0211428D01*
X0246906Y0211428D01*
X0245771Y0210861D01*
X0245771Y0212562D01*
X0248040Y0212562D01*
X0248040Y0209726D02*
X0247473Y0209159D01*
X0246338Y0209159D01*
X0245771Y0209726D01*
X0244357Y0209159D02*
X0242088Y0209159D01*
X0244357Y0211428D01*
X0244357Y0211995D01*
X0243790Y0212562D01*
X0242655Y0212562D01*
X0242088Y0211995D01*
X0240674Y0211995D02*
X0240106Y0212562D01*
X0238972Y0212562D01*
X0238405Y0211995D01*
X0238405Y0209726D01*
X0238972Y0209159D01*
X0240106Y0209159D01*
X0240674Y0209726D01*
X0240106Y0202562D02*
X0238972Y0202562D01*
X0238405Y0201995D01*
X0238405Y0199726D01*
X0238972Y0199159D01*
X0240106Y0199159D01*
X0240674Y0199726D01*
X0242088Y0199159D02*
X0244357Y0201428D01*
X0244357Y0201995D01*
X0243790Y0202562D01*
X0242655Y0202562D01*
X0242088Y0201995D01*
X0240674Y0201995D02*
X0240106Y0202562D01*
X0242088Y0199159D02*
X0244357Y0199159D01*
X0245771Y0199726D02*
X0246338Y0199159D01*
X0247473Y0199159D01*
X0248040Y0199726D01*
X0248040Y0200293D01*
X0247473Y0200861D01*
X0245771Y0200861D01*
X0245771Y0199726D01*
X0245771Y0200861D02*
X0246906Y0201995D01*
X0248040Y0202562D01*
X0251356Y0202603D02*
X0251356Y0199200D01*
X0251356Y0200334D02*
X0253057Y0200334D01*
X0253624Y0200901D01*
X0253624Y0202036D01*
X0253057Y0202603D01*
X0251356Y0202603D01*
X0252490Y0200334D02*
X0253624Y0199200D01*
X0255039Y0199767D02*
X0255606Y0199200D01*
X0256740Y0199200D01*
X0257307Y0199767D01*
X0257307Y0200334D01*
X0256740Y0200901D01*
X0256173Y0200901D01*
X0256740Y0200901D02*
X0257307Y0201469D01*
X0257307Y0202036D01*
X0256740Y0202603D01*
X0255606Y0202603D01*
X0255039Y0202036D01*
X0258722Y0200901D02*
X0260990Y0200901D01*
X0260423Y0199200D02*
X0260423Y0202603D01*
X0258722Y0200901D01*
X0248040Y0192603D02*
X0248040Y0192036D01*
X0248040Y0192603D02*
X0245771Y0192603D01*
X0244357Y0219159D02*
X0242088Y0219159D01*
X0244357Y0221428D01*
X0244357Y0221995D01*
X0243790Y0222562D01*
X0242655Y0222562D01*
X0242088Y0221995D01*
X0240674Y0221995D02*
X0240106Y0222562D01*
X0238972Y0222562D01*
X0238405Y0221995D01*
X0238405Y0219726D01*
X0238972Y0219159D01*
X0240106Y0219159D01*
X0240674Y0219726D01*
X0245771Y0220861D02*
X0248040Y0220861D01*
X0247473Y0222562D02*
X0245771Y0220861D01*
X0247473Y0219159D02*
X0247473Y0222562D01*
X0247338Y0229159D02*
X0246771Y0229726D01*
X0247338Y0229159D02*
X0248473Y0229159D01*
X0249040Y0229726D01*
X0249040Y0230293D01*
X0248473Y0230861D01*
X0247906Y0230861D01*
X0248473Y0230861D02*
X0249040Y0231428D01*
X0249040Y0231995D01*
X0248473Y0232562D01*
X0247338Y0232562D01*
X0246771Y0231995D01*
X0245357Y0231995D02*
X0244790Y0232562D01*
X0243655Y0232562D01*
X0243088Y0231995D01*
X0241674Y0231995D02*
X0241106Y0232562D01*
X0239972Y0232562D01*
X0239405Y0231995D01*
X0239405Y0229726D01*
X0239972Y0229159D01*
X0241106Y0229159D01*
X0241674Y0229726D01*
X0243088Y0229159D02*
X0245357Y0231428D01*
X0245357Y0231995D01*
X0245357Y0229159D02*
X0243088Y0229159D01*
X0233805Y0229052D02*
X0233805Y0226783D01*
X0233805Y0227917D02*
X0230402Y0227917D01*
X0231536Y0226783D01*
X0230969Y0225369D02*
X0230402Y0224801D01*
X0230402Y0223667D01*
X0230969Y0223100D01*
X0233238Y0223100D01*
X0233805Y0223667D01*
X0233805Y0224801D01*
X0233238Y0225369D01*
X0233238Y0230466D02*
X0233805Y0231033D01*
X0233805Y0232168D01*
X0233238Y0232735D01*
X0230969Y0232735D01*
X0230402Y0232168D01*
X0230402Y0231033D01*
X0230969Y0230466D01*
X0231536Y0230466D01*
X0232104Y0231033D01*
X0232104Y0232735D01*
X0233238Y0235100D02*
X0230969Y0235100D01*
X0230402Y0235667D01*
X0230402Y0236801D01*
X0230969Y0237369D01*
X0231536Y0238783D02*
X0230402Y0239917D01*
X0233805Y0239917D01*
X0233805Y0238783D02*
X0233805Y0241052D01*
X0233238Y0242466D02*
X0232671Y0242466D01*
X0232104Y0243033D01*
X0232104Y0244168D01*
X0232671Y0244735D01*
X0233238Y0244735D01*
X0233805Y0244168D01*
X0233805Y0243033D01*
X0233238Y0242466D01*
X0232104Y0243033D02*
X0231536Y0242466D01*
X0230969Y0242466D01*
X0230402Y0243033D01*
X0230402Y0244168D01*
X0230969Y0244735D01*
X0231536Y0244735D01*
X0232104Y0244168D01*
X0233238Y0247100D02*
X0230969Y0247100D01*
X0230402Y0247667D01*
X0230402Y0248801D01*
X0230969Y0249369D01*
X0231536Y0250783D02*
X0230402Y0251917D01*
X0233805Y0251917D01*
X0233805Y0250783D02*
X0233805Y0253052D01*
X0233238Y0254466D02*
X0233805Y0255033D01*
X0233805Y0256168D01*
X0233238Y0256735D01*
X0232671Y0256735D01*
X0232104Y0256168D01*
X0232104Y0254466D01*
X0233238Y0254466D01*
X0232104Y0254466D02*
X0230969Y0255601D01*
X0230402Y0256735D01*
X0228805Y0256168D02*
X0228805Y0255033D01*
X0228238Y0254466D01*
X0227104Y0254466D02*
X0226536Y0255601D01*
X0226536Y0256168D01*
X0227104Y0256735D01*
X0228238Y0256735D01*
X0228805Y0256168D01*
X0227104Y0254466D02*
X0225402Y0254466D01*
X0225402Y0256735D01*
X0225402Y0251917D02*
X0228805Y0251917D01*
X0228805Y0250783D02*
X0228805Y0253052D01*
X0226536Y0250783D02*
X0225402Y0251917D01*
X0225969Y0249369D02*
X0225402Y0248801D01*
X0225402Y0247667D01*
X0225969Y0247100D01*
X0228238Y0247100D01*
X0228805Y0247667D01*
X0228805Y0248801D01*
X0228238Y0249369D01*
X0233238Y0249369D02*
X0233805Y0248801D01*
X0233805Y0247667D01*
X0233238Y0247100D01*
X0228805Y0242466D02*
X0228238Y0242466D01*
X0225969Y0244735D01*
X0225402Y0244735D01*
X0225402Y0242466D01*
X0225402Y0239917D02*
X0228805Y0239917D01*
X0228805Y0238783D02*
X0228805Y0241052D01*
X0226536Y0238783D02*
X0225402Y0239917D01*
X0225969Y0237369D02*
X0225402Y0236801D01*
X0225402Y0235667D01*
X0225969Y0235100D01*
X0228238Y0235100D01*
X0228805Y0235667D01*
X0228805Y0236801D01*
X0228238Y0237369D01*
X0233238Y0237369D02*
X0233805Y0236801D01*
X0233805Y0235667D01*
X0233238Y0235100D01*
X0216423Y0213503D02*
X0215289Y0213503D01*
X0214722Y0212936D01*
X0214722Y0212369D01*
X0215289Y0211801D01*
X0216423Y0211801D01*
X0216990Y0211234D01*
X0216990Y0210667D01*
X0216423Y0210100D01*
X0215289Y0210100D01*
X0214722Y0210667D01*
X0214722Y0211234D01*
X0215289Y0211801D01*
X0216423Y0211801D02*
X0216990Y0212369D01*
X0216990Y0212936D01*
X0216423Y0213503D01*
X0213307Y0213503D02*
X0213307Y0210667D01*
X0212740Y0210100D01*
X0211606Y0210100D01*
X0211039Y0210667D01*
X0211039Y0213503D01*
X0210457Y0203062D02*
X0209323Y0203062D01*
X0208755Y0202495D01*
X0208755Y0200226D01*
X0209323Y0199659D01*
X0210457Y0199659D01*
X0211024Y0200226D01*
X0212439Y0200226D02*
X0213006Y0199659D01*
X0214140Y0199659D01*
X0214707Y0200226D01*
X0214707Y0200793D01*
X0214140Y0201361D01*
X0213573Y0201361D01*
X0214140Y0201361D02*
X0214707Y0201928D01*
X0214707Y0202495D01*
X0214140Y0203062D01*
X0213006Y0203062D01*
X0212439Y0202495D01*
X0211024Y0202495D02*
X0210457Y0203062D01*
X0216122Y0201928D02*
X0217256Y0203062D01*
X0217256Y0199659D01*
X0216122Y0199659D02*
X0218390Y0199659D01*
X0206357Y0224100D02*
X0204088Y0224100D01*
X0205222Y0224100D02*
X0205222Y0227503D01*
X0204088Y0226369D01*
X0202674Y0226936D02*
X0202674Y0227503D01*
X0202674Y0226936D02*
X0201539Y0225801D01*
X0201539Y0224100D01*
X0201539Y0225801D02*
X0200405Y0226936D01*
X0200405Y0227503D01*
X0164040Y0224936D02*
X0163473Y0225503D01*
X0162338Y0225503D01*
X0161771Y0224936D01*
X0160357Y0224936D02*
X0159790Y0225503D01*
X0158655Y0225503D01*
X0158088Y0224936D01*
X0156674Y0224936D02*
X0156106Y0225503D01*
X0154972Y0225503D01*
X0154405Y0224936D01*
X0154405Y0222667D01*
X0154972Y0222100D01*
X0156106Y0222100D01*
X0156674Y0222667D01*
X0158088Y0222100D02*
X0160357Y0224369D01*
X0160357Y0224936D01*
X0160357Y0222100D02*
X0158088Y0222100D01*
X0161771Y0222100D02*
X0164040Y0224369D01*
X0164040Y0224936D01*
X0164040Y0222100D02*
X0161771Y0222100D01*
X0151780Y0231811D02*
X0152347Y0232378D01*
X0152347Y0232945D01*
X0151780Y0233512D01*
X0150078Y0233512D01*
X0150078Y0232378D01*
X0150645Y0231811D01*
X0151780Y0231811D01*
X0150078Y0233512D02*
X0151213Y0234646D01*
X0152347Y0235214D01*
X0148664Y0235214D02*
X0148664Y0232378D01*
X0148097Y0231811D01*
X0146962Y0231811D01*
X0146395Y0232378D01*
X0146395Y0235214D01*
X0142081Y0208004D02*
X0140613Y0206536D01*
X0140613Y0203600D01*
X0140613Y0205802D02*
X0143549Y0205802D01*
X0143549Y0206536D02*
X0143549Y0203600D01*
X0143549Y0206536D02*
X0142081Y0208004D01*
X0151966Y0174499D02*
X0151966Y0170096D01*
X0151966Y0172297D02*
X0154902Y0172297D01*
X0154902Y0170096D02*
X0154902Y0174499D01*
X0156570Y0174499D02*
X0156570Y0170830D01*
X0157304Y0170096D01*
X0158772Y0170096D01*
X0159506Y0170830D01*
X0159506Y0174499D01*
X0161174Y0173765D02*
X0161174Y0173031D01*
X0161908Y0172297D01*
X0163376Y0172297D01*
X0164110Y0171564D01*
X0164110Y0170830D01*
X0163376Y0170096D01*
X0161908Y0170096D01*
X0161174Y0170830D01*
X0161174Y0173765D02*
X0161908Y0174499D01*
X0163376Y0174499D01*
X0164110Y0173765D01*
X0165778Y0174499D02*
X0165778Y0170096D01*
X0165778Y0171564D02*
X0168714Y0174499D01*
X0170382Y0174499D02*
X0171850Y0174499D01*
X0171116Y0174499D02*
X0171116Y0170096D01*
X0170382Y0170096D02*
X0171850Y0170096D01*
X0173451Y0170096D02*
X0176387Y0170096D01*
X0174919Y0172297D02*
X0173451Y0172297D01*
X0173451Y0170096D02*
X0173451Y0174499D01*
X0176387Y0174499D01*
X0182659Y0173765D02*
X0183393Y0174499D01*
X0184861Y0174499D01*
X0185595Y0173765D01*
X0185595Y0173031D01*
X0182659Y0170096D01*
X0185595Y0170096D01*
X0187263Y0170096D02*
X0187263Y0170830D01*
X0187997Y0170830D01*
X0187997Y0170096D01*
X0187263Y0170096D01*
X0189565Y0170830D02*
X0192501Y0173765D01*
X0192501Y0170830D01*
X0191767Y0170096D01*
X0190299Y0170096D01*
X0189565Y0170830D01*
X0189565Y0173765D01*
X0190299Y0174499D01*
X0191767Y0174499D01*
X0192501Y0173765D01*
X0168714Y0170096D02*
X0166512Y0172297D01*
X0119641Y0155770D02*
X0119641Y0152834D01*
X0118907Y0152100D01*
X0117439Y0152100D01*
X0116705Y0152834D01*
X0117439Y0154302D02*
X0119641Y0154302D01*
X0119641Y0155770D02*
X0118907Y0156504D01*
X0117439Y0156504D01*
X0116705Y0155770D01*
X0116705Y0155036D01*
X0117439Y0154302D01*
X0233405Y0120004D02*
X0233405Y0115600D01*
X0233405Y0117068D02*
X0235607Y0117068D01*
X0236341Y0117802D01*
X0236341Y0119270D01*
X0235607Y0120004D01*
X0233405Y0120004D01*
X0234873Y0117068D02*
X0236341Y0115600D01*
X0238009Y0115600D02*
X0238009Y0120004D01*
X0240211Y0120004D01*
X0240945Y0119270D01*
X0240945Y0117802D01*
X0240211Y0117068D01*
X0238009Y0117068D01*
X0239477Y0117068D02*
X0240945Y0115600D01*
X0247217Y0115600D02*
X0247217Y0118536D01*
X0248685Y0120004D01*
X0250153Y0118536D01*
X0250153Y0115600D01*
X0251821Y0115600D02*
X0253289Y0115600D01*
X0252555Y0115600D02*
X0252555Y0120004D01*
X0251821Y0120004D02*
X0253289Y0120004D01*
X0250153Y0117802D02*
X0247217Y0117802D01*
X0272405Y0117068D02*
X0274607Y0117068D01*
X0275341Y0117802D01*
X0275341Y0119270D01*
X0274607Y0120004D01*
X0272405Y0120004D01*
X0272405Y0115600D01*
X0273873Y0117068D02*
X0275341Y0115600D01*
X0277009Y0115600D02*
X0277009Y0120004D01*
X0279211Y0120004D01*
X0279945Y0119270D01*
X0279945Y0117802D01*
X0279211Y0117068D01*
X0277009Y0117068D01*
X0278477Y0117068D02*
X0279945Y0115600D01*
X0283373Y0111804D02*
X0283373Y0107400D01*
X0281905Y0107400D02*
X0284841Y0107400D01*
X0281905Y0110336D02*
X0283373Y0111804D01*
X0286217Y0115600D02*
X0286217Y0118536D01*
X0287685Y0120004D01*
X0289153Y0118536D01*
X0289153Y0115600D01*
X0290821Y0116334D02*
X0290821Y0119270D01*
X0291555Y0120004D01*
X0293023Y0120004D01*
X0293757Y0119270D01*
X0293757Y0116334D01*
X0293023Y0115600D01*
X0291555Y0115600D01*
X0290821Y0116334D01*
X0289153Y0117802D02*
X0286217Y0117802D01*
X0297505Y0124234D02*
X0298239Y0123500D01*
X0299707Y0123500D01*
X0300441Y0124234D01*
X0300441Y0124968D01*
X0299707Y0125702D01*
X0298239Y0125702D01*
X0297505Y0126436D01*
X0297505Y0127170D01*
X0298239Y0127904D01*
X0299707Y0127904D01*
X0300441Y0127170D01*
X0301377Y0133600D02*
X0302845Y0135068D01*
X0302845Y0138004D01*
X0299909Y0138004D02*
X0299909Y0135068D01*
X0301377Y0133600D01*
X0298241Y0134334D02*
X0298241Y0135802D01*
X0297507Y0136536D01*
X0296773Y0136536D01*
X0295305Y0135802D01*
X0295305Y0138004D01*
X0298241Y0138004D01*
X0298241Y0134334D02*
X0297507Y0133600D01*
X0296039Y0133600D01*
X0295305Y0134334D01*
X0284107Y0101804D02*
X0282639Y0101804D01*
X0281905Y0101070D01*
X0284107Y0101804D02*
X0284841Y0101070D01*
X0284841Y0100336D01*
X0281905Y0097400D01*
X0284841Y0097400D01*
X0277356Y0092803D02*
X0277356Y0089400D01*
X0276222Y0089400D02*
X0278490Y0089400D01*
X0276222Y0091669D02*
X0277356Y0092803D01*
X0274807Y0092803D02*
X0273673Y0092803D01*
X0274240Y0092803D02*
X0274240Y0089967D01*
X0273673Y0089400D01*
X0273106Y0089400D01*
X0272539Y0089967D01*
X0268707Y0231900D02*
X0267239Y0231900D01*
X0266505Y0232634D01*
X0267239Y0234102D02*
X0266505Y0234836D01*
X0266505Y0235570D01*
X0267239Y0236304D01*
X0268707Y0236304D01*
X0269441Y0235570D01*
X0268707Y0234102D02*
X0269441Y0233368D01*
X0269441Y0232634D01*
X0268707Y0231900D01*
X0268707Y0234102D02*
X0267239Y0234102D01*
X0273305Y0238334D02*
X0274039Y0237600D01*
X0275507Y0237600D01*
X0276241Y0238334D01*
X0276241Y0239068D01*
X0275507Y0239802D01*
X0274773Y0239802D01*
X0275507Y0239802D02*
X0276241Y0240536D01*
X0276241Y0241270D01*
X0275507Y0242004D01*
X0274039Y0242004D01*
X0273305Y0241270D01*
X0276505Y0236304D02*
X0276505Y0233368D01*
X0277973Y0231900D01*
X0279441Y0233368D01*
X0279441Y0236304D01*
X0278643Y0237600D02*
X0277909Y0237600D01*
X0277909Y0238334D01*
X0278643Y0238334D01*
X0278643Y0237600D01*
X0280211Y0238334D02*
X0280945Y0237600D01*
X0282413Y0237600D01*
X0283147Y0238334D01*
X0283147Y0239068D01*
X0282413Y0239802D01*
X0281679Y0239802D01*
X0282413Y0239802D02*
X0283147Y0240536D01*
X0283147Y0241270D01*
X0282413Y0242004D01*
X0280945Y0242004D01*
X0280211Y0241270D01*
X0279905Y0255100D02*
X0279905Y0258503D01*
X0281606Y0258503D01*
X0282174Y0257936D01*
X0282174Y0256801D01*
X0281606Y0256234D01*
X0279905Y0256234D01*
X0281039Y0256234D02*
X0282174Y0255100D01*
X0283588Y0255100D02*
X0285857Y0257369D01*
X0285857Y0257936D01*
X0285290Y0258503D01*
X0284155Y0258503D01*
X0283588Y0257936D01*
X0283588Y0255100D02*
X0285857Y0255100D01*
X0208757Y0342900D02*
X0206488Y0342900D01*
X0207622Y0342900D02*
X0207622Y0346303D01*
X0206488Y0345169D01*
X0205074Y0346303D02*
X0205074Y0343467D01*
X0204506Y0342900D01*
X0203372Y0342900D01*
X0202805Y0343467D01*
X0202805Y0346303D01*
X0193907Y0344504D02*
X0193907Y0340100D01*
X0194641Y0342302D02*
X0191705Y0342302D01*
X0193907Y0344504D01*
X0104858Y0356961D02*
X0102590Y0356961D01*
X0104858Y0359230D01*
X0104858Y0359797D01*
X0104291Y0360364D01*
X0103157Y0360364D01*
X0102590Y0359797D01*
X0101175Y0360364D02*
X0100041Y0360364D01*
X0100608Y0360364D02*
X0100608Y0357528D01*
X0100041Y0356961D01*
X0099474Y0356961D01*
X0098907Y0357528D01*
X0283559Y0357667D02*
X0284126Y0357100D01*
X0284693Y0357100D01*
X0285260Y0357667D01*
X0285260Y0360503D01*
X0284693Y0360503D02*
X0285827Y0360503D01*
X0287242Y0359936D02*
X0287809Y0360503D01*
X0288943Y0360503D01*
X0289510Y0359936D01*
X0289510Y0359369D01*
X0288943Y0358801D01*
X0289510Y0358234D01*
X0289510Y0357667D01*
X0288943Y0357100D01*
X0287809Y0357100D01*
X0287242Y0357667D01*
X0288376Y0358801D02*
X0288943Y0358801D01*
D11*
X0278705Y0253400D02*
X0275705Y0253400D01*
X0278705Y0253400D02*
X0278705Y0249800D01*
X0274305Y0248200D02*
X0271905Y0248200D01*
X0267505Y0249800D02*
X0267505Y0253400D01*
X0270505Y0253400D01*
X0220774Y0210847D02*
X0220776Y0210886D01*
X0220782Y0210925D01*
X0220792Y0210963D01*
X0220805Y0211000D01*
X0220822Y0211035D01*
X0220842Y0211069D01*
X0220866Y0211100D01*
X0220893Y0211129D01*
X0220922Y0211155D01*
X0220954Y0211178D01*
X0220988Y0211198D01*
X0221024Y0211214D01*
X0221061Y0211226D01*
X0221100Y0211235D01*
X0221139Y0211240D01*
X0221178Y0211241D01*
X0221217Y0211238D01*
X0221256Y0211231D01*
X0221293Y0211220D01*
X0221330Y0211206D01*
X0221365Y0211188D01*
X0221398Y0211167D01*
X0221429Y0211142D01*
X0221457Y0211115D01*
X0221482Y0211085D01*
X0221504Y0211052D01*
X0221523Y0211018D01*
X0221538Y0210982D01*
X0221550Y0210944D01*
X0221558Y0210906D01*
X0221562Y0210867D01*
X0221562Y0210827D01*
X0221558Y0210788D01*
X0221550Y0210750D01*
X0221538Y0210712D01*
X0221523Y0210676D01*
X0221504Y0210642D01*
X0221482Y0210609D01*
X0221457Y0210579D01*
X0221429Y0210552D01*
X0221398Y0210527D01*
X0221365Y0210506D01*
X0221330Y0210488D01*
X0221293Y0210474D01*
X0221256Y0210463D01*
X0221217Y0210456D01*
X0221178Y0210453D01*
X0221139Y0210454D01*
X0221100Y0210459D01*
X0221061Y0210468D01*
X0221024Y0210480D01*
X0220988Y0210496D01*
X0220954Y0210516D01*
X0220922Y0210539D01*
X0220893Y0210565D01*
X0220866Y0210594D01*
X0220842Y0210625D01*
X0220822Y0210659D01*
X0220805Y0210694D01*
X0220792Y0210731D01*
X0220782Y0210769D01*
X0220776Y0210808D01*
X0220774Y0210847D01*
X0220774Y0176847D02*
X0220776Y0176886D01*
X0220782Y0176925D01*
X0220792Y0176963D01*
X0220805Y0177000D01*
X0220822Y0177035D01*
X0220842Y0177069D01*
X0220866Y0177100D01*
X0220893Y0177129D01*
X0220922Y0177155D01*
X0220954Y0177178D01*
X0220988Y0177198D01*
X0221024Y0177214D01*
X0221061Y0177226D01*
X0221100Y0177235D01*
X0221139Y0177240D01*
X0221178Y0177241D01*
X0221217Y0177238D01*
X0221256Y0177231D01*
X0221293Y0177220D01*
X0221330Y0177206D01*
X0221365Y0177188D01*
X0221398Y0177167D01*
X0221429Y0177142D01*
X0221457Y0177115D01*
X0221482Y0177085D01*
X0221504Y0177052D01*
X0221523Y0177018D01*
X0221538Y0176982D01*
X0221550Y0176944D01*
X0221558Y0176906D01*
X0221562Y0176867D01*
X0221562Y0176827D01*
X0221558Y0176788D01*
X0221550Y0176750D01*
X0221538Y0176712D01*
X0221523Y0176676D01*
X0221504Y0176642D01*
X0221482Y0176609D01*
X0221457Y0176579D01*
X0221429Y0176552D01*
X0221398Y0176527D01*
X0221365Y0176506D01*
X0221330Y0176488D01*
X0221293Y0176474D01*
X0221256Y0176463D01*
X0221217Y0176456D01*
X0221178Y0176453D01*
X0221139Y0176454D01*
X0221100Y0176459D01*
X0221061Y0176468D01*
X0221024Y0176480D01*
X0220988Y0176496D01*
X0220954Y0176516D01*
X0220922Y0176539D01*
X0220893Y0176565D01*
X0220866Y0176594D01*
X0220842Y0176625D01*
X0220822Y0176659D01*
X0220805Y0176694D01*
X0220792Y0176731D01*
X0220782Y0176769D01*
X0220776Y0176808D01*
X0220774Y0176847D01*
X0208105Y0159300D02*
X0208105Y0157800D01*
X0208105Y0159300D02*
X0178105Y0159300D01*
X0148105Y0159300D02*
X0118105Y0159300D01*
X0118105Y0157800D01*
X0097105Y0160800D02*
X0090105Y0160800D01*
X0090105Y0200800D02*
X0097105Y0200800D01*
X0097105Y0220800D02*
X0090105Y0220800D01*
X0090105Y0240800D02*
X0097105Y0240800D01*
X0097105Y0280800D02*
X0090105Y0280800D01*
D12*
X0129455Y0267453D02*
X0129455Y0264150D01*
X0131657Y0264150D02*
X0131657Y0267453D01*
X0130556Y0266352D01*
X0129455Y0267453D01*
X0133138Y0267453D02*
X0134239Y0267453D01*
X0133689Y0267453D02*
X0133689Y0264150D01*
X0134239Y0264150D02*
X0133138Y0264150D01*
X0135594Y0264700D02*
X0136144Y0264150D01*
X0137245Y0264150D01*
X0137795Y0264700D01*
X0137795Y0265251D01*
X0137245Y0265801D01*
X0136144Y0265801D01*
X0135594Y0266352D01*
X0135594Y0266902D01*
X0136144Y0267453D01*
X0137245Y0267453D01*
X0137795Y0266902D01*
X0139277Y0266902D02*
X0139277Y0264700D01*
X0139827Y0264150D01*
X0140928Y0264150D01*
X0141479Y0264700D01*
X0141479Y0266902D01*
X0140928Y0267453D01*
X0139827Y0267453D01*
X0139277Y0266902D01*
X0139023Y0257453D02*
X0136821Y0255251D01*
X0137372Y0255801D02*
X0139023Y0254150D01*
X0136821Y0254150D02*
X0136821Y0257453D01*
X0135340Y0254150D02*
X0133138Y0254150D01*
X0133138Y0257453D01*
X0131657Y0256902D02*
X0131106Y0257453D01*
X0130005Y0257453D01*
X0129455Y0256902D01*
X0129455Y0254700D01*
X0130005Y0254150D01*
X0131106Y0254150D01*
X0131657Y0254700D01*
X0195405Y0219500D02*
X0206805Y0208100D01*
X0205608Y0210650D02*
X0206659Y0211701D01*
X0206659Y0213803D01*
X0205608Y0214854D01*
X0202455Y0214854D01*
X0193043Y0213800D02*
X0193045Y0213998D01*
X0193053Y0214196D01*
X0193065Y0214393D01*
X0193082Y0214590D01*
X0193104Y0214787D01*
X0193130Y0214983D01*
X0193162Y0215178D01*
X0193198Y0215373D01*
X0193239Y0215566D01*
X0193285Y0215759D01*
X0193335Y0215950D01*
X0193390Y0216140D01*
X0193450Y0216329D01*
X0193514Y0216516D01*
X0193583Y0216701D01*
X0193657Y0216885D01*
X0193735Y0217067D01*
X0193817Y0217247D01*
X0193904Y0217425D01*
X0193995Y0217600D01*
X0194090Y0217774D01*
X0194190Y0217945D01*
X0194294Y0218113D01*
X0194402Y0218279D01*
X0194514Y0218442D01*
X0194630Y0218603D01*
X0194749Y0218760D01*
X0194873Y0218914D01*
X0195000Y0219066D01*
X0195131Y0219214D01*
X0195266Y0219359D01*
X0195404Y0219501D01*
X0195546Y0219639D01*
X0195691Y0219774D01*
X0195839Y0219905D01*
X0195991Y0220032D01*
X0196145Y0220156D01*
X0196302Y0220275D01*
X0196463Y0220391D01*
X0196626Y0220503D01*
X0196792Y0220611D01*
X0196960Y0220715D01*
X0197131Y0220815D01*
X0197305Y0220910D01*
X0197480Y0221001D01*
X0197658Y0221088D01*
X0197838Y0221170D01*
X0198020Y0221248D01*
X0198204Y0221322D01*
X0198389Y0221391D01*
X0198576Y0221455D01*
X0198765Y0221515D01*
X0198955Y0221570D01*
X0199146Y0221620D01*
X0199339Y0221666D01*
X0199532Y0221707D01*
X0199727Y0221743D01*
X0199922Y0221775D01*
X0200118Y0221801D01*
X0200315Y0221823D01*
X0200512Y0221840D01*
X0200709Y0221852D01*
X0200907Y0221860D01*
X0201105Y0221862D01*
X0201303Y0221860D01*
X0201501Y0221852D01*
X0201698Y0221840D01*
X0201895Y0221823D01*
X0202092Y0221801D01*
X0202288Y0221775D01*
X0202483Y0221743D01*
X0202678Y0221707D01*
X0202871Y0221666D01*
X0203064Y0221620D01*
X0203255Y0221570D01*
X0203445Y0221515D01*
X0203634Y0221455D01*
X0203821Y0221391D01*
X0204006Y0221322D01*
X0204190Y0221248D01*
X0204372Y0221170D01*
X0204552Y0221088D01*
X0204730Y0221001D01*
X0204905Y0220910D01*
X0205079Y0220815D01*
X0205250Y0220715D01*
X0205418Y0220611D01*
X0205584Y0220503D01*
X0205747Y0220391D01*
X0205908Y0220275D01*
X0206065Y0220156D01*
X0206219Y0220032D01*
X0206371Y0219905D01*
X0206519Y0219774D01*
X0206664Y0219639D01*
X0206806Y0219501D01*
X0206944Y0219359D01*
X0207079Y0219214D01*
X0207210Y0219066D01*
X0207337Y0218914D01*
X0207461Y0218760D01*
X0207580Y0218603D01*
X0207696Y0218442D01*
X0207808Y0218279D01*
X0207916Y0218113D01*
X0208020Y0217945D01*
X0208120Y0217774D01*
X0208215Y0217600D01*
X0208306Y0217425D01*
X0208393Y0217247D01*
X0208475Y0217067D01*
X0208553Y0216885D01*
X0208627Y0216701D01*
X0208696Y0216516D01*
X0208760Y0216329D01*
X0208820Y0216140D01*
X0208875Y0215950D01*
X0208925Y0215759D01*
X0208971Y0215566D01*
X0209012Y0215373D01*
X0209048Y0215178D01*
X0209080Y0214983D01*
X0209106Y0214787D01*
X0209128Y0214590D01*
X0209145Y0214393D01*
X0209157Y0214196D01*
X0209165Y0213998D01*
X0209167Y0213800D01*
X0209165Y0213602D01*
X0209157Y0213404D01*
X0209145Y0213207D01*
X0209128Y0213010D01*
X0209106Y0212813D01*
X0209080Y0212617D01*
X0209048Y0212422D01*
X0209012Y0212227D01*
X0208971Y0212034D01*
X0208925Y0211841D01*
X0208875Y0211650D01*
X0208820Y0211460D01*
X0208760Y0211271D01*
X0208696Y0211084D01*
X0208627Y0210899D01*
X0208553Y0210715D01*
X0208475Y0210533D01*
X0208393Y0210353D01*
X0208306Y0210175D01*
X0208215Y0210000D01*
X0208120Y0209826D01*
X0208020Y0209655D01*
X0207916Y0209487D01*
X0207808Y0209321D01*
X0207696Y0209158D01*
X0207580Y0208997D01*
X0207461Y0208840D01*
X0207337Y0208686D01*
X0207210Y0208534D01*
X0207079Y0208386D01*
X0206944Y0208241D01*
X0206806Y0208099D01*
X0206664Y0207961D01*
X0206519Y0207826D01*
X0206371Y0207695D01*
X0206219Y0207568D01*
X0206065Y0207444D01*
X0205908Y0207325D01*
X0205747Y0207209D01*
X0205584Y0207097D01*
X0205418Y0206989D01*
X0205250Y0206885D01*
X0205079Y0206785D01*
X0204905Y0206690D01*
X0204730Y0206599D01*
X0204552Y0206512D01*
X0204372Y0206430D01*
X0204190Y0206352D01*
X0204006Y0206278D01*
X0203821Y0206209D01*
X0203634Y0206145D01*
X0203445Y0206085D01*
X0203255Y0206030D01*
X0203064Y0205980D01*
X0202871Y0205934D01*
X0202678Y0205893D01*
X0202483Y0205857D01*
X0202288Y0205825D01*
X0202092Y0205799D01*
X0201895Y0205777D01*
X0201698Y0205760D01*
X0201501Y0205748D01*
X0201303Y0205740D01*
X0201105Y0205738D01*
X0200907Y0205740D01*
X0200709Y0205748D01*
X0200512Y0205760D01*
X0200315Y0205777D01*
X0200118Y0205799D01*
X0199922Y0205825D01*
X0199727Y0205857D01*
X0199532Y0205893D01*
X0199339Y0205934D01*
X0199146Y0205980D01*
X0198955Y0206030D01*
X0198765Y0206085D01*
X0198576Y0206145D01*
X0198389Y0206209D01*
X0198204Y0206278D01*
X0198020Y0206352D01*
X0197838Y0206430D01*
X0197658Y0206512D01*
X0197480Y0206599D01*
X0197305Y0206690D01*
X0197131Y0206785D01*
X0196960Y0206885D01*
X0196792Y0206989D01*
X0196626Y0207097D01*
X0196463Y0207209D01*
X0196302Y0207325D01*
X0196145Y0207444D01*
X0195991Y0207568D01*
X0195839Y0207695D01*
X0195691Y0207826D01*
X0195546Y0207961D01*
X0195404Y0208099D01*
X0195266Y0208241D01*
X0195131Y0208386D01*
X0195000Y0208534D01*
X0194873Y0208686D01*
X0194749Y0208840D01*
X0194630Y0208997D01*
X0194514Y0209158D01*
X0194402Y0209321D01*
X0194294Y0209487D01*
X0194190Y0209655D01*
X0194090Y0209826D01*
X0193995Y0210000D01*
X0193904Y0210175D01*
X0193817Y0210353D01*
X0193735Y0210533D01*
X0193657Y0210715D01*
X0193583Y0210899D01*
X0193514Y0211084D01*
X0193450Y0211271D01*
X0193390Y0211460D01*
X0193335Y0211650D01*
X0193285Y0211841D01*
X0193239Y0212034D01*
X0193198Y0212227D01*
X0193162Y0212422D01*
X0193130Y0212617D01*
X0193104Y0212813D01*
X0193082Y0213010D01*
X0193065Y0213207D01*
X0193053Y0213404D01*
X0193045Y0213602D01*
X0193043Y0213800D01*
X0196009Y0212752D02*
X0199162Y0212752D01*
X0200213Y0213803D01*
X0200213Y0215904D01*
X0199162Y0216955D01*
X0196009Y0216955D01*
X0196009Y0210650D01*
X0202455Y0210650D02*
X0205608Y0210650D01*
X0202455Y0210650D02*
X0202455Y0216955D01*
D13*
X0202428Y0294288D02*
X0217782Y0294288D01*
X0217782Y0305312D01*
X0202428Y0305312D01*
X0202428Y0294288D01*
X0205055Y0325100D02*
X0209305Y0325100D01*
X0205055Y0325100D02*
X0205055Y0340500D01*
X0209305Y0340500D01*
X0234905Y0340500D02*
X0239155Y0340500D01*
X0239155Y0325100D01*
X0234905Y0325100D01*
X0248349Y0365619D02*
X0248349Y0367391D01*
X0248349Y0365619D02*
X0249333Y0365619D01*
X0252877Y0365619D02*
X0253861Y0365619D01*
X0253861Y0367391D01*
X0266349Y0281981D02*
X0266349Y0280209D01*
X0266349Y0281981D02*
X0267333Y0281981D01*
X0270877Y0281981D02*
X0271861Y0281981D01*
X0271861Y0280209D01*
X0273349Y0280209D02*
X0273349Y0281981D01*
X0274333Y0281981D01*
X0277877Y0281981D02*
X0278861Y0281981D01*
X0278861Y0280209D01*
X0300105Y0243200D02*
X0303105Y0243200D01*
X0303105Y0242900D02*
X0303105Y0162200D01*
X0300105Y0162200D01*
X0299105Y0148000D02*
X0295105Y0148000D01*
X0296105Y0146200D02*
X0299105Y0146200D01*
X0299105Y0147900D01*
X0299105Y0146200D02*
X0302105Y0146200D01*
X0301005Y0144900D02*
X0297005Y0144900D01*
X0298105Y0143600D02*
X0300105Y0143600D01*
X0289105Y0232600D02*
X0287105Y0232600D01*
X0286005Y0233900D02*
X0290005Y0233900D01*
X0291105Y0235200D02*
X0288105Y0235200D01*
X0288105Y0237900D01*
X0288105Y0235200D02*
X0285105Y0235200D01*
X0106105Y0286200D02*
X0103105Y0286200D01*
X0103105Y0288900D01*
X0103105Y0286200D02*
X0100105Y0286200D01*
X0101005Y0284900D02*
X0105005Y0284900D01*
X0104105Y0283600D02*
X0102105Y0283600D01*
X0094105Y0148000D02*
X0090105Y0148000D01*
X0090105Y0147900D02*
X0090105Y0146200D01*
X0087105Y0146200D01*
X0088005Y0144900D02*
X0092005Y0144900D01*
X0091105Y0143600D02*
X0089105Y0143600D01*
X0090105Y0146200D02*
X0093105Y0146200D01*
D14*
X0205605Y0288300D02*
X0214105Y0288300D01*
X0214605Y0288800D01*
X0206042Y0312635D02*
X0206042Y0316965D01*
X0198168Y0316965D02*
X0198168Y0312635D01*
X0219034Y0373300D02*
X0219036Y0373474D01*
X0219043Y0373647D01*
X0219053Y0373820D01*
X0219068Y0373993D01*
X0219087Y0374166D01*
X0219111Y0374338D01*
X0219138Y0374509D01*
X0219170Y0374679D01*
X0219206Y0374849D01*
X0219246Y0375018D01*
X0219290Y0375186D01*
X0219338Y0375353D01*
X0219391Y0375518D01*
X0219447Y0375682D01*
X0219508Y0375845D01*
X0219572Y0376006D01*
X0219641Y0376165D01*
X0219713Y0376323D01*
X0219789Y0376479D01*
X0219869Y0376633D01*
X0219953Y0376785D01*
X0220040Y0376935D01*
X0220131Y0377083D01*
X0220226Y0377228D01*
X0220324Y0377372D01*
X0220426Y0377512D01*
X0220531Y0377650D01*
X0220639Y0377786D01*
X0220751Y0377919D01*
X0220866Y0378049D01*
X0220984Y0378176D01*
X0221105Y0378300D01*
X0221229Y0378421D01*
X0221356Y0378539D01*
X0221486Y0378654D01*
X0221619Y0378766D01*
X0221755Y0378874D01*
X0221893Y0378979D01*
X0222033Y0379081D01*
X0222177Y0379179D01*
X0222322Y0379274D01*
X0222470Y0379365D01*
X0222620Y0379452D01*
X0222772Y0379536D01*
X0222926Y0379616D01*
X0223082Y0379692D01*
X0223240Y0379764D01*
X0223399Y0379833D01*
X0223560Y0379897D01*
X0223723Y0379958D01*
X0223887Y0380014D01*
X0224052Y0380067D01*
X0224219Y0380115D01*
X0224387Y0380159D01*
X0224556Y0380199D01*
X0224726Y0380235D01*
X0224896Y0380267D01*
X0225067Y0380294D01*
X0225239Y0380318D01*
X0225412Y0380337D01*
X0225585Y0380352D01*
X0225758Y0380362D01*
X0225931Y0380369D01*
X0226105Y0380371D01*
X0226279Y0380369D01*
X0226452Y0380362D01*
X0226625Y0380352D01*
X0226798Y0380337D01*
X0226971Y0380318D01*
X0227143Y0380294D01*
X0227314Y0380267D01*
X0227484Y0380235D01*
X0227654Y0380199D01*
X0227823Y0380159D01*
X0227991Y0380115D01*
X0228158Y0380067D01*
X0228323Y0380014D01*
X0228487Y0379958D01*
X0228650Y0379897D01*
X0228811Y0379833D01*
X0228970Y0379764D01*
X0229128Y0379692D01*
X0229284Y0379616D01*
X0229438Y0379536D01*
X0229590Y0379452D01*
X0229740Y0379365D01*
X0229888Y0379274D01*
X0230033Y0379179D01*
X0230177Y0379081D01*
X0230317Y0378979D01*
X0230455Y0378874D01*
X0230591Y0378766D01*
X0230724Y0378654D01*
X0230854Y0378539D01*
X0230981Y0378421D01*
X0231105Y0378300D01*
X0231226Y0378176D01*
X0231344Y0378049D01*
X0231459Y0377919D01*
X0231571Y0377786D01*
X0231679Y0377650D01*
X0231784Y0377512D01*
X0231886Y0377372D01*
X0231984Y0377228D01*
X0232079Y0377083D01*
X0232170Y0376935D01*
X0232257Y0376785D01*
X0232341Y0376633D01*
X0232421Y0376479D01*
X0232497Y0376323D01*
X0232569Y0376165D01*
X0232638Y0376006D01*
X0232702Y0375845D01*
X0232763Y0375682D01*
X0232819Y0375518D01*
X0232872Y0375353D01*
X0232920Y0375186D01*
X0232964Y0375018D01*
X0233004Y0374849D01*
X0233040Y0374679D01*
X0233072Y0374509D01*
X0233099Y0374338D01*
X0233123Y0374166D01*
X0233142Y0373993D01*
X0233157Y0373820D01*
X0233167Y0373647D01*
X0233174Y0373474D01*
X0233176Y0373300D01*
X0233174Y0373126D01*
X0233167Y0372953D01*
X0233157Y0372780D01*
X0233142Y0372607D01*
X0233123Y0372434D01*
X0233099Y0372262D01*
X0233072Y0372091D01*
X0233040Y0371921D01*
X0233004Y0371751D01*
X0232964Y0371582D01*
X0232920Y0371414D01*
X0232872Y0371247D01*
X0232819Y0371082D01*
X0232763Y0370918D01*
X0232702Y0370755D01*
X0232638Y0370594D01*
X0232569Y0370435D01*
X0232497Y0370277D01*
X0232421Y0370121D01*
X0232341Y0369967D01*
X0232257Y0369815D01*
X0232170Y0369665D01*
X0232079Y0369517D01*
X0231984Y0369372D01*
X0231886Y0369228D01*
X0231784Y0369088D01*
X0231679Y0368950D01*
X0231571Y0368814D01*
X0231459Y0368681D01*
X0231344Y0368551D01*
X0231226Y0368424D01*
X0231105Y0368300D01*
X0230981Y0368179D01*
X0230854Y0368061D01*
X0230724Y0367946D01*
X0230591Y0367834D01*
X0230455Y0367726D01*
X0230317Y0367621D01*
X0230177Y0367519D01*
X0230033Y0367421D01*
X0229888Y0367326D01*
X0229740Y0367235D01*
X0229590Y0367148D01*
X0229438Y0367064D01*
X0229284Y0366984D01*
X0229128Y0366908D01*
X0228970Y0366836D01*
X0228811Y0366767D01*
X0228650Y0366703D01*
X0228487Y0366642D01*
X0228323Y0366586D01*
X0228158Y0366533D01*
X0227991Y0366485D01*
X0227823Y0366441D01*
X0227654Y0366401D01*
X0227484Y0366365D01*
X0227314Y0366333D01*
X0227143Y0366306D01*
X0226971Y0366282D01*
X0226798Y0366263D01*
X0226625Y0366248D01*
X0226452Y0366238D01*
X0226279Y0366231D01*
X0226105Y0366229D01*
X0225931Y0366231D01*
X0225758Y0366238D01*
X0225585Y0366248D01*
X0225412Y0366263D01*
X0225239Y0366282D01*
X0225067Y0366306D01*
X0224896Y0366333D01*
X0224726Y0366365D01*
X0224556Y0366401D01*
X0224387Y0366441D01*
X0224219Y0366485D01*
X0224052Y0366533D01*
X0223887Y0366586D01*
X0223723Y0366642D01*
X0223560Y0366703D01*
X0223399Y0366767D01*
X0223240Y0366836D01*
X0223082Y0366908D01*
X0222926Y0366984D01*
X0222772Y0367064D01*
X0222620Y0367148D01*
X0222470Y0367235D01*
X0222322Y0367326D01*
X0222177Y0367421D01*
X0222033Y0367519D01*
X0221893Y0367621D01*
X0221755Y0367726D01*
X0221619Y0367834D01*
X0221486Y0367946D01*
X0221356Y0368061D01*
X0221229Y0368179D01*
X0221105Y0368300D01*
X0220984Y0368424D01*
X0220866Y0368551D01*
X0220751Y0368681D01*
X0220639Y0368814D01*
X0220531Y0368950D01*
X0220426Y0369088D01*
X0220324Y0369228D01*
X0220226Y0369372D01*
X0220131Y0369517D01*
X0220040Y0369665D01*
X0219953Y0369815D01*
X0219869Y0369967D01*
X0219789Y0370121D01*
X0219713Y0370277D01*
X0219641Y0370435D01*
X0219572Y0370594D01*
X0219508Y0370755D01*
X0219447Y0370918D01*
X0219391Y0371082D01*
X0219338Y0371247D01*
X0219290Y0371414D01*
X0219246Y0371582D01*
X0219206Y0371751D01*
X0219170Y0371921D01*
X0219138Y0372091D01*
X0219111Y0372262D01*
X0219087Y0372434D01*
X0219068Y0372607D01*
X0219053Y0372780D01*
X0219043Y0372953D01*
X0219036Y0373126D01*
X0219034Y0373300D01*
X0272245Y0330800D02*
X0272247Y0330858D01*
X0272253Y0330916D01*
X0272263Y0330973D01*
X0272276Y0331030D01*
X0272294Y0331085D01*
X0272315Y0331139D01*
X0272339Y0331192D01*
X0272368Y0331243D01*
X0272399Y0331291D01*
X0272434Y0331338D01*
X0272472Y0331382D01*
X0272512Y0331423D01*
X0272556Y0331462D01*
X0272602Y0331497D01*
X0272650Y0331530D01*
X0272700Y0331559D01*
X0272753Y0331584D01*
X0272806Y0331606D01*
X0272861Y0331625D01*
X0272918Y0331639D01*
X0272975Y0331650D01*
X0273032Y0331657D01*
X0273090Y0331660D01*
X0273149Y0331659D01*
X0273206Y0331654D01*
X0273264Y0331645D01*
X0273321Y0331633D01*
X0273376Y0331616D01*
X0273431Y0331596D01*
X0273484Y0331572D01*
X0273535Y0331545D01*
X0273584Y0331514D01*
X0273631Y0331480D01*
X0273676Y0331443D01*
X0273718Y0331403D01*
X0273758Y0331360D01*
X0273794Y0331315D01*
X0273827Y0331267D01*
X0273857Y0331217D01*
X0273883Y0331166D01*
X0273906Y0331112D01*
X0273926Y0331057D01*
X0273941Y0331001D01*
X0273953Y0330945D01*
X0273961Y0330887D01*
X0273965Y0330829D01*
X0273965Y0330771D01*
X0273961Y0330713D01*
X0273953Y0330655D01*
X0273941Y0330599D01*
X0273926Y0330543D01*
X0273906Y0330488D01*
X0273883Y0330434D01*
X0273857Y0330383D01*
X0273827Y0330333D01*
X0273794Y0330285D01*
X0273758Y0330240D01*
X0273718Y0330197D01*
X0273676Y0330157D01*
X0273631Y0330120D01*
X0273584Y0330086D01*
X0273535Y0330055D01*
X0273484Y0330028D01*
X0273431Y0330004D01*
X0273376Y0329984D01*
X0273321Y0329967D01*
X0273264Y0329955D01*
X0273206Y0329946D01*
X0273149Y0329941D01*
X0273090Y0329940D01*
X0273032Y0329943D01*
X0272975Y0329950D01*
X0272918Y0329961D01*
X0272861Y0329975D01*
X0272806Y0329994D01*
X0272753Y0330016D01*
X0272700Y0330041D01*
X0272650Y0330070D01*
X0272602Y0330103D01*
X0272556Y0330138D01*
X0272512Y0330177D01*
X0272472Y0330218D01*
X0272434Y0330262D01*
X0272399Y0330309D01*
X0272368Y0330357D01*
X0272339Y0330408D01*
X0272315Y0330461D01*
X0272294Y0330515D01*
X0272276Y0330570D01*
X0272263Y0330627D01*
X0272253Y0330684D01*
X0272247Y0330742D01*
X0272245Y0330800D01*
X0273005Y0330800D02*
X0273007Y0330820D01*
X0273013Y0330838D01*
X0273022Y0330856D01*
X0273034Y0330871D01*
X0273049Y0330883D01*
X0273067Y0330892D01*
X0273085Y0330898D01*
X0273105Y0330900D01*
X0273125Y0330898D01*
X0273143Y0330892D01*
X0273161Y0330883D01*
X0273176Y0330871D01*
X0273188Y0330856D01*
X0273197Y0330838D01*
X0273203Y0330820D01*
X0273205Y0330800D01*
X0273203Y0330780D01*
X0273197Y0330762D01*
X0273188Y0330744D01*
X0273176Y0330729D01*
X0273161Y0330717D01*
X0273143Y0330708D01*
X0273125Y0330702D01*
X0273105Y0330700D01*
X0273085Y0330702D01*
X0273067Y0330708D01*
X0273049Y0330717D01*
X0273034Y0330729D01*
X0273022Y0330744D01*
X0273013Y0330762D01*
X0273007Y0330780D01*
X0273005Y0330800D01*
X0272605Y0330800D02*
X0272607Y0330844D01*
X0272613Y0330888D01*
X0272623Y0330931D01*
X0272636Y0330973D01*
X0272653Y0331014D01*
X0272674Y0331053D01*
X0272698Y0331090D01*
X0272725Y0331125D01*
X0272755Y0331157D01*
X0272788Y0331187D01*
X0272824Y0331213D01*
X0272861Y0331237D01*
X0272901Y0331256D01*
X0272942Y0331273D01*
X0272985Y0331285D01*
X0273028Y0331294D01*
X0273072Y0331299D01*
X0273116Y0331300D01*
X0273160Y0331297D01*
X0273204Y0331290D01*
X0273247Y0331279D01*
X0273289Y0331265D01*
X0273329Y0331247D01*
X0273368Y0331225D01*
X0273404Y0331201D01*
X0273438Y0331173D01*
X0273470Y0331142D01*
X0273499Y0331108D01*
X0273525Y0331072D01*
X0273547Y0331034D01*
X0273566Y0330994D01*
X0273581Y0330952D01*
X0273593Y0330910D01*
X0273601Y0330866D01*
X0273605Y0330822D01*
X0273605Y0330778D01*
X0273601Y0330734D01*
X0273593Y0330690D01*
X0273581Y0330648D01*
X0273566Y0330606D01*
X0273547Y0330566D01*
X0273525Y0330528D01*
X0273499Y0330492D01*
X0273470Y0330458D01*
X0273438Y0330427D01*
X0273404Y0330399D01*
X0273368Y0330375D01*
X0273329Y0330353D01*
X0273289Y0330335D01*
X0273247Y0330321D01*
X0273204Y0330310D01*
X0273160Y0330303D01*
X0273116Y0330300D01*
X0273072Y0330301D01*
X0273028Y0330306D01*
X0272985Y0330315D01*
X0272942Y0330327D01*
X0272901Y0330344D01*
X0272861Y0330363D01*
X0272824Y0330387D01*
X0272788Y0330413D01*
X0272755Y0330443D01*
X0272725Y0330475D01*
X0272698Y0330510D01*
X0272674Y0330547D01*
X0272653Y0330586D01*
X0272636Y0330627D01*
X0272623Y0330669D01*
X0272613Y0330712D01*
X0272607Y0330756D01*
X0272605Y0330800D01*
X0281412Y0295461D02*
X0294798Y0295461D01*
X0294798Y0278139D01*
X0281412Y0278139D01*
X0281412Y0295461D01*
X0283381Y0281139D02*
X0283383Y0281202D01*
X0283389Y0281264D01*
X0283399Y0281326D01*
X0283412Y0281388D01*
X0283430Y0281448D01*
X0283451Y0281507D01*
X0283476Y0281565D01*
X0283505Y0281621D01*
X0283537Y0281675D01*
X0283572Y0281727D01*
X0283610Y0281776D01*
X0283652Y0281824D01*
X0283696Y0281868D01*
X0283744Y0281910D01*
X0283793Y0281948D01*
X0283845Y0281983D01*
X0283899Y0282015D01*
X0283955Y0282044D01*
X0284013Y0282069D01*
X0284072Y0282090D01*
X0284132Y0282108D01*
X0284194Y0282121D01*
X0284256Y0282131D01*
X0284318Y0282137D01*
X0284381Y0282139D01*
X0284444Y0282137D01*
X0284506Y0282131D01*
X0284568Y0282121D01*
X0284630Y0282108D01*
X0284690Y0282090D01*
X0284749Y0282069D01*
X0284807Y0282044D01*
X0284863Y0282015D01*
X0284917Y0281983D01*
X0284969Y0281948D01*
X0285018Y0281910D01*
X0285066Y0281868D01*
X0285110Y0281824D01*
X0285152Y0281776D01*
X0285190Y0281727D01*
X0285225Y0281675D01*
X0285257Y0281621D01*
X0285286Y0281565D01*
X0285311Y0281507D01*
X0285332Y0281448D01*
X0285350Y0281388D01*
X0285363Y0281326D01*
X0285373Y0281264D01*
X0285379Y0281202D01*
X0285381Y0281139D01*
X0285379Y0281076D01*
X0285373Y0281014D01*
X0285363Y0280952D01*
X0285350Y0280890D01*
X0285332Y0280830D01*
X0285311Y0280771D01*
X0285286Y0280713D01*
X0285257Y0280657D01*
X0285225Y0280603D01*
X0285190Y0280551D01*
X0285152Y0280502D01*
X0285110Y0280454D01*
X0285066Y0280410D01*
X0285018Y0280368D01*
X0284969Y0280330D01*
X0284917Y0280295D01*
X0284863Y0280263D01*
X0284807Y0280234D01*
X0284749Y0280209D01*
X0284690Y0280188D01*
X0284630Y0280170D01*
X0284568Y0280157D01*
X0284506Y0280147D01*
X0284444Y0280141D01*
X0284381Y0280139D01*
X0284318Y0280141D01*
X0284256Y0280147D01*
X0284194Y0280157D01*
X0284132Y0280170D01*
X0284072Y0280188D01*
X0284013Y0280209D01*
X0283955Y0280234D01*
X0283899Y0280263D01*
X0283845Y0280295D01*
X0283793Y0280330D01*
X0283744Y0280368D01*
X0283696Y0280410D01*
X0283652Y0280454D01*
X0283610Y0280502D01*
X0283572Y0280551D01*
X0283537Y0280603D01*
X0283505Y0280657D01*
X0283476Y0280713D01*
X0283451Y0280771D01*
X0283430Y0280830D01*
X0283412Y0280890D01*
X0283399Y0280952D01*
X0283389Y0281014D01*
X0283383Y0281076D01*
X0283381Y0281139D01*
D15*
X0191936Y0199588D03*
X0184856Y0200004D03*
X0183773Y0195173D03*
X0186772Y0191508D03*
X0183940Y0207585D03*
X0183940Y0207668D03*
X0183940Y0212000D03*
X0176526Y0211750D03*
X0176526Y0211666D03*
X0176609Y0207085D03*
X0169029Y0207085D03*
X0169612Y0210833D03*
X0169612Y0210917D03*
X0161365Y0212166D03*
X0161365Y0212249D03*
X0160866Y0209334D03*
X0160866Y0209251D03*
X0155868Y0205669D03*
X0152619Y0202087D03*
X0152452Y0198172D03*
X0160116Y0197422D03*
X0160116Y0197339D03*
X0160199Y0201337D03*
X0160199Y0201420D03*
X0168196Y0177097D03*
D16*
X0168321Y0177180D03*
X0174735Y0187093D03*
X0174735Y0187176D03*
X0174735Y0187259D03*
X0174735Y0187343D03*
X0174735Y0187426D03*
X0174735Y0187509D03*
X0174735Y0187593D03*
X0174735Y0187676D03*
X0174735Y0187759D03*
X0174735Y0187843D03*
X0174735Y0187926D03*
X0174735Y0188009D03*
X0174735Y0188092D03*
X0174735Y0188176D03*
X0174735Y0188259D03*
X0174735Y0188342D03*
X0174735Y0188426D03*
X0174735Y0188509D03*
X0174735Y0188592D03*
X0174735Y0188676D03*
X0174735Y0188759D03*
X0174735Y0188842D03*
X0174735Y0188925D03*
X0174735Y0189009D03*
X0174735Y0189092D03*
X0174735Y0189175D03*
X0180899Y0189175D03*
X0180899Y0189259D03*
X0158991Y0185177D03*
X0158991Y0184844D03*
X0158991Y0184760D03*
X0155493Y0205169D03*
D17*
X0157325Y0195006D03*
X0172153Y0201837D03*
X0168404Y0177263D03*
D18*
X0168529Y0177347D03*
X0157367Y0195673D03*
X0155368Y0203836D03*
X0166113Y0205419D03*
X0164364Y0214332D03*
D19*
X0164781Y0213249D03*
X0165697Y0206502D03*
X0155868Y0202920D03*
X0179858Y0205919D03*
X0180691Y0213582D03*
X0188271Y0200754D03*
X0168612Y0177430D03*
D20*
X0168696Y0177513D03*
D21*
X0168821Y0177597D03*
X0172319Y0199421D03*
D22*
X0172278Y0198838D03*
X0168946Y0177680D03*
D23*
X0169029Y0177763D03*
X0172194Y0198172D03*
X0172194Y0198255D03*
D24*
X0172111Y0197589D03*
X0169112Y0177847D03*
D25*
X0169237Y0177930D03*
D26*
X0169320Y0178013D03*
D27*
X0169404Y0178096D03*
X0171819Y0196006D03*
D28*
X0171736Y0195506D03*
X0169570Y0178180D03*
D29*
X0169654Y0178263D03*
X0171570Y0195006D03*
D30*
X0171445Y0194673D03*
X0169779Y0178346D03*
D31*
X0169904Y0178430D03*
D32*
X0170029Y0178513D03*
D33*
X0170112Y0178596D03*
D34*
X0170278Y0178680D03*
D35*
X0170362Y0178763D03*
D36*
X0170487Y0178846D03*
D37*
X0170653Y0178929D03*
X0170653Y0192757D03*
D38*
X0170570Y0192424D03*
X0170737Y0179013D03*
D39*
X0170820Y0179096D03*
D40*
X0170862Y0179179D03*
D41*
X0170903Y0179263D03*
X0170487Y0191841D03*
D42*
X0170403Y0191591D03*
X0170903Y0179346D03*
D43*
X0170945Y0179429D03*
D44*
X0170986Y0179513D03*
X0170320Y0191175D03*
D45*
X0170986Y0179596D03*
D46*
X0171028Y0179679D03*
D47*
X0171028Y0179762D03*
X0170195Y0190758D03*
D48*
X0170153Y0190591D03*
X0171070Y0179846D03*
D49*
X0171070Y0179929D03*
D50*
X0171070Y0180012D03*
X0170153Y0190342D03*
D51*
X0170195Y0190092D03*
X0171111Y0180096D03*
D52*
X0171111Y0180179D03*
D53*
X0171111Y0180262D03*
D54*
X0171111Y0180346D03*
D55*
X0171111Y0180429D03*
D56*
X0171153Y0180512D03*
D57*
X0171153Y0180595D03*
D58*
X0171153Y0180679D03*
D59*
X0171153Y0180762D03*
D60*
X0171195Y0180845D03*
D61*
X0171195Y0180929D03*
D62*
X0171195Y0181012D03*
D63*
X0171195Y0181095D03*
X0171195Y0181179D03*
D64*
X0171195Y0181262D03*
D65*
X0171236Y0181345D03*
D66*
X0171195Y0181428D03*
D67*
X0171195Y0181512D03*
D68*
X0171236Y0181595D03*
D69*
X0171195Y0181678D03*
D70*
X0171236Y0181762D03*
D71*
X0171195Y0181845D03*
D72*
X0171236Y0181928D03*
D73*
X0171195Y0182012D03*
D74*
X0171236Y0182095D03*
D75*
X0171195Y0182178D03*
D76*
X0171236Y0182261D03*
X0171236Y0182345D03*
D77*
X0171236Y0182428D03*
X0171236Y0182511D03*
D78*
X0171195Y0182595D03*
D79*
X0171236Y0182678D03*
X0171236Y0182761D03*
D80*
X0171195Y0182845D03*
D81*
X0171236Y0182928D03*
X0171236Y0183011D03*
D82*
X0171195Y0183094D03*
X0171195Y0183178D03*
X0171195Y0183261D03*
D83*
X0171236Y0183344D03*
D84*
X0171195Y0183428D03*
X0171195Y0183511D03*
X0171195Y0183594D03*
X0171195Y0183678D03*
D85*
X0171153Y0183761D03*
X0171153Y0183844D03*
X0171153Y0183927D03*
X0171153Y0184011D03*
X0171153Y0184094D03*
X0171153Y0184177D03*
D86*
X0171111Y0184261D03*
X0171111Y0184344D03*
X0171111Y0184427D03*
X0171111Y0184511D03*
X0171111Y0184594D03*
D87*
X0180941Y0189092D03*
X0159033Y0185260D03*
X0159033Y0184677D03*
X0157034Y0194507D03*
X0180608Y0215248D03*
D88*
X0180316Y0203086D03*
X0188979Y0204086D03*
X0186564Y0191091D03*
X0165739Y0189842D03*
X0165739Y0184677D03*
X0156159Y0206002D03*
D89*
X0156492Y0193507D03*
X0165739Y0189758D03*
X0168154Y0189175D03*
X0168154Y0189092D03*
X0168154Y0189009D03*
X0168154Y0188925D03*
X0168154Y0188842D03*
X0168154Y0188759D03*
X0168154Y0188676D03*
X0168154Y0188592D03*
X0168154Y0188509D03*
X0168154Y0188426D03*
X0168154Y0188342D03*
X0168154Y0188259D03*
X0168154Y0188176D03*
X0168154Y0188092D03*
X0168154Y0188009D03*
X0168154Y0187926D03*
X0168154Y0187843D03*
X0168154Y0187759D03*
X0168154Y0187676D03*
X0168154Y0187593D03*
X0168154Y0187509D03*
X0168154Y0187426D03*
X0168154Y0187343D03*
X0168154Y0187259D03*
X0168154Y0187176D03*
X0168154Y0187093D03*
X0168154Y0187010D03*
X0168154Y0186926D03*
X0168154Y0186843D03*
X0168154Y0186760D03*
X0168154Y0186676D03*
X0168154Y0186593D03*
X0168154Y0186510D03*
X0168154Y0186426D03*
X0168154Y0186343D03*
X0168154Y0186260D03*
X0168154Y0186177D03*
X0168154Y0186093D03*
X0168154Y0186010D03*
X0168154Y0185927D03*
X0168154Y0185843D03*
X0168154Y0185760D03*
X0168154Y0185677D03*
X0168154Y0185593D03*
X0168154Y0185510D03*
X0168154Y0185427D03*
X0168154Y0185344D03*
X0170487Y0184677D03*
X0172986Y0185344D03*
X0172986Y0185427D03*
X0172986Y0185510D03*
X0172986Y0185593D03*
X0172986Y0185677D03*
X0172986Y0185760D03*
X0172986Y0185843D03*
X0172986Y0185927D03*
X0172986Y0186010D03*
X0172986Y0186093D03*
X0172986Y0186177D03*
X0172986Y0186260D03*
X0170487Y0189842D03*
X0165739Y0184760D03*
X0189063Y0204169D03*
D90*
X0189104Y0204253D03*
X0175360Y0184677D03*
X0165780Y0184844D03*
D91*
X0157242Y0194840D03*
X0179816Y0204503D03*
X0182648Y0184677D03*
D92*
X0186480Y0191008D03*
X0180316Y0203003D03*
X0180316Y0216414D03*
X0165822Y0216581D03*
X0164656Y0203170D03*
X0156242Y0206085D03*
X0165739Y0189675D03*
X0170487Y0189758D03*
X0170487Y0184760D03*
D93*
X0175360Y0184760D03*
X0186439Y0190925D03*
D94*
X0181441Y0187843D03*
X0181441Y0187759D03*
X0182690Y0184760D03*
X0188271Y0202587D03*
X0180691Y0214915D03*
X0164364Y0215581D03*
D95*
X0170487Y0189675D03*
X0170487Y0184844D03*
D96*
X0170570Y0185094D03*
X0170570Y0185177D03*
X0170570Y0185260D03*
X0170570Y0185344D03*
X0170570Y0185427D03*
X0170570Y0185510D03*
X0170570Y0185593D03*
X0170570Y0185677D03*
X0170570Y0185760D03*
X0170570Y0185843D03*
X0170570Y0185927D03*
X0170570Y0186010D03*
X0170570Y0186093D03*
X0170570Y0186177D03*
X0170570Y0186260D03*
X0170570Y0186343D03*
X0170570Y0186426D03*
X0170570Y0186510D03*
X0170570Y0186593D03*
X0170570Y0186676D03*
X0170570Y0186760D03*
X0170570Y0186843D03*
X0170570Y0186926D03*
X0170570Y0187010D03*
X0170570Y0187093D03*
X0170570Y0187176D03*
X0170570Y0187259D03*
X0170570Y0187343D03*
X0170570Y0187426D03*
X0170570Y0187509D03*
X0170570Y0187593D03*
X0170570Y0187676D03*
X0170570Y0187759D03*
X0170570Y0187843D03*
X0170570Y0187926D03*
X0170570Y0188009D03*
X0170570Y0188092D03*
X0170570Y0188176D03*
X0170570Y0188259D03*
X0170570Y0188342D03*
X0170570Y0188426D03*
X0170570Y0188509D03*
X0170570Y0188592D03*
X0170570Y0188676D03*
X0170570Y0188759D03*
X0170570Y0188842D03*
X0170570Y0188925D03*
X0170570Y0189009D03*
X0170570Y0189092D03*
X0170570Y0189175D03*
X0170570Y0189259D03*
X0170570Y0189342D03*
X0170570Y0189425D03*
X0170570Y0189509D03*
X0175401Y0185177D03*
X0175401Y0185094D03*
X0175401Y0184844D03*
X0165739Y0185094D03*
X0165739Y0186760D03*
X0165739Y0186843D03*
X0165739Y0186926D03*
X0165739Y0187593D03*
X0165739Y0187676D03*
X0165739Y0187759D03*
X0165739Y0187843D03*
X0165739Y0189342D03*
X0165739Y0189425D03*
X0156242Y0206169D03*
X0165905Y0216664D03*
X0189146Y0204336D03*
D97*
X0187313Y0192424D03*
X0181399Y0187926D03*
X0182732Y0185177D03*
X0182732Y0185094D03*
X0182732Y0185010D03*
X0182732Y0184927D03*
X0182732Y0184844D03*
X0155243Y0204919D03*
D98*
X0164697Y0215831D03*
X0172028Y0202337D03*
X0180858Y0189342D03*
X0187105Y0192091D03*
X0188438Y0203003D03*
X0158950Y0185094D03*
X0158950Y0185010D03*
X0158950Y0184927D03*
D99*
X0165739Y0184927D03*
X0165655Y0187176D03*
X0165655Y0187259D03*
X0165655Y0187343D03*
X0165739Y0189592D03*
X0156409Y0193424D03*
X0180316Y0202920D03*
X0180316Y0216498D03*
D100*
X0170528Y0189592D03*
X0170528Y0185010D03*
X0170528Y0184927D03*
X0175443Y0185260D03*
X0165780Y0185010D03*
X0165697Y0187010D03*
X0165697Y0187093D03*
X0165697Y0187426D03*
X0165697Y0187509D03*
X0165780Y0189509D03*
D101*
X0165780Y0189259D03*
X0165780Y0189175D03*
X0165780Y0189092D03*
X0165780Y0189009D03*
X0165780Y0188925D03*
X0165780Y0188842D03*
X0165780Y0188759D03*
X0165780Y0188676D03*
X0165780Y0188592D03*
X0165780Y0188509D03*
X0165780Y0188426D03*
X0165780Y0188342D03*
X0165780Y0188259D03*
X0165780Y0188176D03*
X0165780Y0188092D03*
X0165780Y0188009D03*
X0165780Y0187926D03*
X0165780Y0186676D03*
X0165780Y0186593D03*
X0165780Y0186510D03*
X0165780Y0186426D03*
X0165780Y0186343D03*
X0165780Y0186260D03*
X0165780Y0186177D03*
X0165780Y0186093D03*
X0165780Y0186010D03*
X0165780Y0185927D03*
X0165780Y0185843D03*
X0165780Y0185760D03*
X0165780Y0185677D03*
X0165780Y0185593D03*
X0165780Y0185510D03*
X0165780Y0185427D03*
X0165780Y0185344D03*
X0165780Y0185260D03*
X0165780Y0185177D03*
X0175360Y0185010D03*
X0175360Y0184927D03*
X0180358Y0202837D03*
X0164531Y0203086D03*
X0156367Y0193340D03*
D102*
X0157200Y0194756D03*
X0181357Y0188009D03*
X0182690Y0185510D03*
X0182690Y0185427D03*
X0182690Y0185344D03*
X0182690Y0185260D03*
X0180691Y0214998D03*
D103*
X0188021Y0202087D03*
X0166363Y0204669D03*
X0164114Y0214998D03*
X0164114Y0215082D03*
X0154951Y0204503D03*
X0160282Y0186593D03*
X0160282Y0186510D03*
X0160282Y0186426D03*
X0160282Y0186343D03*
X0160282Y0186260D03*
X0160282Y0186177D03*
X0160282Y0186093D03*
X0160282Y0186010D03*
X0160282Y0185927D03*
X0160282Y0185843D03*
X0160282Y0185760D03*
X0160282Y0185677D03*
X0160282Y0185593D03*
X0160282Y0185510D03*
X0160282Y0185427D03*
X0160282Y0185344D03*
D104*
X0160491Y0199255D03*
X0160491Y0199338D03*
X0160491Y0199421D03*
X0164906Y0203420D03*
X0169570Y0208501D03*
X0169570Y0208584D03*
X0169654Y0208917D03*
X0169654Y0209001D03*
X0169654Y0209084D03*
X0169654Y0209167D03*
X0176151Y0208751D03*
X0176151Y0208668D03*
X0176151Y0208584D03*
X0176151Y0208501D03*
X0176151Y0208418D03*
X0176151Y0209917D03*
X0176151Y0210000D03*
X0176151Y0210084D03*
X0176151Y0210167D03*
X0176151Y0210250D03*
X0184314Y0210250D03*
X0184314Y0210167D03*
X0184314Y0210084D03*
X0184314Y0210000D03*
X0184314Y0209917D03*
X0184314Y0209834D03*
X0184314Y0209750D03*
X0184314Y0209667D03*
X0184314Y0209584D03*
X0184314Y0209501D03*
X0184314Y0209417D03*
X0184314Y0209334D03*
X0184314Y0210334D03*
X0184314Y0210417D03*
X0184314Y0210500D03*
X0184231Y0199088D03*
X0184231Y0199005D03*
X0183648Y0196339D03*
X0183648Y0196256D03*
X0191562Y0196173D03*
X0191562Y0196089D03*
X0191978Y0198172D03*
X0191978Y0198255D03*
X0176068Y0186843D03*
X0176068Y0186760D03*
X0176068Y0186676D03*
X0176068Y0186593D03*
X0176068Y0186510D03*
X0176068Y0186426D03*
X0176068Y0186343D03*
X0176068Y0186260D03*
X0176068Y0186177D03*
X0176068Y0186093D03*
X0176068Y0186010D03*
X0176068Y0185927D03*
X0176068Y0185843D03*
X0176068Y0185760D03*
X0176068Y0185677D03*
X0176068Y0185593D03*
X0176068Y0185510D03*
X0176068Y0185427D03*
X0176068Y0185344D03*
X0155992Y0205835D03*
D105*
X0164322Y0202920D03*
X0166155Y0216831D03*
X0178483Y0186843D03*
X0178483Y0186760D03*
X0178483Y0186676D03*
X0178483Y0186593D03*
X0178483Y0186510D03*
X0178483Y0186426D03*
X0178483Y0186343D03*
X0178483Y0186260D03*
X0178483Y0186177D03*
X0178483Y0186093D03*
X0178483Y0186010D03*
X0178483Y0185927D03*
X0178483Y0185843D03*
X0178483Y0185760D03*
X0178483Y0185677D03*
X0178483Y0185593D03*
X0178483Y0185510D03*
X0178483Y0185427D03*
X0178483Y0185344D03*
D106*
X0181316Y0188092D03*
X0181316Y0188176D03*
X0182648Y0185843D03*
X0182648Y0185760D03*
X0182648Y0185677D03*
X0182648Y0185593D03*
X0188313Y0202670D03*
X0179816Y0204419D03*
D107*
X0187272Y0192341D03*
X0181274Y0188259D03*
X0182607Y0186093D03*
X0182607Y0186010D03*
X0182607Y0185927D03*
X0159449Y0186926D03*
D108*
X0155326Y0205002D03*
X0181232Y0188342D03*
X0182565Y0186260D03*
X0182565Y0186177D03*
X0188313Y0202753D03*
D109*
X0179858Y0204336D03*
X0180691Y0215082D03*
X0165864Y0204169D03*
X0159533Y0187593D03*
X0159366Y0187093D03*
X0181191Y0188426D03*
X0181191Y0188509D03*
X0182524Y0186426D03*
X0182524Y0186343D03*
D110*
X0182482Y0186510D03*
X0182482Y0186593D03*
X0182232Y0187010D03*
X0181149Y0188592D03*
X0159408Y0187509D03*
X0159408Y0187426D03*
X0159324Y0187176D03*
D111*
X0160324Y0186760D03*
X0160324Y0186676D03*
X0172236Y0201587D03*
X0179650Y0204919D03*
X0164073Y0215165D03*
D112*
X0159366Y0187343D03*
X0159366Y0187259D03*
X0181107Y0188676D03*
X0182440Y0186760D03*
X0182440Y0186676D03*
D113*
X0187522Y0192841D03*
X0180774Y0214499D03*
X0166363Y0204586D03*
X0164031Y0215248D03*
X0157450Y0195173D03*
X0160449Y0187926D03*
X0160282Y0186843D03*
D114*
X0182357Y0186843D03*
X0182357Y0186926D03*
X0187188Y0192257D03*
X0188355Y0202837D03*
D115*
X0188854Y0203836D03*
X0191520Y0196006D03*
X0176026Y0186926D03*
X0169612Y0208668D03*
X0169612Y0208751D03*
X0169612Y0208834D03*
X0180441Y0216081D03*
D116*
X0189271Y0204586D03*
X0178525Y0186926D03*
D117*
X0172069Y0202170D03*
X0164489Y0215665D03*
X0157159Y0194673D03*
X0159408Y0187010D03*
D118*
X0160407Y0198338D03*
X0160407Y0198422D03*
X0160407Y0198505D03*
X0160407Y0200171D03*
X0160407Y0200254D03*
X0160407Y0200338D03*
X0152244Y0200671D03*
X0152244Y0200754D03*
X0152244Y0200837D03*
X0152244Y0200921D03*
X0152244Y0201004D03*
X0152244Y0199671D03*
X0152244Y0199588D03*
X0152244Y0199505D03*
X0152244Y0199421D03*
X0169404Y0207835D03*
X0169404Y0207918D03*
X0169487Y0208084D03*
X0169654Y0209584D03*
X0169654Y0209667D03*
X0184398Y0199338D03*
X0183648Y0196006D03*
X0183648Y0195923D03*
X0191395Y0195756D03*
X0175984Y0187010D03*
D119*
X0178567Y0187010D03*
X0186314Y0190675D03*
X0180399Y0202670D03*
X0156409Y0206335D03*
X0156242Y0193174D03*
D120*
X0157284Y0194923D03*
X0181691Y0187093D03*
D121*
X0181649Y0187176D03*
X0187397Y0192591D03*
X0172153Y0201920D03*
X0164239Y0215498D03*
D122*
X0179775Y0204586D03*
X0181607Y0187343D03*
X0181607Y0187259D03*
D123*
X0181566Y0187426D03*
X0188230Y0202503D03*
X0180733Y0214832D03*
X0166072Y0204336D03*
X0155159Y0204836D03*
D124*
X0172111Y0202004D03*
X0181524Y0187593D03*
X0181524Y0187509D03*
X0187355Y0192507D03*
D125*
X0160366Y0187676D03*
D126*
X0181482Y0187676D03*
D127*
X0172236Y0201670D03*
X0163989Y0215332D03*
X0154993Y0204586D03*
X0160491Y0188176D03*
X0160491Y0188092D03*
X0160491Y0188009D03*
X0160407Y0187843D03*
X0160407Y0187759D03*
X0188063Y0202170D03*
D128*
X0160532Y0188509D03*
X0160532Y0188426D03*
X0160532Y0188342D03*
X0160532Y0188259D03*
D129*
X0160574Y0188592D03*
X0160574Y0188676D03*
X0160574Y0188759D03*
X0179650Y0204836D03*
X0180816Y0214582D03*
D130*
X0180649Y0215165D03*
X0181066Y0188759D03*
X0157075Y0194590D03*
X0155409Y0205086D03*
D131*
X0157367Y0195090D03*
X0160616Y0189009D03*
X0160616Y0188925D03*
X0160616Y0188842D03*
X0166280Y0204503D03*
X0172194Y0201754D03*
X0188105Y0202253D03*
X0187522Y0192757D03*
D132*
X0181024Y0188925D03*
X0181024Y0188842D03*
X0172028Y0202253D03*
X0165780Y0204086D03*
X0164614Y0215748D03*
D133*
X0179900Y0204169D03*
X0188396Y0202920D03*
X0187147Y0192174D03*
X0180982Y0189009D03*
D134*
X0160657Y0189092D03*
X0155076Y0204669D03*
D135*
X0164114Y0215415D03*
X0179691Y0204752D03*
X0188105Y0202337D03*
X0180774Y0214665D03*
X0160616Y0189175D03*
D136*
X0159366Y0189259D03*
X0156950Y0194340D03*
X0154118Y0196672D03*
X0184439Y0194340D03*
X0187022Y0191924D03*
X0188521Y0203170D03*
D137*
X0188646Y0203420D03*
X0191728Y0200088D03*
X0183898Y0194756D03*
X0174235Y0189259D03*
X0176901Y0206668D03*
X0176817Y0212249D03*
X0168321Y0212583D03*
X0162073Y0207168D03*
X0161990Y0207251D03*
X0161157Y0208168D03*
X0161074Y0208251D03*
X0160990Y0208334D03*
X0159408Y0202420D03*
X0155743Y0205502D03*
X0152660Y0197589D03*
X0152744Y0197505D03*
X0153244Y0197089D03*
X0153410Y0197006D03*
X0183648Y0207002D03*
X0183648Y0212499D03*
D138*
X0183357Y0212749D03*
X0183357Y0206668D03*
X0167779Y0212916D03*
X0159616Y0189925D03*
X0159366Y0189342D03*
D139*
X0174235Y0189342D03*
X0185064Y0200254D03*
X0180066Y0203670D03*
X0183731Y0207168D03*
X0183731Y0212416D03*
X0180483Y0215748D03*
X0176734Y0212166D03*
X0168987Y0212000D03*
X0168904Y0212083D03*
X0168737Y0212249D03*
X0168654Y0212333D03*
X0161823Y0207418D03*
X0161657Y0207585D03*
X0161574Y0207668D03*
X0160990Y0208501D03*
X0160990Y0208584D03*
D140*
X0161990Y0212916D03*
X0165489Y0203836D03*
X0158741Y0202753D03*
X0153160Y0202753D03*
X0156909Y0194257D03*
X0159491Y0189842D03*
X0159324Y0189425D03*
X0177067Y0212583D03*
X0188563Y0203253D03*
X0184231Y0194423D03*
X0186980Y0191841D03*
D141*
X0186813Y0191591D03*
X0183815Y0194923D03*
X0184981Y0200171D03*
X0191811Y0199838D03*
X0183815Y0207335D03*
X0183815Y0212249D03*
X0176651Y0212000D03*
X0176734Y0206835D03*
X0168821Y0206835D03*
X0169487Y0211333D03*
X0165239Y0216165D03*
X0161574Y0212499D03*
X0160907Y0208834D03*
X0155826Y0205585D03*
X0152744Y0202337D03*
X0152577Y0197839D03*
X0156742Y0194007D03*
X0159908Y0197089D03*
X0160074Y0201670D03*
X0160074Y0201754D03*
X0174235Y0189675D03*
X0174235Y0189592D03*
X0174235Y0189509D03*
X0174235Y0189425D03*
D142*
X0180816Y0189425D03*
X0180816Y0189509D03*
X0179900Y0204086D03*
D143*
X0180025Y0203836D03*
X0177109Y0206502D03*
X0164947Y0215998D03*
X0162698Y0206752D03*
X0159449Y0189758D03*
X0159366Y0189675D03*
X0159366Y0189592D03*
X0159366Y0189509D03*
X0191353Y0200421D03*
D144*
X0180774Y0189592D03*
X0180608Y0215332D03*
X0155534Y0205252D03*
D145*
X0177317Y0212749D03*
X0188479Y0203086D03*
X0187063Y0192008D03*
X0180733Y0189758D03*
X0180733Y0189675D03*
D146*
X0174194Y0189758D03*
X0171944Y0202587D03*
X0165280Y0203670D03*
X0160949Y0208668D03*
X0160949Y0208751D03*
X0161615Y0212583D03*
X0169029Y0211916D03*
X0169112Y0211833D03*
X0169196Y0211750D03*
X0169279Y0211666D03*
X0169362Y0211583D03*
X0169445Y0211500D03*
X0176693Y0212083D03*
X0183773Y0212333D03*
X0183773Y0207251D03*
X0188688Y0203503D03*
X0191770Y0199921D03*
X0190770Y0194756D03*
X0190687Y0194673D03*
X0159866Y0197006D03*
X0160033Y0201837D03*
X0152785Y0202420D03*
X0152619Y0197755D03*
D147*
X0152619Y0197672D03*
X0152869Y0197422D03*
X0152952Y0197339D03*
X0153035Y0197255D03*
X0153119Y0197172D03*
X0156784Y0194090D03*
X0159783Y0196922D03*
X0159949Y0202004D03*
X0159783Y0202087D03*
X0159699Y0202170D03*
X0159616Y0202253D03*
X0159533Y0202337D03*
X0161948Y0207335D03*
X0161449Y0207835D03*
X0161365Y0207918D03*
X0161282Y0208001D03*
X0161199Y0208084D03*
X0161032Y0208418D03*
X0161699Y0212666D03*
X0168446Y0212499D03*
X0168529Y0212416D03*
X0168696Y0206752D03*
X0183690Y0207085D03*
X0185189Y0200338D03*
X0191770Y0200004D03*
X0190604Y0194590D03*
X0186855Y0191674D03*
X0174194Y0189842D03*
X0152869Y0202503D03*
D148*
X0180691Y0189842D03*
D149*
X0170362Y0189925D03*
D150*
X0159283Y0196672D03*
X0179941Y0204003D03*
X0180608Y0189925D03*
D151*
X0170195Y0190008D03*
D152*
X0170153Y0190175D03*
D153*
X0170195Y0190258D03*
D154*
X0170153Y0190425D03*
D155*
X0170195Y0190508D03*
D156*
X0186189Y0190508D03*
X0189354Y0204752D03*
X0180191Y0216914D03*
D157*
X0180441Y0202587D03*
X0186272Y0190591D03*
D158*
X0170195Y0190675D03*
D159*
X0164447Y0203003D03*
X0186355Y0190758D03*
D160*
X0170237Y0190841D03*
D161*
X0186397Y0190841D03*
D162*
X0170237Y0190925D03*
D163*
X0170278Y0191008D03*
D164*
X0170278Y0191091D03*
D165*
X0186605Y0191175D03*
X0188938Y0204003D03*
X0180358Y0216248D03*
D166*
X0170278Y0191258D03*
D167*
X0180233Y0203253D03*
X0184065Y0198672D03*
X0184065Y0198588D03*
X0183981Y0198422D03*
X0188896Y0203919D03*
X0191978Y0197922D03*
X0191978Y0197839D03*
X0191978Y0197755D03*
X0191811Y0197089D03*
X0191811Y0197006D03*
X0191811Y0196922D03*
X0191728Y0196672D03*
X0186647Y0191258D03*
X0180399Y0216165D03*
X0165572Y0216414D03*
D168*
X0170320Y0191341D03*
D169*
X0160449Y0198588D03*
X0160449Y0198672D03*
X0160449Y0198755D03*
X0160449Y0198838D03*
X0160449Y0198921D03*
X0160449Y0199005D03*
X0160449Y0199088D03*
X0160449Y0199171D03*
X0160449Y0199505D03*
X0160449Y0199588D03*
X0160449Y0199671D03*
X0160449Y0199754D03*
X0160449Y0199838D03*
X0160449Y0199921D03*
X0160449Y0200004D03*
X0160449Y0200088D03*
X0156617Y0193757D03*
X0152202Y0199754D03*
X0152202Y0199838D03*
X0152202Y0199921D03*
X0152202Y0200004D03*
X0152202Y0200088D03*
X0152202Y0200171D03*
X0152202Y0200254D03*
X0152202Y0200338D03*
X0152202Y0200421D03*
X0152202Y0200504D03*
X0152202Y0200587D03*
X0169445Y0208001D03*
X0169529Y0208168D03*
X0169529Y0208251D03*
X0169529Y0208334D03*
X0169529Y0208418D03*
X0169695Y0209251D03*
X0169695Y0209334D03*
X0169695Y0209417D03*
X0169695Y0209501D03*
X0176193Y0210334D03*
X0176193Y0210417D03*
X0176193Y0210500D03*
X0176193Y0208334D03*
X0176193Y0208251D03*
X0176193Y0208168D03*
X0180191Y0203336D03*
X0184273Y0199171D03*
X0184356Y0199255D03*
X0183606Y0196173D03*
X0183606Y0196089D03*
X0186689Y0191341D03*
X0191437Y0195839D03*
X0191437Y0195923D03*
X0192020Y0198338D03*
X0192020Y0198422D03*
X0192020Y0198505D03*
X0192020Y0198588D03*
X0192020Y0198672D03*
X0184273Y0209001D03*
X0184273Y0209084D03*
X0184273Y0209167D03*
X0184273Y0209251D03*
X0184273Y0210583D03*
X0184273Y0210667D03*
X0184273Y0210750D03*
X0184273Y0210833D03*
D170*
X0170362Y0191424D03*
D171*
X0176359Y0207501D03*
X0176359Y0207585D03*
X0176359Y0211167D03*
X0176359Y0211250D03*
X0169695Y0210334D03*
X0160866Y0210334D03*
X0160866Y0210250D03*
X0160866Y0210167D03*
X0160866Y0210084D03*
X0160866Y0210000D03*
X0152452Y0201670D03*
X0183690Y0195589D03*
X0183690Y0195506D03*
X0186772Y0191424D03*
X0191187Y0195340D03*
X0184106Y0208168D03*
X0184106Y0208251D03*
X0184106Y0211500D03*
X0184106Y0211583D03*
D172*
X0170362Y0191508D03*
D173*
X0170403Y0191674D03*
D174*
X0170445Y0191758D03*
D175*
X0185314Y0200421D03*
X0183565Y0206918D03*
X0176901Y0212416D03*
X0168071Y0212749D03*
X0153660Y0196839D03*
X0186897Y0191758D03*
D176*
X0170487Y0191924D03*
D177*
X0170528Y0192008D03*
D178*
X0170528Y0192091D03*
X0170528Y0192174D03*
D179*
X0170528Y0192257D03*
D180*
X0170570Y0192341D03*
D181*
X0170612Y0192507D03*
D182*
X0170612Y0192591D03*
D183*
X0170653Y0192674D03*
D184*
X0187438Y0192674D03*
D185*
X0170695Y0192841D03*
D186*
X0170737Y0192924D03*
D187*
X0157492Y0195256D03*
X0154993Y0204419D03*
X0180816Y0214415D03*
X0187563Y0192924D03*
D188*
X0156159Y0193007D03*
X0156576Y0206502D03*
D189*
X0170778Y0193007D03*
D190*
X0172278Y0201420D03*
X0166280Y0205002D03*
X0164198Y0214748D03*
X0155118Y0204253D03*
X0180858Y0214332D03*
X0187605Y0193007D03*
D191*
X0189312Y0204669D03*
X0180233Y0216831D03*
X0156492Y0206418D03*
X0156242Y0193090D03*
D192*
X0170778Y0193090D03*
D193*
X0172319Y0201337D03*
X0166155Y0205252D03*
X0164322Y0214499D03*
X0155243Y0204003D03*
X0157492Y0195423D03*
X0187646Y0193090D03*
D194*
X0170820Y0193174D03*
D195*
X0172319Y0201171D03*
X0166072Y0205502D03*
X0164406Y0214249D03*
X0180899Y0214165D03*
X0187896Y0201754D03*
X0187730Y0193174D03*
D196*
X0180274Y0216664D03*
X0166030Y0216748D03*
X0156284Y0193257D03*
D197*
X0170820Y0193257D03*
D198*
X0165947Y0205752D03*
X0164531Y0213999D03*
X0155451Y0203586D03*
X0157200Y0195923D03*
X0180941Y0214082D03*
X0188021Y0201420D03*
X0187771Y0193257D03*
D199*
X0170903Y0193340D03*
D200*
X0172403Y0201004D03*
X0165905Y0205835D03*
X0164489Y0213915D03*
X0155493Y0203503D03*
X0157159Y0196006D03*
X0187730Y0193340D03*
D201*
X0170903Y0193424D03*
D202*
X0179525Y0205419D03*
X0188021Y0201337D03*
X0187688Y0193424D03*
X0164531Y0213832D03*
X0157117Y0196089D03*
D203*
X0170986Y0193507D03*
D204*
X0172403Y0200921D03*
X0165905Y0205919D03*
X0164572Y0213749D03*
X0155576Y0203420D03*
X0179566Y0205502D03*
X0180899Y0213999D03*
X0188063Y0201254D03*
X0187646Y0193507D03*
D205*
X0156492Y0193590D03*
D206*
X0170986Y0193590D03*
D207*
X0172403Y0200837D03*
X0179650Y0205585D03*
X0188146Y0201087D03*
X0187646Y0193590D03*
X0164656Y0213582D03*
D208*
X0156534Y0193674D03*
X0183690Y0197006D03*
X0183690Y0197089D03*
X0183690Y0197172D03*
X0183690Y0197255D03*
X0183690Y0197339D03*
X0183773Y0197505D03*
X0183773Y0197589D03*
X0183773Y0197672D03*
X0183856Y0197922D03*
X0183856Y0198005D03*
X0183940Y0198172D03*
X0183940Y0198255D03*
X0183940Y0198338D03*
X0184023Y0198505D03*
D209*
X0171070Y0193674D03*
D210*
X0179691Y0205669D03*
X0180858Y0213832D03*
X0164697Y0213499D03*
X0165780Y0206252D03*
X0155701Y0203170D03*
X0156950Y0196339D03*
X0187605Y0193674D03*
D211*
X0171070Y0193757D03*
D212*
X0172403Y0200754D03*
X0165739Y0206335D03*
X0155743Y0203086D03*
X0156909Y0196422D03*
X0179733Y0205752D03*
X0188146Y0201004D03*
X0187563Y0193757D03*
D213*
X0191228Y0195423D03*
X0191978Y0199005D03*
X0191978Y0199088D03*
X0188813Y0203753D03*
X0184481Y0199505D03*
X0183648Y0195756D03*
X0183648Y0195673D03*
X0184148Y0208334D03*
X0184148Y0208418D03*
X0184148Y0211333D03*
X0184148Y0211416D03*
X0176318Y0211083D03*
X0176318Y0211000D03*
X0176318Y0207751D03*
X0176318Y0207668D03*
X0169320Y0207585D03*
X0169237Y0207501D03*
X0169654Y0210084D03*
X0169654Y0210167D03*
X0169654Y0210250D03*
X0165072Y0203503D03*
X0160324Y0198088D03*
X0160324Y0198005D03*
X0160324Y0197922D03*
X0155909Y0205752D03*
X0152327Y0201420D03*
X0152327Y0201337D03*
X0152327Y0201254D03*
X0152244Y0199171D03*
X0152244Y0199088D03*
X0152244Y0199005D03*
X0156659Y0193840D03*
X0160907Y0210417D03*
X0160907Y0210500D03*
X0160907Y0210583D03*
X0160907Y0210667D03*
X0160990Y0210917D03*
X0160990Y0211000D03*
X0160990Y0211083D03*
D214*
X0171153Y0193840D03*
D215*
X0179775Y0205835D03*
X0188188Y0200921D03*
X0187522Y0193840D03*
X0164697Y0213416D03*
D216*
X0165364Y0216248D03*
X0161282Y0212000D03*
X0161199Y0211833D03*
X0160866Y0209834D03*
X0160866Y0209750D03*
X0160866Y0209667D03*
X0160866Y0209584D03*
X0160866Y0209501D03*
X0160282Y0201171D03*
X0160282Y0201087D03*
X0160199Y0197589D03*
X0156701Y0193923D03*
X0152369Y0198422D03*
X0152369Y0198505D03*
X0152536Y0201920D03*
X0169112Y0207168D03*
X0169612Y0210667D03*
X0169612Y0210750D03*
X0176443Y0211500D03*
X0176526Y0207251D03*
X0180441Y0215915D03*
X0184023Y0211833D03*
X0184023Y0207918D03*
X0184023Y0207835D03*
X0188771Y0203670D03*
X0191936Y0199421D03*
X0191103Y0195173D03*
X0191020Y0195090D03*
X0183690Y0195340D03*
X0183690Y0195423D03*
X0184689Y0199838D03*
X0184773Y0199921D03*
D217*
X0171153Y0193923D03*
D218*
X0172403Y0200671D03*
X0165739Y0206418D03*
X0164739Y0213332D03*
X0156825Y0196589D03*
X0180733Y0213666D03*
X0188230Y0200837D03*
X0187480Y0193923D03*
D219*
X0171236Y0194007D03*
D220*
X0172403Y0200587D03*
X0179900Y0206002D03*
X0188313Y0200671D03*
X0187480Y0194007D03*
X0164822Y0213166D03*
D221*
X0171236Y0194090D03*
D222*
X0172403Y0200504D03*
X0179983Y0206169D03*
X0180566Y0213416D03*
X0188313Y0200587D03*
X0187397Y0194090D03*
X0164906Y0212999D03*
D223*
X0162323Y0207002D03*
X0162407Y0206918D03*
X0168571Y0206668D03*
X0176984Y0206585D03*
X0190479Y0194507D03*
X0156825Y0194173D03*
D224*
X0171278Y0194173D03*
D225*
X0180025Y0206252D03*
X0187355Y0194173D03*
D226*
X0171278Y0194257D03*
D227*
X0172403Y0200421D03*
X0187313Y0194257D03*
D228*
X0171361Y0194340D03*
D229*
X0162906Y0206668D03*
X0155576Y0205336D03*
X0180566Y0215498D03*
X0183232Y0206585D03*
X0191145Y0200504D03*
X0190145Y0194340D03*
D230*
X0165655Y0204003D03*
X0156992Y0194423D03*
D231*
X0171361Y0194423D03*
D232*
X0162573Y0206835D03*
X0155659Y0205419D03*
X0153827Y0196756D03*
X0159574Y0196756D03*
X0167904Y0212833D03*
X0176984Y0212499D03*
X0183481Y0212666D03*
X0191478Y0200338D03*
X0190395Y0194423D03*
D233*
X0171403Y0194507D03*
D234*
X0184106Y0194507D03*
X0185439Y0200504D03*
X0183440Y0206752D03*
D235*
X0171403Y0194590D03*
D236*
X0171944Y0202503D03*
X0161865Y0212833D03*
X0158950Y0202670D03*
X0153035Y0202670D03*
X0183523Y0206835D03*
X0188604Y0203336D03*
X0191603Y0200254D03*
X0184023Y0194590D03*
D237*
X0183940Y0194673D03*
X0191687Y0200171D03*
X0183606Y0212583D03*
X0180524Y0215665D03*
X0176859Y0212333D03*
X0168196Y0212666D03*
X0165114Y0216081D03*
X0161782Y0212749D03*
X0162198Y0207085D03*
X0165364Y0203753D03*
X0159283Y0202503D03*
X0159116Y0202587D03*
X0159699Y0196839D03*
X0153535Y0196922D03*
X0152952Y0202587D03*
D238*
X0171445Y0194756D03*
D239*
X0171486Y0194840D03*
D240*
X0176817Y0206752D03*
X0169487Y0211416D03*
X0168821Y0212166D03*
X0161740Y0207501D03*
X0161490Y0207751D03*
X0159991Y0201920D03*
X0183898Y0194840D03*
D241*
X0183773Y0195006D03*
X0183773Y0195090D03*
X0190854Y0194840D03*
X0176693Y0206918D03*
X0160949Y0208917D03*
X0160116Y0201587D03*
X0152536Y0197922D03*
D242*
X0171486Y0194923D03*
D243*
X0168987Y0207002D03*
X0169570Y0211000D03*
X0169570Y0211083D03*
X0176568Y0211833D03*
X0176651Y0207002D03*
X0180483Y0215831D03*
X0183898Y0212166D03*
X0183898Y0212083D03*
X0183898Y0207501D03*
X0188729Y0203586D03*
X0191895Y0199671D03*
X0190895Y0194923D03*
X0184898Y0200088D03*
X0160907Y0209001D03*
X0160907Y0209084D03*
X0160907Y0209167D03*
X0161407Y0212333D03*
X0160157Y0201504D03*
X0159991Y0197255D03*
X0152494Y0198005D03*
X0152494Y0198088D03*
X0152660Y0202170D03*
D244*
X0152411Y0198338D03*
X0152411Y0198255D03*
X0160157Y0197505D03*
X0160241Y0201254D03*
X0160907Y0209417D03*
X0161324Y0212083D03*
X0176568Y0207168D03*
X0180149Y0203503D03*
X0183731Y0195256D03*
X0190978Y0195006D03*
X0191895Y0199505D03*
D245*
X0171570Y0195090D03*
D246*
X0171611Y0195173D03*
D247*
X0171653Y0195256D03*
D248*
X0169154Y0207251D03*
X0169154Y0207335D03*
X0169654Y0210417D03*
X0169654Y0210500D03*
X0169654Y0210583D03*
X0176401Y0211333D03*
X0176401Y0211416D03*
X0176401Y0207418D03*
X0176484Y0207335D03*
X0184065Y0208001D03*
X0184065Y0208084D03*
X0184065Y0211666D03*
X0184065Y0211750D03*
X0184648Y0199754D03*
X0191978Y0199338D03*
X0191978Y0199255D03*
X0191145Y0195256D03*
X0160907Y0209917D03*
X0161157Y0211666D03*
X0161157Y0211750D03*
X0161240Y0211916D03*
X0160324Y0201004D03*
X0160324Y0200921D03*
X0160241Y0197755D03*
X0160241Y0197672D03*
X0152327Y0198588D03*
X0152327Y0198672D03*
X0152494Y0201754D03*
X0152494Y0201837D03*
D249*
X0155159Y0204169D03*
X0157492Y0195340D03*
X0166238Y0205086D03*
X0164239Y0214665D03*
X0179566Y0205086D03*
D250*
X0171653Y0195340D03*
D251*
X0171695Y0195423D03*
D252*
X0179525Y0205169D03*
X0180858Y0214249D03*
X0155284Y0203919D03*
X0157450Y0195506D03*
D253*
X0160366Y0198172D03*
X0160366Y0198255D03*
X0160449Y0200421D03*
X0152286Y0201087D03*
X0152286Y0201171D03*
X0152202Y0199338D03*
X0152202Y0199255D03*
X0165447Y0216331D03*
X0169695Y0210000D03*
X0169695Y0209917D03*
X0169695Y0209834D03*
X0169695Y0209750D03*
X0169362Y0207751D03*
X0169362Y0207668D03*
X0176276Y0207835D03*
X0176276Y0207918D03*
X0176276Y0210833D03*
X0176276Y0210917D03*
X0184190Y0211167D03*
X0184190Y0211250D03*
X0184190Y0208584D03*
X0184190Y0208501D03*
X0184439Y0199421D03*
X0183606Y0195839D03*
X0191270Y0195506D03*
X0191353Y0195589D03*
X0191353Y0195673D03*
X0192020Y0198755D03*
X0192020Y0198838D03*
X0192020Y0198921D03*
D254*
X0164322Y0214415D03*
X0157409Y0195589D03*
D255*
X0171736Y0195589D03*
D256*
X0171778Y0195673D03*
X0171778Y0195756D03*
D257*
X0179525Y0205252D03*
X0187938Y0201670D03*
X0164447Y0214165D03*
X0155368Y0203753D03*
X0157284Y0195756D03*
D258*
X0157242Y0195839D03*
X0155409Y0203670D03*
X0165988Y0205669D03*
X0172319Y0201087D03*
X0164489Y0214082D03*
X0187980Y0201587D03*
X0187980Y0201504D03*
D259*
X0171778Y0195839D03*
D260*
X0171819Y0195923D03*
D261*
X0171861Y0196089D03*
D262*
X0165864Y0206002D03*
X0165864Y0206085D03*
X0164614Y0213666D03*
X0155618Y0203336D03*
X0157034Y0196173D03*
X0188105Y0201171D03*
D263*
X0171861Y0196173D03*
D264*
X0165822Y0206169D03*
X0155659Y0203253D03*
X0156992Y0196256D03*
X0180899Y0213915D03*
D265*
X0171903Y0196339D03*
X0171903Y0196256D03*
D266*
X0176109Y0208834D03*
X0176109Y0208917D03*
X0176109Y0209001D03*
X0176109Y0209084D03*
X0176109Y0209167D03*
X0176109Y0209251D03*
X0176109Y0209334D03*
X0176109Y0209417D03*
X0176109Y0209501D03*
X0176109Y0209584D03*
X0176109Y0209667D03*
X0176109Y0209750D03*
X0176109Y0209834D03*
X0184190Y0198921D03*
X0184190Y0198838D03*
X0184106Y0198755D03*
X0183606Y0196589D03*
X0183606Y0196506D03*
X0183606Y0196422D03*
X0191603Y0196339D03*
X0191603Y0196256D03*
X0191687Y0196422D03*
X0191687Y0196506D03*
X0191687Y0196589D03*
X0191770Y0196756D03*
X0191770Y0196839D03*
X0191936Y0197589D03*
X0191936Y0197672D03*
X0192020Y0198005D03*
X0192020Y0198088D03*
D267*
X0171903Y0196422D03*
D268*
X0156867Y0196506D03*
X0155784Y0203003D03*
X0180774Y0213749D03*
D269*
X0171944Y0196506D03*
D270*
X0171944Y0196589D03*
D271*
X0171986Y0196672D03*
D272*
X0183648Y0196672D03*
X0183648Y0196756D03*
X0183648Y0196839D03*
X0183648Y0196922D03*
X0191895Y0197172D03*
X0191895Y0197255D03*
X0191895Y0197339D03*
X0191895Y0197422D03*
X0191895Y0197505D03*
D273*
X0171986Y0196839D03*
X0171986Y0196756D03*
D274*
X0171986Y0196922D03*
D275*
X0172028Y0197006D03*
D276*
X0172028Y0197089D03*
D277*
X0180108Y0203586D03*
X0183856Y0207418D03*
X0191853Y0199754D03*
X0176609Y0211916D03*
X0169529Y0211250D03*
X0169529Y0211167D03*
X0168862Y0206918D03*
X0161532Y0212416D03*
X0152702Y0202253D03*
X0159949Y0197172D03*
D278*
X0172069Y0197172D03*
D279*
X0172069Y0197255D03*
X0172069Y0197339D03*
D280*
X0172069Y0197422D03*
D281*
X0164822Y0203336D03*
X0156076Y0205919D03*
X0183815Y0197839D03*
X0183815Y0197755D03*
X0183731Y0197422D03*
X0183898Y0198088D03*
D282*
X0172111Y0197505D03*
D283*
X0172153Y0197672D03*
D284*
X0172111Y0197755D03*
D285*
X0171861Y0202670D03*
X0169196Y0207418D03*
X0160949Y0210750D03*
X0160949Y0210833D03*
X0161032Y0211167D03*
X0161032Y0211250D03*
X0161032Y0211333D03*
X0161032Y0211416D03*
X0161115Y0211500D03*
X0161115Y0211583D03*
X0160366Y0200837D03*
X0160366Y0200754D03*
X0160366Y0200671D03*
X0160282Y0197839D03*
X0152286Y0198755D03*
X0152286Y0198838D03*
X0152286Y0198921D03*
X0152369Y0201504D03*
X0152369Y0201587D03*
X0180191Y0203420D03*
X0184606Y0199671D03*
X0192020Y0199171D03*
X0180441Y0215998D03*
D286*
X0172153Y0197839D03*
D287*
X0172153Y0197922D03*
D288*
X0172194Y0198005D03*
D289*
X0172194Y0198088D03*
D290*
X0172194Y0198338D03*
D291*
X0172236Y0198422D03*
D292*
X0172236Y0198505D03*
D293*
X0172278Y0198588D03*
D294*
X0172278Y0198672D03*
D295*
X0172236Y0198755D03*
D296*
X0172278Y0198921D03*
D297*
X0172278Y0199005D03*
D298*
X0172319Y0199088D03*
D299*
X0172319Y0199171D03*
D300*
X0172361Y0199255D03*
D301*
X0172319Y0199338D03*
D302*
X0172319Y0199505D03*
D303*
X0172361Y0199588D03*
D304*
X0160407Y0200504D03*
X0160407Y0200587D03*
X0184564Y0199588D03*
D305*
X0172361Y0199671D03*
D306*
X0172361Y0199754D03*
D307*
X0172361Y0199838D03*
D308*
X0172403Y0199921D03*
D309*
X0172361Y0200004D03*
D310*
X0172361Y0200088D03*
D311*
X0172361Y0200171D03*
X0180274Y0212999D03*
D312*
X0180358Y0213082D03*
X0172361Y0200254D03*
D313*
X0172403Y0200338D03*
X0180399Y0213166D03*
D314*
X0187896Y0201837D03*
X0172319Y0201254D03*
X0166155Y0205336D03*
D315*
X0172278Y0201504D03*
D316*
X0164281Y0214582D03*
X0155201Y0204086D03*
X0187938Y0201920D03*
D317*
X0183981Y0207751D03*
X0183981Y0211916D03*
X0176484Y0211583D03*
X0165155Y0203586D03*
X0152577Y0202004D03*
D318*
X0187980Y0202004D03*
D319*
X0172111Y0202087D03*
X0165947Y0204253D03*
D320*
X0165572Y0203919D03*
X0171986Y0202420D03*
X0183065Y0206502D03*
X0180566Y0215415D03*
X0164822Y0215915D03*
D321*
X0166155Y0204419D03*
X0155159Y0204752D03*
X0179733Y0204669D03*
X0188146Y0202420D03*
X0180733Y0214748D03*
D322*
X0180483Y0202503D03*
X0164239Y0202837D03*
D323*
X0171861Y0202753D03*
X0180274Y0203170D03*
D324*
X0180399Y0202753D03*
X0156326Y0206252D03*
D325*
X0155909Y0202837D03*
X0165655Y0206585D03*
D326*
X0171861Y0202837D03*
D327*
X0164739Y0203253D03*
D328*
X0180025Y0203753D03*
D329*
X0179983Y0203919D03*
X0177151Y0212666D03*
D330*
X0179900Y0204253D03*
D331*
X0179608Y0205002D03*
X0166363Y0204836D03*
X0166363Y0204752D03*
X0164114Y0214915D03*
X0155035Y0204336D03*
D332*
X0189188Y0204419D03*
D333*
X0189229Y0204503D03*
D334*
X0166322Y0204919D03*
X0164156Y0214832D03*
D335*
X0166197Y0205169D03*
D336*
X0179483Y0205336D03*
D337*
X0166030Y0205585D03*
D338*
X0164864Y0213082D03*
X0179941Y0206085D03*
X0180608Y0213499D03*
D339*
X0180441Y0213249D03*
X0180108Y0206335D03*
D340*
X0180149Y0206418D03*
D341*
X0184231Y0208668D03*
X0184231Y0208751D03*
X0184231Y0208834D03*
X0184231Y0208917D03*
X0184231Y0210917D03*
X0184231Y0211000D03*
X0184231Y0211083D03*
X0176234Y0210750D03*
X0176234Y0210667D03*
X0176234Y0210583D03*
X0176234Y0208084D03*
X0176234Y0208001D03*
D342*
X0180233Y0212833D03*
X0180233Y0212916D03*
D343*
X0180524Y0213332D03*
D344*
X0180566Y0215581D03*
D345*
X0180358Y0216331D03*
D346*
X0165697Y0216498D03*
D347*
X0180316Y0216581D03*
D348*
X0180233Y0216748D03*
D349*
X0166280Y0216914D03*
D350*
X0163105Y0322292D03*
X0173105Y0322292D03*
X0183105Y0322292D03*
X0193105Y0322292D03*
X0266613Y0336800D03*
X0266613Y0342800D03*
X0266613Y0348800D03*
D351*
X0285239Y0350957D02*
X0285239Y0320643D01*
X0306105Y0320643D01*
X0311617Y0320643D01*
X0311617Y0350957D01*
X0306105Y0350957D01*
X0285239Y0350957D01*
X0306105Y0350957D02*
X0306105Y0320643D01*
X0306105Y0316115D01*
X0306105Y0350957D02*
X0306105Y0355485D01*
D352*
X0193105Y0366550D03*
X0193105Y0369050D03*
X0193105Y0371550D03*
X0183105Y0371550D03*
X0183105Y0369050D03*
X0183105Y0366550D03*
X0173105Y0366550D03*
X0173105Y0369050D03*
X0173105Y0371550D03*
X0163105Y0371550D03*
X0163105Y0369050D03*
X0163105Y0366550D03*
D353*
X0153730Y0275175D02*
X0153730Y0275175D01*
X0203105Y0275800D02*
X0203105Y0229800D01*
X0223105Y0229800D01*
X0223105Y0275800D01*
X0203105Y0275800D01*
D354*
X0215322Y0296650D03*
D355*
X0207105Y0322800D03*
M02*
