G75*
%MOIN*%
%OFA0B0*%
%FSLAX25Y25*%
%IPPOS*%
%LPD*%
%AMOC8*
5,1,8,0,0,1.08239X$1,22.5*
%
%ADD10OC8,0.06800*%
%ADD11C,0.13300*%
%ADD12R,0.07400X0.07400*%
%ADD13C,0.07400*%
%ADD14R,0.08477X0.08477*%
%ADD15C,0.06000*%
%ADD16OC8,0.10850*%
%ADD17C,0.04762*%
%ADD18R,0.04762X0.04762*%
D10*
X0114605Y0099600D03*
X0114605Y0109600D03*
X0124605Y0109600D03*
X0124605Y0099600D03*
X0134605Y0099600D03*
X0134605Y0109600D03*
X0144605Y0109600D03*
X0144605Y0099600D03*
X0154605Y0099600D03*
X0154605Y0109600D03*
X0164605Y0109600D03*
X0164605Y0099600D03*
X0174605Y0099600D03*
X0174605Y0109600D03*
X0184605Y0109600D03*
X0184605Y0099600D03*
X0194605Y0099600D03*
X0194605Y0109600D03*
X0204605Y0109600D03*
X0204605Y0099600D03*
X0214605Y0099600D03*
X0214605Y0109600D03*
X0224605Y0109600D03*
X0224605Y0099600D03*
X0234605Y0099600D03*
X0234605Y0109600D03*
X0244605Y0109600D03*
X0244605Y0099600D03*
X0254605Y0099600D03*
X0254605Y0109600D03*
X0264605Y0109600D03*
X0264605Y0099600D03*
X0274605Y0099600D03*
X0274605Y0109600D03*
D11*
X0292305Y0377300D03*
X0096905Y0377300D03*
D12*
X0103105Y0275800D03*
X0103105Y0265800D03*
X0103105Y0255800D03*
X0103105Y0245800D03*
X0103105Y0235800D03*
X0103105Y0225800D03*
X0103105Y0215800D03*
X0103105Y0205800D03*
X0103105Y0195800D03*
X0103105Y0185800D03*
X0103105Y0175800D03*
X0103105Y0165800D03*
X0103105Y0145800D03*
X0118105Y0145800D03*
X0128105Y0145800D03*
X0138105Y0145800D03*
X0148105Y0145800D03*
X0158105Y0145800D03*
X0168105Y0145800D03*
X0178105Y0145800D03*
X0188105Y0145800D03*
X0198105Y0145800D03*
X0208105Y0145800D03*
X0228105Y0145800D03*
X0238105Y0145800D03*
X0248105Y0145800D03*
X0258105Y0145800D03*
X0278105Y0145800D03*
X0288105Y0145800D03*
X0288105Y0165800D03*
X0288105Y0175800D03*
X0288105Y0185800D03*
X0288105Y0195800D03*
X0288105Y0205800D03*
X0288105Y0215800D03*
X0288105Y0225800D03*
D13*
X0103105Y0125800D03*
X0103105Y0135800D03*
X0118105Y0135800D03*
X0128105Y0135800D03*
X0138105Y0135800D03*
X0138105Y0125800D03*
X0128105Y0125800D03*
X0118105Y0125800D03*
X0148105Y0125800D03*
X0158105Y0125800D03*
X0168105Y0125800D03*
X0178105Y0125800D03*
X0188105Y0125800D03*
X0198105Y0125800D03*
X0208105Y0125800D03*
X0208105Y0135800D03*
X0198105Y0135800D03*
X0188105Y0135800D03*
X0178105Y0135800D03*
X0168105Y0135800D03*
X0158105Y0135800D03*
X0148105Y0135800D03*
X0123105Y0165800D03*
X0123105Y0175800D03*
X0123105Y0185800D03*
X0123105Y0195800D03*
X0123105Y0205800D03*
X0123105Y0215800D03*
X0123105Y0225800D03*
X0123105Y0235800D03*
X0123105Y0245800D03*
X0123105Y0255800D03*
X0123105Y0265800D03*
X0123105Y0275800D03*
X0113105Y0275800D03*
X0113105Y0265800D03*
X0113105Y0255800D03*
X0113105Y0245800D03*
X0113105Y0235800D03*
X0113105Y0225800D03*
X0113105Y0215800D03*
X0113105Y0205800D03*
X0113105Y0195800D03*
X0113105Y0185800D03*
X0113105Y0175800D03*
X0113105Y0165800D03*
X0228105Y0135800D03*
X0228105Y0125800D03*
X0238105Y0125800D03*
X0248105Y0125800D03*
X0258105Y0125800D03*
X0258105Y0135800D03*
X0248105Y0135800D03*
X0238105Y0135800D03*
X0268105Y0165800D03*
X0278105Y0165800D03*
X0278105Y0175800D03*
X0278105Y0185800D03*
X0278105Y0195800D03*
X0278105Y0205800D03*
X0278105Y0215800D03*
X0278105Y0225800D03*
X0268105Y0225800D03*
X0268105Y0215800D03*
X0268105Y0205800D03*
X0268105Y0195800D03*
X0268105Y0185800D03*
X0268105Y0175800D03*
X0278105Y0135800D03*
X0288105Y0135800D03*
X0288105Y0125800D03*
X0278105Y0125800D03*
D14*
X0287208Y0321430D03*
X0298625Y0321430D03*
X0298625Y0350170D03*
X0287208Y0350170D03*
D15*
X0193105Y0348200D02*
X0193105Y0353400D01*
X0183105Y0353400D02*
X0183105Y0348200D01*
X0173105Y0348200D02*
X0173105Y0353400D01*
X0163105Y0353400D02*
X0163105Y0348200D01*
X0163105Y0378200D02*
X0163105Y0383400D01*
X0173105Y0383400D02*
X0173105Y0378200D01*
X0183105Y0378200D02*
X0183105Y0383400D01*
X0193105Y0383400D02*
X0193105Y0378200D01*
D16*
X0260193Y0310800D03*
X0274015Y0310717D03*
D17*
X0279705Y0291700D03*
X0290605Y0287883D03*
X0300851Y0287800D03*
X0295857Y0299134D03*
X0278105Y0274200D03*
X0270105Y0274200D03*
X0263205Y0272800D03*
X0260605Y0291800D03*
X0264699Y0330619D03*
X0257805Y0355500D03*
X0251705Y0355500D03*
X0273605Y0355800D03*
X0222105Y0337800D03*
X0224605Y0328600D03*
X0213105Y0334800D03*
X0208105Y0328800D03*
X0201105Y0327800D03*
X0199105Y0335900D03*
X0199105Y0342200D03*
X0219605Y0351300D03*
X0193105Y0313800D03*
X0204805Y0306800D03*
X0205805Y0299500D03*
X0212105Y0291300D03*
X0223005Y0282300D03*
X0221805Y0307800D03*
X0216305Y0307800D03*
X0195805Y0276600D03*
X0187605Y0270800D03*
X0181105Y0270800D03*
X0180105Y0263800D03*
X0172605Y0270800D03*
X0164005Y0257400D03*
X0158205Y0257500D03*
X0158105Y0265800D03*
X0149105Y0276800D03*
X0137105Y0270800D03*
X0137105Y0260800D03*
X0137105Y0250800D03*
X0171105Y0240800D03*
X0187105Y0240800D03*
X0187105Y0250800D03*
X0188905Y0291800D03*
X0172105Y0306800D03*
X0175605Y0313800D03*
X0183105Y0313800D03*
X0168105Y0313800D03*
X0138105Y0313200D03*
X0138105Y0298100D03*
X0119105Y0297800D03*
X0107105Y0297800D03*
X0093105Y0290800D03*
X0090505Y0283900D03*
X0090505Y0276500D03*
X0113105Y0324759D03*
X0113305Y0333500D03*
X0118605Y0351600D03*
X0120105Y0362400D03*
X0126705Y0362500D03*
X0138105Y0350800D03*
X0138105Y0331300D03*
X0227105Y0231800D03*
X0236605Y0230800D03*
X0226605Y0216800D03*
X0227105Y0210800D03*
X0219905Y0216800D03*
X0235605Y0210800D03*
X0230105Y0197300D03*
X0235605Y0190800D03*
X0227105Y0182800D03*
X0227105Y0176800D03*
X0219905Y0182800D03*
X0215105Y0188800D03*
X0229605Y0162800D03*
X0235605Y0170800D03*
X0289105Y0240800D03*
X0295857Y0246967D03*
X0244105Y0246800D03*
X0237105Y0250800D03*
D18*
X0281105Y0341800D03*
X0262105Y0374800D03*
X0225105Y0381800D03*
X0138105Y0282800D03*
M02*
