%
M48
M72
T01C0.02362
T02C0.03200
T03C0.04000
T04C0.05118
T05C0.06700
T06C0.12500
%
T01
X171105Y240800
X187105Y240800
X187105Y250800
X180105Y263800
X181105Y270800
X187605Y270800
X195805Y276600
X188905Y291800
X205805Y299500
X204805Y306800
X193105Y313800
X201105Y327800
X208105Y328800
X213105Y334800
X222105Y337800
X224605Y328600
X219605Y351300
X199105Y342200
X199105Y335900
X183105Y313800
X175605Y313800
X168105Y313800
X172105Y306800
X149105Y276800
X158105Y265800
X158205Y257500
X164005Y257400
X172605Y270800
X137105Y270800
X137105Y260800
X137105Y250800
X138105Y282800
X138105Y298100
X138105Y313200
X138105Y331300
X138105Y350800
X126705Y362500
X120105Y362400
X118605Y351600
X113305Y333500
X113105Y324759
X119105Y297800
X107105Y297800
X93105Y290800
X90505Y283900
X90505Y276500
X212105Y291300
X223005Y282300
X221805Y307800
X216305Y307800
X251705Y355500
X257805Y355500
X273605Y355800
X281105Y341800
X264699Y330619
X295857Y299134
X300851Y287800
X290605Y287883
X279705Y291700
X278105Y274200
X270105Y274200
X263205Y272800
X260605Y291800
X237105Y250800
X244105Y246800
X236605Y230800
X227105Y231800
X226605Y216800
X227105Y210800
X219905Y216800
X235605Y210800
X230105Y197300
X235605Y190800
X227105Y182800
X227105Y176800
X219905Y182800
X215105Y188800
X229605Y162800
X235605Y170800
X289105Y240800
X295857Y246967
X262105Y374800
X225105Y381800
T02
X193105Y380800
X183105Y380800
X173105Y380800
X163105Y380800
X163105Y350800
X173105Y350800
X183105Y350800
X193105Y350800
T03
X103105Y125800
X103105Y135800
X103105Y145800
X118105Y145800
X118105Y135800
X128105Y135800
X128105Y145800
X138105Y145800
X138105Y135800
X138105Y125800
X128105Y125800
X118105Y125800
X114605Y109600
X114605Y99600
X124605Y99600
X124605Y109600
X134605Y109600
X134605Y99600
X144605Y99600
X144605Y109600
X154605Y109600
X154605Y99600
X164605Y99600
X164605Y109600
X174605Y109600
X174605Y99600
X184605Y99600
X184605Y109600
X194605Y109600
X194605Y99600
X204605Y99600
X204605Y109600
X214605Y109600
X214605Y99600
X224605Y99600
X224605Y109600
X234605Y109600
X234605Y99600
X244605Y99600
X244605Y109600
X254605Y109600
X254605Y99600
X264605Y99600
X264605Y109600
X274605Y109600
X274605Y99600
X278105Y125800
X288105Y125800
X288105Y135800
X288105Y145800
X278105Y145800
X278105Y135800
X258105Y135800
X258105Y145800
X248105Y145800
X248105Y135800
X248105Y125800
X258105Y125800
X238105Y125800
X238105Y135800
X238105Y145800
X228105Y145800
X228105Y135800
X228105Y125800
X208105Y125800
X208105Y135800
X208105Y145800
X198105Y145800
X198105Y135800
X198105Y125800
X188105Y125800
X188105Y135800
X188105Y145800
X178105Y145800
X178105Y135800
X178105Y125800
X168105Y125800
X168105Y135800
X168105Y145800
X158105Y145800
X158105Y135800
X158105Y125800
X148105Y125800
X148105Y135800
X148105Y145800
X123105Y165800
X123105Y175800
X123105Y185800
X123105Y195800
X123105Y205800
X123105Y215800
X123105Y225800
X123105Y235800
X123105Y245800
X123105Y255800
X123105Y265800
X123105Y275800
X113105Y275800
X113105Y265800
X113105Y255800
X113105Y245800
X113105Y235800
X113105Y225800
X113105Y215800
X113105Y205800
X113105Y195800
X113105Y185800
X113105Y175800
X113105Y165800
X103105Y165800
X103105Y175800
X103105Y185800
X103105Y195800
X103105Y205800
X103105Y215800
X103105Y225800
X103105Y235800
X103105Y245800
X103105Y255800
X103105Y265800
X103105Y275800
X268105Y225800
X278105Y225800
X288105Y225800
X288105Y215800
X288105Y205800
X288105Y195800
X288105Y185800
X288105Y175800
X288105Y165800
X278105Y165800
X278105Y175800
X278105Y185800
X278105Y195800
X278105Y205800
X278105Y215800
X268105Y215800
X268105Y205800
X268105Y195800
X268105Y185800
X268105Y175800
X268105Y165800
T04
X287208Y321430
X298625Y321430
X298625Y350170
X287208Y350170
T05
X274015Y310717
X260193Y310800
T06
X292305Y377300
X96905Y377300
M30
