G75*
%MOIN*%
%OFA0B0*%
%FSLAX25Y25*%
%IPPOS*%
%LPD*%
%AMOC8*
5,1,8,0,0,1.08239X$1,22.5*
%
%ADD10C,0.00000*%
%ADD11R,0.04252X0.04134*%
%ADD12R,0.05118X0.06299*%
%ADD13R,0.04134X0.04252*%
%ADD14R,0.03150X0.03150*%
%ADD15OC8,0.06000*%
%ADD16R,0.06600X0.06600*%
%ADD17C,0.06600*%
%ADD18R,0.05906X0.03150*%
%ADD19R,0.07874X0.05709*%
%ADD20R,0.06299X0.01969*%
%ADD21R,0.07677X0.07677*%
%ADD22R,0.01575X0.02559*%
%ADD23R,0.04331X0.03937*%
%ADD24R,0.03937X0.04331*%
%ADD25C,0.05200*%
%ADD26OC8,0.10050*%
%ADD27R,0.07480X0.01575*%
%ADD28R,0.01575X0.07480*%
%ADD29R,0.05709X0.01772*%
%ADD30R,0.03543X0.04724*%
%ADD31R,0.01772X0.05906*%
%ADD32R,0.05900X0.07900*%
%ADD33R,0.15000X0.07900*%
%ADD34R,0.01181X0.05709*%
%ADD35R,0.08300X0.22000*%
%ADD36R,0.06102X0.05118*%
%ADD37R,0.01500X0.04500*%
%ADD38R,0.04000X0.04000*%
%ADD39R,0.01575X0.02756*%
%ADD40C,0.01600*%
%ADD41C,0.00800*%
%ADD42C,0.05000*%
%ADD43C,0.03200*%
%ADD44C,0.03962*%
%ADD45C,0.02400*%
%ADD46C,0.01100*%
%ADD47C,0.01000*%
%ADD48C,0.04000*%
%ADD49C,0.02200*%
%ADD50C,0.01200*%
%ADD51R,0.03962X0.03962*%
%ADD52C,0.01500*%
D10*
X0007272Y0001400D02*
X0007272Y0306400D01*
X0230272Y0306400D01*
X0230272Y0001400D01*
X0007272Y0001400D01*
X0014822Y0292900D02*
X0014824Y0293058D01*
X0014830Y0293215D01*
X0014840Y0293373D01*
X0014854Y0293530D01*
X0014872Y0293686D01*
X0014893Y0293843D01*
X0014919Y0293998D01*
X0014949Y0294153D01*
X0014982Y0294307D01*
X0015020Y0294460D01*
X0015061Y0294613D01*
X0015106Y0294764D01*
X0015155Y0294914D01*
X0015208Y0295062D01*
X0015264Y0295210D01*
X0015325Y0295355D01*
X0015388Y0295500D01*
X0015456Y0295642D01*
X0015527Y0295783D01*
X0015601Y0295922D01*
X0015679Y0296059D01*
X0015761Y0296194D01*
X0015845Y0296327D01*
X0015934Y0296458D01*
X0016025Y0296586D01*
X0016120Y0296713D01*
X0016217Y0296836D01*
X0016318Y0296958D01*
X0016422Y0297076D01*
X0016529Y0297192D01*
X0016639Y0297305D01*
X0016751Y0297416D01*
X0016867Y0297523D01*
X0016985Y0297628D01*
X0017105Y0297730D01*
X0017228Y0297828D01*
X0017354Y0297924D01*
X0017482Y0298016D01*
X0017612Y0298105D01*
X0017744Y0298191D01*
X0017879Y0298273D01*
X0018016Y0298352D01*
X0018154Y0298427D01*
X0018294Y0298499D01*
X0018437Y0298567D01*
X0018580Y0298632D01*
X0018726Y0298693D01*
X0018873Y0298750D01*
X0019021Y0298804D01*
X0019171Y0298854D01*
X0019321Y0298900D01*
X0019473Y0298942D01*
X0019626Y0298981D01*
X0019780Y0299015D01*
X0019935Y0299046D01*
X0020090Y0299072D01*
X0020246Y0299095D01*
X0020403Y0299114D01*
X0020560Y0299129D01*
X0020717Y0299140D01*
X0020875Y0299147D01*
X0021033Y0299150D01*
X0021190Y0299149D01*
X0021348Y0299144D01*
X0021505Y0299135D01*
X0021663Y0299122D01*
X0021819Y0299105D01*
X0021976Y0299084D01*
X0022131Y0299060D01*
X0022286Y0299031D01*
X0022441Y0298998D01*
X0022594Y0298962D01*
X0022747Y0298921D01*
X0022898Y0298877D01*
X0023048Y0298829D01*
X0023197Y0298778D01*
X0023345Y0298722D01*
X0023491Y0298663D01*
X0023636Y0298600D01*
X0023779Y0298533D01*
X0023920Y0298463D01*
X0024059Y0298390D01*
X0024197Y0298313D01*
X0024333Y0298232D01*
X0024466Y0298148D01*
X0024597Y0298061D01*
X0024726Y0297970D01*
X0024853Y0297876D01*
X0024978Y0297779D01*
X0025099Y0297679D01*
X0025219Y0297576D01*
X0025335Y0297470D01*
X0025449Y0297361D01*
X0025561Y0297249D01*
X0025669Y0297135D01*
X0025774Y0297017D01*
X0025877Y0296897D01*
X0025976Y0296775D01*
X0026072Y0296650D01*
X0026165Y0296522D01*
X0026255Y0296393D01*
X0026341Y0296261D01*
X0026425Y0296127D01*
X0026504Y0295991D01*
X0026581Y0295853D01*
X0026653Y0295713D01*
X0026722Y0295571D01*
X0026788Y0295428D01*
X0026850Y0295283D01*
X0026908Y0295136D01*
X0026963Y0294988D01*
X0027014Y0294839D01*
X0027061Y0294688D01*
X0027104Y0294537D01*
X0027143Y0294384D01*
X0027179Y0294230D01*
X0027210Y0294076D01*
X0027238Y0293921D01*
X0027262Y0293765D01*
X0027282Y0293608D01*
X0027298Y0293451D01*
X0027310Y0293294D01*
X0027318Y0293137D01*
X0027322Y0292979D01*
X0027322Y0292821D01*
X0027318Y0292663D01*
X0027310Y0292506D01*
X0027298Y0292349D01*
X0027282Y0292192D01*
X0027262Y0292035D01*
X0027238Y0291879D01*
X0027210Y0291724D01*
X0027179Y0291570D01*
X0027143Y0291416D01*
X0027104Y0291263D01*
X0027061Y0291112D01*
X0027014Y0290961D01*
X0026963Y0290812D01*
X0026908Y0290664D01*
X0026850Y0290517D01*
X0026788Y0290372D01*
X0026722Y0290229D01*
X0026653Y0290087D01*
X0026581Y0289947D01*
X0026504Y0289809D01*
X0026425Y0289673D01*
X0026341Y0289539D01*
X0026255Y0289407D01*
X0026165Y0289278D01*
X0026072Y0289150D01*
X0025976Y0289025D01*
X0025877Y0288903D01*
X0025774Y0288783D01*
X0025669Y0288665D01*
X0025561Y0288551D01*
X0025449Y0288439D01*
X0025335Y0288330D01*
X0025219Y0288224D01*
X0025099Y0288121D01*
X0024978Y0288021D01*
X0024853Y0287924D01*
X0024726Y0287830D01*
X0024597Y0287739D01*
X0024466Y0287652D01*
X0024333Y0287568D01*
X0024197Y0287487D01*
X0024059Y0287410D01*
X0023920Y0287337D01*
X0023779Y0287267D01*
X0023636Y0287200D01*
X0023491Y0287137D01*
X0023345Y0287078D01*
X0023197Y0287022D01*
X0023048Y0286971D01*
X0022898Y0286923D01*
X0022747Y0286879D01*
X0022594Y0286838D01*
X0022441Y0286802D01*
X0022286Y0286769D01*
X0022131Y0286740D01*
X0021976Y0286716D01*
X0021819Y0286695D01*
X0021663Y0286678D01*
X0021505Y0286665D01*
X0021348Y0286656D01*
X0021190Y0286651D01*
X0021033Y0286650D01*
X0020875Y0286653D01*
X0020717Y0286660D01*
X0020560Y0286671D01*
X0020403Y0286686D01*
X0020246Y0286705D01*
X0020090Y0286728D01*
X0019935Y0286754D01*
X0019780Y0286785D01*
X0019626Y0286819D01*
X0019473Y0286858D01*
X0019321Y0286900D01*
X0019171Y0286946D01*
X0019021Y0286996D01*
X0018873Y0287050D01*
X0018726Y0287107D01*
X0018580Y0287168D01*
X0018437Y0287233D01*
X0018294Y0287301D01*
X0018154Y0287373D01*
X0018016Y0287448D01*
X0017879Y0287527D01*
X0017744Y0287609D01*
X0017612Y0287695D01*
X0017482Y0287784D01*
X0017354Y0287876D01*
X0017228Y0287972D01*
X0017105Y0288070D01*
X0016985Y0288172D01*
X0016867Y0288277D01*
X0016751Y0288384D01*
X0016639Y0288495D01*
X0016529Y0288608D01*
X0016422Y0288724D01*
X0016318Y0288842D01*
X0016217Y0288964D01*
X0016120Y0289087D01*
X0016025Y0289214D01*
X0015934Y0289342D01*
X0015845Y0289473D01*
X0015761Y0289606D01*
X0015679Y0289741D01*
X0015601Y0289878D01*
X0015527Y0290017D01*
X0015456Y0290158D01*
X0015388Y0290300D01*
X0015325Y0290445D01*
X0015264Y0290590D01*
X0015208Y0290738D01*
X0015155Y0290886D01*
X0015106Y0291036D01*
X0015061Y0291187D01*
X0015020Y0291340D01*
X0014982Y0291493D01*
X0014949Y0291647D01*
X0014919Y0291802D01*
X0014893Y0291957D01*
X0014872Y0292114D01*
X0014854Y0292270D01*
X0014840Y0292427D01*
X0014830Y0292585D01*
X0014824Y0292742D01*
X0014822Y0292900D01*
X0210222Y0292900D02*
X0210224Y0293058D01*
X0210230Y0293215D01*
X0210240Y0293373D01*
X0210254Y0293530D01*
X0210272Y0293686D01*
X0210293Y0293843D01*
X0210319Y0293998D01*
X0210349Y0294153D01*
X0210382Y0294307D01*
X0210420Y0294460D01*
X0210461Y0294613D01*
X0210506Y0294764D01*
X0210555Y0294914D01*
X0210608Y0295062D01*
X0210664Y0295210D01*
X0210725Y0295355D01*
X0210788Y0295500D01*
X0210856Y0295642D01*
X0210927Y0295783D01*
X0211001Y0295922D01*
X0211079Y0296059D01*
X0211161Y0296194D01*
X0211245Y0296327D01*
X0211334Y0296458D01*
X0211425Y0296586D01*
X0211520Y0296713D01*
X0211617Y0296836D01*
X0211718Y0296958D01*
X0211822Y0297076D01*
X0211929Y0297192D01*
X0212039Y0297305D01*
X0212151Y0297416D01*
X0212267Y0297523D01*
X0212385Y0297628D01*
X0212505Y0297730D01*
X0212628Y0297828D01*
X0212754Y0297924D01*
X0212882Y0298016D01*
X0213012Y0298105D01*
X0213144Y0298191D01*
X0213279Y0298273D01*
X0213416Y0298352D01*
X0213554Y0298427D01*
X0213694Y0298499D01*
X0213837Y0298567D01*
X0213980Y0298632D01*
X0214126Y0298693D01*
X0214273Y0298750D01*
X0214421Y0298804D01*
X0214571Y0298854D01*
X0214721Y0298900D01*
X0214873Y0298942D01*
X0215026Y0298981D01*
X0215180Y0299015D01*
X0215335Y0299046D01*
X0215490Y0299072D01*
X0215646Y0299095D01*
X0215803Y0299114D01*
X0215960Y0299129D01*
X0216117Y0299140D01*
X0216275Y0299147D01*
X0216433Y0299150D01*
X0216590Y0299149D01*
X0216748Y0299144D01*
X0216905Y0299135D01*
X0217063Y0299122D01*
X0217219Y0299105D01*
X0217376Y0299084D01*
X0217531Y0299060D01*
X0217686Y0299031D01*
X0217841Y0298998D01*
X0217994Y0298962D01*
X0218147Y0298921D01*
X0218298Y0298877D01*
X0218448Y0298829D01*
X0218597Y0298778D01*
X0218745Y0298722D01*
X0218891Y0298663D01*
X0219036Y0298600D01*
X0219179Y0298533D01*
X0219320Y0298463D01*
X0219459Y0298390D01*
X0219597Y0298313D01*
X0219733Y0298232D01*
X0219866Y0298148D01*
X0219997Y0298061D01*
X0220126Y0297970D01*
X0220253Y0297876D01*
X0220378Y0297779D01*
X0220499Y0297679D01*
X0220619Y0297576D01*
X0220735Y0297470D01*
X0220849Y0297361D01*
X0220961Y0297249D01*
X0221069Y0297135D01*
X0221174Y0297017D01*
X0221277Y0296897D01*
X0221376Y0296775D01*
X0221472Y0296650D01*
X0221565Y0296522D01*
X0221655Y0296393D01*
X0221741Y0296261D01*
X0221825Y0296127D01*
X0221904Y0295991D01*
X0221981Y0295853D01*
X0222053Y0295713D01*
X0222122Y0295571D01*
X0222188Y0295428D01*
X0222250Y0295283D01*
X0222308Y0295136D01*
X0222363Y0294988D01*
X0222414Y0294839D01*
X0222461Y0294688D01*
X0222504Y0294537D01*
X0222543Y0294384D01*
X0222579Y0294230D01*
X0222610Y0294076D01*
X0222638Y0293921D01*
X0222662Y0293765D01*
X0222682Y0293608D01*
X0222698Y0293451D01*
X0222710Y0293294D01*
X0222718Y0293137D01*
X0222722Y0292979D01*
X0222722Y0292821D01*
X0222718Y0292663D01*
X0222710Y0292506D01*
X0222698Y0292349D01*
X0222682Y0292192D01*
X0222662Y0292035D01*
X0222638Y0291879D01*
X0222610Y0291724D01*
X0222579Y0291570D01*
X0222543Y0291416D01*
X0222504Y0291263D01*
X0222461Y0291112D01*
X0222414Y0290961D01*
X0222363Y0290812D01*
X0222308Y0290664D01*
X0222250Y0290517D01*
X0222188Y0290372D01*
X0222122Y0290229D01*
X0222053Y0290087D01*
X0221981Y0289947D01*
X0221904Y0289809D01*
X0221825Y0289673D01*
X0221741Y0289539D01*
X0221655Y0289407D01*
X0221565Y0289278D01*
X0221472Y0289150D01*
X0221376Y0289025D01*
X0221277Y0288903D01*
X0221174Y0288783D01*
X0221069Y0288665D01*
X0220961Y0288551D01*
X0220849Y0288439D01*
X0220735Y0288330D01*
X0220619Y0288224D01*
X0220499Y0288121D01*
X0220378Y0288021D01*
X0220253Y0287924D01*
X0220126Y0287830D01*
X0219997Y0287739D01*
X0219866Y0287652D01*
X0219733Y0287568D01*
X0219597Y0287487D01*
X0219459Y0287410D01*
X0219320Y0287337D01*
X0219179Y0287267D01*
X0219036Y0287200D01*
X0218891Y0287137D01*
X0218745Y0287078D01*
X0218597Y0287022D01*
X0218448Y0286971D01*
X0218298Y0286923D01*
X0218147Y0286879D01*
X0217994Y0286838D01*
X0217841Y0286802D01*
X0217686Y0286769D01*
X0217531Y0286740D01*
X0217376Y0286716D01*
X0217219Y0286695D01*
X0217063Y0286678D01*
X0216905Y0286665D01*
X0216748Y0286656D01*
X0216590Y0286651D01*
X0216433Y0286650D01*
X0216275Y0286653D01*
X0216117Y0286660D01*
X0215960Y0286671D01*
X0215803Y0286686D01*
X0215646Y0286705D01*
X0215490Y0286728D01*
X0215335Y0286754D01*
X0215180Y0286785D01*
X0215026Y0286819D01*
X0214873Y0286858D01*
X0214721Y0286900D01*
X0214571Y0286946D01*
X0214421Y0286996D01*
X0214273Y0287050D01*
X0214126Y0287107D01*
X0213980Y0287168D01*
X0213837Y0287233D01*
X0213694Y0287301D01*
X0213554Y0287373D01*
X0213416Y0287448D01*
X0213279Y0287527D01*
X0213144Y0287609D01*
X0213012Y0287695D01*
X0212882Y0287784D01*
X0212754Y0287876D01*
X0212628Y0287972D01*
X0212505Y0288070D01*
X0212385Y0288172D01*
X0212267Y0288277D01*
X0212151Y0288384D01*
X0212039Y0288495D01*
X0211929Y0288608D01*
X0211822Y0288724D01*
X0211718Y0288842D01*
X0211617Y0288964D01*
X0211520Y0289087D01*
X0211425Y0289214D01*
X0211334Y0289342D01*
X0211245Y0289473D01*
X0211161Y0289606D01*
X0211079Y0289741D01*
X0211001Y0289878D01*
X0210927Y0290017D01*
X0210856Y0290158D01*
X0210788Y0290300D01*
X0210725Y0290445D01*
X0210664Y0290590D01*
X0210608Y0290738D01*
X0210555Y0290886D01*
X0210506Y0291036D01*
X0210461Y0291187D01*
X0210420Y0291340D01*
X0210382Y0291493D01*
X0210349Y0291647D01*
X0210319Y0291802D01*
X0210293Y0291957D01*
X0210272Y0292114D01*
X0210254Y0292270D01*
X0210240Y0292427D01*
X0210230Y0292585D01*
X0210224Y0292742D01*
X0210222Y0292900D01*
D11*
X0191272Y0284845D03*
X0191272Y0277955D03*
X0184272Y0277955D03*
X0184272Y0284845D03*
X0149172Y0272745D03*
X0149172Y0265855D03*
X0097272Y0210845D03*
X0097272Y0203955D03*
X0066772Y0174345D03*
X0066772Y0167455D03*
X0207272Y0167845D03*
X0207272Y0160955D03*
X0207272Y0222255D03*
X0207272Y0229145D03*
X0214272Y0229145D03*
X0214272Y0222255D03*
X0221272Y0222255D03*
X0221272Y0229145D03*
D12*
X0176209Y0186400D03*
X0168335Y0186400D03*
X0161209Y0186400D03*
X0153335Y0186400D03*
X0153335Y0177400D03*
X0161209Y0177400D03*
X0168335Y0177400D03*
X0168335Y0168400D03*
X0176209Y0168400D03*
X0176209Y0177400D03*
D13*
X0179927Y0193600D03*
X0186817Y0193600D03*
X0167717Y0151400D03*
X0160827Y0151400D03*
X0160827Y0141400D03*
X0167717Y0141400D03*
X0167717Y0131400D03*
X0160827Y0131400D03*
X0160827Y0121400D03*
X0167717Y0121400D03*
X0167717Y0111400D03*
X0160827Y0111400D03*
X0160827Y0101400D03*
X0167717Y0101400D03*
X0167717Y0091400D03*
X0160827Y0091400D03*
X0160827Y0081400D03*
X0167717Y0081400D03*
X0148717Y0078400D03*
X0141827Y0078400D03*
X0141827Y0111400D03*
X0148717Y0111400D03*
X0100717Y0139400D03*
X0093827Y0139400D03*
X0075717Y0198400D03*
X0068827Y0198400D03*
X0119827Y0197800D03*
X0119827Y0203900D03*
X0126717Y0203900D03*
X0126717Y0197800D03*
X0139127Y0229700D03*
X0146017Y0229700D03*
X0193827Y0239400D03*
X0200717Y0239400D03*
X0180717Y0299400D03*
X0173827Y0299400D03*
D14*
X0188319Y0264400D03*
X0188319Y0258400D03*
X0188319Y0252400D03*
X0194224Y0252400D03*
X0194224Y0258400D03*
X0194224Y0264400D03*
X0117272Y0240353D03*
X0117272Y0234447D03*
X0107272Y0234447D03*
X0107272Y0240353D03*
X0097272Y0240353D03*
X0097272Y0234447D03*
X0087272Y0234447D03*
X0087272Y0240353D03*
D15*
X0088772Y0025200D03*
X0098772Y0025200D03*
X0108772Y0025200D03*
X0118772Y0025200D03*
X0128772Y0025200D03*
X0138772Y0025200D03*
X0148772Y0025200D03*
X0158772Y0025200D03*
X0168772Y0025200D03*
X0178772Y0025200D03*
X0188772Y0025200D03*
X0198772Y0025200D03*
X0198772Y0015200D03*
X0188772Y0015200D03*
X0178772Y0015200D03*
X0168772Y0015200D03*
X0158772Y0015200D03*
X0148772Y0015200D03*
X0138772Y0015200D03*
X0128772Y0015200D03*
X0118772Y0015200D03*
X0108772Y0015200D03*
X0098772Y0015200D03*
X0088772Y0015200D03*
X0078772Y0015200D03*
X0078772Y0025200D03*
X0068772Y0025200D03*
X0068772Y0015200D03*
X0058772Y0015200D03*
X0058772Y0025200D03*
X0048772Y0025200D03*
X0048772Y0015200D03*
X0038772Y0015200D03*
X0038772Y0025200D03*
D16*
X0042272Y0061400D03*
X0052272Y0061400D03*
X0062272Y0061400D03*
X0072272Y0061400D03*
X0082272Y0061400D03*
X0092272Y0061400D03*
X0102272Y0061400D03*
X0112272Y0061400D03*
X0122272Y0061400D03*
X0132272Y0061400D03*
X0152272Y0061400D03*
X0162272Y0061400D03*
X0172272Y0061400D03*
X0182272Y0061400D03*
X0202272Y0061400D03*
X0212272Y0061400D03*
X0212272Y0081400D03*
X0212272Y0091400D03*
X0212272Y0101400D03*
X0212272Y0111400D03*
X0212272Y0121400D03*
X0212272Y0131400D03*
X0212272Y0141400D03*
X0027272Y0141400D03*
X0027272Y0131400D03*
X0027272Y0121400D03*
X0027272Y0111400D03*
X0027272Y0101400D03*
X0027272Y0091400D03*
X0027272Y0081400D03*
X0027272Y0061400D03*
X0027272Y0151400D03*
X0027272Y0161400D03*
X0027272Y0171400D03*
X0027272Y0181400D03*
X0027272Y0191400D03*
D17*
X0037272Y0191400D03*
X0037272Y0181400D03*
X0037272Y0171400D03*
X0047272Y0171400D03*
X0047272Y0181400D03*
X0047272Y0191400D03*
X0047272Y0161400D03*
X0047272Y0151400D03*
X0047272Y0141400D03*
X0047272Y0131400D03*
X0047272Y0121400D03*
X0047272Y0111400D03*
X0047272Y0101400D03*
X0047272Y0091400D03*
X0047272Y0081400D03*
X0037272Y0081400D03*
X0037272Y0091400D03*
X0037272Y0101400D03*
X0037272Y0111400D03*
X0037272Y0121400D03*
X0037272Y0131400D03*
X0037272Y0141400D03*
X0037272Y0151400D03*
X0037272Y0161400D03*
X0042272Y0051400D03*
X0042272Y0041400D03*
X0052272Y0041400D03*
X0052272Y0051400D03*
X0062272Y0051400D03*
X0062272Y0041400D03*
X0072272Y0041400D03*
X0072272Y0051400D03*
X0082272Y0051400D03*
X0082272Y0041400D03*
X0092272Y0041400D03*
X0092272Y0051400D03*
X0102272Y0051400D03*
X0102272Y0041400D03*
X0112272Y0041400D03*
X0112272Y0051400D03*
X0122272Y0051400D03*
X0122272Y0041400D03*
X0132272Y0041400D03*
X0132272Y0051400D03*
X0152272Y0051400D03*
X0152272Y0041400D03*
X0162272Y0041400D03*
X0162272Y0051400D03*
X0172272Y0051400D03*
X0172272Y0041400D03*
X0182272Y0041400D03*
X0182272Y0051400D03*
X0202272Y0051400D03*
X0202272Y0041400D03*
X0212272Y0041400D03*
X0212272Y0051400D03*
X0202272Y0081400D03*
X0202272Y0091400D03*
X0202272Y0101400D03*
X0202272Y0111400D03*
X0202272Y0121400D03*
X0202272Y0131400D03*
X0202272Y0141400D03*
X0192272Y0141400D03*
X0192272Y0131400D03*
X0192272Y0121400D03*
X0192272Y0111400D03*
X0192272Y0101400D03*
X0192272Y0091400D03*
X0192272Y0081400D03*
X0027272Y0051400D03*
X0027272Y0041400D03*
D18*
X0028177Y0227449D03*
X0028177Y0231780D03*
X0028177Y0236110D03*
X0028177Y0240441D03*
X0028177Y0244772D03*
X0028177Y0249102D03*
X0028177Y0253433D03*
X0028177Y0257764D03*
D19*
X0017941Y0267134D03*
X0050618Y0267134D03*
X0050618Y0213000D03*
X0017941Y0213000D03*
D20*
X0211374Y0245101D03*
X0211374Y0248250D03*
X0211374Y0251400D03*
X0211374Y0254550D03*
X0211374Y0257699D03*
D21*
X0211374Y0265770D03*
X0222792Y0265770D03*
X0222792Y0237030D03*
X0211374Y0237030D03*
D22*
X0200272Y0198664D03*
X0202240Y0194136D03*
X0198303Y0194136D03*
X0195240Y0194136D03*
X0193272Y0198664D03*
X0191303Y0194136D03*
X0175272Y0280136D03*
X0177240Y0284664D03*
X0173303Y0284664D03*
D23*
X0165272Y0272746D03*
X0165272Y0266054D03*
X0157272Y0266054D03*
X0157272Y0272746D03*
X0193925Y0246400D03*
X0200618Y0246400D03*
X0198272Y0213746D03*
X0198272Y0207054D03*
X0190272Y0207054D03*
X0190272Y0213746D03*
X0210272Y0183746D03*
X0210272Y0177054D03*
X0117272Y0246054D03*
X0117272Y0252746D03*
X0107272Y0252746D03*
X0107272Y0246054D03*
X0097272Y0246054D03*
X0097272Y0252746D03*
X0087272Y0252746D03*
X0087272Y0246054D03*
X0115272Y0219246D03*
X0115272Y0212554D03*
D24*
X0075618Y0215400D03*
X0068925Y0215400D03*
X0068925Y0206400D03*
X0075618Y0206400D03*
X0075618Y0224400D03*
X0068925Y0224400D03*
X0068925Y0233400D03*
X0075618Y0233400D03*
X0075618Y0242400D03*
X0068925Y0242400D03*
X0068925Y0251400D03*
X0075618Y0251400D03*
X0070618Y0272900D03*
X0063925Y0272900D03*
X0063925Y0280900D03*
X0070618Y0280900D03*
X0070618Y0288900D03*
X0063925Y0288900D03*
X0063925Y0296900D03*
X0070618Y0296900D03*
X0173925Y0291400D03*
X0180618Y0291400D03*
X0182618Y0264400D03*
X0182618Y0256400D03*
X0175925Y0256400D03*
X0175925Y0264400D03*
X0175925Y0248400D03*
X0182618Y0248400D03*
X0183925Y0183400D03*
X0190618Y0183400D03*
X0196925Y0183400D03*
X0203618Y0183400D03*
X0190618Y0173400D03*
X0183925Y0173400D03*
X0180618Y0161400D03*
X0173925Y0161400D03*
X0173925Y0151400D03*
X0180618Y0151400D03*
X0180618Y0141400D03*
X0173925Y0141400D03*
X0173925Y0131400D03*
X0180618Y0131400D03*
X0180618Y0121400D03*
X0173925Y0121400D03*
X0173925Y0111400D03*
X0180618Y0111400D03*
X0180618Y0101400D03*
X0173925Y0101400D03*
X0173925Y0091400D03*
X0180618Y0091400D03*
X0180618Y0081400D03*
X0173925Y0081400D03*
X0216925Y0173400D03*
X0223618Y0173400D03*
X0223618Y0183400D03*
X0216925Y0183400D03*
D25*
X0117272Y0263800D02*
X0117272Y0269000D01*
X0107272Y0269000D02*
X0107272Y0263800D01*
X0097272Y0263800D02*
X0097272Y0269000D01*
X0087272Y0269000D02*
X0087272Y0263800D01*
X0087272Y0293800D02*
X0087272Y0299000D01*
X0097272Y0299000D02*
X0097272Y0293800D01*
X0107272Y0293800D02*
X0107272Y0299000D01*
X0117272Y0299000D02*
X0117272Y0293800D01*
D26*
X0184360Y0226400D03*
X0198182Y0226317D03*
D27*
X0119663Y0187197D03*
X0119663Y0184048D03*
X0119663Y0180898D03*
X0119663Y0177748D03*
X0119663Y0174599D03*
X0119663Y0171449D03*
X0119663Y0168300D03*
X0119663Y0165150D03*
X0119663Y0162000D03*
X0119663Y0158851D03*
X0119663Y0155701D03*
X0074781Y0155701D03*
X0074781Y0158851D03*
X0074781Y0162000D03*
X0074781Y0165150D03*
X0074781Y0168300D03*
X0074781Y0171449D03*
X0074781Y0174599D03*
X0074781Y0177748D03*
X0074781Y0180898D03*
X0074781Y0184048D03*
X0074781Y0187197D03*
D28*
X0081474Y0193890D03*
X0084624Y0193890D03*
X0087774Y0193890D03*
X0090923Y0193890D03*
X0094073Y0193890D03*
X0097222Y0193890D03*
X0100372Y0193890D03*
X0103522Y0193890D03*
X0106671Y0193890D03*
X0109821Y0193890D03*
X0112970Y0193890D03*
X0112970Y0149008D03*
X0109821Y0149008D03*
X0106671Y0149008D03*
X0103522Y0149008D03*
X0100372Y0149008D03*
X0097222Y0149008D03*
X0094073Y0149008D03*
X0090923Y0149008D03*
X0087774Y0149008D03*
X0084624Y0149008D03*
X0081474Y0149008D03*
D29*
X0122756Y0211561D03*
X0122756Y0214120D03*
X0122756Y0216680D03*
X0122756Y0219239D03*
X0145787Y0219239D03*
X0145787Y0216680D03*
X0145787Y0214120D03*
X0145787Y0211561D03*
D30*
X0193531Y0161676D03*
X0201012Y0161676D03*
X0197272Y0171124D03*
D31*
X0208335Y0190983D03*
X0210894Y0190983D03*
X0213453Y0190983D03*
X0216012Y0190983D03*
X0216012Y0213817D03*
X0213453Y0213817D03*
X0210894Y0213817D03*
X0208335Y0213817D03*
D32*
X0171372Y0199000D03*
X0162372Y0199000D03*
X0153372Y0199000D03*
D33*
X0162272Y0223800D03*
D34*
X0153209Y0138061D03*
X0151240Y0138061D03*
X0149272Y0138061D03*
X0147303Y0138061D03*
X0145335Y0138061D03*
X0145335Y0120739D03*
X0147303Y0120739D03*
X0149272Y0120739D03*
X0151240Y0120739D03*
X0153209Y0120739D03*
X0153209Y0104061D03*
X0151240Y0104061D03*
X0149272Y0104061D03*
X0147303Y0104061D03*
X0145335Y0104061D03*
X0145335Y0086739D03*
X0147303Y0086739D03*
X0149272Y0086739D03*
X0151240Y0086739D03*
X0153209Y0086739D03*
D35*
X0137272Y0149700D03*
X0137272Y0187100D03*
D36*
X0134327Y0280239D03*
X0134327Y0297955D03*
X0165626Y0297955D03*
X0165626Y0280239D03*
D37*
X0157522Y0258950D03*
X0155022Y0258950D03*
X0152522Y0258950D03*
X0150022Y0258950D03*
X0147522Y0258950D03*
X0145022Y0258950D03*
X0142522Y0258950D03*
X0140022Y0258950D03*
X0137522Y0258950D03*
X0135022Y0258950D03*
X0135022Y0237850D03*
X0137522Y0237850D03*
X0140022Y0237850D03*
X0142522Y0237850D03*
X0145022Y0237850D03*
X0147522Y0237850D03*
X0150022Y0237850D03*
X0152522Y0237850D03*
X0155022Y0237850D03*
X0157522Y0237850D03*
D38*
G36*
X0049100Y0291400D02*
X0046272Y0288572D01*
X0043444Y0291400D01*
X0046272Y0294228D01*
X0049100Y0291400D01*
G37*
G36*
X0221100Y0013400D02*
X0218272Y0010572D01*
X0215444Y0013400D01*
X0218272Y0016228D01*
X0221100Y0013400D01*
G37*
D39*
X0128831Y0227054D03*
X0123713Y0227054D03*
X0123713Y0233746D03*
X0126272Y0233746D03*
X0128831Y0233746D03*
D40*
X0128831Y0230400D01*
X0128831Y0227054D01*
X0132772Y0230400D02*
X0133272Y0230400D01*
X0139127Y0229700D02*
X0139310Y0229700D01*
X0139827Y0230217D01*
X0146017Y0229700D02*
X0146017Y0223545D01*
X0146017Y0223445D01*
X0145972Y0223400D01*
X0146017Y0223545D02*
X0145787Y0223316D01*
X0145787Y0219239D01*
X0145787Y0216680D01*
X0145787Y0214120D01*
X0145787Y0211561D01*
X0162272Y0223800D02*
X0162272Y0248400D01*
X0175925Y0248400D01*
X0193925Y0246400D02*
X0194272Y0246400D01*
X0194272Y0246900D01*
X0197772Y0250400D01*
X0197772Y0254853D01*
X0194224Y0258400D01*
X0194224Y0264400D01*
X0200618Y0246400D02*
X0200618Y0245746D01*
X0197772Y0242900D01*
X0196772Y0242900D01*
X0193827Y0239955D01*
X0193827Y0239400D01*
X0202016Y0245101D02*
X0211374Y0245101D01*
X0211374Y0237030D02*
X0213004Y0235400D01*
X0214272Y0235400D01*
X0214272Y0229400D01*
X0214272Y0229145D02*
X0207272Y0229145D01*
X0207272Y0228900D01*
X0207272Y0222255D02*
X0205127Y0222255D01*
X0207272Y0222255D02*
X0208335Y0221192D01*
X0208335Y0213817D01*
X0210894Y0213817D02*
X0210894Y0209022D01*
X0210894Y0213817D02*
X0210894Y0219022D01*
X0214127Y0222255D01*
X0214272Y0222255D01*
X0214272Y0218400D02*
X0221272Y0218400D01*
X0221272Y0222255D01*
X0221272Y0229145D02*
X0214272Y0229145D01*
X0221272Y0229400D02*
X0221272Y0233400D01*
X0222772Y0234900D01*
X0222772Y0236900D01*
X0214272Y0218400D02*
X0213453Y0217581D01*
X0213453Y0213817D01*
X0216012Y0213817D02*
X0216012Y0204723D01*
X0214772Y0203483D01*
X0213453Y0202164D01*
X0213453Y0190983D01*
X0213453Y0187219D01*
X0216925Y0183746D01*
X0216925Y0183400D01*
X0216925Y0173400D01*
X0223618Y0173400D02*
X0223618Y0183400D01*
X0216035Y0190983D01*
X0216012Y0190983D01*
X0210894Y0190983D02*
X0210894Y0184369D01*
X0210272Y0183746D01*
X0203618Y0183400D02*
X0209965Y0177054D01*
X0210272Y0177054D01*
X0210272Y0172400D01*
X0210272Y0170845D01*
X0207272Y0167845D01*
X0210272Y0172400D02*
X0198547Y0172400D01*
X0197272Y0171124D01*
X0194996Y0173400D01*
X0190618Y0173400D01*
X0180618Y0163991D02*
X0180618Y0161400D01*
X0180618Y0163991D02*
X0176209Y0168400D01*
X0180618Y0151400D02*
X0184272Y0151400D01*
X0187272Y0148400D01*
X0210272Y0148400D01*
X0212272Y0146400D01*
X0212272Y0141400D01*
X0208272Y0160955D02*
X0207272Y0160955D01*
X0201732Y0160955D02*
X0201012Y0161676D01*
X0201291Y0161955D01*
X0180618Y0149746D02*
X0177272Y0146400D01*
X0160827Y0146400D01*
X0160772Y0146400D01*
X0160827Y0146400D02*
X0160827Y0141400D01*
X0160827Y0146400D02*
X0160827Y0151400D01*
X0146272Y0115900D02*
X0142272Y0111900D01*
X0141827Y0111400D02*
X0140772Y0110345D01*
X0141272Y0110845D02*
X0141827Y0111400D01*
X0148717Y0111400D02*
X0152772Y0111400D01*
X0154272Y0112900D01*
X0153772Y0078400D02*
X0148717Y0078400D01*
X0100717Y0139400D02*
X0100372Y0139744D01*
X0100372Y0149008D01*
X0100372Y0162300D01*
X0097772Y0164900D01*
X0106272Y0173400D01*
X0111272Y0173400D01*
X0115620Y0177748D01*
X0119663Y0177748D01*
X0124620Y0177748D01*
X0126917Y0180045D01*
X0119663Y0168300D02*
X0113171Y0168300D01*
X0111272Y0166400D01*
X0097772Y0164900D02*
X0097272Y0165400D01*
X0094272Y0165400D01*
X0094272Y0174400D01*
X0088272Y0180400D01*
X0083272Y0180400D01*
X0082272Y0181400D01*
X0088272Y0187400D01*
X0092672Y0187400D01*
X0094073Y0188801D01*
X0094073Y0193890D01*
X0094073Y0199599D01*
X0093272Y0200400D01*
X0093272Y0208400D01*
X0095272Y0210400D01*
X0097222Y0203906D02*
X0097222Y0193890D01*
X0097272Y0193841D01*
X0097272Y0186900D01*
X0082372Y0173300D02*
X0082372Y0173100D01*
X0081972Y0173100D01*
X0080321Y0171449D01*
X0074781Y0171449D01*
X0074781Y0174599D02*
X0066772Y0174599D01*
X0066772Y0174345D01*
X0066772Y0167455D02*
X0069077Y0165150D01*
X0074781Y0165150D01*
X0090022Y0165150D01*
X0090272Y0165400D01*
X0094272Y0165400D01*
X0095272Y0156400D02*
X0095272Y0156302D01*
X0097222Y0154351D01*
X0097222Y0149008D01*
X0097222Y0142796D01*
X0093827Y0139400D01*
X0093222Y0138796D01*
X0093223Y0138796D02*
X0093225Y0138843D01*
X0093230Y0138890D01*
X0093240Y0138937D01*
X0093253Y0138983D01*
X0093269Y0139027D01*
X0093289Y0139070D01*
X0093312Y0139112D01*
X0093338Y0139151D01*
X0093368Y0139188D01*
X0093400Y0139223D01*
X0093435Y0139255D01*
X0093472Y0139285D01*
X0093511Y0139311D01*
X0093553Y0139334D01*
X0093596Y0139354D01*
X0093640Y0139370D01*
X0093686Y0139383D01*
X0093733Y0139393D01*
X0093780Y0139398D01*
X0093827Y0139400D01*
X0082372Y0173300D02*
X0081073Y0174599D01*
X0074781Y0174599D01*
X0115272Y0212554D02*
X0116264Y0211561D01*
X0116259Y0211566D02*
X0118644Y0211566D01*
X0118644Y0211561D01*
X0118644Y0209150D01*
X0118644Y0211561D02*
X0122756Y0211561D01*
X0116259Y0211566D02*
X0116197Y0211568D01*
X0116135Y0211574D01*
X0116074Y0211584D01*
X0116013Y0211597D01*
X0115954Y0211614D01*
X0115895Y0211635D01*
X0115838Y0211660D01*
X0115783Y0211688D01*
X0115730Y0211720D01*
X0115678Y0211755D01*
X0115629Y0211793D01*
X0115583Y0211834D01*
X0115539Y0211878D01*
X0115498Y0211924D01*
X0115460Y0211973D01*
X0115425Y0212025D01*
X0115393Y0212078D01*
X0115365Y0212133D01*
X0115340Y0212190D01*
X0115319Y0212249D01*
X0115302Y0212308D01*
X0115289Y0212369D01*
X0115279Y0212430D01*
X0115273Y0212492D01*
X0115271Y0212554D01*
X0126717Y0203900D02*
X0126717Y0197800D01*
X0119827Y0197800D02*
X0119827Y0192345D01*
X0119972Y0192200D01*
X0123713Y0233746D02*
X0123713Y0241841D01*
X0125272Y0243400D01*
X0117272Y0252746D02*
X0107272Y0252746D01*
X0097272Y0252746D01*
X0087272Y0252746D01*
X0063925Y0268054D02*
X0062272Y0266400D01*
X0063925Y0268054D02*
X0063925Y0272900D01*
X0063925Y0280900D01*
X0063925Y0296900D01*
X0017941Y0213000D02*
X0017941Y0212429D01*
X0017272Y0212429D01*
X0134772Y0297400D02*
X0135217Y0296955D01*
X0143772Y0266900D02*
X0143772Y0264400D01*
X0145022Y0263150D01*
X0150022Y0255400D02*
X0150022Y0249150D01*
X0148772Y0247900D01*
X0143772Y0247900D01*
X0140022Y0244150D01*
X0140022Y0242150D01*
X0147522Y0242950D02*
X0147522Y0237850D01*
X0147522Y0242950D02*
X0148772Y0244200D01*
X0184272Y0284845D02*
X0186272Y0286845D01*
X0186272Y0290400D01*
X0189272Y0290400D01*
X0191272Y0288400D01*
X0191272Y0284845D01*
X0173925Y0291400D02*
X0172181Y0291400D01*
X0165626Y0297955D01*
X0198272Y0218900D02*
X0198272Y0213746D01*
X0179727Y0193400D02*
X0176209Y0193400D01*
X0162372Y0199000D02*
X0162272Y0199000D01*
D41*
X0150272Y0205400D02*
X0141272Y0199400D01*
X0132272Y0199400D01*
X0131272Y0198400D01*
X0131272Y0178400D01*
X0130272Y0177400D01*
X0126272Y0177400D01*
X0125272Y0178400D01*
X0125272Y0189400D01*
X0124272Y0190400D01*
X0124272Y0194326D01*
X0124465Y0194274D01*
X0126317Y0194274D01*
X0126317Y0197400D01*
X0127116Y0197400D01*
X0127116Y0194274D01*
X0128968Y0194274D01*
X0129324Y0194369D01*
X0129643Y0194554D01*
X0129904Y0194814D01*
X0130088Y0195134D01*
X0130183Y0195490D01*
X0130183Y0197400D01*
X0127117Y0197400D01*
X0127117Y0198200D01*
X0130183Y0198200D01*
X0130183Y0200110D01*
X0130088Y0200466D01*
X0129904Y0200786D01*
X0129839Y0200850D01*
X0129904Y0200914D01*
X0130088Y0201234D01*
X0130183Y0201590D01*
X0130183Y0203500D01*
X0127117Y0203500D01*
X0127117Y0204300D01*
X0130183Y0204300D01*
X0130183Y0206210D01*
X0130088Y0206566D01*
X0129904Y0206886D01*
X0129643Y0207146D01*
X0129324Y0207331D01*
X0128968Y0207426D01*
X0127116Y0207426D01*
X0127116Y0204300D01*
X0126317Y0204300D01*
X0126317Y0207426D01*
X0124465Y0207426D01*
X0124109Y0207331D01*
X0123790Y0207146D01*
X0123544Y0206900D01*
X0122717Y0206900D01*
X0122391Y0207226D01*
X0117263Y0207226D01*
X0116937Y0206900D01*
X0116272Y0206900D01*
X0116272Y0209185D01*
X0117621Y0209185D01*
X0117977Y0209280D01*
X0118297Y0209465D01*
X0118557Y0209725D01*
X0118695Y0209965D01*
X0118781Y0209816D01*
X0119042Y0209555D01*
X0119361Y0209371D01*
X0119717Y0209276D01*
X0122713Y0209276D01*
X0122713Y0211400D01*
X0122799Y0211400D01*
X0122799Y0209276D01*
X0125795Y0209276D01*
X0126151Y0209371D01*
X0126470Y0209555D01*
X0126730Y0209816D01*
X0126915Y0210135D01*
X0127010Y0210491D01*
X0127010Y0211400D01*
X0130272Y0211400D01*
X0133272Y0209400D01*
X0149272Y0209400D01*
X0149272Y0209608D01*
X0149842Y0210179D01*
X0149842Y0220621D01*
X0149272Y0221192D01*
X0149272Y0227065D01*
X0149283Y0227077D01*
X0149283Y0229116D01*
X0149322Y0229154D01*
X0149322Y0234400D01*
X0159272Y0234400D01*
X0159272Y0234903D01*
X0159472Y0235103D01*
X0159472Y0240597D01*
X0159272Y0240797D01*
X0159272Y0242400D01*
X0157534Y0242400D01*
X0156934Y0243000D01*
X0154334Y0243000D01*
X0153772Y0243563D01*
X0153772Y0251837D01*
X0155234Y0253300D01*
X0159234Y0253300D01*
X0161272Y0255337D01*
X0161272Y0259137D01*
X0162934Y0260800D01*
X0169262Y0260800D01*
X0172757Y0257306D01*
X0172757Y0253738D01*
X0173272Y0253223D01*
X0173272Y0251786D01*
X0173097Y0251686D01*
X0172836Y0251425D01*
X0172652Y0251106D01*
X0172557Y0250750D01*
X0172557Y0248800D01*
X0173272Y0248800D01*
X0173272Y0248000D01*
X0172557Y0248000D01*
X0172557Y0246050D01*
X0172652Y0245694D01*
X0172836Y0245375D01*
X0173097Y0245114D01*
X0173416Y0244930D01*
X0173772Y0244835D01*
X0173837Y0244835D01*
X0174272Y0244400D01*
X0185272Y0244400D01*
X0186272Y0243400D01*
X0186272Y0234400D01*
X0185272Y0233400D01*
X0181272Y0233400D01*
X0177272Y0229400D01*
X0177272Y0223400D01*
X0181272Y0219400D01*
X0184272Y0219400D01*
X0185272Y0218400D01*
X0185272Y0210600D01*
X0184135Y0210600D01*
X0182959Y0210113D01*
X0178246Y0205400D01*
X0150272Y0205400D01*
X0149702Y0205020D02*
X0130183Y0205020D01*
X0130183Y0205819D02*
X0178665Y0205819D01*
X0179464Y0206617D02*
X0130059Y0206617D01*
X0129005Y0207416D02*
X0180262Y0207416D01*
X0181061Y0208214D02*
X0116272Y0208214D01*
X0116272Y0207416D02*
X0124428Y0207416D01*
X0126317Y0207416D02*
X0127116Y0207416D01*
X0127116Y0206617D02*
X0126317Y0206617D01*
X0126317Y0205819D02*
X0127116Y0205819D01*
X0127116Y0205020D02*
X0126317Y0205020D01*
X0127117Y0204222D02*
X0148504Y0204222D01*
X0147307Y0203423D02*
X0130183Y0203423D01*
X0130183Y0202625D02*
X0146109Y0202625D01*
X0144911Y0201826D02*
X0130183Y0201826D01*
X0129969Y0201028D02*
X0143713Y0201028D01*
X0142516Y0200229D02*
X0130152Y0200229D01*
X0130183Y0199431D02*
X0141318Y0199431D01*
X0149475Y0209811D02*
X0182658Y0209811D01*
X0181859Y0209013D02*
X0116272Y0209013D01*
X0118607Y0209811D02*
X0118786Y0209811D01*
X0122713Y0209811D02*
X0122799Y0209811D01*
X0122799Y0210610D02*
X0122713Y0210610D01*
X0126726Y0209811D02*
X0132654Y0209811D01*
X0131457Y0210610D02*
X0127010Y0210610D01*
X0127116Y0203500D02*
X0127116Y0198200D01*
X0126317Y0198200D01*
X0126317Y0201326D01*
X0126317Y0203500D01*
X0127116Y0203500D01*
X0127116Y0203423D02*
X0126317Y0203423D01*
X0126317Y0202625D02*
X0127116Y0202625D01*
X0127116Y0201826D02*
X0126317Y0201826D01*
X0126317Y0201028D02*
X0127116Y0201028D01*
X0127116Y0200229D02*
X0126317Y0200229D01*
X0126317Y0199431D02*
X0127116Y0199431D01*
X0127116Y0198632D02*
X0126317Y0198632D01*
X0127117Y0197834D02*
X0131272Y0197834D01*
X0131272Y0197035D02*
X0130183Y0197035D01*
X0130183Y0196237D02*
X0131272Y0196237D01*
X0131272Y0195438D02*
X0130170Y0195438D01*
X0129729Y0194640D02*
X0131272Y0194640D01*
X0131272Y0193841D02*
X0124272Y0193841D01*
X0124272Y0193043D02*
X0131272Y0193043D01*
X0131272Y0192244D02*
X0124272Y0192244D01*
X0124272Y0191446D02*
X0131272Y0191446D01*
X0131272Y0190647D02*
X0124272Y0190647D01*
X0124823Y0189849D02*
X0131272Y0189849D01*
X0131272Y0189050D02*
X0125272Y0189050D01*
X0125272Y0188252D02*
X0131272Y0188252D01*
X0131272Y0187453D02*
X0125272Y0187453D01*
X0125272Y0186655D02*
X0131272Y0186655D01*
X0131272Y0185856D02*
X0125272Y0185856D01*
X0125272Y0185058D02*
X0131272Y0185058D01*
X0131272Y0184259D02*
X0125272Y0184259D01*
X0125272Y0183461D02*
X0131272Y0183461D01*
X0131272Y0182662D02*
X0125272Y0182662D01*
X0125272Y0181864D02*
X0131272Y0181864D01*
X0131272Y0181065D02*
X0125272Y0181065D01*
X0125272Y0180267D02*
X0131272Y0180267D01*
X0131272Y0179468D02*
X0125272Y0179468D01*
X0125272Y0178670D02*
X0131272Y0178670D01*
X0130743Y0177871D02*
X0125801Y0177871D01*
X0119663Y0180898D02*
X0114770Y0180898D01*
X0113272Y0179400D01*
X0104272Y0179400D01*
X0108272Y0182400D02*
X0105272Y0185400D01*
X0105272Y0186400D01*
X0108272Y0182400D02*
X0113272Y0182400D01*
X0114919Y0184048D01*
X0119663Y0184048D01*
X0119663Y0187197D02*
X0112569Y0187197D01*
X0111772Y0186400D01*
X0112970Y0193890D02*
X0112970Y0207299D01*
X0113072Y0207400D01*
X0109772Y0214400D02*
X0109772Y0193939D01*
X0109821Y0193890D01*
X0106772Y0193991D02*
X0106671Y0193890D01*
X0106772Y0193991D02*
X0106772Y0214400D01*
X0111610Y0219239D01*
X0115291Y0219239D01*
X0122756Y0219239D01*
X0122756Y0216680D02*
X0119051Y0216680D01*
X0118272Y0215900D01*
X0111272Y0215900D01*
X0109772Y0214400D01*
X0103522Y0213650D02*
X0113272Y0223400D01*
X0124772Y0223400D01*
X0125772Y0222400D01*
X0128972Y0222400D01*
X0123713Y0227054D02*
X0122059Y0225400D01*
X0112272Y0225400D01*
X0101272Y0214400D01*
X0101272Y0200400D01*
X0100372Y0199500D01*
X0100372Y0193890D01*
X0103522Y0193890D02*
X0103522Y0213650D01*
X0097272Y0210845D02*
X0096827Y0210400D01*
X0095272Y0210400D01*
X0097272Y0203955D02*
X0097222Y0203906D01*
X0090923Y0193890D02*
X0090923Y0221748D01*
X0083272Y0229400D01*
X0083272Y0250900D01*
X0079372Y0254800D01*
X0072672Y0254800D01*
X0069272Y0251400D01*
X0068925Y0251400D01*
X0052272Y0251400D01*
X0045908Y0257764D01*
X0028177Y0257764D01*
X0028177Y0253433D02*
X0045239Y0253433D01*
X0056272Y0242400D01*
X0068925Y0242400D01*
X0072325Y0239000D01*
X0078672Y0239000D01*
X0081272Y0236400D01*
X0081272Y0228400D01*
X0087774Y0221898D01*
X0087774Y0193890D01*
X0084624Y0193890D02*
X0084624Y0222048D01*
X0079272Y0227400D01*
X0079272Y0236000D01*
X0078272Y0237000D01*
X0072525Y0237000D01*
X0068925Y0233400D01*
X0060272Y0233400D01*
X0048900Y0244772D01*
X0028177Y0244772D01*
X0028180Y0249100D02*
X0028177Y0249102D01*
X0020772Y0257700D02*
X0023872Y0260800D01*
X0047972Y0260800D01*
X0051572Y0257200D01*
X0102272Y0257200D01*
X0108072Y0257200D01*
X0117272Y0266400D01*
X0107272Y0266400D02*
X0107272Y0271400D01*
X0097272Y0281400D01*
X0086118Y0281400D01*
X0070618Y0296900D01*
X0070618Y0299654D01*
X0068072Y0302200D01*
X0059172Y0302200D01*
X0055572Y0298600D01*
X0055572Y0289100D01*
X0044472Y0278000D01*
X0044272Y0278000D01*
X0050872Y0278100D02*
X0057272Y0271700D01*
X0057272Y0264400D01*
X0059472Y0262200D01*
X0066772Y0262200D01*
X0070972Y0266400D01*
X0076272Y0266400D01*
X0076272Y0270800D01*
X0074172Y0272900D01*
X0070618Y0272900D01*
X0076818Y0274700D02*
X0070618Y0280900D01*
X0070618Y0288900D02*
X0081718Y0277800D01*
X0096572Y0277800D01*
X0102272Y0272100D01*
X0102272Y0257200D01*
X0097272Y0266400D02*
X0089872Y0259000D01*
X0058772Y0259000D01*
X0055372Y0262400D01*
X0022772Y0262400D01*
X0018272Y0257900D01*
X0018272Y0221400D01*
X0023272Y0216400D01*
X0023272Y0207400D01*
X0027272Y0203400D01*
X0044372Y0203400D01*
X0053272Y0194500D01*
X0053272Y0187400D01*
X0047272Y0181400D01*
X0042172Y0176500D02*
X0047272Y0171400D01*
X0042172Y0176500D02*
X0042172Y0195200D01*
X0040272Y0197100D01*
X0019972Y0197100D01*
X0014972Y0192100D01*
X0014672Y0192100D01*
X0014672Y0199500D02*
X0041272Y0199500D01*
X0044972Y0195800D01*
X0044972Y0193700D01*
X0047272Y0191400D01*
X0055272Y0194900D02*
X0044772Y0205400D01*
X0028272Y0205400D01*
X0025272Y0208400D01*
X0025272Y0216900D01*
X0020772Y0221400D01*
X0020772Y0257700D01*
X0028177Y0236110D02*
X0042561Y0236110D01*
X0054272Y0224400D01*
X0068925Y0224400D01*
X0072325Y0221000D01*
X0078472Y0221000D01*
X0081474Y0217997D01*
X0081474Y0193890D01*
X0079272Y0189400D02*
X0079272Y0217700D01*
X0078172Y0218800D01*
X0072325Y0218800D01*
X0068925Y0215400D01*
X0064425Y0219900D01*
X0048772Y0219900D01*
X0036892Y0231780D01*
X0028177Y0231780D01*
X0028177Y0227449D02*
X0027272Y0226543D01*
X0027272Y0209400D01*
X0029272Y0207400D01*
X0045072Y0207400D01*
X0054222Y0198250D01*
X0061718Y0205746D01*
X0068272Y0205746D01*
X0067618Y0206400D01*
X0068272Y0205746D02*
X0068925Y0206400D01*
X0075618Y0206400D02*
X0075618Y0207400D01*
X0075618Y0198498D02*
X0075717Y0198400D01*
X0079272Y0189400D02*
X0080272Y0188400D01*
X0080272Y0185400D01*
X0078919Y0184048D01*
X0074781Y0184048D01*
X0074781Y0187197D02*
X0069574Y0187197D01*
X0063972Y0192800D01*
X0059672Y0192800D01*
X0054222Y0198250D01*
X0055272Y0194900D02*
X0055272Y0158851D01*
X0049821Y0158851D01*
X0047272Y0161400D01*
X0055272Y0158851D02*
X0074781Y0158851D01*
X0074781Y0162000D02*
X0065671Y0162000D01*
X0061272Y0166400D01*
X0061272Y0176400D02*
X0062620Y0177748D01*
X0074781Y0177748D01*
X0074781Y0180898D02*
X0066774Y0180898D01*
X0061272Y0186400D01*
X0074781Y0168300D02*
X0084171Y0168300D01*
X0088172Y0172300D01*
X0088172Y0173000D01*
X0096772Y0186400D02*
X0097272Y0186900D01*
X0119663Y0174599D02*
X0134470Y0174599D01*
X0137272Y0177400D01*
X0137272Y0187100D01*
X0131504Y0198632D02*
X0130183Y0198632D01*
X0127116Y0197035D02*
X0126317Y0197035D01*
X0126317Y0196237D02*
X0127116Y0196237D01*
X0127116Y0195438D02*
X0126317Y0195438D01*
X0126317Y0194640D02*
X0127116Y0194640D01*
X0134272Y0171400D02*
X0119713Y0171400D01*
X0119663Y0171449D01*
X0119663Y0165150D02*
X0124522Y0165150D01*
X0130272Y0159400D01*
X0130272Y0138400D01*
X0133272Y0135400D01*
X0141272Y0135400D01*
X0143272Y0137400D01*
X0143272Y0141400D01*
X0144272Y0142400D01*
X0148272Y0142400D01*
X0149272Y0141400D01*
X0149272Y0138061D01*
X0149272Y0133900D01*
X0150772Y0132400D01*
X0156272Y0133100D02*
X0158272Y0135100D01*
X0164017Y0135100D01*
X0167717Y0131400D01*
X0173925Y0131400D01*
X0180618Y0131400D02*
X0192272Y0131400D01*
X0192272Y0141400D02*
X0180618Y0141400D01*
X0173925Y0141400D02*
X0167717Y0141400D01*
X0167717Y0140845D01*
X0164933Y0138061D01*
X0153209Y0138061D01*
X0151240Y0138061D02*
X0151240Y0141369D01*
X0152272Y0142400D01*
X0154272Y0142400D01*
X0156272Y0144400D01*
X0156272Y0152900D01*
X0158272Y0154900D01*
X0164217Y0154900D01*
X0167717Y0151400D01*
X0173925Y0151400D01*
X0173925Y0161400D01*
X0180618Y0151400D02*
X0180618Y0149746D01*
X0193531Y0161676D02*
X0187272Y0167935D01*
X0187272Y0177400D01*
X0188272Y0178400D01*
X0194272Y0178400D01*
X0197272Y0181400D01*
X0197272Y0183054D01*
X0196925Y0183400D01*
X0198303Y0184778D01*
X0198303Y0194136D01*
X0195272Y0194136D02*
X0195272Y0191400D01*
X0194272Y0190400D01*
X0194272Y0189800D01*
X0195240Y0194136D02*
X0195272Y0194136D01*
X0193272Y0198664D02*
X0200272Y0198664D01*
X0200272Y0200654D01*
X0198272Y0202654D01*
X0198272Y0207054D01*
X0198272Y0213746D02*
X0190272Y0213746D01*
X0185272Y0213804D02*
X0149842Y0213804D01*
X0149842Y0213005D02*
X0185272Y0213005D01*
X0185272Y0212207D02*
X0149842Y0212207D01*
X0149842Y0211408D02*
X0185272Y0211408D01*
X0185272Y0210610D02*
X0149842Y0210610D01*
X0149842Y0214603D02*
X0185272Y0214603D01*
X0185272Y0215401D02*
X0149842Y0215401D01*
X0149842Y0216200D02*
X0185272Y0216200D01*
X0185272Y0216998D02*
X0149842Y0216998D01*
X0149842Y0217797D02*
X0185272Y0217797D01*
X0185077Y0218595D02*
X0170398Y0218595D01*
X0170312Y0218545D02*
X0170631Y0218730D01*
X0170892Y0218990D01*
X0171076Y0219310D01*
X0171172Y0219666D01*
X0171172Y0223400D01*
X0162672Y0223400D01*
X0162672Y0224200D01*
X0171172Y0224200D01*
X0171172Y0227934D01*
X0171076Y0228290D01*
X0170892Y0228610D01*
X0170631Y0228870D01*
X0170312Y0229055D01*
X0169956Y0229150D01*
X0162672Y0229150D01*
X0162672Y0224200D01*
X0161872Y0224200D01*
X0161872Y0229150D01*
X0154587Y0229150D01*
X0154231Y0229055D01*
X0153912Y0228870D01*
X0153651Y0228610D01*
X0153467Y0228290D01*
X0153372Y0227934D01*
X0153372Y0224200D01*
X0161872Y0224200D01*
X0161872Y0223400D01*
X0162672Y0223400D01*
X0162672Y0218450D01*
X0169956Y0218450D01*
X0170312Y0218545D01*
X0171099Y0219394D02*
X0184278Y0219394D01*
X0180480Y0220192D02*
X0171172Y0220192D01*
X0171172Y0220991D02*
X0179681Y0220991D01*
X0178883Y0221789D02*
X0171172Y0221789D01*
X0171172Y0222588D02*
X0178084Y0222588D01*
X0177286Y0223386D02*
X0171172Y0223386D01*
X0171172Y0224983D02*
X0177272Y0224983D01*
X0177272Y0224185D02*
X0162672Y0224185D01*
X0162672Y0224983D02*
X0161872Y0224983D01*
X0161872Y0224185D02*
X0149272Y0224185D01*
X0149272Y0224983D02*
X0153372Y0224983D01*
X0153372Y0225782D02*
X0149272Y0225782D01*
X0149272Y0226580D02*
X0153372Y0226580D01*
X0153372Y0227379D02*
X0149283Y0227379D01*
X0149283Y0228177D02*
X0153437Y0228177D01*
X0154095Y0228976D02*
X0149283Y0228976D01*
X0149322Y0229774D02*
X0177646Y0229774D01*
X0177272Y0228976D02*
X0170449Y0228976D01*
X0171107Y0228177D02*
X0177272Y0228177D01*
X0177272Y0227379D02*
X0171172Y0227379D01*
X0171172Y0226580D02*
X0177272Y0226580D01*
X0177272Y0225782D02*
X0171172Y0225782D01*
X0162672Y0225782D02*
X0161872Y0225782D01*
X0161872Y0226580D02*
X0162672Y0226580D01*
X0162672Y0227379D02*
X0161872Y0227379D01*
X0161872Y0228177D02*
X0162672Y0228177D01*
X0162672Y0228976D02*
X0161872Y0228976D01*
X0161872Y0223400D02*
X0153372Y0223400D01*
X0153372Y0219666D01*
X0153467Y0219310D01*
X0153651Y0218990D01*
X0153912Y0218730D01*
X0154231Y0218545D01*
X0154587Y0218450D01*
X0161872Y0218450D01*
X0161872Y0223400D01*
X0161872Y0223386D02*
X0162672Y0223386D01*
X0162672Y0222588D02*
X0161872Y0222588D01*
X0161872Y0221789D02*
X0162672Y0221789D01*
X0162672Y0220991D02*
X0161872Y0220991D01*
X0161872Y0220192D02*
X0162672Y0220192D01*
X0162672Y0219394D02*
X0161872Y0219394D01*
X0161872Y0218595D02*
X0162672Y0218595D01*
X0154145Y0218595D02*
X0149842Y0218595D01*
X0149842Y0219394D02*
X0153445Y0219394D01*
X0153372Y0220192D02*
X0149842Y0220192D01*
X0149473Y0220991D02*
X0153372Y0220991D01*
X0153372Y0221789D02*
X0149272Y0221789D01*
X0149272Y0222588D02*
X0153372Y0222588D01*
X0153372Y0223386D02*
X0149272Y0223386D01*
X0147322Y0229700D02*
X0146017Y0229700D01*
X0147322Y0229700D02*
X0147522Y0229900D01*
X0149322Y0230573D02*
X0178444Y0230573D01*
X0179243Y0231371D02*
X0149322Y0231371D01*
X0149322Y0232170D02*
X0180041Y0232170D01*
X0180840Y0232968D02*
X0149322Y0232968D01*
X0149322Y0233767D02*
X0185638Y0233767D01*
X0186272Y0234565D02*
X0159272Y0234565D01*
X0159472Y0235364D02*
X0186272Y0235364D01*
X0186272Y0236162D02*
X0159472Y0236162D01*
X0159472Y0236961D02*
X0186272Y0236961D01*
X0186272Y0237759D02*
X0159472Y0237759D01*
X0159472Y0238558D02*
X0186272Y0238558D01*
X0186272Y0239356D02*
X0159472Y0239356D01*
X0159472Y0240155D02*
X0186272Y0240155D01*
X0186272Y0240953D02*
X0159272Y0240953D01*
X0159272Y0241752D02*
X0186272Y0241752D01*
X0186272Y0242550D02*
X0157384Y0242550D01*
X0156272Y0241400D02*
X0157522Y0240150D01*
X0157522Y0237850D01*
X0156272Y0241400D02*
X0153672Y0241400D01*
X0152172Y0242900D01*
X0152172Y0252500D01*
X0154572Y0254900D01*
X0158572Y0254900D01*
X0159672Y0256000D01*
X0159672Y0259800D01*
X0162272Y0262400D01*
X0169925Y0262400D01*
X0175925Y0256400D01*
X0172757Y0256125D02*
X0161272Y0256125D01*
X0161261Y0255327D02*
X0172757Y0255327D01*
X0172757Y0254528D02*
X0160462Y0254528D01*
X0159664Y0253730D02*
X0172765Y0253730D01*
X0173272Y0252931D02*
X0154865Y0252931D01*
X0154067Y0252133D02*
X0173272Y0252133D01*
X0172784Y0251334D02*
X0153772Y0251334D01*
X0153772Y0250536D02*
X0172557Y0250536D01*
X0172557Y0249737D02*
X0153772Y0249737D01*
X0153772Y0248939D02*
X0172557Y0248939D01*
X0173272Y0248140D02*
X0153772Y0248140D01*
X0153772Y0247341D02*
X0172557Y0247341D01*
X0172557Y0246543D02*
X0153772Y0246543D01*
X0153772Y0245744D02*
X0172639Y0245744D01*
X0173389Y0244946D02*
X0153772Y0244946D01*
X0153772Y0244147D02*
X0185524Y0244147D01*
X0186272Y0243349D02*
X0153985Y0243349D01*
X0147522Y0237850D02*
X0147272Y0237600D01*
X0142522Y0237850D02*
X0142522Y0225450D01*
X0140472Y0223400D01*
X0139827Y0230217D02*
X0140022Y0230412D01*
X0135022Y0237850D02*
X0135022Y0241650D01*
X0132272Y0244400D01*
X0128772Y0247900D02*
X0133272Y0252400D01*
X0133272Y0257200D01*
X0135022Y0258950D01*
X0137522Y0258950D02*
X0137522Y0250650D01*
X0137272Y0250400D01*
X0131472Y0253600D02*
X0131472Y0272400D01*
X0134372Y0275300D01*
X0134372Y0280194D01*
X0134327Y0280239D01*
X0165626Y0280239D01*
X0175169Y0280239D01*
X0175272Y0280136D01*
X0173303Y0284369D02*
X0173303Y0284664D01*
X0173303Y0287400D01*
X0173303Y0290778D02*
X0173925Y0291400D01*
X0177240Y0288022D02*
X0177240Y0284664D01*
X0177240Y0284431D01*
X0177240Y0288022D02*
X0180618Y0291400D01*
X0180717Y0291498D01*
X0180717Y0299400D01*
X0173827Y0299400D02*
X0171327Y0301900D01*
X0130372Y0301900D01*
X0129472Y0301000D01*
X0129472Y0254300D01*
X0126672Y0251500D01*
X0123272Y0251500D01*
X0122272Y0247400D02*
X0121272Y0246400D01*
X0121272Y0238400D01*
X0120272Y0237400D01*
X0094272Y0237400D01*
X0092272Y0235400D01*
X0092272Y0229400D01*
X0087272Y0228400D02*
X0087272Y0234447D01*
X0087272Y0240353D02*
X0087272Y0246054D01*
X0097272Y0246054D02*
X0097272Y0240353D01*
X0097272Y0234447D02*
X0097272Y0232400D01*
X0099772Y0229900D01*
X0099772Y0229400D01*
X0096272Y0222400D02*
X0093272Y0222400D01*
X0087272Y0228400D01*
X0075618Y0224400D02*
X0075272Y0224746D01*
X0068925Y0224400D02*
X0068925Y0225746D01*
X0075618Y0233400D02*
X0075618Y0233746D01*
X0076272Y0266400D02*
X0087272Y0266400D01*
X0088972Y0274700D02*
X0076818Y0274700D01*
X0088972Y0274700D02*
X0097272Y0266400D01*
X0107272Y0246054D02*
X0107272Y0240353D01*
X0107272Y0234447D02*
X0107272Y0229400D01*
X0115272Y0219246D02*
X0115277Y0219242D01*
X0115284Y0219239D01*
X0115291Y0219238D01*
X0117272Y0229400D02*
X0117272Y0234447D01*
X0117272Y0240353D02*
X0117272Y0246054D01*
X0122272Y0247400D02*
X0125272Y0247400D01*
X0131472Y0253600D01*
X0128772Y0247900D02*
X0128772Y0238900D01*
X0126272Y0236400D01*
X0126272Y0233746D01*
X0137522Y0258950D02*
X0140022Y0258950D01*
X0142522Y0258950D02*
X0142522Y0262150D01*
X0141772Y0262900D01*
X0140772Y0262900D01*
X0140272Y0263400D01*
X0140272Y0274100D01*
X0142472Y0276300D01*
X0153272Y0276300D01*
X0153272Y0269400D01*
X0170925Y0269400D01*
X0175925Y0264400D01*
X0179272Y0268400D02*
X0179272Y0253900D01*
X0180772Y0252400D01*
X0188319Y0252400D01*
X0187283Y0249467D02*
X0190865Y0249467D01*
X0193797Y0252400D01*
X0194224Y0252400D01*
X0193272Y0252400D01*
X0193925Y0247054D02*
X0193925Y0246400D01*
X0193744Y0246219D01*
X0187283Y0249467D02*
X0186216Y0248400D01*
X0182618Y0248400D01*
X0182618Y0256400D02*
X0184618Y0258400D01*
X0188319Y0258400D01*
X0188319Y0264400D02*
X0182618Y0264400D01*
X0179272Y0268400D02*
X0181972Y0271100D01*
X0182717Y0276400D02*
X0184272Y0277955D01*
X0194827Y0267400D01*
X0198172Y0267400D01*
X0200172Y0265400D01*
X0200172Y0253500D01*
X0204872Y0248800D01*
X0210825Y0248800D01*
X0211374Y0248250D01*
X0211374Y0251400D02*
X0204772Y0251400D01*
X0201772Y0254400D01*
X0201772Y0267400D01*
X0197772Y0271400D01*
X0197772Y0271455D01*
X0197717Y0271400D01*
X0193272Y0271400D01*
X0191272Y0273400D01*
X0191272Y0277955D01*
X0182717Y0276400D02*
X0160925Y0276400D01*
X0157272Y0272746D01*
X0157272Y0266054D02*
X0156925Y0266054D01*
X0155272Y0264400D01*
X0155272Y0259200D01*
X0155022Y0258950D01*
X0157522Y0258950D02*
X0157522Y0261650D01*
X0158272Y0262400D01*
X0159618Y0262400D01*
X0162618Y0265400D01*
X0163272Y0265400D01*
X0163925Y0266054D01*
X0165272Y0266054D01*
X0162252Y0260118D02*
X0169945Y0260118D01*
X0170743Y0259319D02*
X0161454Y0259319D01*
X0161272Y0258521D02*
X0171542Y0258521D01*
X0172340Y0257722D02*
X0161272Y0257722D01*
X0161272Y0256924D02*
X0172757Y0256924D01*
X0175872Y0271100D02*
X0175872Y0271300D01*
X0174425Y0272746D01*
X0165272Y0272746D01*
X0147522Y0253650D02*
X0147272Y0253400D01*
X0146272Y0253400D01*
X0134772Y0297400D02*
X0134327Y0297845D01*
X0134327Y0297955D01*
X0200618Y0246400D02*
X0200717Y0246302D01*
X0200717Y0246400D02*
X0200618Y0246400D01*
X0200717Y0246400D02*
X0202016Y0245101D01*
X0214272Y0229400D02*
X0221272Y0229400D01*
X0221272Y0229145D01*
X0226850Y0206151D02*
X0212190Y0206151D01*
X0212190Y0200903D01*
X0226850Y0200903D01*
X0226850Y0206151D01*
X0226850Y0205819D02*
X0212190Y0205819D01*
X0212190Y0205020D02*
X0226850Y0205020D01*
X0226850Y0204222D02*
X0212190Y0204222D01*
X0212190Y0203423D02*
X0226850Y0203423D01*
X0226850Y0202625D02*
X0212190Y0202625D01*
X0212190Y0201826D02*
X0226850Y0201826D01*
X0226850Y0201028D02*
X0212190Y0201028D01*
X0208008Y0198664D02*
X0210894Y0195778D01*
X0210894Y0190983D01*
X0208008Y0198664D02*
X0200272Y0198664D01*
X0202240Y0194136D02*
X0202240Y0189831D01*
X0202272Y0189800D01*
X0191303Y0194136D02*
X0190272Y0194136D01*
X0190618Y0193790D01*
X0190618Y0183400D01*
X0190303Y0183715D01*
X0187372Y0188400D02*
X0185372Y0188400D01*
X0183372Y0190400D01*
X0183372Y0197300D01*
X0190272Y0204200D01*
X0190272Y0207054D01*
X0190272Y0194136D02*
X0187353Y0194136D01*
X0186817Y0193600D01*
X0187372Y0188400D02*
X0185272Y0188400D01*
X0183272Y0186400D01*
X0183372Y0186300D01*
X0183372Y0183400D01*
X0183925Y0183400D01*
X0183925Y0173400D01*
X0179727Y0193400D02*
X0179927Y0193600D01*
X0220023Y0162648D02*
X0220023Y0162567D01*
X0192272Y0121400D02*
X0180618Y0121400D01*
X0173925Y0121400D02*
X0167717Y0121400D01*
X0162717Y0116400D01*
X0152272Y0116400D01*
X0151240Y0117431D01*
X0151240Y0120739D01*
X0153209Y0120739D02*
X0154610Y0120739D01*
X0156272Y0122400D01*
X0156272Y0133100D01*
X0159772Y0131400D02*
X0160827Y0131400D01*
X0160772Y0131345D01*
X0159772Y0131400D02*
X0159772Y0126400D01*
X0159772Y0121400D01*
X0160827Y0121400D01*
X0160772Y0121455D01*
X0158272Y0114800D02*
X0157472Y0114000D01*
X0157472Y0110400D01*
X0156272Y0109200D01*
X0153072Y0109200D01*
X0151272Y0107400D01*
X0151272Y0104093D01*
X0151240Y0104061D01*
X0149272Y0104061D02*
X0149272Y0100400D01*
X0151272Y0098400D01*
X0155272Y0098400D02*
X0156272Y0097400D01*
X0165272Y0097400D01*
X0167717Y0099845D01*
X0167717Y0101400D01*
X0173925Y0101400D01*
X0180618Y0101400D02*
X0192272Y0101400D01*
X0192272Y0091400D02*
X0180618Y0091400D01*
X0173925Y0091400D02*
X0167717Y0091400D01*
X0167717Y0091955D01*
X0164272Y0095400D01*
X0158272Y0095400D01*
X0155272Y0092400D01*
X0155272Y0088400D01*
X0153673Y0086802D01*
X0153272Y0086802D01*
X0153209Y0086739D01*
X0151272Y0086707D02*
X0151272Y0083400D01*
X0152272Y0082400D01*
X0156272Y0082400D01*
X0157272Y0081400D01*
X0157272Y0078400D01*
X0158272Y0077400D01*
X0164272Y0077400D01*
X0167717Y0080845D01*
X0167717Y0081400D01*
X0173925Y0081400D01*
X0180618Y0081400D02*
X0192272Y0081400D01*
X0192272Y0111400D02*
X0180618Y0111400D01*
X0173925Y0111400D02*
X0167717Y0111400D01*
X0167272Y0111400D01*
X0163872Y0114800D01*
X0158272Y0114800D01*
X0160827Y0111400D02*
X0159772Y0110345D01*
X0159772Y0106400D01*
X0159772Y0102455D01*
X0160827Y0101400D01*
X0155272Y0101998D02*
X0155272Y0098400D01*
X0155272Y0101998D02*
X0153209Y0104061D01*
X0153272Y0103998D01*
X0148717Y0111400D02*
X0149272Y0111955D01*
X0154217Y0112900D02*
X0154272Y0112900D01*
X0147303Y0104061D02*
X0147303Y0096369D01*
X0151272Y0092400D01*
X0151240Y0086739D02*
X0151272Y0086707D01*
X0145335Y0086739D02*
X0142933Y0086739D01*
X0135272Y0094400D01*
X0135272Y0121400D01*
X0122272Y0134400D01*
X0122272Y0144400D01*
X0117663Y0149008D01*
X0112970Y0149008D01*
X0109821Y0149008D02*
X0109821Y0144851D01*
X0111272Y0143400D01*
X0111272Y0130400D01*
X0108272Y0127400D01*
X0067272Y0127400D01*
X0062272Y0122400D01*
X0062272Y0086400D01*
X0050272Y0074400D01*
X0026272Y0074400D01*
X0022272Y0070400D01*
X0022272Y0046400D01*
X0027272Y0041400D01*
X0016572Y0026400D02*
X0027772Y0015200D01*
X0038772Y0015200D01*
X0043972Y0010400D02*
X0029972Y0010400D01*
X0014972Y0025400D01*
X0014972Y0118100D01*
X0023272Y0126400D01*
X0042272Y0126400D01*
X0047272Y0131400D01*
X0059272Y0143400D01*
X0083272Y0143400D01*
X0084624Y0144752D01*
X0084624Y0149008D01*
X0081474Y0149008D02*
X0080866Y0148400D01*
X0054272Y0148400D01*
X0047272Y0141400D01*
X0042272Y0136400D01*
X0022272Y0136400D01*
X0013372Y0127500D01*
X0013372Y0024400D01*
X0029372Y0008400D01*
X0131972Y0008400D01*
X0138772Y0015200D01*
X0138772Y0025200D02*
X0122572Y0041400D01*
X0122272Y0041400D01*
X0112572Y0041400D02*
X0112272Y0041400D01*
X0112572Y0041400D02*
X0128772Y0025200D01*
X0118772Y0025200D02*
X0102572Y0041400D01*
X0102272Y0041400D01*
X0092272Y0041400D02*
X0087272Y0036400D01*
X0077272Y0036400D01*
X0068772Y0027900D01*
X0068772Y0025200D01*
X0065472Y0021000D02*
X0063772Y0022700D01*
X0063772Y0039900D01*
X0062272Y0041400D01*
X0060272Y0046400D02*
X0067272Y0046400D01*
X0072272Y0041400D01*
X0060272Y0046400D02*
X0057272Y0043400D01*
X0057272Y0033700D01*
X0048772Y0025200D01*
X0044572Y0023100D02*
X0046672Y0021000D01*
X0053672Y0021000D01*
X0055272Y0019400D01*
X0094772Y0019400D01*
X0098772Y0015400D01*
X0098772Y0015200D01*
X0112972Y0021000D02*
X0118772Y0015200D01*
X0112972Y0021000D02*
X0065472Y0021000D01*
X0074472Y0010900D02*
X0054772Y0010900D01*
X0053772Y0011900D01*
X0053772Y0017900D01*
X0052272Y0019400D01*
X0045772Y0019400D01*
X0042972Y0022200D01*
X0042972Y0041400D01*
X0042272Y0041400D01*
X0044572Y0033700D02*
X0044572Y0023100D01*
X0048772Y0015200D02*
X0043972Y0010400D01*
X0028772Y0006400D02*
X0011772Y0023400D01*
X0011772Y0135900D01*
X0022272Y0146400D01*
X0042272Y0146400D01*
X0047272Y0151400D01*
X0070480Y0151400D01*
X0074781Y0155701D01*
X0087774Y0149008D02*
X0087774Y0144902D01*
X0084272Y0141400D01*
X0066272Y0141400D01*
X0047272Y0122400D01*
X0047272Y0121400D01*
X0042272Y0116400D01*
X0023272Y0116400D01*
X0016572Y0109700D01*
X0016572Y0026400D01*
X0011772Y0023400D02*
X0011772Y0135900D01*
X0047272Y0111400D02*
X0054272Y0118400D01*
X0054272Y0126400D01*
X0067272Y0139400D01*
X0085272Y0139400D01*
X0090923Y0145052D01*
X0090923Y0149008D01*
X0094073Y0149008D02*
X0094073Y0145901D01*
X0085872Y0137700D01*
X0068572Y0137700D01*
X0056272Y0125400D01*
X0056272Y0110400D01*
X0047272Y0101400D01*
X0047272Y0091400D02*
X0058272Y0102400D01*
X0058272Y0124400D01*
X0065272Y0131400D01*
X0106272Y0131400D01*
X0107272Y0132400D01*
X0107272Y0141400D01*
X0103272Y0145400D01*
X0103272Y0148758D01*
X0103522Y0149008D01*
X0106671Y0149008D02*
X0106671Y0145000D01*
X0109272Y0142400D01*
X0109272Y0131400D01*
X0107272Y0129400D01*
X0066272Y0129400D01*
X0060272Y0123400D01*
X0060272Y0094400D01*
X0047272Y0081400D01*
X0052272Y0041400D02*
X0044572Y0033700D01*
X0028772Y0006400D02*
X0149972Y0006400D01*
X0158772Y0015200D01*
X0158772Y0025200D02*
X0152272Y0031700D01*
X0152272Y0041400D01*
X0162272Y0041400D02*
X0162272Y0031700D01*
X0168772Y0025200D01*
X0172272Y0031700D02*
X0172272Y0041400D01*
X0177272Y0044400D02*
X0177272Y0037900D01*
X0183772Y0031400D01*
X0183772Y0020200D01*
X0188772Y0015200D01*
X0193772Y0020200D02*
X0193772Y0029900D01*
X0198272Y0034400D01*
X0205272Y0034400D01*
X0212272Y0041400D01*
X0202272Y0041400D02*
X0192272Y0041400D01*
X0187272Y0046400D01*
X0179272Y0046400D01*
X0177272Y0044400D01*
X0182272Y0041400D02*
X0188772Y0034900D01*
X0188772Y0025200D01*
X0193772Y0020200D02*
X0198772Y0015200D01*
X0178772Y0025200D02*
X0172272Y0031700D01*
X0148772Y0025200D02*
X0132572Y0041400D01*
X0132272Y0041400D01*
X0148717Y0078400D02*
X0148717Y0079845D01*
X0149272Y0080400D01*
X0149272Y0078955D02*
X0148717Y0078400D01*
X0159772Y0082455D02*
X0159772Y0086400D01*
X0159772Y0090345D01*
X0160827Y0091400D01*
X0159772Y0082455D02*
X0160827Y0081400D01*
X0144072Y0098400D02*
X0145335Y0099663D01*
X0145335Y0104061D01*
X0141827Y0111400D02*
X0141827Y0111455D01*
X0142272Y0111900D01*
X0142217Y0111955D01*
X0141827Y0111955D01*
X0138933Y0120739D02*
X0124272Y0135400D01*
X0124272Y0154400D01*
X0122970Y0155701D01*
X0119663Y0155701D01*
X0119663Y0158851D02*
X0124821Y0158851D01*
X0126272Y0157400D01*
X0126272Y0136400D01*
X0131272Y0131400D01*
X0139272Y0131400D01*
X0144272Y0126400D01*
X0147272Y0126400D01*
X0147303Y0126400D01*
X0147303Y0138061D01*
X0145335Y0138061D02*
X0145335Y0133663D01*
X0144072Y0132400D01*
X0143072Y0133400D01*
X0132272Y0133400D01*
X0128272Y0137400D01*
X0128272Y0158400D01*
X0124671Y0162000D01*
X0119663Y0162000D01*
X0134272Y0171400D02*
X0137272Y0168400D01*
X0137272Y0149700D01*
X0147303Y0126400D02*
X0151272Y0126400D01*
X0145335Y0120739D02*
X0138933Y0120739D01*
X0078772Y0015200D02*
X0074472Y0010900D01*
X0050618Y0267134D02*
X0042838Y0267134D01*
X0042772Y0267200D01*
X0063925Y0288900D02*
X0063925Y0296900D01*
D42*
X0148272Y0199000D02*
X0147172Y0197900D01*
X0148272Y0199000D02*
X0153372Y0199000D01*
X0153335Y0198963D02*
X0153335Y0186400D01*
X0153335Y0177400D01*
X0161209Y0177400D02*
X0161209Y0186400D01*
X0161272Y0186400D02*
X0161272Y0191463D01*
X0162372Y0192563D02*
X0162372Y0199000D01*
X0202272Y0141400D02*
X0202272Y0131400D01*
X0202272Y0121400D01*
X0202272Y0111400D01*
X0202272Y0101400D01*
X0202272Y0091400D01*
X0202272Y0081400D01*
X0223272Y0069400D02*
X0146272Y0069400D01*
X0142272Y0065400D01*
X0142272Y0056400D01*
X0137272Y0051400D01*
X0132272Y0051400D02*
X0122272Y0051400D01*
X0112272Y0051400D01*
X0102272Y0051400D01*
X0092272Y0051400D01*
X0082272Y0051400D01*
X0072272Y0051400D01*
X0062272Y0051400D01*
X0052272Y0051400D01*
X0042272Y0051400D01*
X0037272Y0081400D02*
X0037272Y0091400D01*
X0037272Y0101400D01*
X0037272Y0111400D01*
X0037272Y0151400D02*
X0037272Y0161400D01*
X0037272Y0171400D01*
X0037272Y0181400D01*
X0037272Y0191400D01*
X0027272Y0191400D02*
X0027272Y0181400D01*
X0027272Y0171400D01*
X0027272Y0161400D01*
X0027272Y0151400D01*
X0058772Y0015200D02*
X0068772Y0015200D01*
X0152272Y0051400D02*
X0162272Y0051400D01*
X0172272Y0051400D01*
X0182272Y0051400D01*
X0202272Y0051400D01*
X0212272Y0051400D01*
X0224272Y0068400D02*
X0224272Y0158318D01*
X0220023Y0162567D01*
X0224272Y0068400D02*
X0224272Y0032400D01*
X0213272Y0021400D01*
D43*
X0213272Y0029400D02*
X0219272Y0035400D01*
X0219272Y0044400D01*
X0212272Y0051400D01*
X0213272Y0029400D02*
X0203272Y0029400D01*
X0199072Y0025200D01*
X0198772Y0025200D01*
X0202572Y0021400D01*
X0211272Y0156400D02*
X0207272Y0160400D01*
X0207272Y0160955D02*
X0201732Y0160955D01*
X0211272Y0156400D02*
X0213272Y0156400D01*
X0209172Y0207300D02*
X0203872Y0207300D01*
X0209172Y0207300D02*
X0210894Y0209022D01*
X0162372Y0192563D02*
X0161272Y0191463D01*
X0161209Y0186400D02*
X0161272Y0186400D01*
X0161272Y0177337D02*
X0161272Y0166400D01*
X0143772Y0266900D02*
X0143772Y0270800D01*
X0145717Y0272745D01*
X0149172Y0272745D01*
X0075618Y0251400D02*
X0075618Y0246946D01*
X0075572Y0246900D01*
X0075618Y0246854D01*
X0075618Y0242400D01*
X0075518Y0246846D02*
X0075572Y0246900D01*
X0075618Y0233400D02*
X0075618Y0228800D01*
X0075618Y0224400D01*
X0075618Y0215400D02*
X0075618Y0210900D01*
X0075618Y0207400D01*
X0075618Y0206400D02*
X0075618Y0198498D01*
X0075717Y0198400D02*
X0075717Y0194845D01*
X0073272Y0192400D01*
X0068827Y0198400D02*
X0062272Y0198400D01*
X0050618Y0213000D02*
X0050218Y0213400D01*
X0031272Y0213400D01*
X0017272Y0212429D02*
X0017272Y0206400D01*
X0017941Y0267134D02*
X0050618Y0267134D01*
D44*
X0042772Y0267200D03*
X0044272Y0278000D03*
X0050872Y0278100D03*
X0062272Y0266400D03*
X0062272Y0246900D03*
X0062272Y0228800D03*
X0062272Y0213700D03*
X0073272Y0192400D03*
X0082272Y0181400D03*
X0082372Y0173100D03*
X0088172Y0173000D03*
X0096772Y0186400D03*
X0105272Y0186400D03*
X0104272Y0179400D03*
X0111772Y0186400D03*
X0119972Y0192200D03*
X0113072Y0207400D03*
X0096272Y0222400D03*
X0099772Y0229400D03*
X0107272Y0229400D03*
X0117272Y0229400D03*
X0128972Y0222400D03*
X0129972Y0215100D03*
X0136272Y0206900D03*
X0147172Y0197900D03*
X0145972Y0223400D03*
X0140472Y0223400D03*
X0148772Y0244200D03*
X0146272Y0253400D03*
X0137272Y0250400D03*
X0132272Y0244400D03*
X0125272Y0243400D03*
X0123272Y0251500D03*
X0123272Y0257800D03*
X0143772Y0266900D03*
X0175872Y0271100D03*
X0181972Y0271100D03*
X0197772Y0271400D03*
X0188866Y0246219D03*
X0184772Y0207400D03*
X0187372Y0188400D03*
X0194272Y0189800D03*
X0202272Y0189800D03*
X0214772Y0203483D03*
X0220023Y0214734D03*
X0225018Y0203400D03*
X0203872Y0207300D03*
X0220023Y0162567D03*
X0213272Y0156400D03*
X0168272Y0162400D03*
X0161272Y0166400D03*
X0160772Y0146400D03*
X0151272Y0147400D03*
X0150772Y0132400D03*
X0151272Y0126400D03*
X0159772Y0126400D03*
X0154272Y0112900D03*
X0159772Y0106400D03*
X0151272Y0098400D03*
X0151272Y0092400D03*
X0144072Y0098400D03*
X0139272Y0104400D03*
X0159772Y0086400D03*
X0153772Y0078400D03*
X0144072Y0132400D03*
X0111272Y0156400D03*
X0111272Y0166400D03*
X0095272Y0156400D03*
X0061272Y0166400D03*
X0061272Y0176400D03*
X0061272Y0186400D03*
X0043272Y0213400D03*
X0031272Y0213400D03*
X0017272Y0206400D03*
X0014672Y0199500D03*
X0014672Y0192100D03*
X0037272Y0240359D03*
X0037472Y0249100D03*
X0092272Y0229400D03*
D45*
X0075618Y0228800D02*
X0062272Y0228800D01*
X0062272Y0213700D02*
X0065072Y0210900D01*
X0075618Y0210900D01*
X0075618Y0206400D02*
X0075618Y0196746D01*
X0037272Y0240359D02*
X0037190Y0240441D01*
X0028177Y0240441D01*
X0028180Y0249100D02*
X0037472Y0249100D01*
X0062272Y0246900D02*
X0075572Y0246900D01*
X0117272Y0252746D02*
X0117272Y0256600D01*
X0118472Y0257800D01*
X0123272Y0257800D01*
X0128831Y0230400D02*
X0132772Y0230400D01*
X0153372Y0199000D02*
X0153335Y0198963D01*
X0168335Y0186400D02*
X0168335Y0177400D01*
X0168335Y0168400D01*
X0168272Y0168337D01*
X0168272Y0162400D01*
X0161272Y0166400D02*
X0151272Y0156400D01*
X0151272Y0147400D01*
X0161272Y0177337D02*
X0161209Y0177400D01*
X0176209Y0177400D02*
X0176209Y0168400D01*
X0176209Y0177400D02*
X0176209Y0186400D01*
X0180272Y0161400D02*
X0180618Y0161400D01*
X0181272Y0161400D01*
X0181272Y0160400D01*
X0180618Y0161400D02*
X0180618Y0158054D01*
X0182272Y0156400D01*
X0204272Y0156400D01*
X0209272Y0151400D01*
X0214272Y0151400D01*
X0219272Y0146400D01*
X0219272Y0077400D01*
X0215872Y0074000D01*
X0142872Y0074000D01*
X0137272Y0068400D01*
X0037772Y0068400D01*
X0034672Y0065300D01*
X0034672Y0056800D01*
X0032272Y0054400D01*
X0030272Y0054400D01*
X0027272Y0051400D01*
X0139272Y0095400D02*
X0141272Y0093400D01*
X0146272Y0093400D01*
X0139272Y0095400D02*
X0139272Y0104400D01*
X0139272Y0108845D01*
X0140772Y0110345D01*
X0207272Y0160400D02*
X0207272Y0160955D01*
X0207272Y0167845D02*
X0214827Y0167845D01*
X0220023Y0162648D01*
X0220023Y0214734D02*
X0221272Y0215982D01*
X0221272Y0222255D01*
X0211374Y0237030D02*
X0210642Y0237030D01*
X0208272Y0239400D01*
X0200717Y0239400D01*
X0193744Y0246219D02*
X0188866Y0246219D01*
X0188866Y0235723D01*
X0198182Y0226407D01*
X0198182Y0226317D01*
X0198182Y0218990D01*
X0198272Y0218900D01*
X0201772Y0218900D01*
X0205127Y0222255D01*
X0193910Y0246385D02*
X0193925Y0246400D01*
X0205272Y0257400D02*
X0205571Y0257699D01*
X0211374Y0257699D01*
X0165626Y0297955D02*
X0165071Y0297400D01*
X0149272Y0297400D01*
X0134772Y0297400D01*
D46*
X0147303Y0120739D02*
X0147303Y0116931D01*
X0146272Y0115900D01*
X0149272Y0111955D02*
X0149272Y0120739D01*
X0149272Y0086739D02*
X0149272Y0080400D01*
D47*
X0147272Y0082400D02*
X0147272Y0086707D01*
X0147303Y0086739D01*
X0147303Y0092369D01*
X0141827Y0078955D02*
X0141827Y0078400D01*
X0114272Y0154400D02*
X0099322Y0154400D01*
X0099322Y0155221D01*
X0098553Y0155990D01*
X0098553Y0157053D01*
X0098053Y0158259D01*
X0097130Y0159182D01*
X0095924Y0159681D01*
X0094619Y0159681D01*
X0093413Y0159182D01*
X0092490Y0158259D01*
X0091991Y0157053D01*
X0091991Y0155747D01*
X0092490Y0154541D01*
X0092631Y0154400D01*
X0080272Y0154400D01*
X0080272Y0166600D01*
X0084875Y0166600D01*
X0087995Y0169719D01*
X0088824Y0169719D01*
X0090030Y0170218D01*
X0090953Y0171141D01*
X0091453Y0172347D01*
X0091453Y0173653D01*
X0090953Y0174859D01*
X0090030Y0175782D01*
X0088824Y0176281D01*
X0087519Y0176281D01*
X0086313Y0175782D01*
X0085390Y0174859D01*
X0085292Y0174623D01*
X0085153Y0174959D01*
X0084230Y0175882D01*
X0083024Y0176381D01*
X0082260Y0176381D01*
X0081943Y0176699D01*
X0080272Y0176699D01*
X0080272Y0182996D01*
X0080976Y0183700D01*
X0081972Y0184696D01*
X0081972Y0188400D01*
X0094131Y0188400D01*
X0093990Y0188259D01*
X0093491Y0187053D01*
X0093491Y0185747D01*
X0093990Y0184541D01*
X0094913Y0183618D01*
X0096119Y0183119D01*
X0097424Y0183119D01*
X0098630Y0183618D01*
X0099553Y0184541D01*
X0100053Y0185747D01*
X0100053Y0187053D01*
X0099553Y0188259D01*
X0099412Y0188400D01*
X0102631Y0188400D01*
X0102490Y0188259D01*
X0101991Y0187053D01*
X0101991Y0185747D01*
X0102490Y0184541D01*
X0103413Y0183618D01*
X0104619Y0183119D01*
X0105149Y0183119D01*
X0106055Y0182213D01*
X0104924Y0182681D01*
X0103619Y0182681D01*
X0102413Y0182182D01*
X0101490Y0181259D01*
X0100991Y0180053D01*
X0100991Y0178747D01*
X0101490Y0177541D01*
X0102413Y0176618D01*
X0103619Y0176119D01*
X0104924Y0176119D01*
X0106130Y0176618D01*
X0107053Y0177541D01*
X0107119Y0177700D01*
X0113976Y0177700D01*
X0114272Y0177996D01*
X0114272Y0170400D01*
X0112301Y0170400D01*
X0111583Y0169681D01*
X0110619Y0169681D01*
X0109413Y0169182D01*
X0108490Y0168259D01*
X0107991Y0167053D01*
X0107991Y0165747D01*
X0108490Y0164541D01*
X0109413Y0163618D01*
X0110619Y0163119D01*
X0111924Y0163119D01*
X0113130Y0163618D01*
X0114053Y0164541D01*
X0114272Y0165069D01*
X0114272Y0154400D01*
X0114272Y0155171D02*
X0099322Y0155171D01*
X0098553Y0156169D02*
X0114272Y0156169D01*
X0114272Y0157168D02*
X0098505Y0157168D01*
X0098091Y0158166D02*
X0114272Y0158166D01*
X0114272Y0159165D02*
X0097147Y0159165D01*
X0093396Y0159165D02*
X0080272Y0159165D01*
X0080272Y0160163D02*
X0114272Y0160163D01*
X0114272Y0161162D02*
X0080272Y0161162D01*
X0080272Y0162160D02*
X0114272Y0162160D01*
X0114272Y0163159D02*
X0112021Y0163159D01*
X0110523Y0163159D02*
X0080272Y0163159D01*
X0080272Y0164157D02*
X0108874Y0164157D01*
X0108236Y0165156D02*
X0080272Y0165156D01*
X0080272Y0166154D02*
X0107991Y0166154D01*
X0108032Y0167153D02*
X0085429Y0167153D01*
X0086427Y0168151D02*
X0108446Y0168151D01*
X0109381Y0169150D02*
X0087426Y0169150D01*
X0089861Y0170148D02*
X0112050Y0170148D01*
X0114272Y0171147D02*
X0090955Y0171147D01*
X0091369Y0172145D02*
X0114272Y0172145D01*
X0114272Y0173144D02*
X0091453Y0173144D01*
X0091250Y0174142D02*
X0114272Y0174142D01*
X0114272Y0175141D02*
X0090671Y0175141D01*
X0089166Y0176139D02*
X0103569Y0176139D01*
X0104974Y0176139D02*
X0114272Y0176139D01*
X0114272Y0177138D02*
X0106650Y0177138D01*
X0101893Y0177138D02*
X0080272Y0177138D01*
X0080272Y0178137D02*
X0101244Y0178137D01*
X0100991Y0179135D02*
X0080272Y0179135D01*
X0080272Y0180134D02*
X0101024Y0180134D01*
X0101438Y0181132D02*
X0080272Y0181132D01*
X0080272Y0182131D02*
X0102362Y0182131D01*
X0102904Y0184128D02*
X0099139Y0184128D01*
X0099795Y0185126D02*
X0102248Y0185126D01*
X0101991Y0186125D02*
X0100053Y0186125D01*
X0100024Y0187123D02*
X0102020Y0187123D01*
X0102433Y0188122D02*
X0099610Y0188122D01*
X0097449Y0183129D02*
X0104594Y0183129D01*
X0096094Y0183129D02*
X0080405Y0183129D01*
X0081403Y0184128D02*
X0094404Y0184128D01*
X0093748Y0185126D02*
X0081972Y0185126D01*
X0081972Y0186125D02*
X0093491Y0186125D01*
X0093520Y0187123D02*
X0081972Y0187123D01*
X0081972Y0188122D02*
X0093933Y0188122D01*
X0087177Y0176139D02*
X0083608Y0176139D01*
X0084971Y0175141D02*
X0085672Y0175141D01*
X0080272Y0158166D02*
X0092452Y0158166D01*
X0092038Y0157168D02*
X0080272Y0157168D01*
X0080272Y0156169D02*
X0091991Y0156169D01*
X0092229Y0155171D02*
X0080272Y0155171D01*
X0113669Y0164157D02*
X0114272Y0164157D01*
D48*
X0136272Y0206900D02*
X0136272Y0214900D01*
X0134772Y0216400D01*
X0134772Y0224900D01*
X0132772Y0226900D01*
X0132772Y0230400D01*
X0162272Y0223800D02*
X0162272Y0199000D01*
X0171272Y0198400D02*
X0175772Y0198400D01*
X0176372Y0199000D01*
X0171372Y0199000D01*
X0176209Y0199000D01*
X0176209Y0193400D01*
X0176209Y0186726D01*
X0176372Y0186563D01*
X0176209Y0186400D01*
X0176372Y0199000D02*
X0184772Y0207400D01*
X0223272Y0069400D02*
X0224272Y0068400D01*
X0213272Y0021400D02*
X0202572Y0021400D01*
X0137272Y0051400D02*
X0132272Y0051400D01*
D49*
X0147303Y0092369D02*
X0146272Y0093400D01*
D50*
X0147272Y0082400D02*
X0145272Y0082400D01*
X0141827Y0078955D01*
X0119827Y0197800D02*
X0119827Y0203900D01*
X0122756Y0214120D02*
X0128992Y0214120D01*
X0129972Y0215100D01*
X0140022Y0230412D02*
X0140022Y0237850D01*
X0140022Y0242150D01*
X0147522Y0237850D02*
X0147522Y0229900D01*
X0147522Y0253650D02*
X0147522Y0258950D01*
X0147522Y0264205D01*
X0149172Y0265855D01*
X0150022Y0258950D02*
X0150022Y0255400D01*
X0152522Y0255400D01*
X0152522Y0258950D01*
X0173303Y0287400D02*
X0173303Y0290778D01*
D51*
X0186272Y0290400D03*
X0205272Y0257400D03*
X0149272Y0297400D03*
X0062272Y0198400D03*
D52*
X0145022Y0258950D02*
X0145022Y0263150D01*
M02*
