%
M48
M72
T01C0.02362
T02C0.03200
T03C0.04000
T04C0.05118
T05C0.06700
T06C0.12500
%
T01
X95272Y156400
X88172Y173000
X82372Y173100
X82272Y181400
X73272Y192400
X62272Y198400
X61272Y186400
X61272Y176400
X61272Y166400
X96772Y186400
X105272Y186400
X104272Y179400
X111772Y186400
X119972Y192200
X113072Y207400
X96272Y222400
X99772Y229400
X107272Y229400
X117272Y229400
X128972Y222400
X129972Y215100
X136272Y206900
X147172Y197900
X145972Y223400
X140472Y223400
X148772Y244200
X146272Y253400
X137272Y250400
X132272Y244400
X125272Y243400
X123272Y251500
X123272Y257800
X143772Y266900
X149272Y297400
X175872Y271100
X181972Y271100
X197772Y271400
X205272Y257400
X188866Y246219
X184772Y207400
X187372Y188400
X194272Y189800
X202272Y189800
X214772Y203483
X220023Y214734
X225018Y203400
X203872Y207300
X220023Y162567
X213272Y156400
X168272Y162400
X161272Y166400
X160772Y146400
X151272Y147400
X150772Y132400
X151272Y126400
X159772Y126400
X154272Y112900
X159772Y106400
X151272Y98400
X151272Y92400
X144072Y98400
X139272Y104400
X159772Y86400
X153772Y78400
X144072Y132400
X111272Y156400
X111272Y166400
X92272Y229400
X62272Y228800
X62272Y213700
X43272Y213400
X31272Y213400
X17272Y206400
X14672Y199500
X14672Y192100
X37272Y240359
X37472Y249100
X42772Y267200
X44272Y278000
X50872Y278100
X62272Y266400
X62272Y246900
X186272Y290400
T02
X117272Y296400
X107272Y296400
X97272Y296400
X87272Y296400
X87272Y266400
X97272Y266400
X107272Y266400
X117272Y266400
T03
X27272Y41400
X27272Y51400
X27272Y61400
X42272Y61400
X42272Y51400
X42272Y41400
X52272Y41400
X52272Y51400
X52272Y61400
X62272Y61400
X62272Y51400
X62272Y41400
X72272Y41400
X72272Y51400
X72272Y61400
X82272Y61400
X82272Y51400
X82272Y41400
X92272Y41400
X92272Y51400
X92272Y61400
X102272Y61400
X102272Y51400
X102272Y41400
X112272Y41400
X112272Y51400
X112272Y61400
X122272Y61400
X122272Y51400
X122272Y41400
X132272Y41400
X132272Y51400
X132272Y61400
X152272Y61400
X152272Y51400
X152272Y41400
X162272Y41400
X162272Y51400
X162272Y61400
X172272Y61400
X172272Y51400
X172272Y41400
X182272Y41400
X182272Y51400
X182272Y61400
X192272Y81400
X192272Y91400
X192272Y101400
X192272Y111400
X192272Y121400
X202272Y121400
X202272Y111400
X202272Y101400
X202272Y91400
X202272Y81400
X212272Y81400
X212272Y91400
X212272Y101400
X212272Y111400
X212272Y121400
X212272Y131400
X212272Y141400
X202272Y141400
X202272Y131400
X192272Y131400
X192272Y141400
X202272Y61400
X202272Y51400
X202272Y41400
X212272Y41400
X212272Y51400
X212272Y61400
X198772Y25200
X198772Y15200
X188772Y15200
X188772Y25200
X178772Y25200
X178772Y15200
X168772Y15200
X168772Y25200
X158772Y25200
X158772Y15200
X148772Y15200
X148772Y25200
X138772Y25200
X138772Y15200
X128772Y15200
X128772Y25200
X118772Y25200
X118772Y15200
X108772Y15200
X108772Y25200
X98772Y25200
X98772Y15200
X88772Y15200
X88772Y25200
X78772Y25200
X78772Y15200
X68772Y15200
X68772Y25200
X58772Y25200
X58772Y15200
X48772Y15200
X48772Y25200
X38772Y25200
X38772Y15200
X37272Y81400
X37272Y91400
X37272Y101400
X37272Y111400
X37272Y121400
X47272Y121400
X47272Y111400
X47272Y101400
X47272Y91400
X47272Y81400
X27272Y81400
X27272Y91400
X27272Y101400
X27272Y111400
X27272Y121400
X27272Y131400
X27272Y141400
X27272Y151400
X27272Y161400
X37272Y161400
X37272Y151400
X37272Y141400
X37272Y131400
X47272Y131400
X47272Y141400
X47272Y151400
X47272Y161400
X47272Y171400
X47272Y181400
X47272Y191400
X37272Y191400
X37272Y181400
X37272Y171400
X27272Y171400
X27272Y181400
X27272Y191400
T04
X211374Y237030
X222792Y237030
X222792Y265770
X211374Y265770
T05
X198182Y226317
X184360Y226400
T06
X216472Y292900
X21072Y292900
M30
